<svg width="32" height="32" viewBox="0 0 32 32" fill="none" xmlns="http://www.w3.org/2000/svg">
<rect x="0.5" y="0.5" width="31" height="31" rx="15.5" fill="#F48462" stroke="#F48462"/>
<g clip-path="url(#clip0_805_98)">
<path d="M23.0002 16.308C22.9554 16.1064 22.9554 15.9076 23.0002 15.706C23.0002 15.9076 23.0002 16.1092 23.0002 16.308Z" fill="#181717"/>
<path d="M23.0001 15.4624C22.9721 15.3056 22.9861 15.146 22.9637 14.9892C22.8657 14.2472 22.6361 13.5416 22.3057 12.8752C21.9193 12.0996 21.4041 11.4192 20.7629 10.8284C19.9817 10.1116 19.0857 9.5964 18.0749 9.2856C17.5737 9.1316 17.0641 9.0252 16.5349 9.0112C16.0981 9 15.6613 8.986 15.2273 9.0224C14.3985 9.0924 13.6117 9.3416 12.8697 9.7112C12.0941 10.0976 11.4137 10.6156 10.8257 11.2568C10.1005 12.0464 9.58812 12.9508 9.27732 13.97C9.12612 14.4628 9.02532 14.964 9.01412 15.4848C9.00012 15.9216 8.98612 16.3612 9.02532 16.7952C9.09532 17.6212 9.34452 18.3996 9.71132 19.1388C10.1481 20.0208 10.7501 20.7796 11.5089 21.4124C12.4693 22.2104 13.5641 22.7116 14.7877 22.9384C15.0033 22.9776 15.2217 22.9692 15.4345 23.0028C15.5269 23.0028 15.6165 23.0028 15.7089 23.0028C15.8993 22.9804 16.0925 22.9804 16.2829 23.0028C16.3641 23.0028 16.4481 23.0028 16.5293 23.0028C16.7001 22.9748 16.8709 22.9888 17.0417 22.9664C17.9433 22.8376 18.7861 22.5352 19.5729 22.076C20.0741 21.7848 20.5305 21.4292 20.9449 21.026C21.2697 20.7068 21.5581 20.3568 21.8157 19.9788C22.3813 19.1528 22.7453 18.2428 22.9329 17.26C22.9749 17.036 22.9665 16.8092 23.0001 16.5852C23.0001 16.4928 23.0001 16.4032 23.0001 16.3108C22.9777 16.1092 22.9777 15.9104 23.0001 15.7088C23.0001 15.6248 23.0001 15.5436 23.0001 15.4624ZM16.0057 21.9556C12.7241 21.9528 10.0557 19.2816 10.0585 16.0056C10.0641 12.7268 12.7353 10.0556 16.0085 10.0584C19.2901 10.0612 21.9585 12.7352 21.9557 16.0084C21.9529 19.29 19.2817 21.9612 16.0057 21.9556Z" fill="white"/>
<path d="M12.8332 15.678C13.0068 15.6696 13.1328 15.7564 13.2504 15.874C13.7432 16.3668 14.236 16.8568 14.726 17.3524C14.8044 17.4336 14.8436 17.4336 14.9248 17.3524C16.2044 16.0672 17.4896 14.782 18.7748 13.4996C18.9988 13.2756 19.2592 13.2392 19.4832 13.396C19.7296 13.5668 19.7828 13.9168 19.598 14.152C19.5644 14.194 19.5252 14.2332 19.486 14.2724C18.0804 15.678 16.6748 17.0836 15.2692 18.4892C14.9668 18.7916 14.6896 18.7944 14.3872 18.492C13.7572 17.862 13.1244 17.232 12.4972 16.5992C12.2116 16.3108 12.2704 15.8852 12.6148 15.7228C12.6792 15.6892 12.7548 15.6752 12.8332 15.678Z" fill="white"/>
</g>
<defs>
<clipPath id="clip0_805_98">
<rect width="14" height="14" fill="white" transform="translate(9 9)"/>
</clipPath>
</defs>
</svg>
