<svg width="5" height="21" viewBox="0 0 5 21" fill="none" xmlns="http://www.w3.org/2000/svg">
<path d="M2.1 4.2C3.2598 4.2 4.2 3.2598 4.2 2.1C4.2 0.940202 3.2598 0 2.1 0C0.940202 0 0 0.940202 0 2.1C0 3.2598 0.940202 4.2 2.1 4.2Z" fill="#2E4C6D"/>
<path d="M2.1 12.6C3.2598 12.6 4.2 11.6598 4.2 10.5C4.2 9.3402 3.2598 8.39999 2.1 8.39999C0.940202 8.39999 0 9.3402 0 10.5C0 11.6598 0.940202 12.6 2.1 12.6Z" fill="#2E4C6D"/>
<path d="M2.1 21C3.2598 21 4.2 20.0598 4.2 18.9C4.2 17.7402 3.2598 16.8 2.1 16.8C0.940202 16.8 0 17.7402 0 18.9C0 20.0598 0.940202 21 2.1 21Z" fill="#2E4C6D"/>
</svg>
