<svg width="5" height="21" viewBox="0 0 5 21" fill="none" xmlns="http://www.w3.org/2000/svg">
<path d="M2.1 4.2C3.2598 4.2 4.2 3.2598 4.2 2.1C4.2 0.940202 3.2598 0 2.1 0C0.940202 0 0 0.940202 0 2.1C0 3.2598 0.940202 4.2 2.1 4.2Z" fill="#2E4C6D"/>
<path d="M2.1 12.6004C3.2598 12.6004 4.2 11.6602 4.2 10.5004C4.2 9.34059 3.2598 8.40039 2.1 8.40039C0.940202 8.40039 0 9.34059 0 10.5004C0 11.6602 0.940202 12.6004 2.1 12.6004Z" fill="#2E4C6D"/>
<path d="M2.1 20.9998C3.2598 20.9998 4.2 20.0596 4.2 18.8998C4.2 17.74 3.2598 16.7998 2.1 16.7998C0.940202 16.7998 0 17.74 0 18.8998C0 20.0596 0.940202 20.9998 2.1 20.9998Z" fill="#2E4C6D"/>
</svg>
