<svg width="24" height="24" viewBox="0 0 24 24" fill="none" xmlns="http://www.w3.org/2000/svg">
<g clip-path="url(#clip0_523_340)">
<path d="M10.3742 23.9998C7.23323 23.9998 4.09155 23.9998 0.950535 23.9998C0.290923 23.9998 -0.0091442 23.6943 0.000212009 23.0341C0.0683786 18.3651 3.28691 14.2903 7.82935 13.1225C13.4845 11.6687 19.2807 15.2266 20.5478 20.9307C20.7055 21.6396 20.789 22.3579 20.7984 23.0841C20.8057 23.6763 20.489 23.9998 19.8975 23.9998C16.7231 24.0004 13.548 23.9998 10.3736 23.9998H10.3742Z" fill="white"/>
<path d="M15.9995 5.60004C15.9995 8.69382 13.4867 11.2027 10.3932 11.2001C7.30095 11.1967 4.79416 8.68182 4.79883 5.58804C4.80351 2.49625 7.321 -0.0073199 10.4172 1.60809e-05C13.4981 0.00735206 16.0002 2.51759 15.9995 5.60004Z" fill="white"/>
<path d="M17.919 10.4001C18.2685 10.4001 18.6194 10.3854 18.9682 10.4054C19.1767 10.4174 19.2075 10.34 19.2048 10.1566C19.1948 9.46571 19.1995 8.7748 19.2015 8.08321C19.2028 7.55702 19.5343 7.19623 20.0088 7.20023C20.4706 7.20423 20.7994 7.56503 20.8007 8.07454C20.8027 8.78213 20.8061 9.49039 20.7974 10.198C20.7954 10.358 20.8341 10.4061 20.9999 10.4041C21.7076 10.394 22.4153 10.3987 23.1237 10.4001C23.635 10.4014 23.9952 10.7275 24.0012 11.189C24.0072 11.6618 23.643 11.998 23.1197 11.9993C22.4287 12.0013 21.737 12.01 21.046 11.9933C20.8274 11.988 20.7927 12.0566 20.796 12.2547C20.8087 12.9456 20.8027 13.6366 20.8007 14.3281C20.7994 14.8363 20.4672 15.1964 20.0048 15.1985C19.5416 15.2005 19.2035 14.8397 19.2015 14.3355C19.1988 13.6192 19.1961 12.903 19.2048 12.1874C19.2068 12.0326 19.1681 11.9933 19.013 11.9953C18.3053 12.0046 17.5976 12.0006 16.8892 11.9986C16.3625 11.9973 15.999 11.6672 16.001 11.1957C16.003 10.7228 16.3632 10.4014 16.8952 10.3994C17.2367 10.398 17.5782 10.3994 17.9197 10.3994L17.919 10.4001Z" fill="white"/>
</g>
<defs>
<clipPath id="clip0_523_340">
<rect width="24" height="24" fill="white"/>
</clipPath>
</defs>
</svg>
