<svg width="9" height="9" viewBox="0 0 9 9" fill="none" xmlns="http://www.w3.org/2000/svg">
<g clip-path="url(#clip0_931_111)">
<rect x="2" y="2" width="6" height="5" fill="#F48462"/>
<path d="M8.99804 4.84019C8.99363 5.31516 8.88287 5.76444 8.70502 6.19876C8.42415 6.88473 7.99659 7.46687 7.43327 7.94941C6.95059 8.36279 6.40365 8.65826 5.79647 8.84268C5.61175 8.89882 5.42456 8.9532 5.23192 8.96939C4.83711 9.00247 4.4409 9.00863 4.04504 8.98787C3.90646 8.98048 3.76752 8.97502 3.62999 8.9488C3.18342 8.8638 2.76326 8.70647 2.36141 8.49635C1.87293 8.24101 1.45418 7.89626 1.08931 7.48764C0.715462 7.06898 0.433008 6.59225 0.238424 6.06519C0.139107 5.79594 0.054406 5.52247 0.0283441 5.23456C0.0172502 5.11085 0.018835 4.98625 -0.000183105 4.86324V4.72281C0.0137283 4.68762 0.0137283 4.6526 -0.000183105 4.6174V4.37156C0.0137283 4.33636 0.0137283 4.30134 -0.000183105 4.26614V4.12571C0.0179546 4.07257 0.0147849 4.01608 0.0153132 3.9624C0.0197155 3.54867 0.137522 3.16116 0.292485 2.78457C0.570537 2.10863 0.990521 1.53352 1.54486 1.05504C1.91096 0.738975 2.31704 0.489259 2.76255 0.303424C3.08164 0.170382 3.40952 0.0654984 3.75572 0.0290709C3.87388 0.0167522 3.99327 0.0208006 4.11073 -0.000141144H4.62017C4.6494 0.0137615 4.67881 0.0137615 4.70804 -0.000141144H4.86617C4.88396 0.0148172 4.90544 0.00689697 4.92516 0.00848103C5.10742 0.0244951 5.29126 0.0227365 5.47158 0.0625076C5.8685 0.14997 6.24481 0.29093 6.60545 0.478172C7.15134 0.7615 7.61182 1.14918 8.00381 1.61835C8.33293 2.01219 8.58457 2.45355 8.76049 2.93573C8.86685 3.22733 8.9556 3.52421 8.97849 3.83658C9.00314 4.17076 9.00121 4.50513 8.99804 4.84019ZM6.48271 4.12378C6.2515 4.11832 6.02011 4.12166 5.7889 4.12166C5.51367 4.12149 5.23843 4.11938 4.9632 4.12325C4.891 4.1243 4.86864 4.10459 4.86916 4.03068C4.87216 3.53319 4.87216 3.03587 4.86987 2.53837C4.86881 2.31523 4.7105 2.15632 4.49796 2.15614C4.29158 2.15597 4.12957 2.31048 4.1257 2.51989C4.12147 2.75975 4.12429 2.99979 4.12411 3.23965C4.12411 3.50292 4.12164 3.76636 4.1257 4.02963C4.12675 4.10213 4.1065 4.12378 4.03272 4.12342C3.5349 4.12043 3.03726 4.12043 2.53944 4.12272C2.31616 4.12378 2.15732 4.28181 2.15697 4.49457C2.15679 4.70082 2.31122 4.86307 2.52078 4.86641C2.77541 4.87046 3.03022 4.86747 3.28502 4.86747C3.53384 4.86747 3.78284 4.87046 4.03166 4.86641C4.10404 4.86518 4.12605 4.88524 4.1257 4.95915C4.1227 5.45665 4.1227 5.95397 4.12481 6.45146C4.1257 6.67461 4.28365 6.83352 4.49655 6.83387C4.69976 6.83405 4.86353 6.6827 4.86828 6.47927C4.87374 6.2424 4.8704 6.00536 4.87057 5.76831C4.87075 5.49906 4.87304 5.22981 4.86899 4.96074C4.86793 4.88876 4.8873 4.86606 4.96144 4.86659C5.45925 4.86976 5.95689 4.86958 6.45471 4.86747C6.67818 4.86659 6.83701 4.70891 6.83736 4.49615C6.83772 4.2936 6.68592 4.12853 6.48271 4.12378Z" fill="#F48462"/>
<path d="M7 3.36355C6.97503 3.51766 6.87717 3.62518 6.76837 3.72975C5.692 4.76486 4.61694 5.80124 3.54217 6.83805C3.39525 6.97977 3.22686 7.03691 3.02356 6.97555C2.94586 6.95218 2.88204 6.90687 2.82522 6.85212C2.27711 6.32422 1.72841 5.79702 1.18175 5.26771C0.961656 5.0545 0.969688 4.89519 1.0579 4.72968C1.29508 4.55137 1.50043 4.60274 1.69569 4.79273C2.11529 5.20086 2.72971 5.83052 3.14974 6.23837C3.19064 6.27806 3.21035 6.28284 3.25431 6.24034C4.23064 5.29671 5.23151 4.22162 6.20871 3.27883C6.29401 3.1965 6.35403 3.14232 6.43407 3.09179C6.56171 3.01129 6.71798 2.96021 6.84592 3.04014C6.91325 3.08222 6.96349 3.14007 6.98583 3.22803C6.98744 3.23436 6.987 3.2414 6.98875 3.24759L7 3.36355Z" fill="white"/>
</g>
<defs>
<clipPath id="clip0_931_111">
<rect width="9" height="9" fill="white" transform="matrix(1 0 0 -1 0 9)"/>
</clipPath>
</defs>
</svg>
