<?xml version="1.0" encoding="utf-8"?>
<!-- Generator: Adobe Illustrator 26.1.0, SVG Export Plug-In . SVG Version: 6.00 Build 0)  -->
<svg version="1.1" id="Layer_1" xmlns="http://www.w3.org/2000/svg" xmlns:xlink="http://www.w3.org/1999/xlink" x="0px" y="0px"
	 viewBox="0 0 2000 583.3" style="enable-background:new 0 0 2000 583.3;" xml:space="preserve">
<style type="text/css">
	.st0{fill:#FD9B7C;}
	.st1{fill:#FFFFFF;}
</style>
<g>
	<g>
		<path class="st0" d="M147.3,55.4H21.6V32.5h276.9v22.9H172.7v326.2h-25.4V55.4z"/>
		<path class="st0" d="M553.7,158.8c18.1,18.1,27.1,44,27.1,78v145H557V238.6c0-27.9-7.1-49.1-21.2-63.7
			C521.7,160.3,502,153,476.6,153c-29.2,0-52.1,8.7-68.9,26.1s-25.2,40.9-25.2,70.3v132.1h-23.8V29h23.8v156.4
			c8.6-17.1,21.2-30.3,38-39.7c16.8-9.3,36.6-14,59.4-14C511.1,131.7,535.6,140.7,553.7,158.8z"/>
		<path class="st0" d="M867.4,256.7h-224c0.7,20.3,5.8,38.3,15.5,54.1c9.6,15.8,22.7,28,39.2,36.7s35,13,55.6,13
			c17,0,32.7-3.1,47.1-9.2c14.5-6.1,26.5-15.2,36.2-27.2l14.5,16.5c-11.3,13.6-25.5,24.1-42.6,31.4s-35.7,11-55.6,11
			c-25.9,0-49.1-5.6-69.3-17c-20.3-11.3-36.2-26.9-47.6-46.9c-11.5-20-17.2-42.7-17.2-68.3c0-25.3,5.4-48,16.2-68.1
			s25.7-35.8,44.6-47.1c19-11.3,40.2-17,63.9-17c23.6,0,44.8,5.6,63.6,16.7s33.6,26.7,44.4,46.6c10.8,20,16.2,42.6,16.2,67.8
			L867.4,256.7z M694.3,152.7c-14.6,8.2-26.4,19.6-35.2,34.4s-13.9,31.5-15.2,50.1h199.5c-1-18.6-6-35.2-15-49.9
			c-9-14.6-20.8-26.1-35.4-34.4c-14.6-8.3-31.1-12.5-49.4-12.5C725.4,140.5,708.9,144.5,694.3,152.7z"/>
	</g>
	<g>
		<g>
			<path class="st1" d="M642.1,467c7.2,6,10.8,14.3,10.8,24.8s-3.6,18.8-10.8,24.8s-17.1,9-29.6,9h-24V555h-13.9v-97h37.8
				C625,458,634.9,461,642.1,467z M632.1,507.9c4.6-3.7,6.9-9.1,6.9-16.1s-2.3-12.4-6.9-16.1c-4.6-3.7-11.3-5.6-20.1-5.6h-23.5v43.5
				H612C620.8,513.5,627.5,511.6,632.1,507.9z"/>
			<path class="st1" d="M773,458h13.9v84.9h52.5v12H773V458z"/>
			<path class="st1" d="M1017.2,530.7h-51.5L955,554.9h-14.3l43.9-97h13.7l44,97h-14.5L1017.2,530.7z M1012.3,519.6l-20.9-47.5
				l-20.9,47.5H1012.3z"/>
			<path class="st1" d="M1172.2,549.6c-7.8-4.3-13.9-10.2-18.4-17.7c-4.4-7.5-6.6-16-6.6-25.4s2.2-17.9,6.6-25.4
				s10.6-13.4,18.4-17.7c7.8-4.3,16.6-6.4,26.3-6.4c7.6,0,14.5,1.3,20.8,3.8s11.6,6.3,16.1,11.3l-9,8.7
				c-7.3-7.7-16.4-11.5-27.3-11.5c-7.2,0-13.7,1.6-19.5,4.8c-5.8,3.2-10.4,7.7-13.6,13.4c-3.3,5.7-4.9,12-4.9,19s1.6,13.4,4.9,19
				c3.3,5.7,7.8,10.1,13.6,13.4c5.8,3.2,12.3,4.8,19.5,4.8c10.8,0,19.9-3.9,27.3-11.6l9,8.7c-4.4,5-9.8,8.8-16.1,11.4
				c-6.3,2.6-13.3,3.9-20.8,3.9C1188.8,556,1180,553.9,1172.2,549.6z"/>
			<path class="st1" d="M1425.4,542.9v12H1355v-97h68.4v12h-54.6v29.8h48.6v11.8h-48.6v31.3h56.6V542.9z"/>
		</g>
	</g>
	<g>
		<path class="st1" d="M1054.3,82.8H937V27.2h300.3v55.6H1120v298.3h-65.7V82.8z"/>
		<path class="st1" d="M1573.6,27.2v353.9h63.2V27.2H1573.6z"/>
		<path class="st1" d="M1855.1,224.4l112.7-113.2h-75.9L1761,232.5V27.2h-63.2v353.9h63.2v-71.3l47-44.5l93.5,115.8h76.9
			L1855.1,224.4z"/>
		<path class="st1" d="M1349.2,108.1c-16.7,0-32.8,3-47.6,8.4c-25.2,9.2-46.9,25.6-62.8,46.6c-17.5,23.2-27.9,52-27.9,83.3
			c0,27.3,7.9,52.8,21.6,74.2c2.5,4,5.2,7.8,8.2,11.6c25.3,32,64.5,52.5,108.5,52.5c76.4,0,138.3-61.9,138.3-138.3
			S1425.6,108.1,1349.2,108.1z M1349.2,328.5c-9.9,0-19.3-1.7-28.1-5c-0.5-0.1-1-0.3-1.5-0.5c-0.1,0.1-0.1,0.1-0.2,0.2
			c-7.9,6.4-20.6,12.2-35.1,8.7c3.3-2.3,7.8-11.4,12-20.6c0.2-0.5,0.4-1,0.7-1.4c-0.1-0.1-0.2-0.2-0.3-0.2
			c-18.1-15-29.6-37.7-29.6-63.1c0-29.7,15.7-55.6,39.3-70.1c8.5-5.2,18.1-8.9,28.3-10.7c4.7-0.9,9.6-1.3,14.5-1.3
			c45.3,0,82.1,36.7,82.1,82.1C1431.3,291.7,1394.6,328.5,1349.2,328.5z"/>
		<rect x="1448.8" y="108.1" class="st1" width="63.7" height="273"/>
		<path class="st1" d="M1328.8,257.2c-0.6,2.9,0,7.5,1.4,9.4c0.7,0.8-6.3,3.7-14.4,4.8c-1.3,0.1-0.6,1.6,3.5,2.5s11.7,3,6.9,7.4
			c-1.3,1.1-4.1,2.3-2.6,6.8s4.6,8.9,0.8,12.1c-3.9,3.2-5.6,3.9-12,4.5c-3.1,0.3-6.7,2.3-7.8,4.7c-0.3,0.5-0.4,1.1-0.4,1.7v0.2
			c0.2,2,2.3,4.2,7.8,5.8c6.7,2,11.8,4.2,15.3,6c3.9,2,5.9,3.5,5.9,3.5l-20.8,29.8c0,0-33.5-16.3-71.9-35.9
			c-13.7-21.4-21.6-46.9-21.6-74.2c0-31.3,10.4-60.1,27.9-83.3c11.6-11.3,25.6-20.2,41.1-25.9c4.1,4.2,16.7,24.6,16.7,24.6
			c4,6,7.1,10.6,9.7,14.6c0.5,0.7,1,1.4,1.4,2.2c6,9.6,8.8,17,12.3,37.3c0.9,4.5-4.5,5.4-3.1,9.1c1.4,3.6,17.5,23.5,12.6,27.6
			C1332.6,256.6,1332.3,256.5,1328.8,257.2z"/>
		<g>
			<path class="st1" d="M1337.5,271.5h17.9c1,0,1.9,0.8,1.9,1.9l0,0c0,1-0.8,1.9-1.9,1.9h-17.9c-1,0-1.9-0.8-1.9-1.9l0,0
				C1335.7,272.3,1336.5,271.5,1337.5,271.5z"/>
			<path class="st1" d="M1337.9,277.9l12.4,5.4c0.9,0.4,1.4,1.5,1,2.5l0,0c-0.4,0.9-1.5,1.4-2.5,1l-12.4-5.4c-0.9-0.4-1.4-1.5-1-2.5
				l0,0C1335.9,277.9,1337,277.5,1337.9,277.9z"/>
			<path class="st1" d="M1348.9,259.9l-12.4,5.4c-0.9,0.4-1.4,1.5-1,2.5l0,0c0.4,0.9,1.5,1.4,2.5,1l12.4-5.4c0.9-0.4,1.4-1.5,1-2.5
				l0,0C1350.9,259.9,1349.8,259.5,1348.9,259.9z"/>
		</g>
	</g>
</g>
</svg>
