<svg width="42" height="42" viewBox="0 0 42 42" fill="none" xmlns="http://www.w3.org/2000/svg">
<path d="M21 42C32.598 42 42 32.598 42 21C42 9.40202 32.598 0 21 0C9.40202 0 0 9.40202 0 21C0 32.598 9.40202 42 21 42Z" fill="#2E4C6D"/>
<path d="M15.2205 26H27.6148C27.9963 26 28.3721 25.9033 28.7106 25.7181C29.049 25.5328 29.3401 25.2645 29.5591 24.9358C29.7782 24.6071 29.9189 24.2277 29.9692 23.8297C30.0195 23.4316 29.9779 23.0267 29.8481 22.6492L27.5903 16.0783C27.2047 14.6181 26.3753 13.331 25.229 12.4139C24.0827 11.4968 22.6825 11.0002 21.2427 11V11C19.7439 11 18.2898 11.538 17.1207 12.5252C15.9515 13.5124 15.1371 14.8898 14.812 16.43L12.9516 22.7633C12.842 23.1373 12.8174 23.533 12.8797 23.9188C12.942 24.3045 13.0894 24.6695 13.3101 24.9844C13.5308 25.2992 13.8186 25.5551 14.1504 25.7315C14.4823 25.9079 14.8488 25.9999 15.2205 26V26Z" fill="white"/>
<path d="M17.6208 27.6667C17.8025 28.6086 18.288 29.4554 18.9949 30.0637C19.7019 30.6719 20.5869 31.0042 21.5 31.0042C22.4131 31.0042 23.2981 30.6719 24.005 30.0637C24.712 29.4554 25.1975 28.6086 25.3792 27.6667H17.6208Z" fill="white"/>
<circle cx="35.5" cy="5.5" r="5.5" fill="#38B000"/>
</svg>
