<svg width="48" height="47" viewBox="0 0 48 47" fill="none" xmlns="http://www.w3.org/2000/svg">
<path d="M21 47C32.598 47 42 37.598 42 26C42 14.402 32.598 5 21 5C9.40202 5 0 14.402 0 26C0 37.598 9.40202 47 21 47Z" fill="#2E4C6D"/>
<path d="M15.2205 31H27.6148C27.9963 31 28.3721 30.9033 28.7106 30.7181C29.049 30.5328 29.3401 30.2645 29.5591 29.9358C29.7782 29.6071 29.9189 29.2277 29.9692 28.8297C30.0195 28.4316 29.9779 28.0267 29.8481 27.6492L27.5903 21.0783C27.2047 19.6181 26.3753 18.331 25.229 17.4139C24.0827 16.4968 22.6825 16.0002 21.2427 16V16C19.7439 16 18.2898 16.538 17.1207 17.5252C15.9515 18.5124 15.1371 19.8898 14.812 21.43L12.9516 27.7633C12.842 28.1373 12.8174 28.533 12.8797 28.9188C12.942 29.3045 13.0894 29.6695 13.3101 29.9844C13.5308 30.2992 13.8186 30.5551 14.1504 30.7315C14.4823 30.9079 14.8488 30.9999 15.2205 31V31Z" fill="white"/>
<path d="M17.6208 32.6667C17.8025 33.6086 18.288 34.4554 18.9949 35.0637C19.7019 35.6719 20.5869 36.0042 21.5 36.0042C22.4131 36.0042 23.2981 35.6719 24.005 35.0637C24.712 34.4554 25.1975 33.6086 25.3792 32.6667H17.6208Z" fill="white"/>
<circle cx="38" cy="10" r="10" fill="#FF4F4F"/>
</svg>
