<svg width="9" height="9" viewBox="0 0 9 9" fill="none" xmlns="http://www.w3.org/2000/svg">
<g clip-path="url(#clip0_511_171)">
<rect x="2" y="2" width="6" height="5" fill="white"/>
<path d="M8.99804 4.84018C8.99363 5.31515 8.88287 5.76442 8.70502 6.19874C8.42415 6.88471 7.99659 7.46686 7.43327 7.94939C6.95059 8.36277 6.40365 8.65824 5.79647 8.84267C5.61175 8.89881 5.42456 8.95318 5.23192 8.96937C4.83711 9.00246 4.4409 9.00862 4.04504 8.98785C3.90646 8.98046 3.76752 8.975 3.62999 8.94878C3.18342 8.86379 2.76326 8.70646 2.36141 8.49634C1.87293 8.24099 1.45418 7.89625 1.08931 7.48762C0.715462 7.06896 0.433008 6.59223 0.238424 6.06517C0.139107 5.79592 0.054406 5.52245 0.0283441 5.23455C0.0172502 5.11083 0.018835 4.98624 -0.000183105 4.86323V4.7228C0.0137283 4.6876 0.0137283 4.65258 -0.000183105 4.61739V4.37154C0.0137283 4.33634 0.0137283 4.30132 -0.000183105 4.26613V4.1257C0.0179546 4.07255 0.0147849 4.01606 0.0153132 3.96239C0.0197155 3.54866 0.137522 3.16115 0.292485 2.78455C0.570537 2.10861 0.990521 1.53351 1.54486 1.05502C1.91096 0.738959 2.31704 0.489244 2.76255 0.303409C3.08164 0.170368 3.40952 0.065484 3.75572 0.0290556C3.87388 0.016737 3.99327 0.0207853 4.11073 -0.000156403H4.62017C4.6494 0.0137453 4.67881 0.0137453 4.70804 -0.000156403H4.86617C4.88396 0.014802 4.90544 0.00688267 4.92516 0.00846577C5.10742 0.0244799 5.29126 0.0227203 5.47158 0.0624924C5.8685 0.149954 6.24481 0.290915 6.60545 0.478157C7.15134 0.761485 7.61183 1.14917 8.00381 1.61833C8.33293 2.01218 8.58457 2.45353 8.76049 2.93572C8.86685 3.22732 8.9556 3.5242 8.97849 3.83656C9.00314 4.17075 9.00068 4.50476 8.99751 4.83982L8.99804 4.84018ZM6.48271 4.12376C6.2515 4.11831 6.02011 4.12165 5.7889 4.12165C5.51367 4.12147 5.23843 4.11936 4.9632 4.12323C4.891 4.12429 4.86864 4.10458 4.86916 4.03067C4.87216 3.53317 4.87216 3.03585 4.86987 2.53836C4.86881 2.31521 4.7105 2.1563 4.49796 2.15613C4.29158 2.15595 4.12957 2.31046 4.1257 2.51988C4.12147 2.75974 4.12429 2.99978 4.12411 3.23964C4.12411 3.5029 4.12164 3.76635 4.1257 4.02961C4.12675 4.10212 4.1065 4.12376 4.03272 4.12341C3.5349 4.12042 3.03726 4.12042 2.53944 4.1227C2.31616 4.12376 2.15732 4.28179 2.15697 4.49455C2.15679 4.7008 2.31122 4.86305 2.52078 4.8664C2.77541 4.87044 3.03022 4.86745 3.28502 4.86745V4.86798C3.53384 4.86798 3.78284 4.87044 4.03166 4.8664C4.10404 4.86517 4.12605 4.88523 4.1257 4.95914C4.1227 5.45663 4.1227 5.95395 4.12481 6.45145C4.1257 6.67459 4.28365 6.8335 4.49655 6.83385C4.69976 6.83403 4.86353 6.68269 4.86828 6.47925C4.87374 6.24239 4.8704 6.00534 4.87057 5.7683C4.87075 5.49905 4.87304 5.2298 4.86899 4.96072C4.86793 4.88875 4.8873 4.86604 4.96144 4.86657C5.45925 4.86974 5.9569 4.86956 6.45471 4.86745C6.67818 4.86657 6.83701 4.70889 6.83736 4.49613C6.83772 4.29358 6.68575 4.12922 6.48254 4.12446L6.48271 4.12376Z" fill="#38B000"/>
</g>
<defs>
<clipPath id="clip0_511_171">
<rect width="9" height="9" fill="white" transform="matrix(1 0 0 -1 0 9)"/>
</clipPath>
</defs>
</svg>
