<svg width="24" height="24" viewBox="0 0 24 24" fill="none" xmlns="http://www.w3.org/2000/svg">
<g clip-path="url(#clip0_931_120)">
<path d="M10.374 23.9998C7.23298 23.9998 4.0913 23.9998 0.950291 23.9998C0.290679 23.9998 -0.00938834 23.6943 -3.21318e-05 23.0341C0.0681345 18.3651 3.28667 14.2903 7.82911 13.1225C13.4843 11.6687 19.2804 15.2266 20.5475 20.9307C20.7052 21.6396 20.7888 22.3579 20.7981 23.0841C20.8055 23.6763 20.4887 23.9998 19.8973 23.9998C16.7228 24.0004 13.5478 23.9998 10.3733 23.9998H10.374Z" fill="white"/>
<path d="M15.9998 5.60004C15.9998 8.69382 13.487 11.2027 10.3934 11.2001C7.30119 11.1967 4.7944 8.68182 4.79908 5.58804C4.80376 2.49625 7.32124 -0.0073199 10.4175 1.60809e-05C13.4983 0.00735206 16.0005 2.51759 15.9998 5.60004Z" fill="white"/>
<path d="M17.9639 12.1066C18.211 11.8594 18.4487 11.601 18.7096 11.3684C18.8655 11.2295 18.8325 11.153 18.7009 11.0253C18.2053 10.5438 17.7201 10.0519 17.2325 9.56149C16.8613 9.18847 16.8406 8.69896 17.1789 8.36628C17.5083 8.04257 17.9959 8.06519 18.3572 8.42453C18.8589 8.92345 19.3621 9.4219 19.8563 9.92838C19.968 10.043 20.0294 10.0495 20.1452 9.93091C20.6386 9.4234 21.1423 8.92626 21.6442 8.42629C22.0066 8.06573 22.4919 8.04162 22.8225 8.3637C23.1611 8.69379 23.1412 9.18901 22.7722 9.55996C22.2849 10.05 21.802 10.5452 21.3016 11.0221C21.1433 11.1728 21.1673 11.246 21.3097 11.3837C21.8072 11.8632 22.2915 12.356 22.7791 12.8465C23.1375 13.2068 23.1573 13.6963 22.8317 14.0247C22.5056 14.3536 22.0114 14.3376 21.6535 13.9825C21.1451 13.4779 20.6367 12.9733 20.1369 12.4612C20.0289 12.3504 19.9737 12.35 19.8654 12.461C19.3716 12.9681 18.8683 13.4657 18.366 13.9652C17.9927 14.3366 17.5022 14.3602 17.1702 14.0254C16.8373 13.6897 16.8647 13.2076 17.2394 12.8301C17.48 12.5877 17.7224 12.3471 17.9639 12.1056L17.9639 12.1066Z" fill="white"/>
</g>
<defs>
<clipPath id="clip0_931_120">
<rect width="24" height="24" fill="white"/>
</clipPath>
</defs>
</svg>
