<svg width="315" height="202" viewBox="0 0 315 202" fill="none" xmlns="http://www.w3.org/2000/svg">
<g opacity="0.74">
<path d="M33.9636 90.2677L29.3387 97.3118C28.9317 97.9282 28.1051 98.0982 27.4904 97.6901L16.6 90.5015C15.9853 90.0977 15.8157 89.2687 16.2184 88.6523L20.8434 81.6082C21.0553 81.2851 21.3818 81.0853 21.7336 81.0258C22.0558 80.9663 22.3992 81.0301 22.6917 81.2256L33.5821 88.4185C34.0018 88.6948 34.2137 89.1709 34.1798 89.6428C34.1629 89.8596 34.0951 90.0764 33.9636 90.2719V90.2677Z" fill="#FFD249"/>
<path d="M34.1796 89.6384L26.6508 90.2761C25.3621 90.3866 24.1752 89.5661 23.8191 88.3163L21.7334 81.0214C22.0556 80.9619 22.3989 81.0257 22.6915 81.2212L33.5819 88.4141C34.0016 88.6904 34.2135 89.1665 34.1796 89.6384Z" fill="#FFE668"/>
</g>
<g opacity="0.75">
<path d="M60.4351 5.61561L76.4079 22.7396C77.8108 24.2361 77.7195 26.5869 76.2283 27.9876L49.7719 52.712C48.2743 54.1027 45.9388 54.0251 44.5359 52.5286L28.5631 35.4047C27.8342 34.6249 27.5037 33.6156 27.5781 32.6255C27.6351 31.7169 28.0285 30.8297 28.7328 30.1631L55.1892 5.43868C56.2108 4.4824 57.6226 4.21571 58.8723 4.63033C59.445 4.82213 59.99 5.14437 60.4317 5.63191L60.4351 5.61561Z" fill="#FFD249"/>
<path d="M58.8749 4.61462L55.6987 25.3833C55.1545 28.9411 52.1673 31.605 48.5904 31.7541L27.5807 32.6098C27.6377 31.7012 28.0311 30.814 28.7354 30.1474L55.1918 5.42298C56.2135 4.4667 57.6252 4.20001 58.8749 4.61462Z" fill="#FFE668"/>
</g>
<g opacity="0.5" clip-path="url(#clip0_1144_293)">
<path d="M274.814 87.343L272.926 87.0424C273.044 86.3075 273.1 85.9067 273.1 85.9011L274.994 86.1517C274.994 86.1517 274.938 86.5692 274.814 87.343Z" fill="#0ECCC6"/>
<path d="M216.073 157H215.68C215.219 157 214.758 156.983 214.297 156.967L214.365 155.074C214.803 155.09 215.247 155.096 215.697 155.102H216.073C216.281 155.102 216.495 155.102 216.703 155.102L216.725 156.994C216.506 156.994 216.293 156.994 216.073 156.994V157ZM219.153 156.905L219.035 155.018C219.811 154.968 220.598 154.901 221.357 154.818L221.576 156.699C220.778 156.788 219.968 156.861 219.153 156.911V156.905ZM211.869 156.827C211.06 156.761 210.25 156.672 209.452 156.56L209.711 154.684C210.475 154.79 211.256 154.873 212.026 154.94L211.863 156.827H211.869ZM223.976 156.36L223.661 154.495C224.426 154.367 225.19 154.222 225.943 154.055L226.359 155.903C225.572 156.076 224.768 156.232 223.97 156.365L223.976 156.36ZM207.052 156.165C206.254 156.009 205.456 155.836 204.675 155.636L205.141 153.804C205.889 153.994 206.653 154.161 207.412 154.305L207.047 156.165H207.052ZM228.72 155.308L228.203 153.487C228.945 153.281 229.692 153.047 230.423 152.797L231.041 154.584C230.277 154.846 229.495 155.085 228.72 155.302V155.308ZM202.331 154.979C201.555 154.734 200.78 154.467 200.026 154.177L200.712 152.413C201.426 152.685 202.162 152.942 202.904 153.175L202.325 154.979H202.331ZM233.323 153.743L232.604 151.99C233.312 151.7 234.031 151.388 234.734 151.06L235.549 152.769C234.812 153.114 234.065 153.437 233.323 153.738V153.743ZM197.778 153.242C197.042 152.908 196.306 152.546 195.592 152.168L196.497 150.498C197.177 150.859 197.874 151.205 198.576 151.522L197.778 153.242ZM237.718 151.683L236.808 150.019C237.482 149.657 238.162 149.267 238.826 148.866L239.826 150.481C239.135 150.898 238.427 151.305 237.718 151.683ZM193.478 150.96C192.787 150.536 192.107 150.086 191.444 149.623L192.551 148.081C193.181 148.521 193.832 148.95 194.484 149.356L193.478 150.965V150.96ZM241.866 149.173L240.787 147.614C241.428 147.179 242.063 146.723 242.681 146.261L243.839 147.77C243.198 148.254 242.535 148.727 241.872 149.178L241.866 149.173ZM189.499 148.159C188.869 147.658 188.246 147.124 187.644 146.578L188.931 145.181C189.505 145.699 190.1 146.205 190.696 146.684L189.493 148.154L189.499 148.159ZM245.728 146.266L244.502 144.813C245.093 144.323 245.683 143.811 246.262 143.288L247.554 144.685C246.959 145.225 246.346 145.76 245.733 146.266H245.728ZM185.891 144.891C185.328 144.318 184.772 143.717 184.244 143.11L185.688 141.874C186.194 142.458 186.728 143.032 187.262 143.577L185.891 144.897V144.891ZM249.297 143.026L247.948 141.685C248.493 141.145 249.038 140.582 249.572 140.009L250.977 141.295C250.427 141.885 249.859 142.47 249.297 143.026ZM182.698 141.239C182.209 140.61 181.726 139.953 181.265 139.291L182.839 138.216C183.277 138.851 183.743 139.48 184.21 140.081L182.698 141.239ZM252.579 139.502L251.124 138.272C251.629 137.687 252.13 137.081 252.619 136.474L254.114 137.648C253.614 138.272 253.096 138.895 252.579 139.497V139.502ZM179.938 137.27C179.517 136.591 179.106 135.889 178.719 135.182L180.399 134.28C180.77 134.959 181.164 135.633 181.568 136.284L179.938 137.275V137.27ZM255.586 135.756L254.046 134.631C254.513 134.007 254.974 133.367 255.412 132.733L256.986 133.807C256.531 134.458 256.058 135.11 255.586 135.75V135.756ZM177.611 133.044C177.263 132.326 176.926 131.591 176.605 130.851L178.365 130.11C178.668 130.823 178.994 131.53 179.331 132.22L177.611 133.044ZM258.329 131.825L256.722 130.795C257.149 130.144 257.565 129.481 257.969 128.819L259.605 129.799C259.189 130.478 258.762 131.151 258.329 131.82V131.825ZM175.712 128.618C175.431 127.872 175.166 127.11 174.919 126.341L176.74 125.762C176.976 126.497 177.235 127.238 177.505 127.956L175.712 128.613V128.618ZM260.83 127.744L259.167 126.809C259.56 126.13 259.937 125.445 260.308 124.76L261.994 125.657C261.617 126.358 261.229 127.054 260.83 127.744ZM174.228 124.037C174.014 123.268 173.817 122.483 173.643 121.704L175.509 121.286C175.683 122.038 175.875 122.801 176.077 123.541L174.233 124.037H174.228ZM263.112 123.536L261.404 122.684C261.758 121.982 262.106 121.281 262.444 120.579L264.169 121.392C263.826 122.105 263.472 122.823 263.112 123.536ZM173.16 119.343C173.014 118.553 172.884 117.757 172.778 116.966L174.672 116.71C174.779 117.473 174.902 118.247 175.043 119.009L173.16 119.349V119.343ZM265.181 119.232L263.438 118.458C263.764 117.74 264.079 117.022 264.383 116.309L266.142 117.05C265.833 117.773 265.512 118.503 265.181 119.238V119.232ZM267.058 114.845L265.282 114.144C265.58 113.409 265.866 112.679 266.142 111.956L267.929 112.624C267.648 113.359 267.356 114.099 267.058 114.845ZM172.497 114.583C172.424 113.787 172.362 112.98 172.322 112.184L174.233 112.089C174.273 112.852 174.329 113.631 174.402 114.405L172.497 114.583ZM181.709 112.351L181.653 110.458C182.411 110.436 183.176 110.375 183.918 110.269L184.182 112.145C183.367 112.256 182.535 112.329 181.703 112.351H181.709ZM179.224 112.29C178.409 112.229 177.583 112.117 176.768 111.972L177.111 110.113C177.864 110.252 178.629 110.347 179.376 110.408L179.224 112.295V112.29ZM186.627 111.672L186.155 109.84C186.88 109.656 187.61 109.428 188.324 109.167L188.993 110.937C188.212 111.226 187.414 111.471 186.621 111.677L186.627 111.672ZM174.357 111.416C173.581 111.199 172.794 110.942 172.013 110.653L172.345 109.785H172.255V109.484C172.255 108.782 172.266 108.075 172.294 107.385L174.205 107.457C174.177 108.092 174.166 108.743 174.166 109.384C174.402 109.456 174.638 109.528 174.874 109.59L174.357 111.41V111.416ZM268.755 110.391L266.957 109.757C267.227 109.011 267.485 108.27 267.733 107.541L269.542 108.142C269.289 108.883 269.031 109.634 268.755 110.391ZM191.269 109.952L190.415 108.259C191.084 107.925 191.758 107.552 192.405 107.146L193.428 108.743C192.725 109.183 192 109.59 191.269 109.952ZM169.748 109.707C169.023 109.367 168.287 108.994 167.567 108.599L168.495 106.945C169.175 107.318 169.872 107.675 170.557 107.992L169.748 109.707ZM165.471 107.357C165.207 107.19 164.948 107.018 164.684 106.845C164.268 106.567 163.863 106.288 163.459 106.004L164.566 104.462C164.954 104.735 165.347 105.008 165.746 105.275C165.999 105.442 166.246 105.604 166.499 105.765L165.465 107.357H165.471ZM195.451 107.341L194.282 105.843C194.878 105.386 195.468 104.891 196.036 104.373L197.334 105.759C196.727 106.316 196.092 106.851 195.451 107.341ZM270.284 105.876L268.463 105.303C268.705 104.54 268.941 103.794 269.16 103.059L270.992 103.599C270.768 104.345 270.532 105.108 270.284 105.876ZM174.351 105.141L172.446 104.98C172.513 104.184 172.603 103.377 172.716 102.586L174.61 102.837C174.509 103.594 174.419 104.368 174.351 105.136V105.141ZM161.519 104.568C160.879 104.073 160.244 103.56 159.642 103.048L160.884 101.612C161.469 102.107 162.076 102.597 162.694 103.076L161.519 104.568ZM199.071 104.022L197.66 102.748C198.172 102.191 198.672 101.601 199.144 100.999L200.656 102.157C200.156 102.803 199.622 103.432 199.071 104.028V104.022ZM157.832 101.439C157.242 100.888 156.663 100.32 156.107 99.7413L157.49 98.433C158.023 98.9841 158.58 99.5353 159.148 100.064L157.838 101.439H157.832ZM271.661 101.311L269.818 100.805C270.037 100.025 270.245 99.2681 270.436 98.5332L272.285 99.012C272.089 99.758 271.881 100.521 271.656 101.311H271.661ZM174.981 100.56L173.104 100.209C173.255 99.4128 173.43 98.6223 173.615 97.8484L175.47 98.2994C175.29 99.0342 175.121 99.7969 174.981 100.56ZM202.078 100.17L200.476 99.1344C200.898 98.4998 201.291 97.8373 201.656 97.1692L203.337 98.0711C202.949 98.7837 202.522 99.4852 202.078 100.164V100.17ZM154.471 97.9598C153.943 97.3529 153.42 96.7238 152.931 96.0947L154.443 94.9368C154.915 95.538 155.41 96.1393 155.921 96.7238L154.477 97.9598H154.471ZM272.875 96.7016L271.021 96.2506C271.217 95.4545 271.397 94.6862 271.566 93.9625L273.432 94.38C273.263 95.1149 273.083 95.8888 272.881 96.7016H272.875ZM176.088 96.0725L174.261 95.5158C174.503 94.7364 174.767 93.9681 175.048 93.2276L176.836 93.8901C176.566 94.5972 176.319 95.332 176.088 96.0725ZM204.422 95.8832L202.674 95.1205C202.988 94.419 203.27 93.7064 203.511 92.9994L205.321 93.6118C205.063 94.3689 204.759 95.1372 204.422 95.8888V95.8832ZM151.487 94.1407C151.026 93.4782 150.582 92.799 150.16 92.1142L151.79 91.1288C152.189 91.7802 152.616 92.4315 153.055 93.0662L151.481 94.1407H151.487ZM273.932 92.0474L272.06 91.6632C272.24 90.8115 272.392 90.0376 272.521 89.3584L274.399 89.7036C274.269 90.3995 274.112 91.1845 273.932 92.0474ZM177.718 91.769L175.976 90.984C176.313 90.2436 176.684 89.5087 177.072 88.8073L178.752 89.7147C178.387 90.3772 178.044 91.0676 177.718 91.769ZM206.007 91.2513L204.146 90.817C204.326 90.0655 204.461 89.3195 204.545 88.5957L206.445 88.824C206.35 89.6145 206.203 90.4329 206.007 91.2513ZM148.957 90.0209C148.575 89.3139 148.21 88.5846 147.873 87.8553L149.609 87.0647C149.93 87.7606 150.278 88.451 150.644 89.1302L148.957 90.0209ZM179.938 87.7606L178.342 86.7251C178.797 86.0348 179.281 85.3723 179.781 84.7432L181.282 85.9179C180.815 86.5024 180.365 87.126 179.938 87.7662V87.7606ZM204.675 86.3688C204.663 85.6006 204.585 84.8712 204.455 84.1865L206.333 83.8246C206.49 84.6152 206.574 85.4614 206.591 86.3354L204.68 86.3688H204.675ZM146.917 85.634C146.619 84.888 146.344 84.1197 146.096 83.3625L147.912 82.778C148.148 83.5073 148.412 84.2366 148.699 84.9492L146.917 85.6395V85.634ZM182.782 84.2032L181.405 82.8893C181.984 82.2936 182.591 81.7258 183.221 81.208L184.452 82.6555C183.878 83.1343 183.316 83.652 182.788 84.1976L182.782 84.2032ZM203.809 82.1489C203.511 81.492 203.129 80.9074 202.685 80.4063L204.113 79.1537C204.686 79.794 205.169 80.54 205.552 81.3695L203.809 82.1489ZM186.267 81.3082L185.21 79.7327C185.907 79.2762 186.627 78.8587 187.363 78.4912L188.223 80.1781C187.554 80.5121 186.897 80.8963 186.262 81.3082H186.267ZM145.405 81.041C145.197 80.2672 145.012 79.4711 144.854 78.6861L146.726 78.3131C146.878 79.0647 147.058 79.8218 147.254 80.5622L145.405 81.041ZM190.308 79.2873L189.656 77.5058C190.224 77.2998 190.809 77.1217 191.393 76.9658C191.612 76.9101 191.826 76.8545 192.04 76.8044L192.489 78.6415C192.292 78.6916 192.09 78.7418 191.888 78.7919C191.354 78.931 190.825 79.0981 190.308 79.2818V79.2873ZM201.083 79.1203C200.499 78.7919 199.841 78.5358 199.122 78.3632L199.566 76.5204C200.459 76.732 201.285 77.0549 202.027 77.4724L201.077 79.1148L201.083 79.1203ZM194.726 78.224L194.484 76.3479C195.361 76.2365 196.216 76.192 197.003 76.2087L196.958 78.1015C196.255 78.0848 195.502 78.1294 194.721 78.224H194.726ZM144.444 76.2977C144.332 75.5072 144.236 74.7 144.163 73.8983L146.068 73.7368C146.136 74.4995 146.226 75.2734 146.333 76.0305L144.438 76.2977H144.444ZM144.022 71.4877C144.006 71.02 144 70.5524 144 70.0847C144 69.7507 144 69.4111 144.011 69.0771L145.922 69.1216C145.917 69.4445 145.911 69.7674 145.911 70.0847C145.911 70.5301 145.917 70.9811 145.933 71.432L144.022 71.4932V71.4877ZM146.035 66.8057L144.129 66.6609C144.191 65.8648 144.275 65.0575 144.377 64.2614L146.271 64.5008C146.17 65.2635 146.091 66.0374 146.035 66.8001V66.8057ZM146.625 62.2183L144.742 61.8842C144.882 61.1048 145.051 60.3087 145.231 59.5237L147.091 59.9524C146.917 60.704 146.754 61.4667 146.619 62.2183H146.625ZM147.682 57.7088L145.844 57.1911C146.063 56.4228 146.31 55.649 146.569 54.8918L148.378 55.4986C148.131 56.228 147.895 56.9684 147.682 57.7088ZM149.188 53.3219L147.412 52.626C147.71 51.88 148.03 51.134 148.362 50.4102L150.104 51.1896C149.784 51.8911 149.474 52.6093 149.193 53.3219H149.188ZM151.116 49.1019L149.413 48.239C149.784 47.5208 150.177 46.8082 150.576 46.1235L152.234 47.0699C151.846 47.7324 151.47 48.4172 151.116 49.1019ZM153.454 45.088L151.846 44.0636C152.285 43.39 152.746 42.7219 153.218 42.0705L154.769 43.1728C154.319 43.7964 153.875 44.4422 153.454 45.088ZM156.186 41.3301L154.696 40.1498C155.208 39.5208 155.736 38.8972 156.27 38.3071L157.697 39.5653C157.186 40.1331 156.68 40.7288 156.191 41.3301H156.186ZM159.294 37.884L157.939 36.5479C158.512 35.9744 159.108 35.4177 159.704 34.8833L160.98 36.2918C160.407 36.7984 159.839 37.3328 159.294 37.884ZM162.762 34.8053L161.57 33.3244C162.211 32.8178 162.868 32.3335 163.526 31.877L164.622 33.4302C163.993 33.8645 163.369 34.3265 162.762 34.8109V34.8053ZM166.567 32.1665L165.572 30.552C166.269 30.1289 166.988 29.728 167.708 29.3606L168.59 31.0419C167.91 31.3926 167.23 31.7712 166.567 32.172V32.1665Z" fill="#0ECCC6"/>
<path d="M170.743 30.0286L169.99 28.2917C170.366 28.1302 170.743 27.9799 171.125 27.8296L171.816 29.5944C171.457 29.7336 171.103 29.8783 170.743 30.0286Z" fill="#0ECCC6"/>
<path d="M161.902 19L199.538 24.4447L182.31 38.424L161.902 19Z" fill="#FFD249"/>
<path d="M199.537 24.4448L170.805 27.4734L169.647 37.9564L199.537 24.4448Z" fill="#EDB937"/>
</g>
<g clip-path="url(#clip1_1144_293)">
<path d="M57.2154 149.516L177.861 149.516C180.152 149.516 182.009 147.658 182.009 145.367V144.515C182.009 142.223 180.152 140.366 177.861 140.366L57.2154 140.366C54.9247 140.366 53.0677 142.223 53.0677 144.515V145.367C53.0677 147.658 54.9247 149.516 57.2154 149.516Z" fill="#FFBA57"/>
<path d="M88.4379 59.4714C88.4379 59.4714 84.0349 59.7878 85.4336 66.0179C86.8324 72.248 90.8462 64.5091 90.8462 64.5091L88.4379 59.4714Z" fill="#FFA98F"/>
<path d="M45.0037 179.438C45.8551 179.925 95.4684 177.357 96.5752 176.335C96.9766 175.97 96.9523 173.609 96.636 170.251C96.0644 164.13 92.6101 153.69 90.6883 147.253C90.6883 147.253 73.3315 148.421 71.7747 149.407C70.2178 150.404 53.4935 164.52 53.4935 164.52C53.4935 164.52 47.1079 166.953 44.8212 170.725C44.1523 171.833 43.8117 173.013 43.6901 174.108C43.3982 176.773 44.3834 179.097 44.9794 179.438H45.0037Z" fill="#286C7C"/>
<path d="M45.0033 179.438C45.8547 179.924 95.468 177.357 96.5748 176.335C96.9762 175.97 96.9519 173.609 96.6356 170.251L43.714 174.12C43.4221 176.785 44.4073 179.109 45.0033 179.45V179.438Z" fill="white"/>
<path d="M59.2343 160.151C59.0518 160.151 58.8937 160.005 58.8694 159.823C58.8572 159.628 59.0032 159.445 59.1978 159.433L72.638 158.362L66.4105 154.286C66.2402 154.177 66.1915 153.957 66.301 153.787C66.4105 153.617 66.6416 153.58 66.7997 153.678L73.9151 158.326C74.0489 158.411 74.1097 158.569 74.0611 158.715C74.0246 158.861 73.8908 158.971 73.7448 158.983L59.2586 160.139H59.2343V160.151Z" fill="white"/>
<path d="M105.71 101.342C105.71 101.342 78.1724 81.8609 54.4057 87.8355C30.639 93.8222 65.3525 151.646 65.3525 151.646L99.9079 151.719L96.5387 135.145L138.015 135.06L119.709 109.13L105.71 101.318V101.342Z" fill="#8B558E"/>
<path d="M73.8421 104.81C73.7205 104.81 73.611 104.749 73.538 104.64C73.5137 104.591 70.4607 99.809 66.3861 96.3289C66.2401 96.195 66.2158 95.976 66.3496 95.8178C66.4834 95.6718 66.7023 95.6474 66.8605 95.7813C71.0203 99.3344 74.1218 104.202 74.1583 104.25C74.2678 104.421 74.2191 104.64 74.0489 104.749C73.988 104.786 73.9272 104.81 73.8543 104.81H73.8421Z" fill="#431949"/>
<path d="M116.34 56.8552L85.9934 80.9847C85.9934 80.9847 85.7623 96.9737 100.772 101.342C115.781 105.711 117.532 87.4947 117.532 87.4947L116.34 56.843V56.8552Z" fill="#3F9E97"/>
<path d="M96.867 76.872C96.867 76.872 97.5967 85.8521 90.4448 85.0004C83.2929 84.1486 83.7308 73.8665 83.7308 73.8665L96.867 76.872Z" fill="#FFA98F"/>
<path d="M152.708 122.612C152.708 122.612 166.489 72.8321 154.885 59.1429C143.281 45.4415 116.34 56.8553 116.34 56.8553L103.447 102.535L152.708 122.612Z" fill="#3F9E97"/>
<path d="M132.906 88.7845C132.906 88.7845 125.937 77.748 122.555 76.4825C119.174 75.2292 111 76.884 111 77.8575C111 78.831 118.566 80.0234 118.566 80.0234C118.566 80.0234 114.309 87.4582 114.248 89.1374C114.175 90.8045 118.019 95.6839 118.858 96.1706C119.697 96.6574 121.813 93.9439 121.813 93.9439C121.813 93.9439 124.149 96.7791 127.445 97.643C130.741 98.5191 134.524 93.518 134.524 93.518L132.906 88.7845Z" fill="#FFA98F"/>
<path d="M121.826 94.3091L118.992 93.8346C118.797 93.798 118.663 93.6155 118.7 93.4208C118.736 93.2261 118.907 93.0923 119.113 93.1288L120.792 93.4087L119.393 91.985C119.247 91.839 119.259 91.6199 119.393 91.4739C119.539 91.3401 119.758 91.3401 119.904 91.4739L122.081 93.6885C122.191 93.798 122.215 93.9684 122.142 94.1023C122.081 94.2239 121.96 94.2969 121.826 94.2969V94.3091Z" fill="black"/>
<path d="M123.115 81.1673L118.517 80.4007C118.323 80.3642 118.189 80.1817 118.225 79.987C118.262 79.7923 118.432 79.6585 118.639 79.695L123.176 80.4616C123.37 80.4981 123.504 80.6806 123.468 80.8753C123.443 81.0456 123.285 81.1795 123.115 81.1795V81.1673Z" fill="black"/>
<path d="M144.862 45.1252L144.643 54.008C144.643 54.008 142.977 56.5268 137.783 56.8189C133.903 57.0379 132.565 56.1253 132.565 56.1253L133.21 51.6474L133.855 47.279L143.281 45.4416L144.862 45.1374V45.1252Z" fill="#FFA98F"/>
<path d="M143.123 46.196C143.099 46.4272 143.002 46.6949 142.843 47.0113C140.764 51.2215 135.363 52.0246 133.149 52.1706L133.794 47.9726L143.123 46.196Z" fill="black"/>
<path d="M132.675 28.5034C132.675 28.5034 127.943 39.0654 129.561 45.04C131.179 51.0146 136.604 50.1263 139.863 48.9947C143.123 47.8752 144.643 45.8918 144.643 45.8918C144.643 45.8918 147.672 46.9504 149.715 44.1396C151.771 41.3409 150.555 38.092 148.828 37.3254C147.1 36.5588 145.033 37.8 145.033 37.8L146.675 34.7336C146.675 34.7336 140.021 19.0366 132.675 28.5034Z" fill="#FFA98F"/>
<path d="M133.04 42.01C132.882 42.01 132.748 41.9126 132.699 41.7545C131.994 39.479 133.611 37.167 133.672 37.0697C133.782 36.9115 134.013 36.8628 134.171 36.9845C134.329 37.094 134.378 37.3252 134.256 37.4834C134.244 37.5078 132.784 39.6007 133.38 41.5476C133.441 41.7423 133.332 41.937 133.137 41.9978C133.101 41.9978 133.064 42.01 133.028 42.01H133.04Z" fill="black"/>
<path d="M145.471 42.8131C145.385 42.8131 145.288 42.7766 145.227 42.7157C145.081 42.5819 145.081 42.3507 145.215 42.2046L148.098 39.1626C148.232 39.0166 148.463 39.0166 148.609 39.1504C148.755 39.2843 148.755 39.5155 148.621 39.6615L145.738 42.7035C145.665 42.7766 145.568 42.8131 145.483 42.8131H145.471Z" fill="black"/>
<path d="M148.524 42.0101L146.48 41.6937C146.286 41.6693 146.152 41.4747 146.176 41.28C146.213 41.0853 146.395 40.9514 146.59 40.9758L148.584 41.28C148.779 41.3043 148.913 41.499 148.889 41.6937C148.864 41.8762 148.706 41.9979 148.536 41.9979L148.524 42.0101Z" fill="black"/>
<path d="M94.2144 82.1667L103.609 81.3907C104.68 81.3022 105.477 80.3618 105.388 79.2902L103.578 57.3525C103.489 56.2809 102.549 55.4839 101.478 55.5724L92.0836 56.3484C91.0124 56.4369 90.2158 57.3773 90.3042 58.4489L92.1148 80.3866C92.2032 81.4582 93.1433 82.2551 94.2144 82.1667Z" fill="white"/>
<path d="M92.2979 82.3263L101.692 81.5503C102.763 81.4619 103.56 80.5214 103.472 79.4498L101.661 57.5122C101.573 56.4406 100.633 55.6436 99.5615 55.7321L90.1671 56.5081C89.0959 56.5966 88.2993 57.537 88.3877 58.6086L90.1983 80.5462C90.2867 81.6178 91.2267 82.4148 92.2979 82.3263Z" fill="black"/>
<path d="M145.033 37.8241C145.033 37.8241 143.938 38.5421 143.148 37.2887C142.357 36.0476 144.108 32.3728 144.108 32.3728C144.108 32.3728 140.824 33.115 138.805 32.0199C136.774 30.9248 135.789 27.9436 135.789 27.9436C135.789 27.9436 134.293 31.0465 129.817 29.6714C125.341 28.2964 124.501 22.188 129.282 20.959C134.062 19.73 136.677 21.8473 136.677 21.8473C136.677 21.8473 137.297 17.4181 143.196 19.6205C148.572 21.6283 149.472 28.3816 149.472 28.3816C149.472 28.3816 152.708 28.5398 153.316 32.0564C153.924 35.573 149.813 38.1162 149.813 38.1162C149.813 38.1162 147.478 36.7412 145.045 37.8241H145.033Z" fill="black"/>
<path d="M137.845 38.0676C137.601 38.0432 137.455 37.8607 137.492 37.666L137.747 35.6948C137.772 35.5001 137.966 35.354 138.149 35.3784C138.343 35.4027 138.489 35.5852 138.465 35.7799L138.21 37.7512C138.185 37.9337 138.027 38.0676 137.857 38.0676H137.845Z" fill="black"/>
<path d="M131.994 37.5809C131.738 37.5444 131.605 37.3619 131.641 37.1672L131.933 35.196C131.957 35.0013 132.152 34.8674 132.347 34.8918C132.541 34.9161 132.675 35.1108 132.651 35.3055L132.359 37.2767C132.334 37.4593 132.176 37.5809 132.006 37.5809H131.994Z" fill="black"/>
<path d="M139.693 34.2833C139.559 34.2833 139.438 34.2102 139.377 34.0886C138.903 33.1638 137.638 33.4193 137.589 33.4315C137.382 33.4802 137.2 33.3463 137.163 33.1516C137.127 32.9569 137.248 32.7622 137.443 32.7257C137.516 32.7136 139.304 32.3485 140.022 33.76C140.119 33.9425 140.046 34.1494 139.863 34.2468C139.815 34.2711 139.754 34.2833 139.705 34.2833H139.693Z" fill="black"/>
<path d="M133.977 33.042C133.867 33.042 133.746 32.9812 133.673 32.8838C133.49 32.6283 133.283 32.4823 133.04 32.4458C132.529 32.3849 131.958 32.7865 131.775 32.9447C131.629 33.0785 131.398 33.0664 131.264 32.9082C131.131 32.7622 131.143 32.531 131.301 32.3971C131.337 32.3606 132.213 31.6062 133.137 31.7279C133.6 31.7887 133.977 32.0321 134.281 32.4701C134.39 32.6405 134.354 32.8595 134.183 32.969C134.123 33.0055 134.05 33.0299 133.977 33.0299V33.042Z" fill="black"/>
<path d="M85.8716 71.1773C85.8716 71.1773 79.5954 70.4594 81.5172 67.5634C83.4511 64.6673 94.8114 63.2923 96.0278 66.6873C97.2441 70.0822 85.8716 71.1773 85.8716 71.1773Z" fill="#FFA98F"/>
<path d="M86.5405 76.3609C86.5405 76.3609 80.2643 75.643 82.1861 72.747C84.12 69.8509 95.4804 68.4759 96.6967 71.8709C97.913 75.2658 86.5405 76.3609 86.5405 76.3609Z" fill="#FFA98F"/>
<path d="M90.177 80.7049C88.8269 81.1552 87.3795 81.289 85.9929 80.9848C84.7523 80.7171 83.6698 80.0844 84.2901 78.685C85.5429 75.8742 95.2369 72.9538 96.8059 75.7281C97.9736 77.7967 92.8529 79.8045 90.177 80.7049Z" fill="#FFA98F"/>
<path d="M85.1298 70.4838C84.9473 70.4838 84.7892 70.3377 84.7649 70.1552C84.7527 69.9605 84.8987 69.778 85.0933 69.7658L92.3911 69.2183C92.6222 69.2183 92.7682 69.3521 92.7803 69.5468C92.7925 69.7415 92.6466 69.924 92.4519 69.9362L85.1541 70.4838H85.1298Z" fill="black"/>
<path d="M86.3094 76.2272C86.127 76.2272 85.9689 76.0811 85.9446 75.8986C85.9324 75.7039 86.0783 75.5214 86.273 75.5092L93.5708 74.9617C93.8019 74.9617 93.9479 75.0955 93.96 75.2902C93.9722 75.4849 93.8262 75.6674 93.6316 75.6796L86.3338 76.2272H86.3094Z" fill="black"/>
<path d="M141.81 123.61C141.81 123.61 141.749 123.61 141.712 123.598C141.506 123.549 141.384 123.33 141.445 123.136L142.673 118.512C142.722 118.305 142.941 118.183 143.136 118.244C143.342 118.293 143.464 118.512 143.403 118.706L142.175 123.33C142.126 123.501 141.98 123.61 141.81 123.61Z" fill="#534579"/>
<path d="M105.576 112.002C105.357 112.002 105.187 111.819 105.199 111.612L105.333 106.684C105.333 106.477 105.503 106.307 105.71 106.307C105.929 106.307 106.099 106.489 106.087 106.696L105.953 111.624C105.953 111.831 105.783 112.002 105.576 112.002Z" fill="#534579"/>
<path d="M109.638 115.068C109.432 115.068 109.261 114.897 109.261 114.691V109.47C109.261 109.264 109.444 109.093 109.65 109.093C109.857 109.093 110.027 109.264 110.027 109.47V114.691C110.027 114.897 109.845 115.068 109.638 115.068Z" fill="#534579"/>
<path d="M135.558 45.0034C135.327 45.0034 135.096 44.979 134.852 44.906C134.658 44.8574 134.548 44.6627 134.597 44.468C134.646 44.2733 134.84 44.1516 135.035 44.2124C136.58 44.614 137.492 43.1538 137.528 43.093C137.626 42.9226 137.845 42.8618 138.027 42.9713C138.197 43.0686 138.258 43.2998 138.149 43.4702C137.796 44.0664 136.859 45.0155 135.558 45.0155V45.0034Z" fill="black"/>
<path d="M0.0729315 160.467C0.474314 161.368 41.9627 188.685 43.4709 188.527C44.0061 188.466 45.3926 186.556 47.1198 183.66C50.2701 178.391 53.6757 167.927 55.9502 161.611C55.9502 161.611 41.2694 152.266 39.4449 152.144C37.5961 152.023 15.7633 153.495 15.7633 153.495C15.7633 153.495 9.18309 151.67 5.10846 153.361C3.91647 153.86 2.94342 154.602 2.18931 155.418C0.377009 157.389 -0.20682 159.859 0.0850946 160.48L0.0729315 160.467Z" fill="#286C7C"/>
<path d="M0.0728875 160.467C0.47427 161.368 41.9626 188.686 43.4708 188.527C44.006 188.467 45.3926 186.556 47.1198 183.66L2.1771 155.406C0.364802 157.377 -0.219027 159.847 0.0728875 160.467Z" fill="white"/>
<path d="M34.1542 161.149C34.0934 161.149 34.0204 161.137 33.9596 161.1L21.6019 153.446C21.4316 153.337 21.383 153.118 21.4803 152.947C21.5897 152.777 21.8087 152.728 21.9789 152.826L33.4366 159.92L30.8337 152.947C30.7607 152.765 30.858 152.558 31.0405 152.485C31.2229 152.412 31.4297 152.509 31.5027 152.692L34.4826 160.65C34.5313 160.796 34.4826 160.954 34.3731 161.051C34.3123 161.1 34.2272 161.137 34.142 161.137L34.1542 161.149Z" fill="white"/>
<path d="M152.708 122.612C152.708 122.612 93.3275 92.3985 80.24 96.7061C63.0536 102.364 31.916 148.981 31.916 148.981L59.21 175.41C59.21 175.41 87.4771 137.238 92.0017 137.749C97.2319 138.333 126.679 150.721 137.163 147.35C147.636 143.98 152.708 122.612 152.708 122.612Z" fill="#A76FA8"/>
<path d="M91.0407 138.102C90.9434 138.102 90.8461 138.066 90.7852 137.993C90.1649 137.36 84.7767 131.69 85.6281 129.427C85.7741 129.037 86.1633 128.563 87.1728 128.49C88.0729 128.429 88.8635 128.709 89.5081 129.341C91.7705 131.58 91.4177 137.518 91.3934 137.774C91.3934 137.92 91.2961 138.042 91.1623 138.09C91.1258 138.102 91.0772 138.115 91.0407 138.115V138.102ZM87.4404 129.195C87.3674 129.195 87.3066 129.195 87.2336 129.195C86.4674 129.256 86.3457 129.573 86.3092 129.67C85.8349 130.935 88.5472 134.501 90.7123 136.849C90.7244 135.146 90.5663 131.373 89.0094 129.84C88.5716 129.402 88.0486 129.195 87.4404 129.195Z" fill="#431949"/>
<path d="M148.925 54.6284C148.925 54.6284 189.927 72.3697 182.799 103.009C176.012 132.201 129.208 106.708 129.208 106.708L131.519 83.7956L153.352 86.1319L148.901 54.6406L148.925 54.6284Z" fill="#3F9E97"/>
<path d="M160.711 85.414C160.711 85.414 160.662 85.414 160.638 85.414C148.657 82.9439 135.096 83.7591 134.962 83.7713C134.779 83.7956 134.597 83.6375 134.585 83.4306C134.573 83.2359 134.718 83.0656 134.925 83.0534C135.059 83.0534 148.718 82.2138 160.796 84.7083C160.991 84.7448 161.112 84.9395 161.076 85.1342C161.039 85.3045 160.893 85.4262 160.723 85.4262L160.711 85.414Z" fill="white"/>
<path d="M149.667 83.6252C149.351 83.6252 149.144 83.5887 149.071 83.3819C149.022 83.2359 149.071 83.0777 149.193 82.9803C149.399 82.8221 154.155 79.2082 156.989 79.6097C157.646 79.6949 158.157 79.9869 158.509 80.4737C158.935 81.0334 158.85 81.4958 158.704 81.7757C157.828 83.5036 151.491 83.6252 149.655 83.6252H149.667ZM156.515 80.3033C154.654 80.3033 151.954 81.946 150.555 82.8951C153.717 82.8221 157.597 82.3719 158.072 81.4471C158.096 81.3863 158.181 81.2281 157.938 80.9117C157.695 80.5832 157.354 80.4007 156.892 80.3277C156.77 80.3155 156.648 80.3033 156.515 80.3033Z" fill="white"/>
<path d="M136.543 57.0987C135.278 57.0987 133.916 56.9162 132.456 56.4781C132.262 56.4173 132.152 56.2226 132.213 56.0279C132.274 55.8332 132.469 55.7237 132.663 55.7845C139.499 57.8653 144.352 53.7768 144.401 53.7403C144.546 53.6064 144.778 53.6308 144.911 53.7768C145.045 53.9228 145.021 54.154 144.875 54.2878C144.838 54.3244 141.542 57.0987 136.543 57.0987Z" fill="white"/>
<path d="M150.798 115.044C150.798 115.044 150.713 115.044 150.664 115.019C150.518 114.959 136.142 109.422 129.026 104.749C128.856 104.64 128.819 104.421 128.929 104.25C129.038 104.08 129.257 104.044 129.428 104.141C136.482 108.777 150.786 114.277 150.932 114.338C151.114 114.411 151.212 114.618 151.139 114.8C151.09 114.946 150.944 115.032 150.798 115.032V115.044Z" fill="white"/>
<path d="M103.666 101.038C103.435 101.014 103.289 100.843 103.313 100.636C103.958 94.0655 107.12 84.9881 107.145 84.8907C107.205 84.696 107.412 84.5987 107.607 84.6717C107.789 84.7325 107.899 84.9394 107.826 85.1341C107.789 85.2193 104.663 94.2237 104.031 100.709C104.019 100.892 103.861 101.038 103.678 101.038H103.666Z" fill="white"/>
<path d="M284.02 161.538L283.157 171.102H264.803V160.273L284.02 161.538Z" fill="#FFA98F"/>
<path d="M251.266 165.955L249.417 175.544L229.214 170.75L232.741 160.273L251.266 165.955Z" fill="#FFA98F"/>
<path d="M228.788 35.0742C228.788 35.0742 223.971 30.6449 217.111 34.2589C210.251 37.8728 211.103 48.155 211.103 48.155C211.103 48.155 203.89 50.7103 203.294 59.5444C202.698 68.3785 212.83 71.81 212.83 71.81L230.077 69.0964C230.077 69.0964 233.519 63.9615 233.495 63.7668C233.471 63.5721 234.176 42.3142 234.176 42.3142L228.788 35.0863V35.0742Z" fill="black"/>
<path d="M164.47 149.516H243.822C245.792 149.516 247.398 147.472 247.398 144.941C247.398 142.41 245.804 140.366 243.822 140.366H164.47C162.499 140.366 160.894 142.41 160.894 144.941C160.894 147.472 162.487 149.516 164.47 149.516Z" fill="#FFBA57"/>
<path d="M266.068 107.621C266.068 107.621 262.455 73.4161 249.051 67.5389C235.648 61.6616 213.961 67.7092 213.961 67.7092L214.934 113.45L266.068 107.621Z" fill="#3F9E97"/>
<path d="M254.89 105.699C254.89 105.699 281.442 99.2372 288.716 110.456C296.001 121.675 285.821 164.507 285.821 164.507H261.373L254.89 105.699Z" fill="#8B558E"/>
<path d="M194.78 115.433C194.78 115.433 189.246 141.132 200.326 145.269C211.407 149.407 236.949 144.503 236.949 144.503L226.586 162.792L259.913 172.672C259.913 172.672 287.584 122.685 270.739 109.361C253.893 96.0369 218.449 115.433 218.449 115.433H194.78Z" fill="#A76FA8"/>
<path d="M284.58 165.955C284.58 165.955 290.929 173.451 292.413 174.169C293.885 174.887 309.295 180.07 312.251 182.966C315.207 185.862 315.413 191.545 314.574 192.08C313.735 192.616 263.051 192.08 263.051 192.08L262.516 167.635L284.58 165.955Z" fill="#2C938C"/>
<path d="M252.445 171.516C252.445 171.516 255.036 181.567 257.116 182.626C259.196 183.684 268.16 189.306 273.037 194.417C277.124 198.7 273.037 201.158 273.037 201.158H244.807L220.542 183.319L229.214 164.763L252.457 171.504L252.445 171.516Z" fill="#3F9E97"/>
<path d="M289.713 171.103C289.713 171.103 282.646 179.207 284.264 179.864C285.881 180.521 299.528 178.428 299.176 176.968C298.823 175.507 291.355 170.981 289.713 171.103Z" fill="white"/>
<path d="M255.084 177.6C255.084 177.6 246.023 183.392 247.397 184.475C248.76 185.558 262.443 187.396 262.516 185.887C262.589 184.39 256.69 177.941 255.084 177.6Z" fill="white"/>
<path d="M230.868 57.196L229.749 64.3996C229.749 64.3996 230.892 66.7359 235.599 67.9527C239.102 68.8532 240.465 68.3665 240.465 68.3665L240.538 64.6308L240.611 60.9804L232.279 57.7436L230.88 57.196H230.868Z" fill="#FFA98F"/>
<path d="M232.266 57.7556C232.254 57.9868 232.291 58.2545 232.376 58.5831C233.507 62.9758 238.36 64.7037 240.379 65.2391L240.574 61.1262L232.266 57.7678V57.7556Z" fill="black"/>
<path d="M245.549 42.8132C245.549 42.8132 248.091 53.7767 245.439 59.1794C242.788 64.5821 237.764 62.7203 234.857 61.0411C231.95 59.3619 230.868 57.1838 230.868 57.1838C230.868 57.1838 227.778 57.634 226.343 54.5677C224.908 51.5134 226.671 48.6296 228.459 48.228C230.247 47.8265 231.999 49.384 231.999 49.384L231.001 46.1473C231.001 46.1473 240.282 32.3729 245.549 42.801V42.8132Z" fill="#FFA98F"/>
<path d="M242.751 55.602C242.751 55.602 242.654 55.602 242.605 55.5655C242.459 55.4803 242.399 55.2978 242.484 55.1518C243.42 53.3874 242.411 51.0998 242.399 51.0754C242.326 50.9172 242.399 50.7347 242.557 50.6617C242.715 50.5887 242.897 50.6617 242.97 50.8199C243.019 50.9294 244.114 53.4117 243.031 55.4438C242.97 55.5533 242.873 55.602 242.763 55.602H242.751Z" fill="black"/>
<path d="M230.722 54.0566C230.625 54.0566 230.515 54.008 230.467 53.9106L228.277 50.467C228.18 50.321 228.229 50.1263 228.374 50.0411C228.52 49.9438 228.703 49.9925 228.8 50.1385L230.99 53.5821C231.087 53.7281 231.038 53.9228 230.892 54.008C230.844 54.0445 230.783 54.0566 230.722 54.0566Z" fill="black"/>
<path d="M229.919 52.791L227.948 52.7058C227.778 52.7058 227.644 52.5598 227.657 52.3894C227.669 52.2191 227.815 52.0974 227.973 52.0974L229.931 52.1704C230.101 52.1704 230.235 52.3164 230.223 52.4868C230.223 52.6571 230.077 52.7788 229.919 52.7788V52.791Z" fill="black"/>
<path d="M245.123 101.792C245.05 101.792 244.977 101.768 244.904 101.719C244.746 101.598 244.71 101.379 244.831 101.208C244.856 101.184 247.154 98.1054 248.979 93.5545C251.776 86.6187 248.991 76.2148 248.967 76.1053C248.918 75.9106 249.027 75.7159 249.222 75.6673C249.417 75.6186 249.611 75.7281 249.66 75.9228C249.782 76.3609 252.53 86.6673 249.648 93.8344C247.775 98.4705 245.427 101.61 245.403 101.646C245.33 101.744 245.22 101.792 245.111 101.792H245.123Z" fill="white"/>
<path d="M239.273 58.133C238.883 58.133 238.47 58.0357 238.093 57.7436C236.925 56.8432 236.767 55.3465 236.767 55.2857C236.767 55.1762 236.816 55.0545 236.901 54.9936C236.998 54.9328 237.12 54.9328 237.217 54.9936L240.927 57.0744C241.024 57.1231 241.073 57.2204 241.085 57.3299C241.085 57.4394 241.036 57.5368 240.951 57.5976C240.903 57.6341 240.148 58.1452 239.273 58.1452V58.133ZM237.533 55.8576C237.679 56.2835 237.959 56.8432 238.47 57.2447C239.005 57.6585 239.686 57.5003 240.136 57.3178L237.533 55.8576Z" fill="black"/>
<path d="M237.825 46.9868C237.752 46.9868 237.691 46.9625 237.63 46.926C237.496 46.8165 237.472 46.6218 237.582 46.4879C238.518 45.2954 240.124 45.9647 240.197 46.0012C240.355 46.0742 240.428 46.2445 240.355 46.4027C240.282 46.5609 240.099 46.6339 239.953 46.5609C239.905 46.5366 238.713 46.0499 238.068 46.8651C238.007 46.9381 237.922 46.9868 237.825 46.9868Z" fill="black"/>
<path d="M245.853 47.3153C245.756 47.3153 245.671 47.2788 245.61 47.1937C245.61 47.1937 245.075 46.5001 244.454 46.4636C244.199 46.4392 243.968 46.5487 243.737 46.7678C243.615 46.8894 243.42 46.8894 243.299 46.7678C243.177 46.6461 243.177 46.4514 243.299 46.3297C243.651 45.9768 244.053 45.8065 244.491 45.843C245.379 45.9038 246.06 46.7799 246.084 46.8164C246.194 46.9503 246.157 47.145 246.023 47.2545C245.962 47.3032 245.902 47.3153 245.829 47.3153H245.853Z" fill="black"/>
<path d="M244.576 51.5743C244.393 51.5743 244.26 51.4161 244.272 51.2458L244.357 49.311C244.357 49.2259 244.406 49.1407 244.466 49.092L245.354 48.3376C245.488 48.2281 245.683 48.2402 245.792 48.3741C245.902 48.5079 245.889 48.7026 245.756 48.8122L244.965 49.4692L244.88 51.2701C244.88 51.4405 244.734 51.5622 244.576 51.5622V51.5743Z" fill="black"/>
<path d="M238.884 50.9416C238.689 50.9416 238.567 50.7834 238.579 50.6131L238.701 48.6783C238.701 48.581 238.762 48.4958 238.835 48.435L240.088 47.5953C240.221 47.498 240.416 47.5345 240.513 47.6805C240.611 47.8265 240.574 48.0091 240.428 48.1064L239.309 48.8608L239.2 50.6374C239.2 50.7956 239.054 50.9294 238.896 50.9294L238.884 50.9416Z" fill="black"/>
<path d="M232.388 49.3232C232.388 49.3232 237.497 48.6418 239.674 45.2347C241.851 41.8276 241.742 40.1971 241.742 40.1971C241.742 40.1971 244.259 41.6573 245.159 43.5677C246.047 45.4781 246.206 46.488 246.206 46.488C246.206 46.488 247.057 42.3874 246.619 41.134C246.181 39.8807 243.797 32.8475 233.994 33.6993C219.118 35.0013 225.175 47.0843 232.388 49.3232Z" fill="black"/>
<path d="M230.6 95.6475C230.6 95.6475 231.05 95.4528 232.972 94.7592C234.797 94.1021 241.352 94.601 241.352 94.601C241.352 94.601 247.057 95.4407 251.813 97.3267C256.568 99.2006 255.924 101.342 255.924 101.342C255.924 101.342 258.989 102.948 257.858 104.299C256.727 105.65 251.849 104.822 251.849 104.822C251.849 104.822 258.052 106.575 255.681 108.132C253.321 109.702 245.403 107.146 245.403 107.146C245.403 107.146 233.678 112.561 229.384 108.765C225.09 104.968 230.588 95.6232 230.588 95.6232L230.6 95.6475Z" fill="#FFA98F"/>
<path d="M233.653 93.9806L238.883 113.121C238.883 113.121 204.814 137.616 190.571 118.414C176.341 99.2007 202.82 70.4107 213.949 67.7094C225.078 65.0081 219.459 95.9396 219.459 95.9396L233.641 93.9806H233.653Z" fill="#3F9E97"/>
<path d="M236.95 144.856C236.877 144.856 236.804 144.831 236.731 144.783C236.609 144.697 236.56 144.551 236.597 144.405C236.67 144.101 238.482 136.837 241.486 135.535C242.216 135.218 242.958 135.267 243.7 135.681C244.576 136.167 244.758 136.825 244.77 137.287C244.807 140.146 237.923 144.345 237.144 144.807C237.083 144.843 237.023 144.856 236.962 144.856H236.95ZM242.447 136.046C242.228 136.046 241.997 136.094 241.778 136.192C239.674 137.104 238.117 141.728 237.546 143.7C239.893 142.191 244.065 139.124 244.041 137.287C244.041 136.885 243.81 136.569 243.335 136.301C243.031 136.131 242.739 136.046 242.435 136.046H242.447Z" fill="#5D2866"/>
<path d="M209.728 97.0104C209.582 97.0104 209.448 96.9252 209.388 96.7792C209.315 96.5966 209.412 96.3898 209.594 96.3168C216.333 93.7128 229.372 94.1143 229.931 94.1387C230.126 94.1387 230.284 94.309 230.284 94.5159C230.284 94.7106 230.114 94.8566 229.907 94.8688C229.773 94.8688 216.467 94.4429 209.862 96.9982C209.813 97.0104 209.777 97.0225 209.728 97.0225V97.0104Z" fill="white"/>
<path d="M219.823 95.1242C216.977 94.7713 210.409 93.81 210.044 92.362C209.996 92.1795 209.996 91.8266 210.458 91.4859C212.793 89.8188 219.288 93.9804 220.018 94.4549C220.164 94.5523 220.213 94.7226 220.164 94.8808C220.115 95.0268 219.969 95.112 219.823 95.112V95.1242ZM211.917 91.8144C211.492 91.8144 211.139 91.8996 210.871 92.0821C210.762 92.1673 210.738 92.216 210.738 92.216C210.896 92.7392 214.143 93.5788 218.145 94.1751C216.26 93.1042 213.584 91.8144 211.905 91.8144H211.917Z" fill="white"/>
<path d="M240.221 68.7193C238.834 68.7193 232.388 68.5003 229.457 64.6065C229.335 64.4483 229.372 64.2171 229.53 64.1076C229.688 63.9859 229.919 64.0224 230.028 64.1806C233.02 68.1718 240.379 68.0014 240.44 68.0014C240.647 68.0014 240.805 68.1474 240.817 68.3543C240.817 68.549 240.671 68.7193 240.464 68.7315C240.44 68.7315 240.343 68.7315 240.209 68.7315L240.221 68.7193Z" fill="white"/>
<path d="M255.729 107.791H295.478L306.826 82.1042H268.646C267.697 82.1042 266.834 82.664 266.445 83.5401L255.729 107.791Z" fill="white"/>
<path d="M259.184 107.791H298.933L309.064 84.8664C309.636 83.5644 308.687 82.1042 307.264 82.1042H270.532L259.184 107.791Z" fill="#5D2866"/>
<path d="M242.398 111.04H298.519C299.419 111.04 300.137 110.31 300.137 109.422C300.137 108.534 299.407 107.803 298.519 107.803H242.398C241.498 107.803 240.781 108.534 240.781 109.422C240.781 110.31 241.511 111.04 242.398 111.04Z" fill="black"/>
<path d="M255.924 101.659C255.924 101.659 255.814 101.646 255.766 101.622C255.729 101.598 251.679 99.2857 246.558 97.8255C246.4 97.7769 246.303 97.6065 246.351 97.4483C246.4 97.278 246.57 97.1928 246.729 97.2293C251.922 98.7138 256.033 101.062 256.07 101.087C256.216 101.172 256.264 101.366 256.179 101.512C256.118 101.61 256.021 101.671 255.912 101.671L255.924 101.659Z" fill="black"/>
<path d="M252.433 104.993C252.433 104.993 252.311 104.98 252.263 104.944C252.226 104.92 248.857 102.693 245.828 102.425C245.658 102.413 245.537 102.255 245.549 102.084C245.561 101.914 245.695 101.792 245.889 101.805C249.076 102.084 252.469 104.323 252.615 104.421C252.761 104.518 252.798 104.713 252.701 104.847C252.64 104.932 252.542 104.98 252.445 104.98L252.433 104.993Z" fill="black"/>
<path d="M305.537 35.8237L301.471 46.7524C301.116 47.7104 300.053 48.1952 299.097 47.836L282.2 41.513C281.247 41.1567 280.761 40.0936 281.116 39.1356L285.182 28.2069C285.368 27.7075 285.744 27.3366 286.201 27.1468C286.618 26.9686 287.098 26.9452 287.556 27.1176L304.453 33.4406C305.105 33.6859 305.539 34.2583 305.633 34.9038C305.676 35.2046 305.65 35.5171 305.537 35.8208V35.8237Z" fill="#FFD249"/>
<path d="M305.632 34.9067L295.678 38.0988C293.974 38.645 292.122 37.9061 291.257 36.3348L286.198 27.1497C286.615 26.9715 287.095 26.9482 287.552 27.1205L304.45 33.4435C305.102 33.6888 305.536 34.2612 305.63 34.9067H305.632Z" fill="#FFE668"/>
</g>
<defs>
<clipPath id="clip0_1144_293">
<rect width="131" height="138" fill="white" transform="translate(144 19)"/>
</clipPath>
<clipPath id="clip1_1144_293">
<rect width="315" height="182.158" fill="white" transform="translate(0 19)"/>
</clipPath>
</defs>
</svg>
