<svg width="274" height="192" viewBox="0 0 274 192" fill="none" xmlns="http://www.w3.org/2000/svg">
<g clip-path="url(#clip0_1144_551)">
<path d="M15.4844 17.7406C15.4844 17.7406 16.3423 9.68974 18.4395 5.38719C20.5367 1.08463 22.2169 0.0954003 22.902 0.315891C23.5812 0.536382 22.8722 3.52195 22.8722 3.52195C22.8722 3.52195 24.9516 -0.470725 26.4351 0.0417674C27.9186 0.55426 26.4827 4.26089 26.4827 4.26089C26.4827 4.26089 28.5561 1.71631 29.3843 2.82472C30.2124 3.93314 27.0011 10.5121 27.0011 10.5121C27.0011 10.5121 29.6464 7.80663 30.3018 8.6588C30.9572 9.51096 28.9493 14.5107 27.3764 15.8814C25.8035 17.252 23.039 18.4438 23.039 18.4438L15.4903 17.7406H15.4844Z" fill="#F48C6C"/>
<path d="M27.5677 9.5346C27.5677 9.5346 27.5379 9.5346 27.5201 9.5346L19.7747 7.9137C19.6556 7.88986 19.5781 7.77068 19.602 7.65149C19.6258 7.53231 19.745 7.45484 19.8641 7.47867L27.6094 9.09958C27.7286 9.12342 27.8061 9.2426 27.7822 9.36179C27.7584 9.46905 27.669 9.54056 27.5618 9.54056L27.5677 9.5346Z" fill="black"/>
<path d="M41.1809 29.3909C41.1809 29.3909 32.7028 20.7024 27.8828 29.7783C23.0688 38.8541 35.5507 52.9298 35.5507 52.9298L45.3336 52.4948L41.175 29.3909H41.1809Z" fill="black"/>
<path d="M33.007 37.2928C33.007 37.2928 25.351 23.7952 25.208 15.2377C25.065 6.68029 17.0695 14.5167 17.0695 14.5167L15.4906 17.7466C15.4906 17.7466 14.9842 36.7445 21.4962 43.5321C29.4858 51.8571 33.007 37.2928 33.007 37.2928Z" fill="#F48C6C"/>
<path d="M61.361 60.0628C61.361 60.0628 70.441 72.452 76.8219 78.155C85.3299 85.759 75.6125 85.3239 75.6125 85.3239L71.6921 85.312C71.6921 85.312 56.9998 79.6746 50.458 67.3212C45.0601 57.1249 61.361 60.0688 61.361 60.0688V60.0628Z" fill="#F48C6C"/>
<path d="M21.2638 128.296L8.91895 129.196L10.9625 142.622H22.3541L21.2638 128.296Z" fill="#F48C6C"/>
<path d="M55.7482 75.2649C55.7482 75.2649 73.4254 128.826 60.8303 139.279C48.2352 149.731 20.358 145.405 20.358 145.405L18.6123 123.821L33.8527 122.146L49.5519 77.4877L55.7422 75.2649H55.7482Z" fill="#FCAD4F"/>
<path d="M30.7188 160.541L31.1656 173.282L43.9692 168.533L44.9285 158.438L30.7188 160.541Z" fill="#F48C6C"/>
<path d="M29.9205 77.4876C29.9205 77.4876 28.1033 89.5491 28.6217 97.2305C29.14 104.912 33.4238 123.546 33.257 126.615C33.0842 129.69 27.3467 162.132 27.3467 162.132C27.3467 162.132 33.1855 163.837 39.5188 163.837C45.8521 163.837 49.3911 163.151 49.3911 163.151C49.3911 163.151 58.2208 131.925 57.6309 120.656C57.0411 109.387 53.4782 77.4817 53.4782 77.4817H29.9205V77.4876Z" fill="#FCAD4F"/>
<path d="M40.6035 41.786L40.7525 47.6201C40.7525 47.6201 41.8487 49.2708 45.2686 49.4615C47.8186 49.6045 48.5872 48.2756 48.5872 48.2756L47.8424 43.1864L41.6462 41.9826L40.6035 41.78V41.786Z" fill="#F48C6C"/>
<path d="M40.6035 41.4285C40.6214 41.5894 40.6869 41.7741 40.7882 41.9886C42.1645 44.8729 46.7938 45.9694 48.2654 46.0647L47.8424 43.1924L40.6035 41.4344V41.4285Z" fill="black"/>
<path d="M48.8077 29.8557C48.8077 29.8557 52.0548 37.0962 50.9466 41.1902C49.8444 45.2841 46.1147 44.6763 43.8805 43.9076C41.6463 43.1388 40.5977 41.7861 40.5977 41.7861C40.5977 41.7861 38.5243 42.5131 37.1182 40.5883C35.7062 38.6694 36.5463 36.4407 37.7259 35.9162C38.9056 35.3978 40.3296 36.238 40.3296 36.238L39.2035 34.1344C39.2035 34.1344 43.7554 23.3542 48.8077 29.8498V29.8557Z" fill="#F48C6C"/>
<path d="M48.5637 39.0924C48.4803 39.0924 48.3969 39.0447 48.3612 38.9554C48.3135 38.8421 48.3612 38.711 48.4803 38.6633C48.671 38.5799 48.7782 38.4607 48.8199 38.2879C48.9748 37.6264 48.1109 36.4227 47.7594 36.0115C47.682 35.9161 47.6879 35.7791 47.7832 35.6957C47.8786 35.6182 48.0156 35.6301 48.099 35.7195C48.242 35.8864 49.4872 37.3821 49.2549 38.3833C49.1834 38.6931 48.9748 38.9256 48.6591 39.0686C48.6293 39.0805 48.5995 39.0864 48.5697 39.0864L48.5637 39.0924Z" fill="black"/>
<path d="M40.0318 39.6467C39.9722 39.6467 39.9126 39.6229 39.8709 39.5752L37.8929 37.4895C37.8095 37.4001 37.8095 37.2571 37.8988 37.1737C37.9882 37.0902 38.1312 37.0902 38.2146 37.1796L40.1927 39.2653C40.2761 39.3547 40.2761 39.4978 40.1867 39.5812C40.145 39.6229 40.0854 39.6408 40.0318 39.6408V39.6467Z" fill="black"/>
<path d="M37.9406 39.0925C37.8334 39.0925 37.7381 39.015 37.7202 38.9018C37.7023 38.7826 37.7857 38.6634 37.9049 38.6456L39.2693 38.437C39.3944 38.4191 39.5076 38.5025 39.5254 38.6217C39.5433 38.7409 39.4599 38.8601 39.3407 38.878L37.9764 39.0865C37.9764 39.0865 37.9525 39.0865 37.9406 39.0865V39.0925Z" fill="black"/>
<path d="M42.17 47.5604C42.17 47.5604 34.5617 37.8766 31.6244 31.3096L18.4395 42.936C23.8135 53.2454 27.3645 58.5491 27.3645 58.5491C27.3645 58.5491 27.567 80.634 27.8709 81.0392C28.1747 81.4445 36.4563 83.2859 45.7507 82.7734C55.0451 82.2609 57.0767 80.9379 57.5832 80.634C58.0896 80.3301 53.7284 51.3981 53.7284 51.3981C53.7284 51.3981 49.4684 47.6617 42.17 47.5663V47.5604Z" fill="#2D386B"/>
<path d="M46.9014 41.2974C46.7584 41.2974 46.6154 41.2676 46.4843 41.202C45.6919 40.7849 45.823 39.5931 45.829 39.5394C45.8349 39.4739 45.8766 39.4143 45.9303 39.3785C45.9839 39.3428 46.0554 39.3308 46.1209 39.3547L48.4862 40.1115C48.5637 40.1353 48.6233 40.2009 48.6352 40.2784C48.653 40.3558 48.6233 40.4393 48.5637 40.4929C48.4564 40.5882 47.6223 41.3033 46.9014 41.3033V41.2974ZM46.2699 39.8672C46.2818 40.1651 46.3533 40.624 46.6929 40.8028C47.0146 40.9696 47.5687 40.6717 47.95 40.4035L46.2699 39.8672Z" fill="black"/>
<path d="M49.963 33.1332C49.963 33.1332 49.9392 33.1332 49.9273 33.1332L48.6344 32.9068C48.5152 32.8829 48.4318 32.7697 48.4497 32.6505C48.4735 32.5313 48.5867 32.4479 48.7059 32.4658L49.9987 32.6922C50.1179 32.7161 50.2013 32.8293 50.1834 32.9485C50.1656 33.0558 50.0702 33.1332 49.963 33.1332Z" fill="black"/>
<path d="M44.5949 33.9853C44.5115 33.9853 44.4341 33.9377 44.3983 33.8602C44.3447 33.7529 44.3864 33.6159 44.4937 33.5622L45.9831 32.8054C46.0963 32.7518 46.2274 32.7935 46.281 32.9067C46.3347 33.014 46.293 33.151 46.1857 33.2047L44.6962 33.9615C44.6664 33.9794 44.6307 33.9853 44.5949 33.9853Z" fill="black"/>
<path d="M49.3137 48.9191C49.3137 48.9191 48.992 47.6737 48.6703 47.1552C48.3485 46.6368 46.6863 47.1612 44.4342 46.8036C42.1821 46.4461 41.0798 45.1768 40.6866 45.1291C40.2994 45.0874 40.0312 46.4997 40.0312 46.4997C40.0312 46.4997 41.2824 48.0789 41.479 48.2994C41.6756 48.5258 49.3137 48.9132 49.3137 48.9132V48.9191Z" fill="#2D386B"/>
<path d="M44.5956 48.8655C44.5956 48.8655 44.5718 48.8655 44.5599 48.8655C44.4347 48.8477 41.4975 48.365 40.7289 47.1552C40.6634 47.0539 40.6931 46.9109 40.8004 46.8454C40.9076 46.7798 41.0447 46.8096 41.1102 46.9169C41.6583 47.781 43.8449 48.2994 44.6373 48.4305C44.7565 48.4484 44.8399 48.5616 44.822 48.6867C44.8041 48.794 44.7088 48.8774 44.6016 48.8774L44.5956 48.8655Z" fill="#FCAD4F"/>
<path d="M64.864 181.78C65.1738 181.738 65.3823 181.434 65.3287 181.107C65.0725 179.575 64.149 175.29 61.7241 173.473C58.7452 171.238 52.5012 170.344 50.2372 168.854C47.9672 167.365 45.4291 163.771 44.0707 164.451C42.7183 165.13 40.1623 168.258 36.4744 167.812C32.7864 167.365 31.0824 166.471 30.0934 167.365C29.0984 168.258 28.5324 180.767 28.9614 181.512C29.3844 182.257 34.5797 181.571 35.0325 181.691C35.4853 181.81 36.7603 178.83 37.6123 179.277C38.4643 179.724 39.501 181.118 40.7581 181.762C41.9259 182.364 61.1522 182.269 64.8699 181.774L64.864 181.78Z" fill="#EF6354"/>
<path d="M0.357567 162.663C0.399272 162.973 0.703127 163.181 1.02486 163.128C2.55605 162.871 6.84577 161.965 8.6689 159.552C10.915 156.578 11.8266 150.339 13.328 148.075C14.8235 145.81 18.428 143.283 17.7548 141.925C17.0815 140.566 13.9596 138.003 14.4243 134.315C14.883 130.626 15.7827 128.928 14.895 127.932C14.0072 126.937 1.50149 126.323 0.750791 126.747C0.00604762 127.17 0.673338 132.366 0.554179 132.819C0.429062 133.272 3.40803 134.559 2.95523 135.411C2.50838 136.263 1.10231 137.294 0.458852 138.546C-0.142901 139.714 -0.125027 158.938 0.357567 162.663Z" fill="#EF6354"/>
<path d="M70.5777 68.072C70.5777 68.072 67.3842 65.1461 62.463 60.045C57.6251 55.0273 53.7286 51.3862 53.7286 51.3862L48.5869 59.4967L54.8368 77.0287L70.5777 68.0661V68.072Z" fill="#2D386B"/>
<path d="M57.1365 75.6761C57.0174 75.6761 56.9221 75.5867 56.9161 75.4675L56.6837 72.0946C56.6837 72.0946 56.6837 72.0469 56.6897 72.0231C56.7135 71.9218 59.2754 61.5766 54.4316 57.2502C54.3423 57.1667 54.3303 57.0237 54.4138 56.9343C54.4972 56.8449 54.6342 56.833 54.7295 56.9165C59.6806 61.3322 57.3272 71.308 57.1365 72.0946L57.3629 75.4317C57.3689 75.5569 57.2795 75.6642 57.1544 75.6701H57.1365V75.6761Z" fill="#FCAD4F"/>
<path d="M54.7414 141.812C54.7116 141.812 54.6759 141.806 54.6461 141.788C54.5329 141.734 54.4852 141.603 54.5388 141.49C62.2484 124.965 51.6314 90.3001 51.5182 89.9544C51.4824 89.8412 51.542 89.7161 51.6552 89.6743L56.8565 87.8627C56.9697 87.821 57.1008 87.8866 57.1425 87.9998C57.1842 88.119 57.1186 88.2441 57.0054 88.2858L52.0067 90.0259C52.8825 92.946 62.4093 125.668 54.938 141.674C54.9023 141.758 54.8189 141.806 54.7355 141.806L54.7414 141.812Z" fill="#EF6354"/>
<path d="M31.7138 90.2643C31.3861 90.2643 31.0465 90.2404 30.689 90.1868C30.5699 90.1689 30.4805 90.0557 30.4984 89.9365C30.5162 89.8173 30.6295 89.7279 30.7486 89.7458C35.8069 90.4728 37.5407 85.4552 37.6122 85.2466C37.6539 85.1274 37.779 85.0678 37.8922 85.1036C38.0113 85.1453 38.0709 85.2704 38.0352 85.3837C38.0173 85.4373 36.355 90.2643 31.7138 90.2643Z" fill="#EF6354"/>
<path d="M73.2951 91.9925C73.2951 91.9925 68.7552 82.8689 71.4124 80.9381C74.0697 79.0074 76.8937 79.2278 76.8937 79.2278C76.8937 79.2278 86.069 81.2838 84.2518 84.8951C82.0354 89.3049 73.2951 91.9925 73.2951 91.9925Z" fill="#F48C6C"/>
<path d="M80.1818 92.4454C80.1818 92.4454 82.5531 96.0388 83.7149 93.9769C84.8767 91.915 82.2135 84.5852 79.7827 84.895C77.3518 85.2049 80.1818 92.4454 80.1818 92.4454Z" fill="#F48C6C"/>
<path d="M76.8273 93.6253C76.8273 93.6253 79.1986 97.2187 80.3604 95.1568C81.5222 93.0949 78.859 85.7651 76.4282 86.075C73.9973 86.3848 76.8273 93.6253 76.8273 93.6253Z" fill="#F48C6C"/>
<path d="M73.2593 93.8457C73.2593 93.8457 74.7845 97.3378 76.1072 95.711C77.4298 94.0841 76.2144 87.2965 74.0457 87.2012C71.877 87.1059 73.2593 93.8457 73.2593 93.8457Z" fill="#F48C6C"/>
<path d="M84.1976 82.8867C83.4171 81.969 81.9931 82.0048 81.2603 82.9582C79.8721 84.7758 78.2277 87.3442 79.8363 87.5349C81.3139 87.7077 82.9404 86.5099 84.0307 85.4969C84.7755 84.8056 84.8529 83.6555 84.1916 82.8808L84.1976 82.8867Z" fill="#F48C6C"/>
<path d="M79.7948 88.2024C79.5089 88.2024 79.2527 88.1368 79.0501 87.9759C78.5854 87.5945 78.5616 86.8079 78.9727 85.5922C78.1505 85.4671 75.7077 84.9903 74.1944 83.6853C74.0991 83.6018 74.0931 83.4648 74.1705 83.3694C74.254 83.2741 74.391 83.2681 74.4863 83.3456C76.1843 84.8116 79.2706 85.181 79.3003 85.181C79.3659 85.187 79.4314 85.2287 79.4672 85.2883C79.5029 85.3479 79.5089 85.4194 79.485 85.485C79.068 86.6053 79.0144 87.3681 79.3301 87.6303C79.8068 88.0176 81.183 87.4336 81.9397 86.9748C82.047 86.9092 82.184 86.945 82.2495 87.0463C82.3151 87.1536 82.2793 87.2906 82.178 87.3562C81.9993 87.4634 80.7541 88.2024 79.7948 88.2024Z" fill="black"/>
<path d="M76.8273 93.8517C76.732 93.8517 76.6426 93.7861 76.6128 93.6908L75.3974 89.5015C75.3616 89.0605 75.1889 87.958 74.6765 87.5528C74.5097 87.4217 74.313 87.374 74.0926 87.4157C72.6806 87.672 73.05 90.0616 73.0559 90.0855C73.0738 90.2046 72.9904 90.3238 72.8712 90.3417C72.7461 90.3596 72.6329 90.2762 72.615 90.157C72.5972 90.0437 72.1682 87.3085 74.0151 86.9748C74.3667 86.9092 74.6884 86.9867 74.9565 87.2012C75.731 87.809 75.8323 89.3584 75.8383 89.424L77.0477 93.5656C77.0835 93.6848 77.012 93.81 76.8988 93.8398C76.875 93.8398 76.8571 93.8457 76.8392 93.8457L76.8273 93.8517Z" fill="black"/>
<path d="M80.6828 93.3333C80.5874 93.3333 80.504 93.2737 80.4742 93.1843L78.806 88.2918C78.806 88.2918 78.103 86.2835 77.114 86.5934C75.3802 87.1357 75.8092 89.3048 75.827 89.3942C75.8509 89.5134 75.7734 89.6326 75.6543 89.6564C75.5351 89.6803 75.4159 89.6028 75.3921 89.4836C75.2015 88.5659 75.2849 86.7006 76.9829 86.1643C78.3949 85.7174 79.1933 88.0474 79.229 88.1487L80.8973 93.0413C80.939 93.1604 80.8734 93.2856 80.7602 93.3273C80.7364 93.3333 80.7126 93.3392 80.6887 93.3392L80.6828 93.3333Z" fill="black"/>
<path d="M40.1868 36.3631L41.5452 38.3773L40.3358 34.617C40.3358 34.617 41.5512 34.5217 43.7854 32.9961C46.0197 31.4765 46.2937 28.92 46.2937 28.92L49.4038 31.3037C49.4038 31.3037 48.8497 25.5471 42.0338 27.5613C35.2179 29.5755 36.898 36.667 36.898 36.667C36.898 36.667 38.1552 35.2726 40.1928 36.3571L40.1868 36.3631Z" fill="black"/>
<path d="M15.9074 23.0561C15.1507 23.0561 14.6026 22.8356 14.2809 22.3887C13.2919 21.03 14.8707 18.1278 14.9362 18.0027C14.9958 17.8954 15.1329 17.8537 15.2401 17.9133C15.3473 17.9729 15.3891 18.11 15.3295 18.2172C14.9065 18.986 13.9591 21.1849 14.6443 22.1205C14.9899 22.5913 15.7287 22.7224 16.8428 22.5019C21.5079 21.5961 25.1541 17.1624 25.1899 17.1207C25.2673 17.0254 25.4103 17.0075 25.5056 17.0909C25.601 17.1684 25.6188 17.3114 25.5354 17.4068C25.3805 17.5915 21.7521 22.0132 16.9262 22.9488C16.5508 23.0203 16.2112 23.0561 15.9074 23.0561Z" fill="#EF6354"/>
<path d="M14.4538 21.7689C14.2393 21.7689 14.0486 21.751 13.8878 21.7033C13.4409 21.5842 13.28 21.316 13.2264 21.1134C12.9285 19.9931 15.0853 17.8239 15.3355 17.5796C15.4249 17.4961 15.5619 17.4961 15.6513 17.5796C15.7407 17.669 15.7347 17.806 15.6513 17.8954C14.7874 18.7476 13.4886 20.3387 13.6613 20.9942C13.6852 21.0776 13.7448 21.1968 14.0069 21.2683C16.3543 21.8821 25.1781 17.1147 25.2674 17.0671C25.3747 17.0075 25.5117 17.0492 25.5713 17.1565C25.6309 17.2637 25.5892 17.4008 25.4819 17.4604C25.1364 17.6451 17.5102 21.7629 14.4657 21.7629L14.4538 21.7689Z" fill="white"/>
<path d="M30.3681 145.101C30.3681 145.101 30.3383 145.101 30.3264 145.101C30.2072 145.077 30.1238 144.958 30.1476 144.839C30.1715 144.708 32.6083 131.883 32.8347 128.284C33.0611 124.619 32.787 122.295 32.787 122.271C32.7691 122.146 32.8585 122.039 32.9836 122.021C33.1087 122.009 33.216 122.092 33.2338 122.218C33.2338 122.241 33.5198 124.601 33.2875 128.314C33.0611 131.943 30.6183 144.797 30.5945 144.928C30.5766 145.035 30.4813 145.107 30.374 145.107L30.3681 145.101Z" fill="#EF6354"/>
<path d="M33.2577 126.842C33.1743 126.842 33.1028 126.8 33.0611 126.729C33.0194 126.657 33.0253 126.562 33.073 126.496C34.1752 124.881 38.3279 123.725 39.7459 123.886C40.1153 123.928 40.3477 124.053 40.4251 124.261C40.5026 124.464 40.4311 124.696 40.2106 124.953C38.7628 126.645 33.4841 126.842 33.2637 126.848H33.2577V126.842ZM39.4182 124.309C37.9407 124.309 34.9915 125.245 33.782 126.365C35.1523 126.27 38.8105 125.906 39.877 124.655C39.9961 124.518 40.014 124.434 40.014 124.422C40.014 124.422 39.9425 124.327 39.5374 124.315C39.5016 124.315 39.4599 124.315 39.4182 124.315V124.309Z" fill="#EF6354"/>
<path d="M21.2584 15.1483C21.2167 15.1483 21.175 15.1363 21.1393 15.1125C21.032 15.047 21.0022 14.9099 21.0678 14.8026C23.8203 10.4286 26.8648 10.2915 26.9959 10.2915C27.121 10.2915 27.2223 10.3869 27.2223 10.506C27.2223 10.6312 27.127 10.7325 27.0078 10.7384C26.978 10.7384 24.0646 10.8874 21.4491 15.041C21.4074 15.1066 21.3359 15.1483 21.2584 15.1483Z" fill="black"/>
<path d="M44.971 35.9757C44.8995 35.9757 44.8281 35.94 44.7863 35.8744C44.7148 35.7731 44.7446 35.636 44.8459 35.5645C45.5132 35.1176 46.0613 34.9329 46.4665 35.0103C46.7286 35.064 46.8418 35.2189 46.8597 35.2487C46.9252 35.35 46.8955 35.493 46.7942 35.5586C46.6929 35.6241 46.5618 35.6003 46.4903 35.5049C46.4069 35.4156 46.0077 35.3262 45.0902 35.94C45.0545 35.9638 45.0068 35.9757 44.9651 35.9757H44.971Z" fill="black"/>
<path d="M50.3566 35.4453C50.309 35.4453 50.2613 35.4274 50.2196 35.3976C49.886 35.1414 49.5881 35.0282 49.3498 35.0639C49.1412 35.0937 49.0399 35.2308 49.034 35.2367C48.9625 35.3381 48.8254 35.3619 48.7242 35.2904C48.6229 35.2189 48.599 35.0818 48.6646 34.9865C48.6825 34.9567 48.8731 34.6885 49.2663 34.6289C49.6357 34.5693 50.0468 34.7123 50.4937 35.0461C50.589 35.1235 50.6128 35.2606 50.5354 35.3619C50.4937 35.4215 50.4222 35.4513 50.3566 35.4513V35.4453Z" fill="black"/>
<path d="M136.164 34.5335C136.164 34.5335 133.107 34.2057 131.552 36.357C129.997 38.5083 131.808 42.1792 131.808 42.1792C131.808 42.1792 129.67 42.066 128.377 44.3841C127.084 46.7082 128.442 50.3433 131.898 50.8439C135.353 51.3445 149.015 50.2658 152.935 45.5044C156.856 40.743 150.034 36.7563 150.034 36.7563L136.17 34.5335H136.164Z" fill="black"/>
<path d="M104.026 73.8049C104.026 73.8049 97.0255 77.1957 93.4031 80.6044C89.7866 84.0071 89.2266 85.8962 89.59 86.4504C89.9534 87.0046 92.6345 85.3241 92.6345 85.3241C92.6345 85.3241 89.31 88.6076 90.1381 89.7995C90.9603 90.9913 94.1598 88.3991 94.1598 88.3991C94.1598 88.3991 92.2115 91.182 93.4567 91.5634C94.7019 91.9448 104.586 87.3324 106.338 82.6782C107.088 80.6878 106.868 80.366 106.868 80.366L104.032 73.8109L104.026 73.8049Z" fill="#F79674"/>
<path d="M99.9863 72.184L107.428 86.2418C107.428 86.2418 134.03 67.6431 140.953 64.3894C148.246 60.9628 143.563 45.9277 143.563 45.9277C143.563 45.9277 120.845 47.9598 99.9863 72.184Z" fill="#EF6354"/>
<path d="M111.801 83.3275C111.724 83.3275 111.646 83.2858 111.605 83.2084L103.615 68.4057C103.556 68.2984 103.597 68.1613 103.705 68.1017C103.812 68.0422 103.949 68.0839 104.008 68.1911L111.998 82.9938C112.058 83.1011 112.016 83.2382 111.909 83.2977C111.873 83.3156 111.837 83.3216 111.801 83.3216V83.3275Z" fill="#FCAD4F"/>
<path d="M183.851 26.7628C183.851 26.7628 190.143 21.9656 192.871 17.812C195.6 13.6585 195.582 11.6323 195.022 11.1377C194.462 10.6491 192.174 12.8659 192.174 12.8659C192.174 12.8659 194.629 8.89108 193.384 7.8363C192.138 6.78152 189.594 10.0353 189.594 10.0353C189.594 10.0353 190.762 6.83515 189.332 6.68617C187.902 6.53719 183.744 12.8957 183.744 12.8957C183.744 12.8957 184.751 9.09965 183.648 8.96855C182.546 8.83745 179.15 13.283 178.763 15.4164C178.376 17.5498 178.787 20.6486 178.787 20.6486L183.857 26.7628H183.851Z" fill="#F79674"/>
<path d="M182.868 20.5831C182.832 20.5831 182.797 20.5771 182.767 20.5592C182.66 20.5056 182.612 20.3685 182.671 20.2613C184.989 15.7144 183.571 13.0327 183.553 13.0089C183.494 12.9016 183.535 12.7646 183.643 12.705C183.75 12.6454 183.887 12.6811 183.946 12.7884C184.012 12.9016 185.507 15.6846 183.071 20.4639C183.029 20.5413 182.951 20.5831 182.874 20.5831H182.868Z" fill="black"/>
<path d="M190.082 18.0265C190.023 18.0265 189.963 18.0026 189.916 17.955L184.357 11.9064C184.273 11.817 184.279 11.6739 184.369 11.5905C184.458 11.5071 184.601 11.513 184.685 11.6024L190.243 17.651C190.327 17.7404 190.321 17.8834 190.231 17.9669C190.19 18.0086 190.136 18.0265 190.082 18.0265Z" fill="black"/>
<path d="M187.861 27.1919L177.268 15.3271C177.268 15.3271 155.408 41.935 148.491 45.4331C141.299 49.0742 151.839 63.126 151.839 63.126C151.839 63.126 174.449 57.1251 187.855 27.1919H187.861Z" fill="#EF6354"/>
<path d="M147.108 169.283L147.09 162.347L160.048 161.882L160.507 171.447L154.108 173.097L147.108 169.283Z" fill="#F79674"/>
<path d="M161.693 81.6055C161.693 81.6055 173.097 112.313 171.125 129.369C168.962 148.14 166.448 163.032 166.001 164.015C165.554 164.999 139.988 164.719 139.988 164.719L152.625 83.0118L161.693 81.6055Z" fill="#6E69E2"/>
<path d="M121.138 164.576L123.527 159.522L136.021 163.592L132.648 171.596L125.91 170.749L121.138 164.576Z" fill="#F79674"/>
<path d="M135.079 81.6055C135.079 81.6055 130.498 91.8911 131.236 105.931C131.981 119.971 132.255 124.285 132.255 124.285C132.255 124.285 117.092 158.819 117.39 159.665C117.688 160.505 138.499 168.652 139.983 167.949C141.466 167.245 156.778 127.235 157.523 124.708C158.268 122.182 156.182 83.0118 156.182 83.0118L135.079 81.6055Z" fill="#6E69E2"/>
<path d="M147.37 181.953C146.417 181.917 145.654 181.112 145.636 180.111C145.576 176.16 145.529 167.013 146.262 167.001C147.203 166.989 156.098 169.671 156.098 169.671C156.098 169.671 156.289 164.194 160.197 165.118C163.194 165.827 166.703 169.26 168.175 170.821C168.64 171.315 169.229 171.655 169.879 171.804C172.667 172.448 180.353 174.569 180.52 178.592C180.722 183.502 178.703 182.972 177.761 182.984C176.957 182.996 153.888 182.185 147.37 181.953Z" fill="#2D386B"/>
<path d="M116.395 176.554C115.585 176.083 115.305 175.016 115.763 174.128C117.569 170.612 121.185 162.514 121.829 162.841C122.645 163.265 129.705 169.724 129.705 169.724C129.705 169.724 132.44 164.975 135.383 167.591C137.635 169.599 139.059 174.247 139.595 176.297C139.768 176.947 140.113 177.519 140.608 177.954C142.717 179.807 148.359 185.218 146.614 188.842C144.481 193.269 142.985 191.869 142.169 191.452C141.466 191.088 121.918 179.754 116.401 176.554H116.395Z" fill="#2D386B"/>
<path d="M143.283 163.628C143.283 163.628 143.23 163.628 143.206 163.616C143.093 163.574 143.033 163.443 143.075 163.33C143.188 163.026 154.216 133.028 156.379 127.271C158.518 121.568 154.443 94.7217 154.401 94.4535C154.383 94.3522 154.443 94.2509 154.538 94.2151L160.841 91.6884C160.955 91.6407 161.086 91.7003 161.133 91.8136C161.181 91.9268 161.121 92.0579 161.008 92.1056L154.866 94.5667C155.253 97.1113 158.911 121.806 156.796 127.438C154.633 133.194 143.605 163.193 143.498 163.497C143.462 163.586 143.379 163.646 143.289 163.646L143.283 163.628Z" fill="white"/>
<path d="M136.02 160.309C136.02 160.309 135.966 160.309 135.937 160.291L119.582 153.801C119.469 153.754 119.409 153.629 119.457 153.509C119.505 153.396 119.63 153.342 119.749 153.384L136.103 159.874C136.217 159.921 136.276 160.047 136.229 160.166C136.193 160.255 136.109 160.309 136.02 160.309Z" fill="white"/>
<path d="M160.924 158.938H145.01C144.885 158.938 144.79 158.837 144.79 158.712C144.79 158.587 144.891 158.485 145.01 158.485H160.924C161.049 158.485 161.145 158.587 161.145 158.712C161.145 158.837 161.043 158.938 160.924 158.938Z" fill="white"/>
<path d="M142.425 47.9119C142.425 47.9119 138.672 47.3696 135.353 49.1514C128.645 52.7568 130.474 66.4868 130.474 66.4868C130.474 66.4868 132.762 84.9485 133.137 85.3298C133.512 85.7053 142.306 86.3429 151.762 84.3406C161.217 82.3383 163.088 80.634 163.558 80.2347C164.029 79.8354 154.901 50.1288 154.901 50.1288C154.901 50.1288 149.932 46.875 142.42 47.9238L142.425 47.9119Z" fill="#EF6354"/>
<path d="M140.763 41.5178L141.144 47.2744C141.144 47.2744 142.288 48.8596 145.672 48.9132C148.192 48.949 149.038 48.3292 149.038 48.3292L148.496 45.439L147.966 42.6203L141.799 41.6847L140.763 41.5238V41.5178Z" fill="#F79674"/>
<path d="M140.757 41.2438C140.781 41.3987 140.852 41.5834 140.959 41.786C142.437 44.575 147.037 45.3973 148.496 45.4271L147.966 42.6084L140.757 41.2378V41.2438Z" fill="black"/>
<path d="M148.383 29.4147C148.383 29.4147 151.88 36.4287 150.951 40.5167C150.028 44.6047 146.322 44.1578 144.087 43.4844C141.853 42.817 140.763 41.5178 140.763 41.5178C140.763 41.5178 138.749 42.3164 137.278 40.4809C135.806 38.6455 136.545 36.4108 137.689 35.8447C138.833 35.2845 140.268 36.0592 140.268 36.0592L139.071 34.0271C139.071 34.0271 143.128 23.1992 148.377 29.4087L148.383 29.4147Z" fill="#F79674"/>
<path d="M148.86 34.3726C148.86 34.3726 148.824 34.3726 148.806 34.3666C148.687 34.3368 148.616 34.2177 148.645 34.0985C148.645 34.0806 148.759 33.6575 149.146 33.431C149.414 33.2761 149.742 33.2523 150.117 33.3595C150.236 33.3953 150.302 33.5204 150.266 33.6336C150.23 33.7528 150.111 33.8243 149.986 33.7826C149.736 33.7111 149.527 33.7171 149.366 33.8065C149.14 33.9376 149.068 34.1938 149.068 34.1998C149.045 34.3011 148.949 34.3666 148.854 34.3666L148.86 34.3726Z" fill="black"/>
<path d="M144.612 34.9566C144.564 34.9566 144.517 34.9387 144.475 34.9089C144.38 34.8315 144.362 34.6944 144.439 34.5931C145.142 33.6932 146.03 33.9674 146.393 34.2415C146.495 34.313 146.512 34.456 146.441 34.5514C146.369 34.6527 146.232 34.6706 146.131 34.599C146.054 34.5454 145.392 34.0985 144.791 34.8672C144.749 34.9208 144.683 34.9506 144.612 34.9506V34.9566Z" fill="black"/>
<path d="M149.521 32.287L148.085 32.1202C147.96 32.1083 147.877 31.995 147.889 31.8699C147.901 31.7448 148.014 31.6613 148.139 31.6732L149.551 31.8401C149.676 31.852 149.76 31.9652 149.748 32.0904C149.736 32.2036 149.64 32.287 149.527 32.287H149.521Z" fill="black"/>
<path d="M144.296 33.014C144.212 33.014 144.129 32.9664 144.093 32.8829C144.04 32.7697 144.093 32.6386 144.206 32.585L145.815 31.852C145.928 31.7983 146.059 31.852 146.113 31.9652C146.167 32.0784 146.113 32.2095 146 32.2632L144.391 32.9962C144.361 33.0081 144.332 33.014 144.296 33.014Z" fill="black"/>
<path d="M148.579 38.145C148.442 38.1331 148.347 38.0258 148.359 37.9066C148.52 35.654 147.555 34.5516 147.549 34.5397C147.465 34.4503 147.471 34.3072 147.566 34.2238C147.656 34.1404 147.799 34.1463 147.882 34.2357C147.93 34.2834 148.99 35.4753 148.812 37.9364C148.806 38.0556 148.704 38.145 148.591 38.145H148.579Z" fill="black"/>
<path d="M146.381 40.6121C146.286 40.6121 146.19 40.6001 146.089 40.5763C145.207 40.3498 145.082 39.3487 145.076 39.307C145.07 39.2355 145.094 39.164 145.148 39.1163C145.201 39.0686 145.273 39.0507 145.344 39.0627L147.489 39.5513C147.561 39.5692 147.62 39.6228 147.65 39.6884C147.674 39.7599 147.668 39.8374 147.62 39.8969C147.596 39.9267 147.102 40.6121 146.375 40.6121H146.381ZM145.606 39.5752C145.696 39.7956 145.868 40.0578 146.196 40.1413C146.518 40.2247 146.81 40.0578 147.006 39.8969L145.606 39.5752Z" fill="black"/>
<path d="M140.357 38.9732C140.357 38.9732 140.298 38.9732 140.268 38.9554L137.337 37.7218C137.224 37.6741 137.17 37.543 137.218 37.4298C137.265 37.3166 137.396 37.263 137.51 37.3106L140.441 38.5442C140.554 38.5919 140.608 38.723 140.56 38.8362C140.524 38.9196 140.441 38.9732 140.351 38.9732H140.357Z" fill="black"/>
<path d="M137.802 39.7182C137.748 39.7182 137.689 39.7003 137.647 39.6586C137.558 39.5752 137.558 39.4321 137.641 39.3427L138.88 38.0436C138.964 37.9542 139.107 37.9542 139.196 38.0377C139.285 38.1211 139.285 38.2641 139.202 38.3535L137.963 39.6526C137.921 39.7003 137.861 39.7241 137.802 39.7241V39.7182Z" fill="black"/>
<path d="M185.816 31.9235C185.757 31.9235 185.697 31.8996 185.65 31.852L174.347 19.3972C174.264 19.3078 174.27 19.1648 174.365 19.0813C174.455 18.9979 174.598 19.0039 174.681 19.0992L185.983 31.554C186.067 31.6434 186.061 31.7864 185.965 31.8698C185.924 31.9056 185.87 31.9294 185.816 31.9294V31.9235Z" fill="#FCAD4F"/>
<path d="M158.261 61.952C158.142 61.952 158.047 61.8566 158.041 61.7375C157.743 55.9928 154.114 52.0656 154.079 52.0299C153.995 51.9405 154.001 51.7975 154.09 51.714C154.18 51.6306 154.323 51.6366 154.406 51.726C154.442 51.7677 158.184 55.814 158.487 61.7196C158.493 61.8447 158.398 61.946 158.279 61.952H158.267H158.261Z" fill="#FCAD4F"/>
<path d="M133.286 124.536C132.696 124.536 132.297 124.512 132.243 124.512C132.148 124.512 132.064 124.44 132.041 124.351C132.017 124.256 132.052 124.16 132.13 124.107C132.672 123.743 137.462 120.549 138.91 121.318C139.113 121.425 139.357 121.663 139.357 122.17C139.357 122.605 139.184 122.986 138.844 123.308C137.701 124.387 134.847 124.542 133.292 124.542L133.286 124.536ZM132.97 124.083C134.364 124.101 137.438 124.011 138.535 122.974C138.785 122.736 138.91 122.474 138.91 122.164C138.91 121.854 138.791 121.759 138.701 121.711C137.879 121.276 134.966 122.808 132.97 124.089V124.083Z" fill="white"/>
<path d="M95.637 87.213C95.4464 87.213 95.2855 87.1593 95.1664 87.0461C94.219 86.1403 97.4423 82.3383 98.4551 81.1882C98.5386 81.0928 98.6756 81.0869 98.7709 81.1703C98.8662 81.2537 98.8722 81.3908 98.7888 81.4862C96.8465 83.6851 95.0532 86.3191 95.4762 86.7243C95.8992 87.1295 98.1751 85.5027 100.028 83.7268C100.076 83.6851 100.135 83.6613 100.201 83.6672C100.332 83.6732 103.46 83.8639 104.556 81.1226C104.604 81.0094 104.735 80.9498 104.848 80.9975C104.961 81.0452 105.021 81.1763 104.973 81.2895C103.871 84.0486 100.862 84.1261 100.272 84.1201C99.3608 84.9842 96.8882 87.2249 95.643 87.2249L95.637 87.213Z" fill="black"/>
<path d="M140.274 36.0591L141.466 37.4833L141.12 36.1187C141.12 36.1187 141.99 35.7075 142.747 34.8851C143.503 34.0687 143.426 31.9115 143.426 31.9115C143.426 31.9115 144.612 32.2631 145.726 31.3275C146.84 30.3919 147.293 28.6577 147.293 28.6577L148.729 30.1416C148.729 30.1416 147.37 26.0774 145.41 25.404C143.45 24.7306 142.556 26.6256 142.556 26.6256C142.556 26.6256 139.565 26.5482 138.243 28.0618C136.926 29.5755 137.134 30.6839 137.134 30.6839C137.134 30.6839 135.442 31.2857 135.115 33.3476C134.787 35.4095 136.467 38.1448 136.467 38.1448C136.467 38.1448 136.974 34.8792 140.274 36.0591Z" fill="black"/>
<path d="M142.08 51.845C141.83 51.845 141.585 51.7914 141.359 51.6722C140.138 51.0167 140.841 47.614 140.924 47.2266C140.942 47.1432 141.002 47.0776 141.085 47.0598C141.168 47.0419 141.252 47.0598 141.311 47.1253C141.413 47.2385 143.826 49.8546 148.967 48.1145C149.045 48.0847 149.134 48.1086 149.194 48.1682C149.319 48.2933 150.397 49.3958 150.242 50.2062C150.207 50.3969 150.082 50.6651 149.706 50.826C148.568 51.3206 146.364 50.0572 145.708 49.658C145.226 50.1645 143.504 51.845 142.074 51.845H142.08ZM141.282 47.7153C141.043 49.0561 140.936 50.9392 141.568 51.2789C142.717 51.8927 144.797 50.0036 145.506 49.2229C145.536 49.1872 145.577 49.1693 145.619 49.1574C143.289 49.1574 141.866 48.2099 141.282 47.7153ZM145.726 49.1574C145.726 49.1574 145.774 49.1753 145.792 49.1872C146.531 49.6639 148.634 50.8081 149.527 50.4207C149.742 50.3254 149.784 50.2062 149.801 50.1287C149.879 49.7235 149.367 49.0084 148.973 48.5853C147.746 48.9846 146.668 49.1514 145.726 49.1574Z" fill="#FCAD4F"/>
<path d="M239.533 33.1036C239.533 33.1036 243.852 29.105 241.547 26.2207C239.241 23.3305 234.987 26.7451 234.987 26.7451C234.987 26.7451 233.116 25.1242 230.751 26.7153C228.385 28.3064 228.35 31.7687 228.35 31.7687C228.35 31.7687 225.835 31.8939 225.913 34.9629C225.99 38.0319 229.476 40.5169 229.476 40.5169L239.527 33.1096L239.533 33.1036Z" fill="#EA594E"/>
<path d="M203.237 111.545L210.732 123.451L218.901 108.821L214.188 103.351L203.237 111.545Z" fill="#F48C6C"/>
<path d="M207.479 93.4406C206.675 93.1605 182.879 113.744 180.418 116.527C180.21 116.759 180.251 117.128 180.508 117.331C181.074 117.796 182.164 118.642 183.475 119.369C184.899 120.162 186.591 120.817 188.152 120.71C191.834 120.454 197.083 117.075 199.746 116.717C202.415 116.36 206.645 117.409 207.217 116.02C207.789 114.638 207.676 110.633 210.726 108.577C213.777 106.521 215.63 106.086 215.802 104.775C215.916 103.887 212.436 99.1435 209.922 96.0865C208.718 94.6145 207.741 93.53 207.485 93.4406H207.479Z" fill="#6E69E2"/>
<path d="M239.789 161.489L238.067 166.387L228.296 169.51L223.607 167.412L226.116 156.179L239.789 161.489Z" fill="#F48C6C"/>
<path d="M222.297 83.9773C222.297 83.9773 220.533 92.7671 219.699 100.24C218.865 107.713 217.524 117.742 217.524 117.742C217.524 117.742 211.376 140.733 226.11 142.777C244.383 145.31 243.465 123.636 243.465 123.636L237.996 78.2803L222.291 83.9773H222.297Z" fill="#2D386B"/>
<path d="M202.212 118.976L217.339 105.937L221.837 112.29L223.041 141.978C223.041 141.978 216.463 141.09 202.206 118.976H202.212Z" fill="#2D386B"/>
<path d="M252.259 81.7189C252.259 81.7189 257.603 106.259 255.661 124.184C253.718 142.116 244.817 164.093 244.817 164.093L221.099 159.659L229.041 133.087L234.802 83.1133L252.259 81.7129V81.7189Z" fill="#2D386B"/>
<path d="M266.248 30.9165C266.248 30.9165 276.454 43.2878 273.446 53.788C270.985 62.3812 262.078 65.7124 262.078 65.7124L253.302 51.1361C253.302 51.1361 257.419 47.5189 258.366 42.1615C259.23 37.269 255.733 32.2752 255.733 32.2752L266.254 30.9225L266.248 30.9165Z" fill="#F48C6C"/>
<path d="M264.932 23.0443C264.932 23.0443 267.851 32.4241 265.027 33.8484C262.203 35.2726 259.546 34.635 259.546 34.635C259.546 34.635 252.528 32.2692 252.897 28.3898C253.082 26.459 254.118 19.7072 255.727 18.7656C258.068 17.395 264.932 23.0384 264.932 23.0384V23.0443Z" fill="#F48C6C"/>
<path d="M257.818 22.514C257.818 22.514 256.007 26.453 254.333 24.6653C253.088 23.3364 255.316 13.8433 257.657 13.5454C259.999 13.2474 257.818 22.514 257.818 22.514Z" fill="#F48C6C"/>
<path d="M261.822 20.9468C261.822 20.9468 260.118 17.1627 258.694 18.9505C257.276 20.7382 258.682 28.1158 261.041 28.1932C263.401 28.2707 261.816 20.9468 261.816 20.9468H261.822Z" fill="#F48C6C"/>
<path d="M265.247 21.2863C265.247 21.2863 264.33 17.7287 262.823 19.0755C261.315 20.4163 261.428 27.0668 263.478 27.4899C265.527 27.913 265.247 21.2863 265.247 21.2863Z" fill="#F48C6C"/>
<path d="M253.159 30.0346C253.761 31.0239 255.119 31.2146 255.965 30.416C257.562 28.8964 259.522 26.7094 258.021 26.2803C256.644 25.887 254.911 26.7749 253.713 27.5735C252.897 28.1158 252.653 29.2003 253.159 30.0346Z" fill="#F48C6C"/>
<path d="M262.632 31.1728C262.566 31.1728 262.507 31.143 262.459 31.0953C261.089 29.4685 256.394 29.2659 256.346 29.2599C256.263 29.2599 256.191 29.2063 256.155 29.1348C256.12 29.0573 256.126 28.9739 256.179 28.9023C258.086 26.3339 257.895 25.7618 257.794 25.6427C257.466 25.2732 255.667 25.9883 254.189 26.8583C254.088 26.9179 253.945 26.8881 253.885 26.7809C253.82 26.6736 253.856 26.5365 253.963 26.4769C254.755 26.0062 257.407 24.5462 258.127 25.3507C258.574 25.8512 258.163 26.9358 256.781 28.8428C258.002 28.9321 261.547 29.3135 262.804 30.8093C262.882 30.9046 262.87 31.0417 262.775 31.1251C262.733 31.1609 262.679 31.1788 262.632 31.1788V31.1728Z" fill="black"/>
<path d="M263.454 27.7163C263.114 27.7163 262.834 27.5971 262.614 27.3528C261.97 26.6556 262.107 25.1598 262.113 25.1002L261.595 20.9764C261.577 20.8513 261.667 20.744 261.792 20.7262C261.917 20.7083 262.024 20.7977 262.042 20.9228L262.56 25.0943C262.524 25.5174 262.524 26.596 262.942 27.0548C263.079 27.2038 263.251 27.2634 263.472 27.2753C264.848 27.2515 264.86 24.9274 264.86 24.9036C264.86 24.7784 264.961 24.6771 265.08 24.6771C265.206 24.6771 265.301 24.7784 265.307 24.8976C265.307 25.0108 265.295 27.6865 263.478 27.7163H263.454Z" fill="black"/>
<path d="M260.356 28.0441C259.075 28.0441 258.706 25.8869 258.688 25.7915L257.848 20.8811C257.824 20.7619 257.907 20.6427 258.033 20.6249C258.158 20.607 258.271 20.6845 258.289 20.8096L259.129 25.72C259.129 25.72 259.48 27.7283 260.469 27.5912C262.191 27.3409 262.12 25.2254 262.114 25.136C262.114 25.0109 262.203 24.9095 262.328 24.9036C262.453 24.9036 262.555 24.993 262.561 25.1181C262.602 26.018 262.233 27.7938 260.529 28.0381C260.469 28.0441 260.41 28.0501 260.356 28.0501V28.0441Z" fill="black"/>
<path d="M193.371 36.2857C193.371 36.2857 190.452 45.6655 193.276 47.0897C196.1 48.514 198.757 47.8764 198.757 47.8764C198.757 47.8764 205.776 45.5106 205.406 41.6371C205.222 39.7063 204.185 32.9545 202.576 32.0129C200.235 30.6423 193.371 36.2857 193.371 36.2857Z" fill="#F48C6C"/>
<path d="M200.485 35.7554C200.485 35.7554 202.296 39.6945 203.97 37.9067C205.215 36.5778 202.987 27.0848 200.646 26.7868C198.304 26.4889 200.485 35.7554 200.485 35.7554Z" fill="#F48C6C"/>
<path d="M196.481 34.188C196.481 34.188 198.185 30.4039 199.609 32.1917C201.027 33.9795 199.621 41.357 197.261 41.4344C194.902 41.5119 196.487 34.188 196.487 34.188H196.481Z" fill="#F48C6C"/>
<path d="M193.055 34.5278C193.055 34.5278 193.972 30.9701 195.48 32.3169C196.987 33.6577 196.874 40.3082 194.824 40.7313C192.775 41.1544 193.055 34.5278 193.055 34.5278Z" fill="#F48C6C"/>
<path d="M205.144 43.2758C204.542 44.2651 203.183 44.4558 202.337 43.6572C200.741 42.1376 198.781 39.9506 200.282 39.5215C201.658 39.1282 203.392 40.0162 204.59 40.8147C205.406 41.357 205.65 42.4416 205.144 43.2758Z" fill="#F48C6C"/>
<path d="M195.665 44.414C195.617 44.414 195.564 44.3961 195.522 44.3604C195.427 44.2829 195.415 44.1399 195.492 44.0445C196.749 42.5488 200.294 42.1674 201.516 42.078C200.139 40.171 199.722 39.0865 200.169 38.5859C200.89 37.7814 203.541 39.2474 204.334 39.7122C204.441 39.7777 204.477 39.9148 204.411 40.0161C204.346 40.1234 204.209 40.1591 204.107 40.0936C202.63 39.2235 200.831 38.5144 200.503 38.8779C200.402 38.9911 200.211 39.5692 202.117 42.1376C202.165 42.2031 202.177 42.2925 202.141 42.37C202.106 42.4475 202.034 42.4951 201.951 42.4951C201.903 42.4951 197.208 42.6977 195.838 44.3306C195.796 44.3842 195.731 44.408 195.665 44.408V44.414Z" fill="black"/>
<path d="M194.842 40.9517C193.001 40.9219 192.989 38.2462 192.989 38.133C192.989 38.0079 193.091 37.9125 193.21 37.9125C193.335 37.9125 193.43 38.0138 193.43 38.139C193.43 38.1628 193.442 40.4869 194.818 40.5107C195.033 40.5107 195.212 40.4452 195.349 40.2962C195.772 39.8374 195.766 38.7647 195.73 38.3893L196.248 34.1701C196.266 34.0509 196.373 33.9616 196.498 33.9735C196.624 33.9914 196.707 34.0986 196.695 34.2238L196.177 38.3952C196.177 38.3952 196.326 39.9029 195.676 40.6001C195.456 40.8385 195.17 40.9636 194.836 40.9636L194.842 40.9517Z" fill="black"/>
<path d="M197.947 41.2856C197.887 41.2856 197.834 41.2856 197.774 41.2736C196.07 41.0233 195.701 39.2535 195.742 38.3536C195.742 38.2285 195.856 38.145 195.975 38.1391C196.1 38.1391 196.195 38.2464 196.189 38.3715C196.189 38.4609 196.112 40.5764 197.834 40.8326C198.823 40.9816 199.168 38.9853 199.174 38.9674L200.014 34.057C200.038 33.9378 200.145 33.8544 200.27 33.8723C200.39 33.8902 200.473 34.0093 200.455 34.1285L199.615 39.0389C199.597 39.1343 199.228 41.2856 197.947 41.2856Z" fill="black"/>
<path d="M256.716 44.7419L269.305 61.5171C269.305 61.5171 263.549 66.2905 258.866 68.0663C253.552 70.0805 252.849 70.3487 252.849 70.3487L254.017 84.9547L221.879 86.1585C221.879 86.1585 220.026 54.968 220.372 50.9872C220.718 47.0064 236.661 46.1126 236.661 46.1126C236.661 46.1126 249.465 48.4188 256.721 44.7419H256.716Z" fill="#FCAD4F"/>
<path d="M192.173 45.2662C192.173 45.2662 192.584 64.3178 201.414 70.7478C208.641 76.0098 217.709 73.1554 217.709 73.1554L215.665 56.261C215.665 56.261 210.19 55.9392 206.15 52.2981C202.462 48.9669 202.79 45.8741 202.79 45.8741L192.173 45.2603V45.2662Z" fill="#F48C6C"/>
<path d="M209.034 53.329L209.422 74.2995C209.422 74.2995 216.893 74.526 221.677 73.0421C227.105 71.3616 227.826 71.1411 227.826 71.1411L223.601 48.3352C223.601 48.3352 215.6 50.8083 209.028 53.329H209.034Z" fill="#FCAD4F"/>
<path d="M232.085 42.0185L232.448 47.8466C232.448 47.8466 233.604 49.4556 237.03 49.5212C239.586 49.5688 240.438 48.9372 240.438 48.9372L239.902 46.0052L239.372 43.1448L233.128 42.1734L232.079 42.0066L232.085 42.0185Z" fill="#F48C6C"/>
<path d="M233.134 42.1794C233.158 42.3403 233.229 42.5191 233.336 42.7337C234.82 45.5643 238.425 45.9695 239.902 46.0112L239.372 43.1508L233.128 42.1794H233.134Z" fill="black"/>
<path d="M239.849 29.7841C239.849 29.7841 243.364 36.9054 242.41 41.0411C241.457 45.1768 237.71 44.706 235.446 44.0207C233.182 43.3354 232.085 42.0184 232.085 42.0184C232.085 42.0184 230.042 42.8229 228.558 40.9517C227.081 39.0805 227.831 36.822 228.993 36.2558C230.155 35.6897 231.609 36.4823 231.609 36.4823L230.405 34.4204C230.405 34.4204 234.558 23.4674 239.849 29.7782V29.7841Z" fill="#F48C6C"/>
<path d="M231.573 39.6408C231.532 39.6408 231.49 39.6289 231.454 39.6051L228.713 37.8769C228.606 37.8113 228.576 37.6743 228.642 37.567C228.708 37.4597 228.845 37.4299 228.952 37.4955L231.692 39.2237C231.8 39.2892 231.829 39.4263 231.764 39.5336C231.722 39.5991 231.651 39.6408 231.573 39.6408Z" fill="black"/>
<path d="M229.178 39.7539C229.083 39.7539 228.993 39.6943 228.963 39.599C228.928 39.4798 228.987 39.3547 229.106 39.3189L230.81 38.7647C230.93 38.7289 231.055 38.7885 231.09 38.9077C231.126 39.0269 231.067 39.152 230.947 39.1878L229.243 39.742C229.243 39.742 229.196 39.7539 229.172 39.7539H229.178Z" fill="black"/>
<path d="M235.523 33.3301C235.481 33.3301 235.433 33.3181 235.398 33.2943C235.296 33.2228 235.267 33.0857 235.338 32.9844C236.053 31.9237 237.072 31.9654 237.513 32.1323C237.626 32.174 237.686 32.3051 237.638 32.4183C237.596 32.5315 237.465 32.5911 237.352 32.5494C237.31 32.5375 236.399 32.2097 235.707 33.2347C235.666 33.3003 235.594 33.336 235.523 33.336V33.3301Z" fill="black"/>
<path d="M240.784 32.5256C240.736 32.5256 240.695 32.5137 240.653 32.4839C240.003 32.0131 239.372 32.4183 239.348 32.4302C239.247 32.4958 239.104 32.4719 239.038 32.3706C238.967 32.2693 238.997 32.1323 239.098 32.0608C239.134 32.0369 240.003 31.4589 240.915 32.1204C241.016 32.1919 241.034 32.3349 240.963 32.4302C240.921 32.4898 240.85 32.5196 240.784 32.5196V32.5256Z" fill="black"/>
<path d="M240.236 38.7767C240.236 38.7767 240.2 38.7767 240.188 38.7767C240.069 38.7469 239.992 38.6277 240.022 38.5085C240.51 36.387 238.937 35.2846 238.872 35.2369C238.77 35.1654 238.747 35.0283 238.812 34.927C238.884 34.8257 239.021 34.7959 239.122 34.8674C239.14 34.8793 241.016 36.1844 240.456 38.6098C240.433 38.7111 240.343 38.7826 240.236 38.7826V38.7767Z" fill="black"/>
<path d="M240.927 35.3323C240.831 35.3323 240.748 35.2727 240.718 35.1833L240.271 33.8663C240.23 33.7471 240.295 33.622 240.408 33.5803C240.528 33.5386 240.653 33.6041 240.694 33.7173L241.141 35.0343C241.183 35.1535 241.117 35.2786 241.004 35.3204C240.98 35.3263 240.957 35.3323 240.933 35.3323H240.927Z" fill="black"/>
<path d="M237.245 35.6301C237.15 35.6301 237.066 35.5705 237.037 35.4812L236.59 34.1642C236.548 34.045 236.614 33.9198 236.727 33.8781C236.846 33.8364 236.971 33.902 237.013 34.0152L237.46 35.3322C237.501 35.4514 237.436 35.5765 237.323 35.6182C237.299 35.6242 237.275 35.6301 237.251 35.6301H237.245Z" fill="black"/>
<path d="M240.564 31.3932C240.564 31.3932 239.861 30.2609 238.401 30.3384C236.942 30.4159 236.161 31.4945 236.161 31.4945C236.161 31.4945 236.954 33.902 235.053 35.3263C233.158 36.7505 231.603 36.4824 231.603 36.4824L230.138 36.0593L228.958 34.0272L232.831 29.2955L238.026 26.1252L240.916 28.4374L240.564 31.3813V31.3932Z" fill="#EA594E"/>
<path d="M252.849 70.575C252.736 70.575 252.634 70.4856 252.628 70.3664L252.009 62.6373C251.997 62.5122 252.092 62.4049 252.211 62.3989C252.342 62.3989 252.444 62.4824 252.45 62.6015L253.069 70.3306C253.081 70.4558 252.986 70.5631 252.867 70.569H252.849V70.575Z" fill="#6E69E2"/>
<path d="M220.753 72.2973C220.723 72.2973 220.688 72.2913 220.658 72.2735C220.568 72.2317 220.515 72.1364 220.533 72.0351C220.831 70.1281 221.45 66.9102 222.219 66.8089C222.445 66.785 222.624 66.934 222.767 67.2618C223.595 69.1866 221.033 72.0947 220.926 72.2198C220.884 72.2675 220.819 72.2973 220.759 72.2973H220.753ZM222.237 67.2498C221.969 67.3929 221.468 69.2939 221.117 71.2485C221.802 70.3129 222.85 68.6026 222.35 67.4346C222.284 67.2737 222.237 67.2439 222.237 67.2439V67.2498Z" fill="#6E69E2"/>
<path d="M227.468 143.075C226.616 143.075 226.098 143.003 226.08 143.003C225.96 142.985 225.871 142.872 225.889 142.747C225.907 142.628 226.014 142.538 226.145 142.556C226.229 142.568 234.707 143.718 240.42 136.192C248.35 125.739 242.964 95.7288 242.911 95.4308C242.899 95.3712 242.911 95.3057 242.953 95.2521C242.994 95.2044 243.048 95.1686 243.113 95.1627L251.169 94.5191C251.306 94.5072 251.401 94.6025 251.407 94.7217C251.419 94.8468 251.323 94.9541 251.204 94.9601L243.393 95.5858C243.942 98.6786 248.529 126.234 240.772 136.454C236.298 142.348 230.173 143.069 227.462 143.069L227.468 143.075Z" fill="#FCAD4F"/>
<path d="M223.566 116.509C223.464 116.509 223.369 116.491 223.268 116.461C221.296 115.841 218.895 108.899 218.626 108.106C218.597 108.011 218.626 107.904 218.716 107.844C218.799 107.79 218.912 107.796 218.99 107.868C219.222 108.088 224.674 113.279 224.531 115.514C224.507 115.859 224.37 116.127 224.108 116.312C223.941 116.437 223.756 116.497 223.56 116.497L223.566 116.509ZM219.371 108.869C220.277 111.324 222.1 115.621 223.399 116.032C223.566 116.086 223.709 116.062 223.852 115.96C224 115.853 224.078 115.698 224.09 115.49C224.179 114.018 221.164 110.663 219.371 108.863V108.869Z" fill="#FCAD4F"/>
<path d="M223.608 93.9114C223.524 93.9114 223.447 93.8637 223.405 93.7863C223.351 93.673 223.399 93.5419 223.506 93.4883C226.658 91.9508 228.767 87.9641 228.791 87.9224C228.851 87.8151 228.982 87.7734 229.095 87.827C229.202 87.8866 229.244 88.0177 229.19 88.131C229.101 88.2978 226.992 92.2905 223.709 93.8935C223.679 93.9114 223.643 93.9174 223.613 93.9174L223.608 93.9114Z" fill="#FCAD4F"/>
<path d="M237.286 49.8846C234.302 49.8846 232.318 48.0372 232.294 48.0134C232.204 47.9299 232.198 47.7869 232.288 47.6975C232.371 47.6081 232.514 47.6022 232.604 47.6916C232.735 47.8167 235.928 50.7725 240.349 48.7464C240.462 48.6927 240.593 48.7464 240.647 48.8536C240.7 48.9669 240.647 49.098 240.54 49.1516C239.372 49.6879 238.281 49.8905 237.292 49.8905L237.286 49.8846Z" fill="#6E69E2"/>
<path d="M238.735 41.1245C237.829 41.1245 237.251 39.8195 237.222 39.7658C237.186 39.6883 237.198 39.599 237.251 39.5394C237.305 39.4738 237.388 39.444 237.466 39.4619L239.938 39.9386C240.01 39.9505 240.064 39.9982 240.099 40.0578C240.129 40.1234 240.129 40.1949 240.099 40.2545C240.081 40.2902 239.658 41.1066 238.759 41.1305H238.735V41.1245ZM237.853 39.9803C238.068 40.3141 238.395 40.6776 238.747 40.6776C239.104 40.6657 239.361 40.475 239.515 40.3021L237.847 39.9803H237.853Z" fill="black"/>
<path d="M240.689 182.733C241.386 182.853 253.523 183.115 255.06 183.145C255.393 183.151 255.691 182.936 255.733 182.602C255.828 181.851 256.025 181.083 255.924 179.545C255.822 177.871 255.435 176.053 254.446 174.79C252.099 171.81 246.034 171.739 244.187 169.683C242.334 167.621 240.85 163.414 239.271 163.735C237.698 164.057 234.165 166.489 230.567 165.094C226.968 163.7 225.514 162.377 224.239 162.997C223.453 163.384 221.445 169.009 220.111 172.972C219.902 173.592 220.206 174.248 220.808 174.498L240.689 182.739V182.733Z" fill="#6E69E2"/>
<path d="M245.806 170.964C245.687 170.964 245.586 170.869 245.586 170.749C245.586 170.624 245.681 170.523 245.8 170.517C245.848 170.517 250.811 170.326 252.032 167.907C252.193 167.591 252.175 167.454 252.145 167.43C251.776 167.079 248.928 168.324 246.509 169.713C246.414 169.766 246.289 169.742 246.223 169.659C246.152 169.57 246.158 169.444 246.235 169.367C247.117 168.443 249.333 165.815 249.024 164.802C248.988 164.689 248.898 164.522 248.559 164.451C246.795 164.057 244.96 168.151 244.4 169.76C244.358 169.879 244.227 169.939 244.114 169.897C243.995 169.856 243.935 169.73 243.977 169.611C244.067 169.361 246.146 163.461 248.654 164.01C249.178 164.129 249.375 164.433 249.452 164.671C249.762 165.678 248.398 167.543 247.433 168.699C249.155 167.782 251.836 166.518 252.461 167.108C252.676 167.311 252.67 167.651 252.437 168.115C251.103 170.773 246.039 170.964 245.824 170.97H245.818L245.806 170.964Z" fill="white"/>
<path d="M199.389 123.391C199.132 123.391 198.942 123.29 198.817 123.189C198.006 122.515 198.12 120.209 198.292 118.714C197.357 120.424 195.832 122.968 194.962 122.802C194.67 122.748 194.491 122.462 194.432 121.949C194.086 118.994 198.215 116.05 198.394 115.931C198.495 115.859 198.632 115.883 198.704 115.984C198.775 116.085 198.751 116.223 198.65 116.294C198.608 116.324 194.563 119.208 194.879 121.902C194.92 122.253 195.004 122.355 195.045 122.366C195.558 122.48 197.244 119.852 198.507 117.361C198.555 117.259 198.674 117.212 198.775 117.248C198.882 117.283 198.942 117.391 198.924 117.498C198.698 118.755 198.286 122.17 199.103 122.843C199.198 122.921 199.359 123.01 199.687 122.885C201.367 122.241 200.658 117.814 200.241 116.163C200.211 116.044 200.282 115.919 200.402 115.889C200.527 115.859 200.646 115.931 200.676 116.05C200.741 116.306 202.237 122.384 199.847 123.296C199.675 123.362 199.526 123.386 199.395 123.386L199.389 123.391Z" fill="white"/>
</g>
<defs>
<clipPath id="clip0_1144_551">
<rect width="274" height="192" fill="white"/>
</clipPath>
</defs>
</svg>
