<svg width="351" height="215" viewBox="0 0 351 215" fill="none" xmlns="http://www.w3.org/2000/svg">
<g clip-path="url(#clip0_1144_846)">
<path d="M288.954 189.789C288.954 189.789 273.718 197.648 269.276 202.099C264.834 206.549 264.677 209.508 265.241 210.941C265.806 212.375 297.705 210.05 297.705 210.05C297.705 210.05 297.813 201.232 301.234 201.715C304.654 202.199 303.002 210.133 303.002 210.133L312.658 209.791C312.658 209.791 312.866 201.023 312.069 197.606C311.209 194.414 310.164 191.275 308.939 188.205L288.954 189.789Z" fill="#68B6D8"/>
<path d="M292.217 187.155C292.217 187.155 279.132 195.048 281.581 195.764C284.03 196.481 297.721 196.231 301.698 194.656C305.675 193.081 308.972 188.197 308.972 188.197L299.681 184.73L292.217 187.155Z" fill="#ED785D"/>
<path d="M292.216 187.155C292.216 187.155 282.734 131.749 288.895 123.898C295.056 116.047 309.079 135.858 309.079 135.858L308.988 188.197C308.988 188.197 296.451 192.489 292.216 187.155Z" fill="#ED785D"/>
<path d="M307.477 130.523C307.477 130.523 309.354 183.13 311.878 188.697C314.402 194.264 328.184 188.697 328.184 188.697L331.447 131.69L307.477 130.523Z" fill="#F48462"/>
<path d="M293.246 76.0839C293.246 76.0839 288.19 91.9191 286.313 105.129C284.437 118.339 283.972 139.65 285.599 140.333C287.227 141.016 305.916 140.758 305.916 140.758C305.916 140.758 312.284 142.133 323.136 141.2C326.201 140.965 329.25 140.556 332.269 139.975C332.801 139.867 333.277 139.573 333.613 139.145C333.949 138.718 334.123 138.185 334.104 137.641C333.83 128.665 331.871 86.5268 326.3 78.9676C321.359 72.2751 293.246 76.0839 293.246 76.0839Z" fill="#F7B369"/>
<path d="M311.379 186.964C311.379 186.964 306.472 203.974 307.477 207.524C308.481 211.075 318.81 215.183 322.255 215.025C325.701 214.867 331.812 208.883 332.651 206.741C333.489 204.599 329.238 184.08 324.398 185.38C319.557 186.68 311.379 186.964 311.379 186.964Z" fill="#81CEEA"/>
<path d="M311.379 186.963C311.379 186.963 313.778 198.181 319.457 198.181C325.136 198.181 328.184 188.697 328.184 188.697L325.884 178.121L311.379 186.963Z" fill="#F48462"/>
<path d="M277.704 61.6156C277.704 61.6156 288.746 36.2877 301.068 32.7289C313.389 29.1702 300.129 64.4993 300.129 64.4993L277.704 61.6156Z" fill="#92B4EA"/>
<path d="M323.46 31.312C323.46 31.312 347.464 36.3126 350.61 55.9982C354.944 83.068 321.883 85.1683 321.883 85.1683L323.46 31.312Z" fill="#92B4EA"/>
<path d="M316.468 27.2116C316.468 27.2116 327.586 28.6951 323.941 14.2601C320.296 -0.174911 310.05 8.01771 310.05 8.01771L316.468 27.2116Z" fill="black"/>
<path d="M291.012 83.0264C291.012 83.0264 290.846 37.4377 299.888 33.1372C311.229 27.7449 327.644 30.2286 330.608 35.7125C334.029 41.9799 329.147 79.7843 329.147 79.7843C317.29 85.6255 303.679 86.7826 291.012 83.0264Z" fill="#92B4EA"/>
<path d="M318.603 23.3694L319.242 31.1286C319.242 31.1286 318.603 33.6956 314.111 34.4623C310.79 35.0207 308.947 34.129 308.947 34.129L309.096 30.1618L309.237 26.2947L317.258 23.7944L318.603 23.3694Z" fill="#F48462"/>
<path d="M317.258 23.7861C317.246 24.0484 317.192 24.3072 317.1 24.5529C315.689 28.5784 311.022 29.8035 309.096 30.1369L309.237 26.2698L317.258 23.7861Z" fill="black"/>
<path d="M306.065 8.71758C306.065 8.71758 302.802 18.7854 304.845 24.061C306.887 29.3366 311.728 27.9948 314.576 26.653C316.189 25.944 317.581 24.8092 318.602 23.3693C319.466 23.5385 320.361 23.4278 321.158 23.0533C321.955 22.6788 322.612 22.0598 323.036 21.2857C324.622 18.5354 323.202 15.7017 321.567 15.1767C319.931 14.6516 318.171 16.0101 318.171 16.0101L319.366 13.0597C319.366 13.0597 311.811 -0.616841 306.065 8.71758Z" fill="#F48462"/>
<path d="M284.977 47.4389C284.977 47.4389 277.122 31.0619 278.276 30.8453C279.43 30.6286 286.579 46.2221 286.579 46.2221L284.977 47.4389Z" fill="black"/>
<path d="M292.798 60.3238C292.838 60.3228 292.879 60.3134 292.916 60.2963C292.953 60.2792 292.986 60.2547 293.013 60.2242C293.04 60.1938 293.061 60.1581 293.074 60.1193C293.087 60.0805 293.092 60.0395 293.088 59.9987C292.657 56.315 295.646 44.697 295.679 44.5803C295.696 44.5041 295.684 44.424 295.643 44.357C295.603 44.2901 295.538 44.2416 295.463 44.2219C295.388 44.2059 295.31 44.2184 295.244 44.2569C295.178 44.2954 295.129 44.3572 295.106 44.4303C294.981 44.9136 292.059 56.2816 292.507 60.0654C292.515 60.1369 292.549 60.2027 292.603 60.2504C292.657 60.2981 292.726 60.3242 292.798 60.3238Z" fill="white"/>
<path d="M276.939 55.6064C276.939 55.6064 281.962 44.9969 284.844 43.505C287.725 42.0132 295.181 42.6716 295.28 43.505C295.38 44.3385 288.771 46.2553 288.771 46.2553C288.771 46.2553 293.354 52.4477 293.595 53.9312C293.835 55.4147 290.938 60.182 290.274 60.707C289.609 61.2321 287.393 59.0402 287.393 59.0402C286.242 60.7473 284.645 62.1028 282.776 62.9573C279.928 64.0908 276.026 60.0236 276.026 60.0236L276.939 55.6064Z" fill="#F48462"/>
<path d="M306.174 17.9021C306.248 17.9023 306.32 17.8738 306.374 17.8227C306.428 17.7715 306.46 17.7016 306.464 17.6271L306.614 15.7269C306.617 15.662 306.6 15.5976 306.564 15.5435C306.528 15.4894 306.476 15.4484 306.415 15.4269L305.485 15.1185C305.411 15.0944 305.331 15.1 305.261 15.1342C305.191 15.1685 305.137 15.2286 305.111 15.3018C305.087 15.3748 305.093 15.4542 305.127 15.5228C305.162 15.5915 305.221 15.6438 305.294 15.6686L306.008 15.9102L305.883 17.5771C305.881 17.6154 305.886 17.6538 305.899 17.6901C305.911 17.7263 305.931 17.7597 305.956 17.7884C305.982 17.817 306.013 17.8404 306.047 17.857C306.082 17.8737 306.119 17.8834 306.157 17.8855L306.174 17.9021Z" fill="black"/>
<path d="M285.79 63.3324C285.79 63.3324 288.58 60.3237 288.597 57.8984C288.613 55.4731 283.324 55.8149 283.324 55.8149L282.685 60.5321L285.79 63.3324Z" fill="#FF9C85"/>
<path d="M278.475 54.0479H313.421C314.659 54.0479 315.663 55.0553 315.663 56.2981V80.0425C315.663 81.2853 314.659 82.2928 313.421 82.2928H278.475C277.237 82.2928 276.233 81.2853 276.233 80.0425V56.2981C276.233 55.0553 277.237 54.0479 278.475 54.0479Z" fill="black"/>
<path d="M281.065 54.0479H315.879C317.112 54.0479 318.112 55.0516 318.112 56.2898V80.0509C318.112 81.2891 317.112 82.2928 315.879 82.2928H281.065C279.832 82.2928 278.832 81.2891 278.832 80.0509V56.2898C278.832 55.0516 279.832 54.0479 281.065 54.0479Z" fill="#40507F"/>
<path d="M296.941 71.4916C295.111 71.4916 293.628 70.0028 293.628 68.1662C293.628 66.3296 295.111 64.8408 296.941 64.8408C298.771 64.8408 300.254 66.3296 300.254 68.1662C300.254 70.0028 298.771 71.4916 296.941 71.4916Z" fill="white"/>
<path d="M311.704 17.5437C311.779 17.5437 311.852 17.5141 311.906 17.4612C311.96 17.4083 311.992 17.3362 311.994 17.2603L312.044 15.5934C312.044 15.5356 312.028 15.4789 311.997 15.4301C311.966 15.3813 311.922 15.3425 311.87 15.3184L310.956 14.8934C310.886 14.8626 310.806 14.8611 310.734 14.8892C310.663 14.9173 310.605 14.9728 310.574 15.0434C310.558 15.0777 310.548 15.1151 310.546 15.1532C310.545 15.1913 310.55 15.2294 310.564 15.2652C310.577 15.301 310.597 15.3338 310.623 15.3616C310.649 15.3893 310.681 15.4115 310.715 15.4268L311.454 15.7685V17.277C311.452 17.3156 311.458 17.3542 311.471 17.3905C311.484 17.4269 311.505 17.4601 311.531 17.4882C311.557 17.5163 311.589 17.5387 311.625 17.554C311.66 17.5692 311.698 17.5771 311.737 17.577L311.704 17.5437Z" fill="black"/>
<path d="M325.967 66.9077C325.967 66.9077 319.034 64.6408 318.113 64.3491C318.113 64.3491 318.013 66.8494 318.32 67.2911C318.627 67.7328 304.961 69.8498 304.994 71.1749C305.008 71.5497 305.143 71.9099 305.378 72.2014C305.613 72.4929 305.936 72.7001 306.298 72.7918C306.298 72.7918 303.566 73.3835 304.297 74.7087C304.493 75.0848 304.778 75.4069 305.126 75.6467C305.475 75.8865 305.878 76.0366 306.298 76.0838C306.298 76.0838 303.608 77.4006 306.298 79.0758C308.988 80.751 322.189 81.7761 326.424 77.534C329.537 74.417 325.967 66.9077 325.967 66.9077Z" fill="#F48462"/>
<path d="M318.171 15.9852C318.171 15.9852 313.579 15.5935 311.379 12.8515C310.098 11.1932 309.11 9.32719 308.456 7.33422C307.659 8.14137 306.977 9.05576 306.43 10.0512C305.845 11.0941 305.335 12.1776 304.903 13.2932C304.903 13.2932 302.819 6.99251 308.448 4.40055C314.077 1.80858 319.242 5.33399 320.977 8.8594C322.712 12.3848 318.171 15.9852 318.171 15.9852Z" fill="black"/>
<path d="M321.858 62.8407L322.215 80.4594C322.215 80.4594 328.782 81.5262 337.849 75.4588C350.452 67.0079 346.094 64.3575 346.094 64.3575L333.888 57.2234L321.858 62.8407Z" fill="#92B4EA"/>
<path d="M306.331 73.1084L314.177 72.2C314.253 72.1896 314.323 72.15 314.371 72.0894C314.419 72.0288 314.441 71.952 314.434 71.875C314.43 71.8366 314.418 71.7994 314.4 71.7655C314.381 71.7317 314.356 71.7019 314.326 71.6778C314.296 71.6538 314.261 71.636 314.224 71.6255C314.187 71.615 314.149 71.612 314.11 71.6166L306.298 72.5167C306.221 72.5271 306.152 72.5668 306.104 72.6273C306.056 72.6879 306.033 72.7647 306.04 72.8417C306.05 72.9133 306.084 72.9792 306.137 73.028C306.19 73.0767 306.259 73.1052 306.331 73.1084Z" fill="black"/>
<path d="M306.331 76.384H314.144C314.214 76.3722 314.277 76.336 314.323 76.2818C314.369 76.2277 314.394 76.159 314.394 76.0881C314.394 76.0172 314.369 75.9485 314.323 75.8944C314.277 75.8402 314.214 75.804 314.144 75.7922H306.331C306.262 75.804 306.198 75.8402 306.153 75.8944C306.107 75.9485 306.082 76.0172 306.082 76.0881C306.082 76.159 306.107 76.2277 306.153 76.2818C306.198 76.336 306.262 76.3722 306.331 76.384Z" fill="black"/>
<path d="M319.408 62.5822C319.452 62.5908 319.497 62.5908 319.541 62.5822C319.649 62.5239 330.435 57.1149 335.79 56.7482C335.859 56.7364 335.923 56.7003 335.968 56.6461C336.014 56.5919 336.039 56.5233 336.039 56.4524C336.039 56.3814 336.014 56.3128 335.968 56.2586C335.923 56.2045 335.859 56.1683 335.79 56.1565C330.318 56.5482 319.765 61.8488 319.325 62.0738C319.29 62.0898 319.259 62.1129 319.233 62.1416C319.207 62.1703 319.187 62.2041 319.174 62.2408C319.162 62.2775 319.157 62.3164 319.16 62.3551C319.163 62.3937 319.174 62.4313 319.193 62.4656C319.218 62.4992 319.251 62.527 319.288 62.5471C319.325 62.5672 319.366 62.5792 319.408 62.5822Z" fill="white"/>
<path d="M326.341 59.4485C326.407 59.4467 326.471 59.4233 326.523 59.3818C327.976 58.215 332.7 54.3229 332.277 53.0311C332.211 52.8227 332.02 52.581 331.447 52.5643C328.64 52.4227 326.141 58.7734 326.033 59.0484C326.01 59.1084 326.007 59.1745 326.025 59.2363C326.043 59.2981 326.081 59.3522 326.133 59.3901C326.194 59.4322 326.267 59.4527 326.341 59.4485ZM331.405 53.1477H331.455C331.663 53.1477 331.721 53.1978 331.721 53.2144C331.895 53.7478 329.595 56.0648 327.079 58.215C328.018 56.1564 329.77 53.1477 331.405 53.1477Z" fill="white"/>
<path d="M319.399 9.2844C319.399 9.2844 318.079 0.883423 325.211 0.033324C332.343 -0.816775 331.455 13.3682 322.264 13.2099C313.073 13.0515 319.399 9.2844 319.399 9.2844Z" fill="black"/>
<path d="M323.659 13.3515H323.717C323.754 13.3446 323.79 13.3302 323.822 13.3091C323.854 13.2879 323.881 13.2606 323.902 13.2287C323.923 13.1968 323.937 13.1609 323.944 13.1233C323.951 13.0857 323.95 13.0471 323.941 13.0098C323.044 8.84267 320.944 7.38417 320.853 7.32583C320.821 7.30394 320.785 7.28852 320.748 7.28044C320.71 7.27236 320.671 7.27179 320.634 7.27876C320.596 7.28572 320.56 7.30009 320.528 7.32103C320.495 7.34198 320.468 7.3691 320.446 7.40084C320.424 7.43258 320.409 7.46832 320.4 7.50602C320.392 7.54372 320.392 7.58264 320.399 7.62056C320.406 7.65848 320.42 7.69467 320.441 7.72703C320.462 7.7594 320.489 7.78733 320.52 7.80922C320.52 7.80922 322.521 9.23438 323.368 13.1348C323.385 13.1986 323.423 13.2548 323.476 13.2942C323.529 13.3335 323.593 13.3537 323.659 13.3515Z" fill="white"/>
<path d="M312.5 13.5767C312.57 13.5757 312.637 13.5501 312.69 13.5045C312.743 13.4588 312.779 13.3959 312.791 13.3266C312.796 13.2883 312.795 13.2491 312.785 13.2115C312.776 13.1738 312.759 13.1385 312.736 13.1074C312.713 13.0764 312.683 13.0503 312.65 13.0307C312.617 13.0111 312.58 12.9984 312.542 12.9933L310.001 12.6099C309.924 12.6023 309.848 12.6238 309.786 12.6701C309.725 12.7164 309.683 12.7841 309.669 12.8599C309.659 12.9371 309.68 13.0149 309.726 13.0771C309.773 13.1393 309.841 13.1809 309.918 13.1933L312.458 13.5683L312.5 13.5767Z" fill="black"/>
<path d="M304.903 13.585H304.961L306.622 13.2433C306.698 13.2272 306.766 13.1815 306.809 13.116C306.853 13.0505 306.869 12.9705 306.854 12.8933C306.847 12.8557 306.833 12.8199 306.812 12.788C306.791 12.7561 306.763 12.7289 306.732 12.7078C306.7 12.6868 306.664 12.6725 306.627 12.6657C306.589 12.6589 306.551 12.6597 306.514 12.6682L304.853 13.0099C304.785 13.0265 304.725 13.0673 304.684 13.1249C304.644 13.1824 304.625 13.2528 304.632 13.3229C304.639 13.3931 304.671 13.4583 304.723 13.5065C304.774 13.5546 304.841 13.5825 304.911 13.585H304.903Z" fill="black"/>
<path d="M308.415 20.8773C308.455 20.8774 308.495 20.8694 308.532 20.8536C308.57 20.8379 308.603 20.8148 308.631 20.7857C308.685 20.7297 308.715 20.655 308.715 20.5773C308.715 20.4996 308.685 20.4249 308.631 20.3689C307.518 19.3355 308.631 16.7352 308.631 16.7019C308.656 16.6322 308.654 16.5555 308.625 16.4873C308.596 16.4192 308.542 16.3647 308.474 16.335C308.407 16.3053 308.33 16.3025 308.261 16.3273C308.191 16.3521 308.134 16.4026 308.1 16.4685C308.042 16.5935 306.804 19.4855 308.216 20.8023C308.272 20.8498 308.342 20.8763 308.415 20.8773Z" fill="black"/>
<path d="M310.732 23.0526H310.815C311.271 22.8949 311.677 22.6167 311.99 22.2471C312.303 21.8776 312.51 21.4303 312.591 20.9524C312.599 20.9146 312.598 20.8758 312.591 20.8381C312.583 20.8005 312.568 20.7647 312.546 20.733C312.524 20.7012 312.497 20.6741 312.465 20.6531C312.433 20.6321 312.397 20.6177 312.359 20.6107C312.321 20.6035 312.282 20.6041 312.244 20.6125C312.206 20.6208 312.17 20.6367 312.138 20.6593C312.106 20.6818 312.079 20.7105 312.059 20.7437C312.038 20.7768 312.025 20.8138 312.019 20.8524C311.961 21.2284 311.804 21.5819 311.563 21.8753C311.321 22.1688 311.006 22.3913 310.649 22.5192C310.578 22.5361 310.516 22.5788 310.475 22.6391C310.435 22.6993 310.418 22.7728 310.428 22.8449C310.439 22.917 310.476 22.9825 310.532 23.0287C310.588 23.0749 310.659 23.0983 310.732 23.0943V23.0526Z" fill="black"/>
<path d="M318.902 19.9939C318.975 19.9928 319.045 19.9663 319.101 19.9189L322.048 17.0602C322.105 17.0061 322.137 16.9317 322.139 16.8536C322.14 16.7754 322.111 16.6999 322.057 16.6435C322.003 16.5871 321.929 16.5546 321.851 16.553C321.773 16.5515 321.698 16.581 321.642 16.6352L318.694 19.4938C318.64 19.5498 318.61 19.6245 318.61 19.7022C318.61 19.7799 318.64 19.8546 318.694 19.9106C318.722 19.9375 318.754 19.9588 318.79 19.9731C318.825 19.9874 318.863 19.9945 318.902 19.9939Z" fill="black"/>
<path d="M321.882 19.2606C321.952 19.2613 322.02 19.2364 322.074 19.1904C322.127 19.1444 322.162 19.0805 322.172 19.0106C322.18 18.9338 322.158 18.857 322.112 18.7953C322.066 18.7336 321.999 18.6914 321.923 18.6772L319.972 18.4105C319.895 18.4009 319.818 18.4216 319.756 18.4682C319.694 18.5148 319.652 18.5838 319.64 18.6605C319.632 18.7373 319.654 18.8141 319.7 18.8759C319.746 18.9376 319.814 18.9797 319.889 18.9939L321.84 19.2606H321.882Z" fill="black"/>
<path d="M312.774 34.8874C314.046 34.9396 315.313 34.7208 316.494 34.2452C317.675 33.7697 318.742 33.0484 319.624 32.1287C319.65 32.1003 319.671 32.0669 319.684 32.0306C319.697 31.9942 319.703 31.9556 319.702 31.9169C319.7 31.8782 319.691 31.8402 319.675 31.805C319.659 31.7699 319.636 31.7383 319.608 31.712C319.579 31.6857 319.546 31.6653 319.51 31.6519C319.474 31.6386 319.435 31.6325 319.397 31.634C319.358 31.6356 319.32 31.6447 319.285 31.661C319.25 31.6772 319.219 31.7002 319.193 31.7287C315.041 36.3042 307.726 33.3955 307.652 33.3955C307.616 33.3805 307.578 33.3727 307.54 33.3726C307.501 33.3724 307.463 33.3799 307.428 33.3947C307.392 33.4094 307.36 33.4311 307.333 33.4584C307.306 33.4857 307.284 33.5182 307.27 33.5539C307.242 33.6269 307.244 33.7078 307.275 33.7794C307.306 33.8509 307.364 33.9076 307.436 33.9373C309.148 34.5599 310.954 34.8813 312.774 34.8874Z" fill="white"/>
<path d="M284.976 47.739C285.048 47.7367 285.117 47.7069 285.167 47.6557C285.89 46.9889 288.04 46.6055 288.804 46.5222C288.842 46.5181 288.879 46.5063 288.913 46.4877C288.947 46.4691 288.976 46.4439 289 46.4137C289.024 46.3834 289.042 46.3487 289.053 46.3116C289.063 46.2744 289.066 46.2355 289.061 46.1972C289.051 46.1205 289.012 46.0508 288.951 46.0027C288.891 45.9545 288.814 45.9316 288.738 45.9388C288.621 45.9388 285.773 46.2888 284.777 47.2306C284.733 47.2704 284.702 47.3226 284.689 47.3805C284.675 47.4383 284.68 47.4989 284.701 47.5541C284.723 47.6094 284.761 47.6567 284.81 47.6898C284.859 47.7228 284.917 47.74 284.976 47.739Z" fill="black"/>
<path d="M326.316 141.175C326.378 141.175 326.439 141.155 326.488 141.117C326.538 141.08 326.574 141.026 326.59 140.966L328.99 132.74L330.65 140.291C330.672 140.362 330.719 140.422 330.783 140.459C330.847 140.496 330.923 140.507 330.995 140.49C331.067 140.473 331.129 140.43 331.17 140.368C331.211 140.306 331.227 140.231 331.215 140.158L329.288 131.507C329.273 131.443 329.237 131.387 329.186 131.347C329.134 131.306 329.071 131.284 329.006 131.284C328.941 131.284 328.878 131.306 328.827 131.347C328.776 131.387 328.739 131.443 328.724 131.507L326.009 140.816C325.997 140.854 325.994 140.893 325.997 140.931C326.001 140.97 326.013 141.008 326.031 141.042C326.05 141.076 326.075 141.106 326.106 141.13C326.136 141.155 326.171 141.172 326.208 141.183L326.316 141.175Z" fill="#40507F"/>
</g>
<g opacity="0.75" clip-path="url(#clip1_1144_846)">
<path d="M180.782 153.517L165.91 149.13C164.265 148.644 162.532 149.563 162.039 151.182L158.132 164.003C157.639 165.621 158.573 167.327 160.218 167.812L175.089 172.2C176.735 172.685 178.468 171.767 178.961 170.148L182.867 157.327C183.361 155.708 182.427 154.003 180.782 153.517Z" fill="#F99D28"/>
<path d="M163.626 169.154L165.293 175.334C165.534 176.028 166.428 176.231 166.954 175.708L171.865 171.471C172.396 170.942 172.161 170.051 171.44 169.836L164.862 167.893C164.085 167.662 163.364 168.394 163.626 169.154Z" fill="#F99D28"/>
<path d="M170.65 156.116C170.365 156.996 169.409 157.481 168.514 157.194C167.619 156.908 167.127 155.973 167.418 155.092C167.703 154.212 168.659 153.727 169.554 154.013C170.449 154.294 170.941 155.235 170.65 156.116Z" fill="white" stroke="white" stroke-width="0.82" stroke-miterlimit="10"/>
<path d="M176.333 162.758C176.048 163.639 175.091 164.123 174.196 163.837C173.302 163.551 172.809 162.615 173.1 161.735C173.385 160.854 174.342 160.37 175.237 160.656C176.132 160.937 176.624 161.878 176.333 162.758Z" fill="white" stroke="white" stroke-width="0.82" stroke-miterlimit="10"/>
<path d="M167.904 164.531C167.619 165.411 166.663 165.895 165.768 165.609C164.873 165.329 164.381 164.387 164.672 163.507C164.962 162.626 165.913 162.142 166.808 162.428C167.703 162.709 168.195 163.65 167.904 164.531Z" fill="white" stroke="white" stroke-width="0.82" stroke-miterlimit="10"/>
<path d="M169.028 155.604L174.716 162.247" stroke="white" stroke-width="1.75" stroke-miterlimit="10"/>
<path d="M174.717 162.247L166.333 164.118" stroke="white" stroke-width="1.75" stroke-miterlimit="10"/>
</g>
<g clip-path="url(#clip2_1144_846)">
<path d="M142.41 206.575C142.939 206.575 143.446 206.366 143.821 205.994C144.196 205.621 144.407 205.116 144.409 204.589V108.853H140.411V204.589C140.413 205.116 140.625 205.621 140.999 205.994C141.374 206.366 141.881 206.575 142.41 206.575Z" fill="#B8B0BF"/>
<path d="M70.2132 192.459H77.9756V139.64H70.2132V192.459Z" fill="#C7BFCE"/>
<path d="M57.7339 195.622H90.3064C90.9298 195.587 91.516 195.315 91.9448 194.862C92.3737 194.41 92.6126 193.81 92.6126 193.187C92.6126 192.565 92.3737 191.965 91.9448 191.513C91.516 191.06 90.9298 190.788 90.3064 190.753H57.7339C57.0869 190.753 56.4664 191.009 56.0082 191.464C55.5501 191.92 55.2916 192.538 55.2896 193.184C55.2896 193.83 55.5471 194.45 56.0055 194.908C56.4639 195.365 57.0856 195.622 57.7339 195.622Z" fill="#C7BFCE"/>
<path d="M85.9414 199.345C85.9399 200.381 86.2463 201.394 86.822 202.256C87.3977 203.118 88.2168 203.79 89.1756 204.188C90.1344 204.585 91.1898 204.69 92.2083 204.489C93.2268 204.288 94.1626 203.79 94.8973 203.058C95.632 202.326 96.1326 201.393 96.3357 200.377C96.5388 199.362 96.4353 198.309 96.0384 197.352C95.6414 196.395 94.9688 195.577 94.1056 195.001C93.2424 194.425 92.2275 194.118 91.1893 194.118C89.7988 194.118 88.4652 194.669 87.4812 195.649C86.4973 196.629 85.9435 197.958 85.9414 199.345Z" fill="#C7BFCE"/>
<path d="M68.8389 199.345C68.8373 200.381 69.1438 201.394 69.7195 202.256C70.2952 203.118 71.1143 203.79 72.073 204.188C73.0318 204.585 74.0872 204.69 75.1057 204.489C76.1242 204.288 77.06 203.79 77.7947 203.058C78.5294 202.326 79.03 201.393 79.2331 200.377C79.4363 199.362 79.3328 198.309 78.9358 197.352C78.5389 196.395 77.8662 195.577 77.0031 195.001C76.1399 194.425 75.125 194.118 74.0867 194.118C72.6963 194.118 71.3626 194.669 70.3787 195.649C69.3948 196.629 68.8409 197.958 68.8389 199.345Z" fill="#C7BFCE"/>
<path d="M57.0623 204.588C59.9606 204.588 62.3101 202.245 62.3101 199.353C62.3101 196.462 59.9606 194.118 57.0623 194.118C54.164 194.118 51.8145 196.462 51.8145 199.353C51.8145 202.245 54.164 204.588 57.0623 204.588Z" fill="#C7BFCE"/>
<path d="M51.3149 90.3896C51.3149 90.3896 34.8685 100.198 38.5311 121.723C42.7325 146.48 67.4879 154.504 88.94 148.654C110.392 142.803 106.823 125.906 106.823 125.906L51.3149 90.3896Z" fill="#E0DFE5"/>
<path d="M48.0504 135.363C47.9814 135.364 47.9147 135.339 47.863 135.293C42.3965 130.245 41.3735 120.702 41.3344 120.304C41.3301 120.268 41.3332 120.231 41.3435 120.196C41.3539 120.161 41.3712 120.128 41.3945 120.099C41.4179 120.071 41.4467 120.048 41.4793 120.031C41.5119 120.014 41.5476 120.003 41.5843 120.001C41.6202 119.997 41.6564 120.001 41.6908 120.012C41.7252 120.023 41.7571 120.04 41.7847 120.064C41.8123 120.087 41.835 120.115 41.8515 120.147C41.8681 120.179 41.8781 120.214 41.8811 120.25C41.8811 120.343 42.9197 129.98 48.2378 134.888C48.2884 134.94 48.3167 135.01 48.3167 135.083C48.3167 135.155 48.2884 135.225 48.2378 135.277C48.1876 135.327 48.1211 135.358 48.0504 135.363Z" fill="white"/>
<path d="M80.9587 61.0277C80.9587 61.0277 92.1572 62.0248 96.3821 67.408C100.607 72.7911 95.031 106.617 94.7343 107.084C94.4375 107.552 86.6361 110.98 73.0401 110.707C59.4441 110.434 56.1408 107.817 55.6879 107.084C55.2349 106.352 52.3845 68.187 55.6879 64.954C58.9912 61.721 72.7668 60.0383 80.9587 61.0277Z" fill="#5C69A5"/>
<path d="M96 174.128V188.517L85.0201 192.661L78.0933 184.918L76.9609 171.612L96 174.128Z" fill="#F48462"/>
<path d="M116.561 171.144V185.533L104.855 189.678L97.4829 181.934L96.2646 168.628L116.561 171.144Z" fill="#F48462"/>
<path d="M92.6028 104.467C92.6028 104.467 120.583 118.489 124.02 124.215C127.456 129.941 123.668 176.411 123.668 176.411L98.8658 176.738L95.4297 150.765L76.5703 106.999L92.6028 104.467Z" fill="#68B6D8"/>
<path d="M58.6086 107.427C58.6086 107.427 57.4763 119.892 57.8824 123.989C58.2884 128.087 71.2362 137.732 71.2362 137.732L71.8766 177.657L100.56 178.935C100.56 178.935 101.177 133.307 100.701 129.014C100.224 124.722 81.1775 109.086 81.1775 109.086L58.6086 107.427Z" fill="#68B6D8"/>
<path d="M74.29 55.1926L74.454 62.461C74.454 62.461 75.8129 64.5177 80.0767 64.7982C83.2629 64.9851 84.3562 64.245 84.3562 64.245L83.833 60.568L83.3176 56.9922L75.5864 55.4731L74.29 55.1926Z" fill="#F48462"/>
<path d="M75.5859 55.4497C75.6249 55.6936 75.7013 55.9301 75.8124 56.1508C77.5226 59.7422 81.9974 60.4278 83.8325 60.5446L83.3171 56.9688L75.5859 55.4497Z" fill="black"/>
<path d="M84.5744 40.3676C84.5744 40.3676 88.5962 49.3966 87.2062 54.4915C85.8161 59.5864 81.1618 58.8152 78.3739 57.8492C76.7969 57.3519 75.3851 56.4364 74.2896 55.2004C73.4995 55.4401 72.6536 55.4236 71.8734 55.1535C71.0932 54.8833 70.419 54.3733 69.9477 53.6969C68.1906 51.2975 69.2448 48.5241 70.7286 47.8853C72.2123 47.2465 73.9772 48.2982 73.9772 48.2982L72.5716 45.665C72.5716 45.665 78.2958 32.2656 84.5744 40.3676Z" fill="#F48462"/>
<path d="M84.2309 51.8974H84.1528C84.1183 51.8867 84.0864 51.8694 84.0587 51.8464C84.031 51.8234 84.0082 51.7951 83.9915 51.7633C83.9748 51.7314 83.9646 51.6966 83.9614 51.6608C83.9583 51.6249 83.9623 51.5889 83.9732 51.5546C84.4886 49.8875 83.2313 48.0723 83.1922 48.0567C83.1498 47.9979 83.1325 47.9245 83.1442 47.853C83.1559 47.7814 83.1957 47.7174 83.2547 47.675C83.3137 47.6326 83.3872 47.6154 83.459 47.6271C83.5307 47.6388 83.5949 47.6784 83.6374 47.7373C83.6998 47.823 85.0586 49.7862 84.4651 51.7182C84.4474 51.7673 84.4159 51.8103 84.3743 51.8421C84.3328 51.8738 84.283 51.893 84.2309 51.8974Z" fill="black"/>
<path d="M73.5868 52.5283C73.5489 52.5284 73.5114 52.5209 73.4765 52.5061C73.4416 52.4914 73.4101 52.4698 73.3838 52.4426L70.916 49.8328C70.8659 49.7819 70.8379 49.7133 70.8379 49.642C70.8379 49.5706 70.8659 49.5021 70.916 49.4511C70.9408 49.4254 70.9705 49.405 71.0034 49.391C71.0363 49.3771 71.0716 49.3699 71.1074 49.3699C71.1431 49.3699 71.1784 49.3771 71.2113 49.391C71.2442 49.405 71.2739 49.4254 71.2987 49.4511L73.7664 52.0531C73.817 52.1054 73.8453 52.1752 73.8453 52.2478C73.8453 52.3205 73.817 52.3903 73.7664 52.4426C73.72 52.4933 73.6555 52.524 73.5868 52.5283Z" fill="black"/>
<path d="M70.971 51.8271C70.9057 51.8275 70.8425 51.8039 70.7935 51.7608C70.7445 51.7177 70.7132 51.6581 70.7055 51.5934C70.6942 51.5221 70.7117 51.4493 70.7542 51.3909C70.7966 51.3325 70.8606 51.2932 70.9319 51.2818L72.6344 51.0247C72.6705 51.018 72.7075 51.0189 72.7432 51.0273C72.779 51.0356 72.8125 51.0513 72.8419 51.0732C72.8712 51.0952 72.8957 51.123 72.9138 51.1548C72.9318 51.1867 72.943 51.222 72.9467 51.2584C72.958 51.3296 72.9405 51.4025 72.898 51.4609C72.8556 51.5193 72.7917 51.5585 72.7203 51.57L71.0179 51.8271H70.971Z" fill="black"/>
<path d="M80.1229 48.4851C80.0555 48.4855 79.9904 48.4611 79.9399 48.4165C79.8895 48.372 79.8573 48.3104 79.8496 48.2436L79.6309 46.5609C79.6221 46.4876 79.6425 46.4138 79.6878 46.3555C79.7331 46.2971 79.7997 46.259 79.873 46.2492C79.9452 46.2426 80.0172 46.264 80.0739 46.309C80.1307 46.354 80.1678 46.4191 80.1776 46.4907L80.3884 48.1735C80.3939 48.2093 80.3922 48.2459 80.3834 48.2811C80.3745 48.3163 80.3587 48.3494 80.3369 48.3784C80.3151 48.4074 80.2877 48.4318 80.2563 48.4501C80.2249 48.4684 80.1902 48.4803 80.1542 48.4851H80.1229Z" fill="black"/>
<path d="M85.1371 48.08C85.0717 48.0805 85.0085 48.0569 84.9596 48.0137C84.9106 47.9706 84.8792 47.911 84.8716 47.8463L84.6217 46.1636C84.6129 46.1267 84.6119 46.0885 84.6188 46.0513C84.6256 46.014 84.6402 45.9786 84.6615 45.9473C84.6828 45.916 84.7105 45.8894 84.7426 45.8694C84.7748 45.8493 84.8108 45.8361 84.8484 45.8307C84.8859 45.8253 84.9242 45.8277 84.9608 45.8378C84.9973 45.848 85.0314 45.8656 85.0607 45.8896C85.0901 45.9136 85.1141 45.9434 85.1313 45.9772C85.1485 46.0109 85.1584 46.0479 85.1605 46.0857L85.4494 47.7684C85.4607 47.8396 85.4432 47.9124 85.4007 47.9709C85.3583 48.0293 85.2944 48.0685 85.223 48.08H85.1371Z" fill="black"/>
<path d="M78.9594 45.4001C78.9156 45.4094 78.8704 45.4094 78.8266 45.4001C78.7947 45.384 78.7665 45.3613 78.7438 45.3336C78.7211 45.306 78.7044 45.2739 78.6949 45.2394C78.6853 45.205 78.6831 45.1689 78.6883 45.1335C78.6935 45.0981 78.706 45.0642 78.7251 45.034C79.3655 43.8654 80.8571 44.2549 80.9273 44.2549C80.9962 44.2733 81.0552 44.3178 81.0917 44.3789C81.1282 44.4401 81.1392 44.513 81.1226 44.5821C81.1153 44.6174 81.1008 44.6508 81.0802 44.6804C81.0595 44.7099 81.033 44.7349 81.0023 44.7539C80.9716 44.7728 80.9373 44.7853 80.9016 44.7906C80.8659 44.7959 80.8295 44.7939 80.7946 44.7847C80.7477 44.7847 79.6388 44.5198 79.2327 45.3144C79.2001 45.3533 79.1571 45.382 79.1086 45.3972C79.0602 45.4124 79.0084 45.4134 78.9594 45.4001Z" fill="black"/>
<path d="M85.5044 44.7145C85.4622 44.7134 85.4207 44.703 85.3829 44.6842C85.3452 44.6654 85.312 44.6385 85.2857 44.6055C85.092 44.3577 84.8144 44.1887 84.5048 44.1303C84.4 44.1265 84.2955 44.144 84.1975 44.1814C84.0996 44.2189 84.0102 44.2757 83.9347 44.3484C83.8798 44.3969 83.8079 44.4218 83.7346 44.4174C83.6614 44.413 83.5929 44.3798 83.5443 44.325C83.4956 44.2703 83.4707 44.1985 83.4751 44.1254C83.4795 44.0524 83.5128 43.984 83.5677 43.9355C83.6995 43.8115 83.8558 43.7164 84.0266 43.656C84.1973 43.5956 84.3788 43.5714 84.5595 43.5849C85.0113 43.6652 85.4175 43.9094 85.6996 44.2705C85.744 44.3274 85.7639 44.3995 85.7551 44.471C85.7464 44.5425 85.7096 44.6077 85.6528 44.6522C85.6102 44.6866 85.5588 44.7082 85.5044 44.7145Z" fill="black"/>
<path d="M74.8445 48.9059C74.8445 48.9059 77.3044 47.2465 77.1873 44.7302C77.0701 42.214 76.4844 41.5674 76.4844 41.5674C78.2627 41.458 80.023 41.1496 81.7323 40.6481C82.5051 40.4177 83.2337 40.0596 83.8877 39.5886L84.5514 40.3676C85.2777 40.3676 86.9333 35.9505 85.84 35.1715C84.7467 34.3924 78.9053 36.4257 78.9053 36.4257C78.9053 36.4257 72.7516 34.9845 69.1593 39.3471C65.5671 43.7097 69.5888 48.8591 69.5888 48.8591C69.5888 48.8591 70.6743 46.6077 74.8445 48.9059Z" fill="black"/>
<path d="M81.9193 54.8733C81.7395 54.8726 81.5607 54.8464 81.3883 54.7954C81.2249 54.762 81.0705 54.6939 80.9358 54.5958C80.8011 54.4977 80.689 54.3718 80.6074 54.2267C80.4553 53.8826 80.4331 53.4952 80.5449 53.1361C80.5688 53.0655 80.6191 53.0068 80.6854 52.9725C80.7198 52.957 80.7571 52.949 80.7948 52.949C80.8325 52.949 80.8697 52.957 80.9041 52.9725L83.2469 53.8528C83.2913 53.8678 83.3307 53.8945 83.361 53.9302C83.3913 53.9659 83.4112 54.0092 83.4187 54.0553C83.4301 54.1 83.4288 54.147 83.415 54.191C83.4012 54.235 83.3755 54.2743 83.3406 54.3046C82.9441 54.6477 82.4436 54.8479 81.9193 54.8733ZM81.0603 53.5957C81.0488 53.7278 81.0759 53.8604 81.1384 53.9774C81.1814 54.0525 81.2398 54.1176 81.3098 54.1686C81.3798 54.2196 81.4597 54.2553 81.5445 54.2735C81.8976 54.3649 82.2719 54.3262 82.5987 54.1644L81.0603 53.5957Z" fill="black"/>
<path d="M128.65 80.2932L128.908 78.6728C128.908 78.6728 135.156 73.9363 138.982 72.3704C140.599 71.716 142.887 72.2614 140.95 74.3959C140.296 75.1448 139.769 75.9946 139.388 76.9122C141.205 76.3381 142.948 75.5537 144.581 74.5751C145.94 73.6792 147.916 70.0801 149.079 70.8591C150.922 72.1056 148.798 75.619 148.798 75.619C148.798 75.619 149.759 71.1629 151.586 72.9002C153.414 74.6374 148.463 83.3704 146.12 85.4582C143.777 87.5461 131.282 89.9767 131.282 89.9767L128.65 80.2932Z" fill="#F48462"/>
<path d="M141.785 78.8208C141.717 78.8193 141.652 78.7932 141.602 78.7474C141.551 78.7015 141.519 78.639 141.512 78.5715C141.505 78.5004 141.527 78.4295 141.572 78.3741C141.618 78.3188 141.683 78.2833 141.754 78.2755C144.472 78.0106 147.056 75.6034 147.08 75.58C147.106 75.5549 147.137 75.5353 147.171 75.5221C147.204 75.5089 147.241 75.5025 147.277 75.5032C147.313 75.504 147.349 75.5118 147.382 75.5263C147.415 75.5408 147.445 75.5617 147.47 75.5878C147.496 75.6139 147.515 75.6446 147.528 75.6783C147.542 75.712 147.548 75.748 147.547 75.7842C147.547 75.8203 147.539 75.856 147.524 75.8891C147.51 75.9223 147.489 75.9522 147.463 75.9773C147.345 76.0786 144.714 78.5325 141.809 78.8208H141.785Z" fill="black"/>
<path d="M145.018 80.8384C144.966 80.8376 144.915 80.8243 144.87 80.7995L139.403 77.4886C139.372 77.4709 139.344 77.447 139.322 77.4183C139.3 77.3897 139.284 77.3568 139.276 77.3218C139.267 77.2868 139.265 77.2503 139.271 77.2147C139.277 77.1791 139.29 77.145 139.31 77.1146C139.348 77.0542 139.409 77.0109 139.478 76.9935C139.548 76.9761 139.622 76.986 139.684 77.0212L144.987 80.2386L147.455 78.3845C147.513 78.3411 147.586 78.3225 147.657 78.3327C147.729 78.3429 147.794 78.3812 147.837 78.439C147.881 78.4969 147.899 78.5696 147.889 78.6412C147.879 78.7127 147.841 78.7773 147.783 78.8207L145.182 80.7683C145.137 80.8093 145.079 80.834 145.018 80.8384Z" fill="black"/>
<path d="M134.507 80.7216C134.448 80.7211 134.39 80.7021 134.343 80.6671C134.295 80.6321 134.259 80.583 134.241 80.5268C134.221 80.4576 134.229 80.3834 134.262 80.3196C134.296 80.2558 134.353 80.2073 134.421 80.1841C136.291 79.5614 137.98 78.4916 139.341 77.0679C139.393 77.0175 139.463 76.9893 139.536 76.9893C139.609 76.9893 139.679 77.0175 139.731 77.0679C139.757 77.0926 139.778 77.1223 139.791 77.1551C139.805 77.1879 139.813 77.2231 139.813 77.2588C139.813 77.2944 139.805 77.3297 139.791 77.3625C139.778 77.3953 139.757 77.4249 139.731 77.4496C138.316 78.9512 136.547 80.0759 134.585 80.7216H134.507Z" fill="black"/>
<path d="M94.9606 65.9746C94.9606 65.9746 107.658 77.1616 117.904 77.816C122.848 78.1354 129.478 75.7827 129.478 75.7827L135.366 91.1531C135.366 91.1531 114.663 110.722 93.5627 95.2976C87.5027 90.8493 94.9606 65.9746 94.9606 65.9746Z" fill="#5C69A5"/>
<path d="M96.4604 85.2711C96.4246 85.2711 96.389 85.2641 96.3558 85.2504C96.3227 85.2367 96.2926 85.2166 96.2672 85.1913C96.2418 85.166 96.2217 85.1359 96.2079 85.1028C96.1942 85.0697 96.1871 85.0343 96.1871 84.9985C96.1871 83.1522 92.8447 73.0325 92.8135 72.9312C92.8014 72.8975 92.7962 72.8617 92.7983 72.8259C92.8004 72.7901 92.8098 72.7552 92.8259 72.7231C92.8419 72.6911 92.8644 72.6626 92.8918 72.6395C92.9192 72.6163 92.951 72.599 92.9853 72.5884C93.0537 72.5662 93.1281 72.5717 93.1924 72.6037C93.2567 72.6358 93.3058 72.6919 93.3289 72.7598C93.4695 73.1805 96.7416 83.0665 96.7416 84.9985C96.7395 85.0715 96.709 85.1408 96.6565 85.1918C96.604 85.2427 96.5337 85.2712 96.4604 85.2711Z" fill="#F7B369"/>
<path d="M94.3047 201.807C94.3047 201.807 94.8201 178.678 98.4202 179.153C102.02 179.628 105.628 183.009 105.628 183.009C105.628 183.009 113.867 178.678 117.467 181.085C121.067 183.492 123.144 188.797 123.144 188.797L143.238 201.807C143.238 201.807 145.666 205.664 144.964 207.588C144.417 209.091 113.906 208.25 100.513 207.806C98.904 207.803 97.3594 207.175 96.2064 206.055C95.0534 204.935 94.3826 203.412 94.3359 201.807H94.3047Z" fill="#F2A253"/>
<path d="M104.653 196.183C104.653 196.183 99.6233 183.897 96.3825 181.778C93.1416 179.659 85.0043 186.39 85.0043 186.39C85.0043 186.39 78.2024 179.239 76.5312 182.986C74.8601 186.733 74.0323 200.164 75.2974 203.132C76.5625 206.1 85.9024 211.031 98.163 210.992C103.942 210.992 112.274 209.2 112.282 207.222C112.298 204.106 106.62 198.232 104.653 196.183Z" fill="#F7B369"/>
<path d="M99.6073 192.202H90.1972C90.1613 192.202 90.1257 192.195 90.0926 192.181C90.0594 192.167 90.0293 192.147 90.0039 192.122C89.9785 192.097 89.9584 192.067 89.9446 192.034C89.9309 192 89.9238 191.965 89.9238 191.929C89.9238 191.893 89.9309 191.858 89.9446 191.825C89.9584 191.792 89.9785 191.762 90.0039 191.736C90.0293 191.711 90.0594 191.691 90.0926 191.677C90.1257 191.664 90.1613 191.656 90.1972 191.656H99.6073C99.6798 191.656 99.7494 191.685 99.8006 191.736C99.8519 191.787 99.8807 191.857 99.8807 191.929C99.8807 192.001 99.8519 192.071 99.8006 192.122C99.7494 192.173 99.6798 192.202 99.6073 192.202Z" fill="white"/>
<path d="M81.2871 65.3046L85.4104 92.5397H81.9978L78.9678 64.7437L81.2871 65.3046Z" fill="#40507F"/>
<path d="M132.111 93.8465L135.112 92.848C135.5 92.7186 135.71 92.2995 135.581 91.9117L130.131 75.6169C130.001 75.2292 129.581 75.0197 129.193 75.1491L126.192 76.1476C125.804 76.2769 125.594 76.6961 125.723 77.0839L131.173 93.3787C131.303 93.7664 131.723 93.9759 132.111 93.8465Z" fill="#40507F"/>
<path d="M101.162 196.455H91.1895C91.124 196.444 91.0645 196.411 91.0215 196.36C90.9786 196.309 90.9551 196.245 90.9551 196.179C90.9551 196.113 90.9786 196.048 91.0215 195.998C91.0645 195.947 91.124 195.913 91.1895 195.902H101.162C101.228 195.913 101.287 195.947 101.33 195.998C101.373 196.048 101.396 196.113 101.396 196.179C101.396 196.245 101.373 196.309 101.33 196.36C101.287 196.411 101.228 196.444 101.162 196.455Z" fill="white"/>
<path d="M118.178 190.768C118.11 190.769 118.045 190.744 117.995 190.7C117.944 190.655 117.912 190.594 117.904 190.527C117.899 190.491 117.901 190.455 117.91 190.421C117.919 190.386 117.935 190.353 117.956 190.325C117.978 190.296 118.006 190.273 118.037 190.255C118.068 190.238 118.103 190.227 118.139 190.223L124.136 189.405C124.209 189.396 124.282 189.415 124.34 189.459C124.398 189.503 124.437 189.567 124.449 189.639C124.458 189.71 124.438 189.782 124.394 189.839C124.35 189.895 124.286 189.933 124.214 189.943L118.248 190.761L118.178 190.768Z" fill="white"/>
<path d="M119.677 194.905C119.612 194.905 119.549 194.882 119.5 194.839C119.451 194.796 119.419 194.736 119.412 194.671C119.4 194.6 119.418 194.527 119.46 194.469C119.503 194.41 119.567 194.371 119.638 194.36L129.735 192.802C129.808 192.791 129.882 192.81 129.94 192.854C129.999 192.898 130.037 192.963 130.048 193.035C130.058 193.108 130.039 193.181 129.995 193.24C129.951 193.298 129.886 193.337 129.814 193.347L119.724 194.905H119.677Z" fill="white"/>
<path d="M101.848 175.57C101.775 175.567 101.706 175.537 101.655 175.485C101.604 175.432 101.575 175.362 101.575 175.289C101.575 174.861 102.629 132.684 101.575 127.768C100.865 124.402 90.1345 113.885 90.0252 113.745C89.9919 113.713 89.9673 113.673 89.9536 113.629C89.94 113.585 89.9377 113.539 89.9471 113.493C89.9564 113.448 89.9771 113.406 90.0072 113.371C90.0372 113.336 90.0757 113.309 90.1189 113.293L97.8579 110.458C97.8918 110.445 97.9277 110.44 97.9637 110.441C97.9997 110.443 98.035 110.452 98.0676 110.467C98.1002 110.482 98.1296 110.503 98.1539 110.53C98.1782 110.556 98.197 110.587 98.2094 110.621C98.2217 110.655 98.2272 110.691 98.2256 110.727C98.224 110.763 98.2154 110.798 98.2001 110.83C98.1849 110.863 98.1634 110.892 98.1368 110.916C98.1103 110.941 98.0792 110.96 98.0454 110.972L90.7202 113.659C92.5398 115.451 101.427 124.379 102.114 127.62C103.176 132.629 102.161 173.583 102.114 175.297C102.112 175.367 102.084 175.434 102.035 175.485C101.985 175.535 101.919 175.566 101.848 175.57Z" fill="#40507F"/>
<path d="M76.4136 102.176C76.4136 102.176 83.1452 104.895 84.4728 104.708C85.8004 104.521 90.5953 103.999 90.7905 102.987L88.9865 99.8705C88.9865 99.8705 91.6651 100.984 93.4847 100.05C95.3043 99.1148 97.4831 97.2217 97.9282 95.7805C98.3733 94.3393 96.2726 94.6275 96.2726 94.6275C96.2726 94.6275 98.6154 93.1552 95.6323 91.8931C92.6491 90.6311 79.631 88.777 74.2192 92.158C68.8073 95.539 76.4136 102.176 76.4136 102.176Z" fill="#F48462"/>
<path d="M96.2734 94.939H96.1875C94.0889 94.2946 91.8795 94.0904 89.698 94.3391C89.6621 94.3443 89.6255 94.3423 89.5904 94.3333C89.5553 94.3243 89.5223 94.3085 89.4933 94.2868C89.4642 94.2651 89.4398 94.2379 89.4213 94.2068C89.4029 94.1757 89.3907 94.1412 89.3856 94.1054C89.3805 94.0696 89.3825 94.0332 89.3915 93.9981C89.4004 93.9631 89.4163 93.9302 89.438 93.9012C89.4598 93.8723 89.487 93.8479 89.5182 93.8295C89.5494 93.8111 89.584 93.7989 89.6199 93.7938C91.8879 93.5307 94.186 93.743 96.3671 94.4171C96.4346 94.4434 96.4897 94.494 96.5215 94.5589C96.5533 94.6239 96.5595 94.6983 96.5389 94.7676C96.5179 94.8201 96.4811 94.8648 96.4335 94.8955C96.3859 94.9262 96.33 94.9414 96.2734 94.939Z" fill="black"/>
<path d="M71.4476 140.139C71.3962 140.15 71.3429 140.15 71.2915 140.139C71.2496 140.111 71.2164 140.073 71.1957 140.027C71.1749 139.982 71.1675 139.931 71.1743 139.882C71.1743 139.71 71.5882 135.776 73.5171 134.475C73.8384 134.264 74.2039 134.129 74.5856 134.08C74.9673 134.032 75.3551 134.071 75.7193 134.195C76.4143 134.405 76.797 134.756 76.8439 135.246C77.0391 137.015 72.1583 139.827 71.5648 140.147C71.5256 140.152 71.4858 140.149 71.4476 140.139ZM74.8837 134.569C74.5097 134.569 74.1447 134.683 73.8373 134.896C72.5097 135.784 71.9709 138.246 71.7912 139.352C73.7748 138.176 76.4222 136.236 76.3206 135.262C76.3206 135.021 76.0395 134.818 75.5397 134.686C75.3277 134.616 75.1069 134.576 74.8837 134.569Z" fill="#40507F"/>
<path d="M89.5957 103.711H124.269L134.171 81.3606H100.865C100.458 81.3615 100.06 81.4796 99.7194 81.7007C99.3786 81.9219 99.1091 82.2366 98.9434 82.607L89.5957 103.711Z" fill="white"/>
<path d="M92.6025 103.711H127.284L136.124 83.7678C136.239 83.5076 136.288 83.2229 136.265 82.9392C136.243 82.6556 136.15 82.382 135.995 82.1432C135.84 81.9043 135.628 81.7077 135.378 81.5711C135.127 81.4345 134.847 81.3621 134.562 81.3606H102.544L92.6025 103.711Z" fill="#7C576C"/>
<path d="M77.9682 106.531H126.925C127.299 106.531 127.659 106.383 127.924 106.118C128.189 105.854 128.338 105.495 128.338 105.121C128.338 104.747 128.189 104.388 127.924 104.124C127.659 103.859 127.299 103.711 126.925 103.711H77.9682C77.5933 103.711 77.2338 103.859 76.9687 104.124C76.7036 104.388 76.5547 104.747 76.5547 105.121C76.5547 105.495 76.7036 105.854 76.9687 106.118C77.2338 106.383 77.5933 106.531 77.9682 106.531Z" fill="black"/>
<path d="M55.6646 64.9539C55.6646 64.9539 36.2742 85.9879 39.4291 99.7145C42.5841 113.441 80.8574 104.467 80.8574 104.467L80.4435 88.4496L60.5455 85.3335L55.6646 64.9539Z" fill="#5C69A5"/>
<path d="M53.9466 86.284C52.6737 86.284 51.6585 86.1204 51.4007 85.6452C51.2289 85.3336 51.3383 84.9674 51.7209 84.5623C54.0637 82.0149 59.8114 85.0064 60.0534 85.131C60.1036 85.159 60.1439 85.2016 60.1691 85.2531C60.1942 85.3047 60.2029 85.3627 60.194 85.4193C60.1838 85.4754 60.1566 85.5272 60.1162 85.5675C60.0757 85.6079 60.0238 85.635 59.9675 85.6452C57.9792 86.0065 55.9666 86.22 53.9466 86.284ZM54.4776 84.0871C54.0501 84.0596 53.6216 84.1201 53.2185 84.2649C52.8155 84.4096 52.4466 84.6355 52.1348 84.9285C51.9083 85.1778 51.8615 85.3258 51.8927 85.3881C52.2051 85.9646 55.688 85.7698 59.0304 85.2479C57.6001 84.5772 56.0551 84.1833 54.4776 84.0871Z" fill="#F7B369"/>
<path d="M58.4524 108.705H57.9057C57.864 108.705 57.8228 108.696 57.7844 108.68C57.7459 108.664 57.7112 108.64 57.682 108.611C57.6529 108.581 57.6301 108.546 57.6149 108.507C57.5996 108.468 57.5923 108.427 57.5934 108.385C57.5934 108.301 57.6271 108.219 57.6871 108.159C57.7472 108.099 57.8286 108.066 57.9135 108.066C63.8557 108.076 69.7805 107.426 75.5782 106.126C75.6187 106.116 75.6609 106.113 75.7023 106.12C75.7437 106.126 75.7834 106.14 75.8191 106.162C75.8548 106.184 75.8857 106.213 75.9101 106.247C75.9344 106.281 75.9517 106.319 75.9608 106.36C75.9823 106.441 75.9705 106.528 75.9281 106.601C75.8857 106.674 75.816 106.727 75.7343 106.749C70.0632 108.033 64.2676 108.688 58.4524 108.705Z" fill="#FFBA57"/>
<path d="M59.9208 85.6451C59.8764 85.6454 59.8326 85.635 59.7931 85.6146C59.7536 85.5942 59.7197 85.5646 59.6944 85.5282C59.6736 85.4986 59.659 85.4652 59.6513 85.43C59.6436 85.3947 59.643 85.3582 59.6495 85.3227C59.6561 85.2872 59.6696 85.2533 59.6894 85.2231C59.7091 85.1928 59.7347 85.1668 59.7646 85.1465C61.5217 83.9312 59.9911 79.8568 59.9755 79.8179C59.9521 79.7485 59.9561 79.6729 59.9865 79.6064C60.017 79.5399 60.0717 79.4874 60.1395 79.4595C60.1732 79.446 60.2094 79.4395 60.2457 79.4405C60.2821 79.4415 60.3178 79.4499 60.3508 79.4653C60.3837 79.4806 60.4132 79.5025 60.4373 79.5297C60.4614 79.5568 60.4796 79.5886 60.4909 79.6231C60.5612 79.8023 62.1933 84.1415 60.077 85.5983C60.0307 85.629 59.9764 85.6452 59.9208 85.6451Z" fill="#F7B369"/>
<path d="M40.624 111.159H149.485C150.161 111.159 150.808 110.891 151.286 110.415C151.763 109.939 152.031 109.293 152.031 108.619C152.031 107.945 151.763 107.299 151.286 106.823C150.808 106.347 150.161 106.079 149.485 106.079H40.624C39.9488 106.079 39.3012 106.347 38.8238 106.823C38.3463 107.299 38.0781 107.945 38.0781 108.619C38.0781 109.293 38.3463 109.939 38.8238 110.415C39.3012 110.891 39.9488 111.159 40.624 111.159Z" fill="#B8B0BF"/>
<path d="M94.8983 171.869L72.3373 170.701C72.3014 170.699 72.2662 170.69 72.2338 170.674C72.2014 170.658 72.1724 170.637 72.1484 170.61C72.1245 170.583 72.1061 170.552 72.0943 170.518C72.0825 170.484 72.0775 170.448 72.0796 170.412C72.0793 170.376 72.0868 170.34 72.1017 170.306C72.1166 170.273 72.1384 170.243 72.1657 170.219C72.1931 170.194 72.2253 170.176 72.2603 170.165C72.2952 170.154 72.3321 170.151 72.3685 170.155L94.9139 171.332C94.9498 171.334 94.985 171.343 95.0174 171.358C95.0498 171.374 95.0788 171.396 95.1028 171.422C95.1267 171.449 95.1451 171.48 95.1569 171.514C95.1688 171.548 95.1738 171.584 95.1716 171.62C95.1676 171.689 95.1368 171.753 95.0857 171.8C95.0347 171.846 94.9674 171.871 94.8983 171.869Z" fill="#40507F"/>
<path d="M122.051 170.7H101.934C101.862 170.7 101.792 170.672 101.741 170.621C101.69 170.569 101.661 170.5 101.661 170.428C101.661 170.355 101.69 170.286 101.741 170.235C101.792 170.184 101.862 170.155 101.934 170.155H122.051C122.124 170.155 122.193 170.184 122.244 170.235C122.296 170.286 122.325 170.355 122.325 170.428C122.325 170.5 122.296 170.569 122.244 170.621C122.193 170.672 122.124 170.7 122.051 170.7Z" fill="#40507F"/>
<path d="M77.3825 105.526H80.5452C80.955 105.526 81.2871 105.195 81.2871 104.786V87.6083C81.2871 87.1995 80.955 86.8682 80.5452 86.8682H77.3825C76.9727 86.8682 76.6406 87.1995 76.6406 87.6083V104.786C76.6406 105.195 76.9727 105.526 77.3825 105.526Z" fill="#40507F"/>
<path d="M111.493 92.5319C111.493 93.1128 111.666 93.6807 111.989 94.1636C112.313 94.6466 112.773 95.023 113.311 95.2453C113.849 95.4676 114.441 95.5258 115.012 95.4125C115.583 95.2992 116.107 95.0194 116.519 94.6087C116.931 94.1979 117.211 93.6746 117.325 93.1049C117.438 92.5352 117.38 91.9447 117.157 91.408C116.934 90.8714 116.557 90.4127 116.073 90.0899C115.589 89.7672 115.02 89.595 114.437 89.595C113.656 89.595 112.908 89.9044 112.355 90.4552C111.803 91.006 111.493 91.753 111.493 92.5319Z" fill="white"/>
<path d="M83.9657 61.4794C83.9657 61.4794 86.3084 69.2698 85.5275 69.0828C84.7466 68.8959 80.061 64.7748 80.061 64.7748C80.061 64.7748 76.6796 69.0595 75.5707 69.0828C74.4618 69.1062 74.0713 60.7705 74.0713 60.7705C74.0713 60.7705 75.2193 63.3803 79.3269 63.9646C83.4346 64.5488 83.9657 61.4794 83.9657 61.4794Z" fill="#40507F"/>
<path d="M47.6603 206.349C47.9231 206.35 48.1836 206.299 48.4266 206.199C48.6696 206.1 48.8904 205.953 49.0762 205.767C49.2621 205.582 49.4093 205.362 49.5094 205.119C49.6095 204.877 49.6605 204.617 49.6595 204.355V108.635H45.6611V204.355C45.6611 204.884 45.8718 205.391 46.2467 205.765C46.6216 206.139 47.1301 206.349 47.6603 206.349Z" fill="#B8B0BF"/>
</g>
<g opacity="0.75" clip-path="url(#clip3_1144_846)">
<path d="M214.782 33.5174L199.91 29.1298C198.265 28.6444 196.532 29.5632 196.039 31.182L192.132 44.0026C191.639 45.6213 192.573 47.327 194.218 47.8124L209.089 52.2C210.735 52.6854 212.468 51.7665 212.961 50.1478L216.867 37.3272C217.361 35.7085 216.427 34.0027 214.782 33.5174Z" fill="#F99D28"/>
<path d="M197.626 49.1538L199.293 55.3342C199.534 56.0276 200.428 56.2312 200.954 55.7084L205.865 51.4707C206.396 50.9424 206.161 50.0508 205.44 49.8362L198.862 47.8935C198.085 47.6623 197.364 48.3943 197.626 49.1538Z" fill="#F99D28"/>
<path d="M204.65 36.1158C204.365 36.9963 203.409 37.4806 202.514 37.1945C201.619 36.9083 201.127 35.9727 201.418 35.0921C201.703 34.2116 202.659 33.7273 203.554 34.0134C204.449 34.2941 204.941 35.2352 204.65 36.1158Z" fill="white" stroke="white" stroke-width="0.82" stroke-miterlimit="10"/>
<path d="M210.333 42.7584C210.048 43.6389 209.091 44.1232 208.196 43.837C207.302 43.5508 206.809 42.6153 207.1 41.7347C207.385 40.8542 208.342 40.3698 209.237 40.656C210.132 40.9367 210.624 41.8778 210.333 42.7584Z" fill="white" stroke="white" stroke-width="0.82" stroke-miterlimit="10"/>
<path d="M201.904 44.5306C201.619 45.4111 200.663 45.8954 199.768 45.6092C198.873 45.3286 198.381 44.3875 198.672 43.5069C198.962 42.6264 199.913 42.1421 200.808 42.4282C201.703 42.7089 202.195 43.65 201.904 44.5306Z" fill="white" stroke="white" stroke-width="0.82" stroke-miterlimit="10"/>
<path d="M203.028 35.604L208.716 42.2467" stroke="white" stroke-width="1.75" stroke-miterlimit="10"/>
<path d="M208.717 42.2466L200.333 44.1178" stroke="white" stroke-width="1.75" stroke-miterlimit="10"/>
</g>
<g opacity="0.5" clip-path="url(#clip4_1144_846)">
<path d="M17.4224 27.8507L3.6899 27.0067C2.17087 26.9133 0.861979 28.0406 0.76641 29.5245L0.00949984 41.2773C-0.0860695 42.7612 1.06787 44.0399 2.5869 44.1333L16.3194 44.9773C17.8384 45.0706 19.1473 43.9433 19.2428 42.4594L19.9998 30.7066C20.0953 29.2227 18.9414 27.9441 17.4224 27.8507Z" fill="#283996"/>
<path d="M5.97273 44.6252L8.6741 49.5932C9.02106 50.1404 9.8389 50.1404 10.1859 49.5932L13.5613 44.9981C13.9133 44.4412 13.5266 43.7198 12.8624 43.681L6.78562 43.3082C6.06691 43.2646 5.59603 44.0297 5.97769 44.6301L5.97273 44.6252Z" fill="#283996"/>
<path d="M11.7018 40.9406C11.7018 40.9406 15.226 35.561 8.91619 34.7717C8.07852 36.205 7.88521 36.5342 7.88521 36.5342L6.15039 32.094L11.2012 30.3848L9.93726 32.7332C9.93726 32.7332 17.853 35.5077 11.6969 40.9406H11.7018Z" fill="white" stroke="white" stroke-width="0.93" stroke-linecap="round" stroke-linejoin="round"/>
</g>
<defs>
<clipPath id="clip0_1144_846">
<rect width="86" height="215" fill="white" transform="matrix(-1 0 0 1 351 0)"/>
</clipPath>
<clipPath id="clip1_1144_846">
<rect width="25" height="27" fill="white" transform="translate(158 149)"/>
</clipPath>
<clipPath id="clip2_1144_846">
<rect width="114" height="176" fill="white" transform="translate(38 35)"/>
</clipPath>
<clipPath id="clip3_1144_846">
<rect width="25" height="27" fill="white" transform="translate(192 29)"/>
</clipPath>
<clipPath id="clip4_1144_846">
<rect width="20" height="23" fill="white" transform="translate(0 27)"/>
</clipPath>
</defs>
</svg>
