<?xml version="1.0" encoding="utf-8"?>
<!-- Generator: Adobe Illustrator 26.1.0, SVG Export Plug-In . SVG Version: 6.00 Build 0)  -->
<svg version="1.1" id="Layer_1" xmlns="http://www.w3.org/2000/svg" xmlns:xlink="http://www.w3.org/1999/xlink" x="0px" y="0px"
	 viewBox="0 0 20 20" style="enable-background:new 0 0 20 20;" xml:space="preserve">
<style type="text/css">
	.st0{fill:#FEFEFE;}
	.st1{fill:#252525;}
	.st2{fill:#3D3D3D;}
	.st3{fill:#3B3B3B;}
	.st4{fill:#545454;}
	.st5{fill:#6E6E6E;}
	.st6{fill:#6E84A3;}
</style>
<path class="st6" d="M19.6,18.5c-0.1-0.6-0.4-1.1-1-1.3c-1.5-0.7-3-1.3-4.6-1.9c-0.1-0.1-0.2-0.1-0.2-0.3c0-0.2,0-0.5,0-0.7
	c0-0.1,0-0.2,0.1-0.3c0.4-0.6,0.7-1.2,0.8-1.9c0-0.1,0.1-0.2,0.2-0.2c0.2,0,0.5,0,0.7,0c1,0,1.7-0.8,1.7-1.8c0-0.8,0-1.5,0-2.3
	c0-0.9-0.4-1.5-1.3-1.8C16,5.9,16,5.9,16,5.8c0-0.3,0-0.5-0.1-0.8c-0.1-0.9-0.4-1.8-1-2.6c-0.8-1.1-1.9-1.7-3.2-1.9
	c-0.3-0.1-0.6-0.1-1-0.1c0,0-0.1,0-0.1,0c0,0-0.1,0-0.1,0c0,0,0,0-0.1,0c0,0-0.1,0-0.1,0c-0.2,0-0.4,0-0.6,0c-0.1,0-0.2,0-0.3,0
	c-0.1,0-0.2,0-0.3,0c0,0,0,0-0.1,0c-0.7,0-1.3,0.1-1.9,0.4c-1,0.4-1.8,1-2.4,1.9C4.3,3.6,4.1,4.6,4,5.7C4,5.8,4,5.9,3.8,6
	C3,6.2,2.6,6.9,2.6,7.7c0,0.8,0,1.6,0,2.4c0,1,0.8,1.8,1.7,1.8c0.2,0,0.5,0,0.7,0c0.2,0,0.2,0,0.3,0.2c0.1,0.5,0.2,1,0.5,1.4
	c0.3,0.4,0.4,0.9,0.4,1.4c0,0.3,0,0.3-0.3,0.5c-1.5,0.6-3,1.3-4.4,1.9c-0.6,0.3-0.9,0.7-1,1.4c0,0.1,0,0.3,0,0.4
	c0,0.4,0.2,0.6,0.6,0.6c6,0,12,0,18,0c0.4,0,0.5-0.1,0.6-0.4c0-0.2,0-0.3,0-0.5C19.6,18.6,19.6,18.5,19.6,18.5z M14.9,7.1
	c0.3,0,0.5,0,0.8,0c0.3,0,0.6,0.2,0.6,0.6c0,0.8,0,1.6,0,2.4c0,0.3-0.2,0.6-0.6,0.6c-0.3,0-0.5,0-0.8,0c-0.1,0-0.1,0-0.1-0.1
	c0-0.5,0-1.1,0-1.6c0-0.5,0-1.1,0-1.6C14.8,7.1,14.8,7.1,14.9,7.1z M5.1,10.6c-0.3,0-0.5,0-0.8,0c-0.3,0-0.6-0.2-0.6-0.6
	c0-0.8,0-1.6,0-2.4c0-0.3,0.2-0.5,0.5-0.5c0.3,0,0.6,0,0.9,0c0.1,0,0.1,0.1,0.1,0.1c0,0.5,0,1.1,0,1.6c0,0.5,0,1.1,0,1.6
	C5.3,10.6,5.2,10.6,5.1,10.6z M6.1,4.3c-0.3,0.4-0.5,1-0.7,1.5c0,0,0,0.1,0,0.1C5.4,6,5.3,6,5.3,6c-0.1,0-0.1,0-0.1-0.1
	C5.3,4,6,2.3,8.3,1.7c0.6-0.1,1.2-0.2,1.9-0.2c0.6,0,1.4,0.1,2.1,0.4c1.3,0.5,2.1,1.5,2.4,2.8c0.1,0.4,0.1,0.8,0.2,1.2
	c0,0,0,0.1-0.1,0.1c-0.1,0-0.1,0-0.1-0.1c-0.1-0.4-0.3-0.8-0.5-1.2c-0.3-0.6-0.7-1-1.4-1.1c-0.5-0.1-1,0-1.4,0.1
	C11,3.8,10.7,3.9,10.4,4c-0.3,0.1-0.6,0.1-0.8,0C9.1,3.8,8.6,3.6,8.1,3.5C7.3,3.4,6.6,3.6,6.1,4.3z M1.6,18.5
	c0.1-0.1,0.2-0.2,0.3-0.3c1.4-0.6,2.8-1.2,4.2-1.8c0.1,0,0.1-0.1,0.2,0.1c0.1,0.7,0.4,1.4,0.9,2C5.3,18.5,3.5,18.5,1.6,18.5z
	 M7.2,13.4c-0.5-0.6-0.8-1.3-0.8-2.1c0-1.5,0-3.1,0-4.6C6.4,6,6.6,5.4,7,4.9c0.3-0.3,0.6-0.4,1-0.3c0.4,0.1,0.8,0.3,1.2,0.4
	c0.6,0.2,1.2,0.2,1.7,0c0.4-0.2,0.8-0.3,1.2-0.4C12.5,4.6,12.8,4.7,13,5c0.2,0.3,0.3,0.6,0.4,0.9c0.2,0.4,0.2,0.9,0.2,1.3
	c0,1.2,0,2.4,0,3.6c0,0.1,0,0.2-0.1,0.3c-0.3,0.2-0.6,0.4-0.9,0.6c-0.4,0.3-0.8,0.4-1.2,0.4c-0.3,0-0.6,0-0.9,0
	c-0.3,0-0.5,0.2-0.6,0.5c0,0.3,0.1,0.5,0.4,0.6c0,0,0.1,0,0.1,0c0.7,0,1.4,0.1,2.1-0.1c0.3-0.1,0.6-0.3,0.9-0.5
	c-0.3,0.7-0.8,1.3-1.4,1.6C10.4,15,8.3,14.7,7.2,13.4z M12.3,17.2c-0.4,0.8-1.2,1.2-2.1,1.3c-0.4,0-0.7,0-1-0.1
	c-1-0.2-1.5-0.9-1.7-1.9c-0.1-0.5-0.1-1-0.1-1.5c0.8,0.5,1.7,0.7,2.7,0.7c0.9,0,1.8-0.2,2.7-0.7C12.7,15.8,12.7,16.5,12.3,17.2z
	 M12.8,18.4c0.5-0.6,0.8-1.3,0.9-2.1c0.4,0.2,0.9,0.4,1.3,0.5c1,0.4,2,0.9,3.1,1.3c0.1,0.1,0.2,0.1,0.3,0.2
	C18.2,18.5,13,18.5,12.8,18.4z"/>
</svg>
