<svg width="24" height="24" viewBox="0 0 24 24" fill="none" xmlns="http://www.w3.org/2000/svg">
<path d="M0.00125156 11.2889C0.0882353 11.1661 0.0782227 11.0121 0.115144 10.874C0.515644 9.36578 1.77284 8.34084 3.26095 8.32026C3.40551 8.31827 3.49562 8.32026 3.51564 8.11182C3.72153 5.97631 4.54193 4.14018 5.9806 2.6353C10.6264 -2.2252 18.403 -0.0505235 20.1984 6.60296C20.3317 7.09618 20.4355 7.59802 20.4606 8.11116C20.4706 8.32159 20.5701 8.31827 20.7153 8.32026C22.2065 8.34084 23.4587 9.35981 23.8567 10.8746C23.9005 11.0413 23.9449 11.2139 23.948 11.3845C23.9662 12.491 24.0895 13.6069 23.8767 14.7002C23.5876 16.1832 22.3423 17.2759 20.9199 17.3549C20.5388 17.3761 20.1552 17.3681 19.7728 17.3635C19.3035 17.3582 19.0163 17.0382 19.0156 16.5238C19.0144 14.2223 19 11.9208 19.0206 9.61936C19.0325 8.32823 18.8798 7.08489 18.3629 5.90196C17.0951 2.99841 14.179 1.26318 11.184 1.64288C7.97809 2.04914 5.46808 4.64867 5.0219 8.02884C4.97121 8.41452 4.9587 8.80352 4.95932 9.19319C4.96182 11.6108 4.96057 14.0278 4.96057 16.4454C4.96057 17.0323 4.78035 17.2945 4.22841 17.3642C2.40488 17.5958 0.866708 16.8836 0.206508 15.1131C0.122653 14.8881 0.0682102 14.6505 0 14.4188C0 13.3759 0 12.3324 0 11.2895L0.00125156 11.2889Z" fill="#F48462"/>
<path d="M12.0074 23.9976C11.7043 23.9976 11.4011 24.0035 11.0985 23.9969C10.2868 23.9798 9.65614 23.2968 9.64946 22.4341C9.64338 21.5899 10.2674 20.8746 11.0602 20.8503C11.6885 20.8305 12.3185 20.8299 12.9468 20.8503C13.7384 20.8766 14.363 21.5997 14.3503 22.4407C14.3369 23.2981 13.7153 23.9759 12.917 23.9956C12.6138 24.0029 12.3106 23.9969 12.0081 23.9969L12.0074 23.9976Z" fill="#F48462"/>
<path d="M8.31773 22.945C5.85258 22.9339 3.77227 21.1029 3.23515 18.4773C3.1931 18.2728 3.20776 18.1771 3.43458 18.2083C3.63783 18.2367 3.90098 18.1431 4.03606 18.252C4.16731 18.3581 4.16412 18.6555 4.23039 18.8649C4.82039 20.7264 6.45724 21.9952 8.2846 22.0104C8.47511 22.0118 8.70894 21.9411 8.84402 22.0361C8.98547 22.1352 8.84274 22.3966 8.86186 22.5893C8.8969 22.9429 8.88607 22.9436 8.55602 22.9436C8.47638 22.9436 8.39737 22.9436 8.31773 22.9436V22.945Z" fill="#F48462"/>
</svg>
