<svg width="380" height="358" viewBox="0 0 380 358" fill="none" xmlns="http://www.w3.org/2000/svg">
<g clip-path="url(#clip0_181_2832)">
<path d="M97.6222 59.8922C98.907 59.1396 100.271 58.5731 101.678 58.1841L102.517 54.303L109.299 54.1846L110.278 58.0404C111.703 58.3786 113.084 58.9029 114.395 59.6047L117.821 57.4316L122.707 61.9892L120.583 65.38C121.361 66.623 121.947 67.9421 122.349 69.3035L126.361 70.1152L126.483 76.6769L122.497 77.6239C122.148 79.0022 121.606 80.3382 120.881 81.6066L123.127 84.9213L118.416 89.648L114.911 87.5933C113.626 88.3458 112.262 88.9124 110.855 89.3013L110.016 93.1825L103.234 93.3009L102.255 89.4451C100.83 89.1069 99.4489 88.5826 98.1379 87.8808L94.7116 90.0539L89.8257 85.4962L91.9496 82.1055C91.1717 80.8625 90.5861 79.5434 90.184 78.182L86.1722 77.3703L86.0498 70.8086L90.0355 69.8616C90.3851 68.4833 90.927 67.1473 91.6524 65.8789L89.4061 62.5642L94.1172 57.8375L97.6222 59.8922ZM101.241 68.6355C98.4525 71.4343 98.5312 75.8905 101.424 78.5963C104.317 81.2937 108.924 81.2176 111.721 78.4188C114.509 75.6199 114.43 71.1637 111.537 68.4579C108.644 65.7605 104.038 65.8366 101.241 68.6355Z" fill="#E0E0E0"/>
<path d="M120.137 206.743C120.88 206.312 121.667 205.982 122.48 205.763L122.961 203.522L126.876 203.454L127.436 205.678C128.257 205.872 129.053 206.177 129.813 206.583L131.788 205.331L134.603 207.961L133.379 209.914C133.825 210.633 134.166 211.394 134.393 212.18L136.709 212.646L136.779 216.434L134.481 216.975C134.279 217.77 133.965 218.539 133.545 219.275L134.839 221.186L132.121 223.909L130.102 222.725C129.359 223.156 128.572 223.486 127.759 223.706L127.278 225.946L123.363 226.014L122.803 223.79C121.982 223.596 121.186 223.291 120.426 222.885L118.451 224.137L115.636 221.507L116.86 219.554C116.414 218.835 116.073 218.074 115.846 217.288L113.53 216.823L113.46 213.034L115.758 212.493C115.959 211.698 116.274 210.929 116.694 210.193L115.4 208.282L118.118 205.56L120.137 206.743ZM122.226 211.783C120.618 213.398 120.662 215.969 122.331 217.524C124.001 219.08 126.658 219.038 128.266 217.423C129.874 215.808 129.831 213.237 128.161 211.682C126.492 210.126 123.835 210.168 122.226 211.783Z" fill="#E0E0E0"/>
<path d="M34.9007 9.85101C35.4076 9.55505 35.9408 9.3352 36.5002 9.183L36.8323 7.65251L39.5069 7.61023L39.8915 9.12381C40.4509 9.2591 40.9928 9.46204 41.5085 9.74108L42.8545 8.88705L44.7774 10.6797L43.9383 12.0157C44.2442 12.5061 44.4715 13.0219 44.6288 13.5631L46.2108 13.8844L46.2546 16.4719L44.69 16.8439C44.5502 17.3851 44.3404 17.9093 44.052 18.4082L44.9347 19.7104L43.0818 21.5707L41.7008 20.7589C41.1938 21.0549 40.6607 21.2747 40.1013 21.4269L39.7691 22.9574L37.0946 22.9997L36.71 21.4861C36.1506 21.3508 35.6087 21.1479 35.093 20.8689L33.747 21.7229L31.8241 19.9303L32.6631 18.5943C32.3572 18.1038 32.13 17.588 31.9726 17.0469L30.3906 16.7255L30.3469 14.1381L31.9115 13.766C32.0513 13.2249 32.2611 12.7006 32.5495 12.2017L31.6667 10.8995L33.5197 9.03925L34.9007 9.85101ZM36.3254 13.2925C35.2241 14.3917 35.2591 16.1505 36.3953 17.216C37.5316 18.2814 39.3496 18.2476 40.4509 17.1483C41.5522 16.0491 41.5172 14.2903 40.381 13.2249C39.2447 12.1594 37.4267 12.1933 36.3254 13.2925Z" fill="#E0E0E0"/>
<path d="M165.369 4.43927C166.366 3.85583 167.432 3.41613 168.525 3.11172L169.171 0.0930134L174.451 0L175.211 3.00179C176.321 3.26392 177.396 3.6698 178.41 4.21942L181.076 2.52827L184.878 6.07969L183.226 8.71789C183.829 9.68185 184.284 10.7134 184.598 11.7704L187.719 12.3961L187.815 17.5034L184.712 18.2391C184.441 19.313 184.021 20.353 183.453 21.3339L185.201 23.9129L181.53 27.5911L178.803 25.993C177.807 26.5765 176.741 27.0162 175.648 27.3206L175.001 30.3393L169.722 30.4323L168.962 27.4305C167.852 27.1684 166.777 26.7625 165.763 26.2129L163.097 27.904L159.295 24.3526L160.947 21.7144C160.344 20.7504 159.889 19.7188 159.574 18.6619L156.454 18.0361L156.358 12.9289L159.461 12.1932C159.732 11.1193 160.151 10.0793 160.719 9.0984L158.971 6.51939L162.642 2.84114L165.369 4.43927ZM168.184 11.2462C166.007 13.4193 166.077 16.8946 168.324 18.9916C170.57 21.0971 174.162 21.0295 176.33 18.8563C178.506 16.6832 178.436 13.2079 176.19 11.1109C173.944 9.00539 170.351 9.07303 168.184 11.2462Z" fill="#EBEBEB"/>
<path d="M304.911 130.489C306.196 129.737 307.559 129.17 308.966 128.781L309.806 124.9L316.579 124.782L317.558 128.629C318.983 128.967 320.364 129.491 321.675 130.193L325.101 128.02L329.978 132.578L327.855 135.969C328.632 137.212 329.218 138.531 329.62 139.892L333.632 140.704L333.754 147.257L329.777 148.204C329.428 149.574 328.886 150.918 328.16 152.178L330.407 155.493L325.696 160.211L322.191 158.156C320.906 158.909 319.542 159.476 318.135 159.865L317.296 163.746L310.522 163.864L309.543 160.017C308.127 159.679 306.738 159.154 305.435 158.452L302.009 160.626L297.132 156.068L299.256 152.677C298.478 151.434 297.892 150.115 297.49 148.754L293.478 147.942L293.356 141.389L297.333 140.442C297.682 139.072 298.224 137.727 298.95 136.467L296.704 133.153L301.415 128.434L304.92 130.489H304.911ZM308.521 139.224C305.732 142.023 305.811 146.471 308.704 149.168C311.597 151.865 316.195 151.789 318.983 148.99C321.771 146.192 321.693 141.744 318.799 139.046C315.906 136.349 311.309 136.425 308.521 139.224Z" fill="#E0E0E0"/>
<path d="M29.6476 258.467C33.2749 256.125 35.2852 251.66 34.3762 247.018C33.1788 240.938 27.4275 236.888 21.5365 237.97C15.6454 239.053 11.8346 244.862 13.032 250.942C13.9585 255.626 17.5858 259.076 21.8948 259.93C5.96972 265.409 10.1826 282.524 10.1826 282.524L49.0252 275.387C49.0252 275.387 46.4031 257.782 29.6564 258.467H29.6476Z" fill="#EBEBEB"/>
<path d="M76.6887 331.424L68.6912 329.521C68.6912 329.521 67.0393 336.015 60.0294 334.468C56.3934 333.664 55.0998 330.925 54.7852 328.98C54.4181 326.722 55.2834 324.464 56.9528 322.849C58.8582 321.006 62.3282 319.755 67.485 321.953L71.9252 304.517L64.0238 302.632L61.4192 312.846C61.4192 312.846 49.6283 312.973 46.6128 324.794C43.7285 336.108 53.544 341.232 58.0366 342.298C61.4716 343.118 73.3674 345.097 76.6887 331.415V331.424Z" fill="#EBEBEB"/>
<path d="M64.8402 299.012L72.8601 300.923L74.7063 293.674L66.6864 291.762L64.8402 299.012Z" fill="#EBEBEB"/>
<path d="M20.1992 120.131L32.7155 121.357C32.7155 121.357 33.7731 111.193 44.7162 112.073C50.3975 112.529 52.9672 116.41 53.8762 119.285C54.9338 122.617 54.1297 126.219 51.962 129.01C49.4885 132.189 44.5152 134.81 36.2292 132.552L33.3798 159.856L45.7563 161.065L47.4257 145.075C47.4257 145.075 65.2388 142.429 67.1704 123.919C69.0146 106.213 53.0371 100.497 46.0098 99.8118C40.6344 99.2875 22.2008 98.7548 20.208 120.139L20.1992 120.131Z" fill="#EBEBEB"/>
<path d="M45.2995 166.699L32.7422 165.471L31.5568 176.82L44.1141 178.048L45.2995 166.699Z" fill="#EBEBEB"/>
<path d="M380 357.78C380 357.899 294.929 358 190.009 358C85.0883 358 0 357.899 0 357.78C0 357.662 85.0534 357.56 190.009 357.56C294.964 357.56 380 357.662 380 357.78Z" fill="black"/>
<path d="M304.089 111.075L315.05 109.401C320.18 113.4 326.482 116.123 333.501 116.985C353.683 119.455 372.116 105.604 374.668 86.0543C377.221 66.5046 362.93 48.646 342.748 46.1769C322.567 43.7078 304.133 57.5584 301.581 77.1081C300.514 85.2764 302.394 93.1318 306.405 99.7103L306.388 99.6934L304.08 111.075H304.089Z" fill="white"/>
<path d="M304.089 111.075C304.089 111.075 304.124 110.838 304.22 110.356C304.316 109.857 304.456 109.138 304.64 108.191C305.016 106.247 305.575 103.397 306.3 99.6765C306.309 99.6257 306.362 99.5919 306.414 99.6004C306.431 99.6004 306.449 99.6173 306.466 99.6257L306.484 99.6427L306.335 99.761C303.914 95.8122 301.476 90.0961 301.178 82.951C301.1 81.1753 301.178 79.3235 301.397 77.4209C301.72 75.5353 301.983 73.5566 302.638 71.6118C303.801 67.6883 305.741 63.6888 308.573 60.0443C311.396 56.3914 315.119 53.0937 319.56 50.5908C324 48.0879 329.165 46.3883 334.654 45.8725C340.135 45.3313 345.912 46.0669 351.34 48.0794C356.742 50.1003 361.872 53.3389 365.832 57.7782L367.326 59.4693C367.789 60.0528 368.209 60.67 368.646 61.2704C369.572 62.4373 370.237 63.7649 370.997 65.0163C371.382 65.642 371.635 66.3354 371.95 66.9865C372.238 67.6545 372.597 68.2887 372.824 68.9821C373.27 70.3604 373.847 71.6879 374.109 73.0916C375.49 78.6301 375.464 84.3377 374.24 89.5972C372.99 94.8652 370.516 99.6511 367.317 103.617C364.11 107.583 360.185 110.72 356.016 112.944C351.847 115.176 347.459 116.495 343.246 117.062C341.14 117.391 339.077 117.391 337.084 117.408C335.1 117.248 333.177 117.18 331.368 116.816C324.087 115.497 318.598 112.343 314.98 109.485L315.05 109.502C311.475 110.026 308.73 110.424 306.851 110.703C305.942 110.83 305.243 110.931 304.762 110.999C304.299 111.066 304.072 111.092 304.072 111.092C304.072 111.092 304.325 111.041 304.797 110.965C305.286 110.889 305.986 110.77 306.903 110.618C308.756 110.322 311.483 109.883 315.015 109.324C315.041 109.324 315.067 109.325 315.085 109.341C318.712 112.157 324.183 115.26 331.412 116.537C333.203 116.892 335.118 116.952 337.084 117.104C339.051 117.078 341.105 117.07 343.185 116.732C347.354 116.157 351.698 114.838 355.815 112.622C359.932 110.415 363.813 107.295 366.968 103.372C370.123 99.4482 372.57 94.7129 373.794 89.5042C374.992 84.2954 375.018 78.6639 373.646 73.193C373.383 71.8063 372.806 70.4872 372.378 69.1343C372.16 68.4578 371.801 67.8236 371.513 67.1641C371.198 66.5214 370.945 65.8365 370.569 65.2192C369.817 63.9762 369.162 62.6741 368.244 61.5156C367.807 60.9237 367.396 60.3149 366.933 59.7399L365.464 58.0741C361.558 53.6856 356.488 50.4893 351.156 48.4853C345.798 46.4982 340.091 45.7625 334.672 46.2953C329.253 46.8026 324.14 48.4684 319.743 50.9375C315.338 53.4066 311.658 56.662 308.853 60.2642C306.038 63.8748 304.107 67.8152 302.944 71.7048C302.289 73.6327 302.026 75.5945 301.694 77.4632C301.458 79.3488 301.38 81.1837 301.449 82.951C301.712 90.0369 304.098 95.7361 306.466 99.6765C306.493 99.7188 306.475 99.7779 306.431 99.8033C306.397 99.8287 306.344 99.8202 306.309 99.7864L306.292 99.7695L306.458 99.7188C305.689 103.397 305.094 106.221 304.692 108.141C304.491 109.096 304.334 109.823 304.229 110.322C304.124 110.813 304.063 111.075 304.063 111.075H304.089Z" fill="#263238"/>
<path d="M349.443 82.6129C349.443 80.6088 351.122 78.9854 353.193 78.9854C355.265 78.9854 356.943 80.6088 356.943 82.6129C356.943 84.6169 355.265 86.2404 353.193 86.2404C351.122 86.2404 349.443 84.6169 349.443 82.6129Z" fill="#263238"/>
<path d="M334.453 82.6129C334.453 80.6088 336.132 78.9854 338.203 78.9854C340.275 78.9854 341.953 80.6088 341.953 82.6129C341.953 84.6169 340.275 86.2404 338.203 86.2404C336.132 86.2404 334.453 84.6169 334.453 82.6129Z" fill="#263238"/>
<path d="M319.498 84.4223C318.467 82.6889 319.079 80.4735 320.871 79.4672C322.662 78.4694 324.952 79.0614 325.993 80.7948C327.024 82.5282 326.412 84.7436 324.62 85.7499C322.829 86.7476 320.539 86.1557 319.498 84.4223Z" fill="#263238"/>
<path d="M57.6347 212.426C55.3272 211.369 51.4639 209.162 49.0691 208.299C46.6742 207.437 43.9996 207.022 41.5785 207.809C40.1625 208.265 38.7553 209.356 38.7466 210.794L48.1426 217.457L57.626 215.038V212.417L57.6347 212.426Z" fill="#FF9A6C"/>
<path d="M47.3558 212.333C47.3558 212.333 30.4693 208.79 27.6898 207.394C24.9103 205.991 10.1652 198.854 7.72659 198.854C5.288 198.854 3.17281 199.497 2.72705 201.864L5.9348 204.283L6.3456 205.517L11.8346 208.282L12.8398 210.066L26.807 217.288C26.807 217.288 41.4735 224.492 43.9208 224.923C46.3681 225.355 58.5873 226.318 63.8141 230.622L84.7912 222.294C84.7912 222.294 78.734 213.965 74.0666 211.918C69.9062 210.092 62.9226 210.092 58.0367 212.02L47.3558 212.341V212.333Z" fill="#FFBF9D"/>
<path d="M61.3931 225.98C61.3931 225.98 88.0952 282.313 92.3955 293.592C92.3955 293.592 122.244 288.849 123.267 272.817L84.7913 222.091L61.3931 225.98Z" fill="#FFBF9D"/>
<path d="M36.5876 213.61C36.5876 213.61 36.4915 213.618 36.2992 213.61C36.1069 213.601 35.8447 213.542 35.4951 213.457C34.8133 213.271 33.8519 212.908 32.7156 212.375C31.5794 211.842 30.2595 211.14 28.8086 210.354C28.0832 209.965 27.3228 209.551 26.5274 209.145C25.7407 208.739 24.8667 208.409 23.9926 208.037C22.2358 207.302 20.5402 206.659 18.9407 206.261C17.3586 205.881 15.8378 205.593 14.6928 205.966C13.5391 206.346 13.0234 207.302 12.7349 207.885C12.4378 208.494 12.3329 208.857 12.2892 208.849C12.2717 208.849 12.2892 208.747 12.3329 208.578C12.3678 208.401 12.4465 208.147 12.5776 207.826C12.7087 207.504 12.8923 207.115 13.1982 206.71C13.5041 206.312 13.9673 205.906 14.5967 205.678C15.2172 205.441 15.9514 205.416 16.7031 205.475C17.4548 205.543 18.2414 205.678 19.0543 205.872C20.6887 206.261 22.4194 206.904 24.1849 207.64C25.059 208.012 25.9418 208.35 26.7459 208.773C27.55 209.187 28.3104 209.61 29.0271 210.007C30.4693 210.811 31.7629 211.538 32.8729 212.104C33.983 212.671 34.9095 213.077 35.565 213.305C36.2205 213.542 36.6051 213.584 36.5964 213.635L36.5876 213.61Z" fill="#FF9A6C"/>
<path d="M20.4877 205.509C20.4702 205.56 19.5437 205.306 18.1278 204.714C16.7206 204.097 14.7977 203.234 12.5776 202.575C11.485 202.253 10.3663 202.236 9.38733 202.313C8.39966 202.389 7.57806 202.769 7.1323 203.327C6.68653 203.885 6.55543 204.477 6.46802 204.875C6.40684 205.28 6.37188 205.509 6.34566 205.509C6.31943 205.509 6.29321 205.28 6.29321 204.858C6.32817 204.443 6.40684 203.801 6.87882 203.141C7.12356 202.828 7.46443 202.524 7.89272 202.313C8.321 202.101 8.8192 201.974 9.34363 201.915C10.375 201.805 11.5462 201.822 12.7087 202.16C14.9812 202.845 16.9041 203.767 18.2676 204.443C19.6399 205.103 20.5227 205.45 20.4965 205.517L20.4877 205.509Z" fill="#FF9A6C"/>
<path d="M62.5816 210.743C62.5816 210.743 62.3456 210.87 61.8998 211.03C61.4541 211.191 60.7898 211.394 59.9595 211.605C58.2988 212.028 55.9476 212.451 53.3255 212.561C50.7033 212.671 48.3172 212.451 46.6303 212.164C45.7824 212.02 45.1007 211.884 44.6462 211.758C44.1829 211.639 43.9295 211.555 43.9382 211.529C43.9557 211.462 44.9958 211.656 46.6827 211.859C48.3696 212.062 50.7208 212.231 53.308 212.121C55.8951 212.011 58.2201 211.648 59.8895 211.301C61.5502 210.954 62.5729 210.675 62.5903 210.743H62.5816Z" fill="#FF9A6C"/>
<path d="M311.239 177.292L272.353 169.513L262.79 162.537L211.475 172.109C210.654 173.563 202.341 184.758 202.341 184.758L182.142 191.396C173.498 193.645 165.798 198.347 160.221 204.942C155.956 209.982 151.21 216.933 147.137 226.166C138.047 246.807 124.927 270.652 124.927 270.652L116.703 257.841L82.0466 273.628C82.0466 273.628 102.351 313.235 109.072 318.884C116.545 325.166 133.72 325.893 145.598 314.174C152.757 307.105 173.446 279.167 177.763 272.174L184.126 301.422L190.009 334.806L180.499 357.772H319.297L313.555 336.066C313.555 336.066 319.21 279.463 320.775 268.935C324.454 244.084 311.248 177.292 311.248 177.292H311.239Z" fill="#F48462"/>
<path d="M311.239 177.292C311.239 177.292 339.033 184.835 345.152 211.555C348.858 227.748 361.444 273.907 365.875 311.908C368.506 334.501 368.428 355.379 368.506 357.772H325.853L307.769 184.835L311.239 177.292Z" fill="#F48462"/>
<path d="M239.952 200.241C239.952 200.241 239.925 200.342 239.838 200.52C239.733 200.731 239.602 200.985 239.445 201.298C239.104 201.983 238.597 202.981 238.003 204.257C236.779 206.803 235.319 210.565 232.986 214.759L232.863 214.971L232.671 214.81C229.787 212.434 226.657 209.576 223.423 206.49C217.707 200.993 212.681 195.878 208.975 192.25C207.14 190.466 205.645 189.012 204.57 187.963C204.072 187.49 203.67 187.101 203.364 186.805C203.093 186.534 202.953 186.39 202.962 186.382C202.971 186.373 203.128 186.492 203.425 186.745C203.749 187.025 204.168 187.388 204.693 187.845C205.776 188.817 207.324 190.238 209.203 192.03C212.979 195.607 218.031 200.689 223.747 206.177C226.972 209.263 230.092 212.121 232.942 214.514L232.627 214.565C234.978 210.422 236.49 206.676 237.784 204.156C238.413 202.888 238.947 201.898 239.331 201.239C239.515 200.934 239.663 200.689 239.786 200.486C239.89 200.317 239.952 200.232 239.96 200.241H239.952Z" fill="black"/>
<path d="M272.938 170.468C272.938 170.468 272.921 170.671 272.86 171.06C272.781 171.491 272.667 172.049 272.536 172.743C272.222 174.197 271.697 176.294 270.945 178.848C269.442 183.964 266.995 190.923 263.988 198.499C262.397 202.507 260.824 206.295 259.356 209.652L259.242 209.906L259.023 209.72C255.064 206.337 251.515 203.674 249.112 201.695C247.906 200.714 246.962 199.92 246.324 199.361C246.035 199.099 245.799 198.888 245.607 198.719C245.449 198.567 245.371 198.491 245.38 198.482C245.38 198.482 245.484 198.541 245.651 198.668C245.852 198.829 246.105 199.023 246.411 199.268C247.11 199.818 248.072 200.571 249.269 201.518C251.716 203.446 255.3 206.058 259.303 209.432L258.971 209.5C260.413 206.135 261.978 202.346 263.568 198.347C266.566 190.779 269.057 183.854 270.64 178.763C271.426 176.218 271.994 174.146 272.37 172.7C272.536 172.016 272.676 171.458 272.781 171.035C272.877 170.654 272.938 170.46 272.956 170.46L272.938 170.468Z" fill="black"/>
<path d="M183.025 297.685C183.025 297.685 182.99 297.626 182.946 297.491L182.763 296.916C182.605 296.374 182.378 295.63 182.107 294.692C181.81 293.728 181.522 292.535 181.172 291.149C180.805 289.762 180.447 288.181 180.071 286.413C178.515 279.387 176.968 269.553 175.998 258.628C175.01 247.695 174.791 237.759 174.844 230.58C174.87 226.986 174.949 224.078 175.045 222.074C175.097 221.101 175.132 220.332 175.159 219.765C175.176 219.52 175.194 219.326 175.202 219.165C175.211 219.03 175.228 218.962 175.228 218.962C175.228 218.962 175.246 219.03 175.246 219.165C175.246 219.326 175.246 219.528 175.246 219.765C175.246 220.332 175.228 221.101 175.211 222.074C175.167 224.078 175.141 226.986 175.15 230.572C175.185 237.751 175.456 247.669 176.435 258.586C177.396 269.494 178.899 279.319 180.368 286.354C180.726 288.113 181.058 289.703 181.399 291.09C181.723 292.476 181.994 293.677 182.265 294.649C182.509 295.596 182.702 296.349 182.841 296.89L182.981 297.474C183.007 297.609 183.025 297.677 183.016 297.677L183.025 297.685Z" fill="black"/>
<path d="M313.546 206.938C313.546 206.938 313.59 207.014 313.669 207.166C313.747 207.344 313.852 207.572 313.975 207.86C314.245 208.502 314.63 209.407 315.12 210.548C315.364 211.132 315.653 211.783 315.932 212.502C316.186 213.229 316.466 214.024 316.763 214.869C317.06 215.723 317.375 216.628 317.715 217.592C317.995 218.573 318.284 219.613 318.598 220.704C321.203 229.405 322.523 241.995 321.771 255.77C321.002 269.553 319.341 281.94 318.31 290.912C317.777 295.377 317.34 298.996 317.034 301.541C316.876 302.767 316.754 303.739 316.675 304.424C316.632 304.737 316.597 304.982 316.57 305.177C316.544 305.346 316.527 305.431 316.518 305.431C316.518 305.431 316.518 305.346 316.518 305.168L316.579 304.416C316.649 303.722 316.736 302.75 316.859 301.524C317.104 299.013 317.488 295.377 317.986 290.887C318.939 281.907 320.547 269.51 321.308 255.753C322.059 242.004 320.792 229.481 318.275 220.788C317.978 219.698 317.698 218.658 317.427 217.677C317.104 216.713 316.798 215.8 316.509 214.945C316.23 214.091 315.959 213.305 315.714 212.569C315.452 211.851 315.172 211.2 314.945 210.608C314.49 209.449 314.132 208.536 313.878 207.893C313.765 207.597 313.677 207.369 313.607 207.183C313.546 207.022 313.52 206.938 313.529 206.938H313.546Z" fill="black"/>
<path d="M125.12 299.461C124.997 299.461 124.849 293.017 124.796 285.061C124.744 277.104 124.796 270.66 124.927 270.66C125.05 270.66 125.198 277.104 125.251 285.061C125.303 293.017 125.251 299.461 125.12 299.461Z" fill="black"/>
<path d="M251.244 338.484C251.244 338.484 251.244 338.366 251.271 338.129C251.297 337.875 251.34 337.537 251.393 337.097C251.515 336.167 251.681 334.84 251.9 333.132C252.014 332.269 252.136 331.314 252.276 330.265C252.389 329.217 252.52 328.075 252.652 326.849C252.905 324.397 253.255 321.615 253.491 318.52C253.622 316.973 253.762 315.358 253.901 313.675C254.041 311.992 254.12 310.233 254.242 308.415C254.505 304.779 254.609 300.89 254.767 296.789C254.959 288.595 254.933 279.581 254.487 270.136C254.006 260.691 253.167 251.711 252.171 243.568C251.62 239.501 251.139 235.637 250.519 232.043C250.222 230.242 249.977 228.5 249.671 226.834C249.365 225.168 249.068 223.57 248.788 222.048C248.264 218.987 247.643 216.248 247.145 213.838C246.892 212.629 246.656 211.512 246.437 210.472C246.201 209.449 245.983 208.502 245.782 207.657C245.397 205.982 245.1 204.672 244.89 203.758C244.794 203.327 244.724 202.989 244.672 202.744C244.628 202.515 244.602 202.397 244.61 202.397C244.61 202.397 244.654 202.507 244.715 202.735C244.776 202.981 244.864 203.319 244.977 203.742C245.205 204.655 245.528 205.957 245.948 207.623C246.157 208.468 246.385 209.407 246.638 210.43C246.865 211.462 247.11 212.586 247.381 213.787C247.897 216.197 248.535 218.937 249.085 221.998C249.374 223.52 249.68 225.118 249.994 226.784C250.309 228.449 250.563 230.191 250.868 231.992C251.498 235.586 251.996 239.459 252.555 243.526C253.569 251.669 254.426 260.657 254.907 270.119C255.344 279.581 255.361 288.604 255.143 296.806C254.977 300.907 254.854 304.805 254.574 308.441C254.443 310.259 254.356 312.018 254.207 313.709C254.05 315.391 253.91 317.015 253.762 318.562C253.508 321.657 253.141 324.439 252.861 326.891C252.713 328.117 252.573 329.25 252.451 330.299C252.302 331.339 252.162 332.294 252.031 333.157C251.778 334.857 251.576 336.184 251.437 337.114L251.271 338.137C251.227 338.366 251.209 338.484 251.201 338.484H251.244Z" fill="black"/>
<path d="M269.722 247.213C269.722 247.213 269.774 247.196 269.896 247.187L270.438 247.12C270.945 247.069 271.662 246.984 272.589 246.891C274.503 246.697 277.273 246.409 280.77 246.046C287.867 245.335 297.936 244.329 309.919 243.129L310.137 243.103V243.315C310.373 251.855 310.627 261.503 310.898 271.743V271.836L310.837 271.903C309.718 273.062 308.52 274.305 307.323 275.556C302.927 280.122 298.653 284.562 294.597 288.773L294.483 288.891L294.335 288.823C286.521 285.069 279.275 281.594 272.859 278.507L272.763 278.465V278.364C271.819 268.935 271.05 261.131 270.508 255.668C270.255 252.979 270.045 250.866 269.905 249.394C269.844 248.692 269.792 248.151 269.757 247.762C269.722 247.399 269.722 247.213 269.722 247.213C269.722 247.213 269.757 247.416 269.8 247.796C269.844 248.194 269.914 248.752 269.993 249.462C270.159 250.933 270.395 253.064 270.692 255.761C271.277 261.198 272.108 268.952 273.122 278.321L273.017 278.178C279.441 281.239 286.696 284.697 294.527 288.434L294.265 288.477C298.32 284.257 302.586 279.818 306.982 275.252C308.188 274 309.386 272.757 310.505 271.599L310.443 271.751C310.19 261.511 309.954 251.855 309.744 243.323L309.963 243.509C298.023 244.625 287.989 245.564 280.918 246.223C277.396 246.545 274.608 246.798 272.676 246.967C271.732 247.052 271.006 247.111 270.482 247.153L269.914 247.196C269.783 247.204 269.713 247.204 269.713 247.196L269.722 247.213Z" fill="black"/>
<path d="M310.199 253.165C310.199 253.165 309.666 253.292 308.687 253.444C307.708 253.597 306.292 253.791 304.535 254.011C301.021 254.451 296.153 254.95 290.777 255.44C285.437 255.947 280.604 256.404 277.011 256.742C275.307 256.911 273.9 257.055 272.842 257.165C271.854 257.266 271.312 257.3 271.304 257.275C271.304 257.241 271.837 257.148 272.816 256.996C273.795 256.844 275.211 256.649 276.968 256.429C280.481 255.99 285.35 255.491 290.725 255C296.065 254.493 300.899 254.036 304.491 253.698C306.196 253.529 307.603 253.385 308.66 253.275C309.648 253.174 310.19 253.14 310.199 253.165Z" fill="black"/>
<g opacity="0.3">
<path opacity="0.3" d="M318.642 286.422C319.131 292.18 319.621 297.939 320.11 303.697C323.353 288.9 328.449 272.994 327.653 257.884C326.867 242.875 325.39 228.339 316.597 214.666C316.597 214.666 322.558 229.117 321.754 246.79C320.949 264.462 318.633 286.414 318.633 286.414L318.642 286.422Z" fill="black"/>
</g>
<path d="M119.333 254.265C118.748 253.292 118.075 252.244 116.973 251.872C115.75 251.466 114.421 252.032 113.259 252.599C102.683 257.689 92.1156 262.78 81.5396 267.879C79.4594 268.885 77.1956 270.077 76.409 272.191C75.4038 274.897 77.2393 277.755 78.9874 280.08C81.9067 283.97 85.4029 288.189 90.3413 288.739L117.611 270.644C120.95 270.17 123.022 266.576 122.891 263.321C122.76 260.065 121.02 257.097 119.333 254.273V254.265Z" fill="#F48462"/>
<path d="M122.777 265.325C122.777 265.325 122.69 265.435 122.497 265.621C122.261 265.832 121.982 266.094 121.641 266.407C120.889 267.084 119.779 268.039 118.389 269.189C115.601 271.498 111.642 274.567 107.062 277.696C102.482 280.816 98.1727 283.403 94.9911 285.179C93.4004 286.067 92.098 286.76 91.189 287.217C90.7695 287.42 90.4286 287.597 90.1402 287.733C89.8954 287.851 89.7643 287.902 89.7556 287.885C89.7469 287.868 89.8605 287.792 90.0965 287.657C90.3762 287.496 90.7083 287.301 91.1104 287.065C92.0543 286.524 93.313 285.796 94.8338 284.908C97.9716 283.074 102.246 280.452 106.808 277.341C111.371 274.22 115.356 271.202 118.188 268.961C119.561 267.862 120.688 266.965 121.527 266.289C121.885 266.001 122.191 265.765 122.445 265.562C122.655 265.401 122.777 265.317 122.786 265.333L122.777 265.325Z" fill="black"/>
<g opacity="0.3">
<path opacity="0.3" d="M272.527 172.405C268.795 184.403 263.568 197.958 259.154 209.576C255.387 206.49 250.134 202.406 246.367 199.311C249.601 205.526 253.508 211.419 257.983 216.873C258.499 217.508 259.207 218.192 260.02 218.04C260.798 217.897 261.191 217.076 261.471 216.366C263.769 210.498 266.059 204.629 268.358 198.753C271.575 190.534 274.678 180.928 272.527 172.396V172.405Z" fill="black"/>
</g>
<path d="M213.529 41.9575C224.857 38.7951 235.52 41.9829 246 47.217C256.48 52.4511 264.932 61.1521 270.404 71.2652C276.172 81.911 278.716 94.3241 276.635 106.171C274.546 118.017 267.633 129.179 257.258 135.791C243.09 144.822 223.572 144.348 208.976 135.986C194.379 127.623 184.791 112.2 182.239 95.9814C180.482 84.8029 181.906 73.0155 187.308 62.987C192.701 52.9585 202.237 44.8579 213.538 41.966" fill="#263238"/>
<path d="M250.833 76.3725C248.64 72.2799 248.736 67.4347 247.538 62.9785C244.899 53.1614 235.651 46.067 225.582 43.2259C216.213 40.5877 205.383 42.5748 195.008 47.124C187.893 50.2442 181.417 55.0301 177.169 61.3719C171.54 69.7939 170.509 80.9217 174.503 90.1723L226.413 76.9559C231.814 80.372 237.347 83.8389 243.596 85.3863C245.432 85.8429 247.381 86.122 249.208 85.6315C251.035 85.1411 252.695 83.7205 252.931 81.9025C253.185 79.9154 251.777 78.1482 250.825 76.364L250.833 76.3725Z" fill="#263238"/>
<path d="M263.219 165.412L249.82 74.2416C249.225 69.9292 247.206 65.5406 242.722 65.7351L195.541 61.3381C180.761 61.9977 173.821 80.761 175.124 95.0174C176.575 110.864 179.005 130.151 182.772 141.575C190.35 164.549 209.483 164.794 209.483 164.794C209.483 164.71 210.645 169.36 212.096 177.901L242.688 197.577L263.228 165.403L263.219 165.412Z" fill="#FFBF9D"/>
<path d="M186.504 112.36C186.696 113.967 188.261 115.125 189.991 114.965C191.722 114.804 192.972 113.366 192.779 111.768C192.587 110.162 191.023 109.003 189.292 109.164C187.561 109.325 186.303 110.762 186.504 112.36Z" fill="#263238"/>
<path d="M180.997 104.369C181.443 104.708 183.541 102.661 186.906 102.179C190.253 101.647 192.98 102.957 193.286 102.501C193.435 102.298 192.928 101.647 191.739 101.046C190.559 100.446 188.645 99.9809 186.556 100.302C184.467 100.624 182.824 101.63 181.932 102.543C181.023 103.465 180.787 104.226 181.006 104.378L180.997 104.369Z" fill="#263238"/>
<path d="M217.559 107.473C217.751 109.079 219.315 110.238 221.046 110.077C222.777 109.916 224.027 108.479 223.834 106.881C223.642 105.274 222.077 104.116 220.347 104.276C218.616 104.437 217.366 105.875 217.559 107.473Z" fill="#263238"/>
<path d="M212.944 100.066C213.398 100.404 215.496 98.3575 218.852 97.8755C222.2 97.3428 224.927 98.645 225.233 98.1968C225.381 97.9939 224.883 97.3428 223.686 96.7424C222.514 96.1421 220.592 95.677 218.503 95.9983C216.414 96.3196 214.77 97.3259 213.879 98.2391C212.97 99.1608 212.734 99.9218 212.944 100.074V100.066Z" fill="#263238"/>
<path d="M205.724 125.999C205.706 125.813 203.565 125.771 200.121 125.856C199.247 125.898 198.408 125.856 198.181 125.306C197.884 124.74 198.102 123.792 198.364 122.761C198.854 120.63 199.37 118.406 199.903 116.064C202 106.551 203.39 98.7719 202.988 98.6958C202.595 98.6197 200.567 106.264 198.46 115.785C197.962 118.127 197.482 120.359 197.036 122.499C196.861 123.488 196.468 124.638 197.106 125.822C197.438 126.405 198.137 126.76 198.705 126.828C199.282 126.913 199.763 126.845 200.191 126.811C203.626 126.49 205.741 126.185 205.724 125.999Z" fill="#263238"/>
<path d="M209.474 164.794C209.474 164.794 226.011 163.399 240.738 151.57C240.738 151.57 233.108 170.045 210.994 171.906L209.465 164.803L209.474 164.794Z" fill="#FF9A6C"/>
<path d="M208.381 133.626C209.343 131.901 211.327 130.743 213.468 130.65C214.945 130.591 216.527 131.047 217.593 132.071C218.66 133.085 219.106 134.692 218.468 135.901C217.76 137.271 215.907 137.829 214.237 137.626C212.568 137.423 211.021 136.603 209.552 135.783C209.141 135.554 208.731 135.318 208.442 134.962C208.154 134.607 208.031 134.117 208.259 133.753" fill="#FF9A6C"/>
<path d="M215.959 126.786C215.408 126.836 215.959 130.363 213.232 133.33C210.514 136.298 206.563 136.485 206.616 136.975C206.598 137.203 207.586 137.533 209.238 137.33C210.855 137.144 213.127 136.298 214.797 134.489C216.457 132.671 216.955 130.506 216.851 129.035C216.754 127.538 216.213 126.727 215.968 126.786H215.959Z" fill="#263238"/>
<path d="M212 90.3583C212.472 91.1954 215.758 90.2822 219.77 90.1553C223.782 89.9524 227.138 90.6035 227.531 89.7326C227.706 89.3182 227.016 88.5657 225.6 87.9061C224.193 87.2381 222.034 86.7308 219.621 86.8238C217.218 86.9252 215.111 87.6101 213.765 88.3796C212.41 89.1576 211.79 89.9609 212 90.3583Z" fill="#263238"/>
<path d="M179.73 90.0201C180.438 90.6712 182.632 89.5635 185.411 89.1153C188.173 88.5741 190.629 88.8532 191.049 87.9991C191.224 87.5933 190.743 86.9083 189.598 86.3587C188.47 85.8091 186.687 85.4962 184.782 85.8345C182.876 86.1727 181.329 87.0859 180.482 87.9907C179.616 88.8954 179.415 89.6987 179.73 90.0285V90.0201Z" fill="#263238"/>
<path d="M258.473 68.5594C252.11 55.5121 229.087 39.294 214.473 42.1943L192.806 58.9029C195.305 66.4877 202.429 72.449 210.549 73.7343C214.884 74.4277 219.945 74.1148 222.899 77.2604C225.915 80.4735 225.145 85.8176 228.003 89.1576C231.963 93.7914 240.843 92.4046 244.051 97.5542C245.449 99.8034 245.283 102.738 246.726 104.961C248.648 107.929 257.468 110.872 260.736 109.375C264.014 107.887 263.245 102.256 263.953 99.1523C265.168 93.859 264.023 91.3477 263 88.6164C260.588 82.1393 261.506 74.7744 258.473 68.5509V68.5594Z" fill="#263238"/>
<path d="M251.026 113.476C250.755 111.726 252.197 107.278 253.945 106.746C258.613 105.317 267.283 104.42 269.223 116.148C271.863 132.189 254.679 131.445 254.574 130.988C254.496 130.633 251.978 119.531 251.035 113.476H251.026Z" fill="#FFBF9D"/>
<path d="M258.63 124.131C258.691 124.071 258.953 124.283 259.478 124.427C259.985 124.562 260.832 124.587 261.645 124.139C263.297 123.251 264.329 120.325 263.927 117.425C263.726 115.962 263.184 114.618 262.458 113.552C261.759 112.453 260.841 111.76 259.932 111.743C259.023 111.684 258.481 112.284 258.35 112.775C258.202 113.256 258.359 113.561 258.28 113.603C258.245 113.654 257.878 113.392 257.904 112.707C257.922 112.377 258.053 111.971 258.394 111.599C258.743 111.227 259.294 110.973 259.923 110.948C261.217 110.838 262.554 111.794 263.35 112.969C264.215 114.136 264.862 115.641 265.089 117.281C265.517 120.528 264.302 123.818 262.021 124.858C260.902 125.331 259.871 125.145 259.312 124.841C258.735 124.528 258.586 124.181 258.639 124.139L258.63 124.131Z" fill="#FF9A6C"/>
<path d="M197.071 53.4996C196.302 60.2304 186.976 69.7769 183.051 75.3831C175.552 86.0797 174.232 89.5042 176.863 111.286C171.907 104.209 167.922 97.1736 167.24 88.6418C166.558 80.1099 168.796 71.2482 174.189 64.4667C179.573 57.6852 188.234 53.2206 197.071 53.4911" fill="#263238"/>
<path d="M236.674 30.5591C240.196 26.8217 245.222 24.3949 250.467 23.135C257.94 21.3254 266.147 21.8159 272.947 24.9614C279.756 28.1069 285.009 33.9922 286.407 40.7652C287.806 47.5467 285.105 55.0639 279.17 59.5708C282.946 63.1561 287.745 65.8704 292.989 67.4009C291.573 69.4556 288.951 70.6563 286.32 71.0876C283.68 71.5188 280.988 71.2736 278.331 71.0368C280.035 73.582 282.797 75.5268 285.97 76.4232C281.705 77.4801 277.151 77.1504 272.956 76.0173C268.76 74.8842 264.888 72.9817 261.182 70.9015C248.395 63.7141 241.341 57.4315 232.706 46.3376C231.543 41.6192 233.152 34.2881 236.674 30.5591Z" fill="#263238"/>
<path d="M264.233 64.4498C254.854 51.1911 242.906 44.0883 232.085 41.8813L264.233 64.4498Z" fill="#263238"/>
<path d="M232.094 41.8813C232.094 41.8813 232.636 42.0758 233.624 42.3295C234.611 42.6001 236.036 43.0144 237.749 43.6486C241.175 44.8916 245.747 47.107 250.204 50.3794C254.662 53.6517 258.184 57.2201 260.535 59.9428C261.689 61.3211 262.624 62.4373 263.236 63.2406C263.857 64.0354 264.215 64.4582 264.241 64.4413C264.268 64.4244 263.962 63.9593 263.385 63.1307C262.825 62.2935 261.934 61.1351 260.806 59.723C258.516 56.9241 255.011 53.2881 250.51 49.9904C246.009 46.6926 241.368 44.4942 237.88 43.3273C236.141 42.7354 234.69 42.3633 233.685 42.1434C232.671 41.9405 232.111 41.839 232.103 41.8729L232.094 41.8813Z" fill="#455A64"/>
<path d="M275.429 75.7551C275.429 75.7551 275.351 75.772 275.219 75.8228C275.053 75.8904 274.852 75.9665 274.616 76.0595C274.092 76.2794 273.297 76.5669 272.274 76.922C270.22 77.5985 267.152 78.3849 263.271 78.6977C259.399 79.019 254.732 78.833 249.689 77.8691C244.637 76.922 239.235 75.214 233.729 73.0577C228.222 70.8846 223.03 68.6523 218.406 66.4622C213.792 64.2553 209.771 61.9976 206.581 59.8329C203.382 57.6852 200.996 55.6727 199.431 54.2183C198.636 53.4996 198.059 52.8992 197.657 52.5102C197.473 52.3327 197.316 52.1805 197.193 52.0621C197.089 51.9606 197.027 51.9183 197.027 51.9183C197.027 51.9183 197.062 51.986 197.158 52.0959C197.272 52.2227 197.412 52.3834 197.587 52.5779C197.963 52.9922 198.522 53.6179 199.3 54.3536C200.829 55.8587 203.198 57.9219 206.38 60.112C209.561 62.3189 213.582 64.6189 218.205 66.8597C222.838 69.0835 228.021 71.3243 233.545 73.5059C239.069 75.6706 244.505 77.3786 249.601 78.3003C254.688 79.2474 259.399 79.3996 263.297 79.0275C267.204 78.6639 270.281 77.8183 272.335 77.0911C273.358 76.7106 274.144 76.3978 274.66 76.1441C274.896 76.0342 275.088 75.9412 275.246 75.865C275.377 75.7974 275.438 75.7636 275.438 75.7551H275.429Z" fill="#455A64"/>
<path d="M225.906 155.383L224.315 152.373C224.429 152.322 235.398 146.868 239.619 143.435C249.566 135.351 258.717 122.439 258.805 122.304L261.689 124.207C261.305 124.748 252.188 137.634 241.866 146.023C237.347 149.701 226.369 155.155 225.906 155.383Z" fill="#455A64"/>
<path d="M234.069 146.039C234.069 146.039 219.053 152.508 219.053 153.946C219.053 155.383 221.431 158.258 223.214 158.114C224.997 157.971 230.154 155.163 231.045 154.013C231.937 152.863 233.615 149.904 235.398 148.466L234.069 146.031V146.039Z" fill="#263238"/>
<path d="M261.575 102.526L258.079 102.365C258.079 102.222 258.691 88.0161 252.957 73.7174C245.371 54.8187 230.792 44.6634 209.622 43.5472C207.883 43.4457 205.951 43.5895 203.862 43.9277L205.392 42.5325C206.135 41.8561 206.991 41.3149 207.935 40.9344C209.22 40.4101 210.627 40.2072 212.017 40.3256C238.745 42.5663 250.825 59.0043 256.253 72.6012C262.231 87.5594 261.602 101.934 261.575 102.535V102.526Z" fill="#455A64"/>
<path d="M259.836 133.254C265.952 133.254 270.91 126.357 270.91 117.848C270.91 109.339 265.952 102.442 259.836 102.442C253.72 102.442 248.762 109.339 248.762 117.848C248.762 126.357 253.72 133.254 259.836 133.254Z" fill="#455A64"/>
<path d="M270.91 117.848C270.91 117.848 270.893 117.772 270.875 117.637C270.867 117.467 270.849 117.264 270.832 117.011C270.814 116.461 270.718 115.658 270.569 114.626C270.202 112.605 269.477 109.544 267.152 106.568C266.593 105.815 265.867 105.139 265.072 104.496C264.233 103.913 263.324 103.321 262.249 103.017C261.191 102.704 260.028 102.543 258.857 102.704C257.686 102.864 256.532 103.287 255.475 103.93C253.368 105.249 251.699 107.38 250.632 109.815C249.522 112.25 249.015 115.024 248.98 117.839C249.015 120.664 249.522 123.429 250.632 125.872C251.699 128.316 253.368 130.439 255.475 131.758C256.532 132.4 257.695 132.823 258.857 132.984C260.028 133.144 261.191 132.984 262.249 132.671C263.324 132.366 264.233 131.783 265.072 131.191C265.867 130.548 266.593 129.872 267.152 129.119C269.468 126.143 270.202 123.091 270.569 121.061C270.718 120.03 270.814 119.226 270.832 118.677C270.849 118.423 270.867 118.22 270.875 118.051C270.884 117.907 270.902 117.839 270.91 117.839C270.919 117.839 270.919 117.916 270.928 118.051C270.928 118.22 270.928 118.423 270.928 118.677C270.937 119.226 270.875 120.038 270.753 121.086C270.43 123.133 269.757 126.236 267.414 129.305C266.846 130.075 266.112 130.785 265.299 131.453C264.442 132.071 263.498 132.688 262.38 133.009C261.278 133.347 260.055 133.525 258.822 133.356C257.59 133.195 256.366 132.755 255.265 132.087C253.062 130.718 251.34 128.528 250.239 126.025C249.103 123.53 248.57 120.698 248.543 117.823C248.578 114.948 249.103 112.123 250.239 109.62C251.34 107.126 253.062 104.928 255.265 103.566C256.375 102.898 257.59 102.458 258.822 102.298C260.055 102.137 261.278 102.315 262.38 102.644C263.498 102.974 264.442 103.592 265.299 104.2C266.112 104.868 266.846 105.579 267.414 106.348C269.748 109.418 270.43 112.521 270.753 114.567C270.875 115.607 270.945 116.427 270.928 116.977C270.928 117.231 270.928 117.434 270.928 117.603C270.928 117.746 270.928 117.814 270.91 117.814V117.848Z" fill="#263238"/>
<path d="M261.541 126.794C265.436 126.794 268.594 122.403 268.594 116.985C268.594 111.568 265.436 107.177 261.541 107.177C257.645 107.177 254.487 111.568 254.487 116.985C254.487 122.403 257.645 126.794 261.541 126.794Z" fill="#455A64"/>
<path d="M268.585 116.985C268.533 116.985 268.55 116.241 268.341 114.939C268.096 113.654 267.624 111.717 266.147 109.84C265.413 108.919 264.39 108.031 263.053 107.608C262.388 107.414 261.663 107.312 260.929 107.414C260.194 107.515 259.469 107.777 258.805 108.183C257.485 109.012 256.427 110.356 255.754 111.895C255.055 113.434 254.732 115.184 254.714 116.977C254.732 118.761 255.055 120.52 255.754 122.059C256.427 123.598 257.476 124.942 258.805 125.779C259.469 126.185 260.194 126.447 260.929 126.549C261.663 126.65 262.388 126.549 263.061 126.354C264.399 125.932 265.421 125.044 266.155 124.122C267.633 122.245 268.105 120.309 268.341 119.023C268.55 117.713 268.533 116.977 268.585 116.977C268.603 116.977 268.612 117.163 268.612 117.51C268.629 117.865 268.585 118.381 268.515 119.049C268.323 120.359 267.895 122.338 266.409 124.308C265.666 125.272 264.608 126.228 263.175 126.693C262.467 126.912 261.68 127.022 260.876 126.921C260.081 126.819 259.294 126.54 258.577 126.109C257.153 125.23 256.052 123.818 255.344 122.22C254.609 120.621 254.277 118.812 254.251 116.969C254.268 115.125 254.609 113.316 255.344 111.717C256.052 110.119 257.153 108.707 258.577 107.828C259.294 107.397 260.081 107.118 260.876 107.016C261.672 106.915 262.458 107.025 263.175 107.244C264.608 107.709 265.666 108.665 266.409 109.629C267.904 111.599 268.323 113.578 268.515 114.888C268.585 115.556 268.629 116.072 268.612 116.427C268.612 116.782 268.603 116.96 268.585 116.96V116.985Z" fill="#263238"/>
<path d="M262.021 124.038C264.821 124.038 267.091 120.88 267.091 116.985C267.091 113.091 264.821 109.933 262.021 109.933C259.222 109.933 256.952 113.091 256.952 116.985C256.952 120.88 259.222 124.038 262.021 124.038Z" fill="#455A64"/>
<path d="M267.1 116.986C267.056 116.986 267.056 116.453 266.898 115.514C266.715 114.593 266.374 113.206 265.308 111.87C264.783 111.21 264.049 110.584 263.096 110.289C262.152 109.984 261.025 110.111 260.09 110.703C258.193 111.912 257.179 114.449 257.179 116.986C257.179 119.514 258.193 122.051 260.09 123.268C261.025 123.86 262.161 123.987 263.105 123.682C264.058 123.387 264.783 122.752 265.316 122.101C266.374 120.765 266.724 119.378 266.898 118.457C267.056 117.518 267.056 116.986 267.1 116.986C267.117 116.986 267.126 117.121 267.135 117.374C267.152 117.628 267.126 118 267.073 118.482C266.942 119.429 266.645 120.858 265.57 122.287C265.037 122.989 264.268 123.682 263.228 124.029C262.712 124.19 262.135 124.274 261.549 124.198C260.972 124.122 260.396 123.919 259.871 123.606C258.831 122.964 258.036 121.941 257.52 120.782C256.987 119.624 256.742 118.313 256.733 116.977C256.751 115.641 256.996 114.339 257.52 113.172C258.036 112.014 258.831 110.99 259.871 110.348C260.396 110.035 260.964 109.832 261.549 109.756C262.135 109.68 262.703 109.764 263.228 109.925C264.268 110.272 265.037 110.965 265.57 111.667C266.645 113.096 266.942 114.533 267.073 115.472C267.126 115.954 267.143 116.326 267.135 116.58C267.135 116.833 267.117 116.969 267.1 116.969V116.986Z" fill="#263238"/>
</g>
<defs>
<clipPath id="clip0_181_2832">
<rect width="380" height="358" fill="white"/>
</clipPath>
</defs>
</svg>
