<svg width="380" height="358" viewBox="0 0 380 358" fill="none" xmlns="http://www.w3.org/2000/svg">
<g clip-path="url(#clip0_1000_96)">
<path d="M22.4101 164.256L23.9935 193.383C24.0521 194.423 24.8983 195.237 25.9371 195.245L78.2804 195.631C79.3611 195.631 80.2491 194.767 80.2575 193.677L80.4251 171.001C80.4251 169.911 79.5538 169.021 78.4647 169.021L46.2696 168.996C45.7501 168.996 45.2475 168.786 44.8789 168.417L39.3245 162.855C38.9559 162.486 38.47 162.285 37.9506 162.277L24.3789 162.176C23.2479 162.176 22.3431 163.115 22.4017 164.248L22.4101 164.256Z" fill="#EBEBEB"/>
<path d="M80.4688 165.597L23.2764 165.177L23.0259 199.395L80.2183 199.814L80.4688 165.597Z" fill="#F5F5F5"/>
<path d="M18.7072 168.216L22.8122 203.936C22.8876 204.574 23.4154 205.052 24.0605 205.06L79.7967 205.471C80.4586 205.471 81.0115 204.977 81.0618 204.314L84.128 168.644C84.195 167.906 83.6169 167.276 82.8797 167.268L19.9722 166.807C19.2099 166.807 18.6234 167.461 18.7072 168.216Z" fill="#EBEBEB"/>
<path d="M260.058 169.29L261.423 194.373C261.473 195.27 262.202 195.967 263.099 195.975L308.17 196.302C309.1 196.302 309.871 195.556 309.871 194.624L310.013 175.103C310.013 174.164 309.259 173.4 308.321 173.4L280.6 173.375C280.156 173.375 279.72 173.199 279.402 172.88L274.618 168.09C274.308 167.78 273.881 167.595 273.437 167.595L261.75 167.511C260.778 167.511 259.999 168.325 260.049 169.298L260.058 169.29Z" fill="#EBEBEB"/>
<path d="M310.04 170.436L260.798 170.075L260.582 199.544L309.825 199.906L310.04 170.436Z" fill="#F5F5F5"/>
<path d="M256.866 172.696L260.401 203.45C260.46 203.995 260.921 204.406 261.473 204.414L309.469 204.767C310.038 204.767 310.508 204.339 310.558 203.768L313.197 173.056C313.247 172.427 312.753 171.882 312.125 171.874L257.955 171.479C257.301 171.479 256.79 172.041 256.866 172.696Z" fill="#EBEBEB"/>
<path d="M350.05 4.92432H269.952V137.688H350.05V4.92432Z" fill="#E0E0E0"/>
<path d="M347.386 4.92432H267.288V137.688H347.386V4.92432Z" fill="#EBEBEB"/>
<path d="M343.985 7.61719H270.706V134.996H343.985V7.61719Z" fill="white"/>
<path d="M329.709 24.1687H284.654V118.444H329.709V24.1687Z" fill="#EBEBEB"/>
<path d="M284.654 85.0895C284.554 76.281 292.454 67.6823 301.167 66.4575C305.322 65.8703 309.729 66.6924 313.616 65.1069C320.544 62.2631 322.747 53.0519 329.718 50.3171L330.036 118.461H284.663V85.0979L284.654 85.0895Z" fill="#E0E0E0"/>
<path d="M345.426 175.019C345.426 175.019 338.79 174.541 339.402 189.44C340.014 204.339 341.53 212.283 341.53 212.283C341.53 212.283 341.337 215.589 338.782 214.943C336.227 214.297 331.418 211.075 329.047 213.483C326.584 215.974 327.464 219.8 330.723 224.305C333.99 228.81 340.784 238.935 341.396 239.858C341.999 240.756 342.234 242.45 340.424 242.291C338.615 242.131 326.383 237.979 324.766 243.91C323.149 249.841 334.308 260.889 335.506 262.122C336.704 263.355 336.771 264.127 336.286 264.874C335.8 265.621 331.82 263.834 328.293 262.802C324.766 261.762 320.494 261.183 319.849 264.681C319.204 268.179 324.113 278.422 342.518 289.177L351.374 293.606L359.751 288.254C376.992 275.704 380.854 265.025 379.866 261.611C378.869 258.196 374.68 259.203 371.279 260.587C367.877 261.971 364.091 264.144 363.538 263.456C362.977 262.76 362.968 261.98 364.032 260.637C365.096 259.295 375.099 247.182 372.896 241.443C370.692 235.705 358.939 241.058 357.154 241.402C355.37 241.745 355.437 240.042 355.948 239.078C356.467 238.105 362.214 227.342 365.012 222.535C367.81 217.728 368.305 213.835 365.599 211.604C362.993 209.448 358.536 213.131 356.057 214.028C353.577 214.926 353.058 211.663 353.058 211.663C353.058 211.663 353.778 203.609 352.898 188.727C352.019 173.845 345.308 175.036 345.308 175.036" fill="#EBEBEB"/>
<path d="M345.945 188.366C345.945 188.366 345.962 188.475 345.978 188.677C345.995 188.895 346.02 189.197 346.045 189.591C346.104 190.413 346.18 191.596 346.28 193.106C346.481 196.16 346.741 200.589 347.042 206.059C347.646 216.998 348.358 232.115 349.087 248.809C349.815 265.511 350.486 280.628 351.03 291.568C351.307 297.029 351.533 301.45 351.692 304.52C351.767 306.039 351.826 307.222 351.868 308.044C351.885 308.438 351.893 308.74 351.901 308.958C351.901 309.168 351.901 309.268 351.901 309.268C351.901 309.268 351.885 309.159 351.868 308.958C351.851 308.74 351.826 308.438 351.801 308.044C351.742 307.222 351.667 306.039 351.566 304.529C351.365 301.475 351.106 297.046 350.804 291.576C350.201 280.637 349.489 265.52 348.76 248.817C348.031 232.123 347.361 217.006 346.816 206.067C346.54 200.606 346.314 196.185 346.154 193.115C346.079 191.596 346.02 190.413 345.978 189.591C345.962 189.197 345.953 188.895 345.945 188.677C345.945 188.467 345.945 188.366 345.945 188.366Z" fill="#E0E0E0"/>
<path d="M335.582 218.248C335.582 218.248 335.791 218.399 336.135 218.709C336.478 219.02 336.956 219.481 337.542 220.06C338.707 221.218 340.282 222.862 341.982 224.707C343.649 226.528 345.149 228.18 346.314 229.456C346.833 230.018 347.269 230.496 347.629 230.89C347.939 231.226 348.106 231.419 348.09 231.435C348.073 231.452 347.88 231.293 347.537 230.982C347.193 230.672 346.716 230.211 346.138 229.623C344.982 228.449 343.432 226.788 341.731 224.942C340.055 223.13 338.539 221.494 337.366 220.228C336.847 219.666 336.403 219.196 336.043 218.802C335.733 218.458 335.565 218.265 335.582 218.248Z" fill="#E0E0E0"/>
<path d="M348.969 231.142C348.902 231.075 352.144 227.677 356.199 223.558C360.262 219.431 363.605 216.151 363.672 216.209C363.739 216.277 360.505 219.674 356.442 223.793C352.379 227.912 349.036 231.201 348.969 231.142Z" fill="#E0E0E0"/>
<path d="M348.936 256.837C348.936 256.837 349.145 256.678 349.556 256.443C350.025 256.175 350.603 255.856 351.29 255.47C352.747 254.648 354.766 253.507 356.945 252.165C359.123 250.831 361.058 249.556 362.449 248.616C363.102 248.18 363.647 247.811 364.099 247.509C364.493 247.249 364.711 247.114 364.727 247.14C364.744 247.165 364.543 247.333 364.175 247.618C363.806 247.911 363.261 248.322 362.583 248.809C361.226 249.799 359.307 251.108 357.112 252.45C354.926 253.792 352.89 254.908 351.399 255.68C350.653 256.065 350.042 256.359 349.614 256.56C349.187 256.762 348.944 256.854 348.936 256.837Z" fill="#E0E0E0"/>
<path d="M334.266 247.844C334.266 247.844 334.493 247.928 334.878 248.129C335.263 248.331 335.808 248.641 336.487 249.019C337.835 249.782 339.687 250.864 341.714 252.072C343.75 253.28 345.576 254.396 346.892 255.218C347.553 255.629 348.081 255.965 348.441 256.208C348.802 256.451 348.994 256.586 348.986 256.611C348.978 256.628 348.76 256.527 348.374 256.325C347.989 256.124 347.445 255.814 346.766 255.436C345.417 254.673 343.566 253.591 341.538 252.383C339.503 251.175 337.676 250.059 336.361 249.237C335.699 248.826 335.171 248.49 334.811 248.247C334.451 248.004 334.258 247.869 334.266 247.844Z" fill="#E0E0E0"/>
<path d="M331.351 270.52C331.351 270.52 331.636 270.637 332.13 270.897C332.675 271.199 333.37 271.577 334.191 272.038C335.925 273.011 338.305 274.379 340.927 275.905C343.549 277.432 345.911 278.833 347.612 279.857C348.416 280.352 349.087 280.763 349.623 281.09C350.092 281.383 350.343 281.56 350.335 281.585C350.326 281.601 350.05 281.467 349.556 281.207C349.011 280.905 348.316 280.528 347.495 280.066C345.761 279.093 343.381 277.726 340.759 276.199C338.137 274.672 335.775 273.271 334.074 272.248C333.27 271.753 332.599 271.342 332.063 271.015C331.594 270.721 331.343 270.545 331.351 270.52Z" fill="#E0E0E0"/>
<path d="M349.949 281.19C349.949 281.19 350.209 280.989 350.72 280.67C351.281 280.326 352.01 279.89 352.873 279.362C354.691 278.254 357.196 276.711 359.91 274.941C362.633 273.171 365.054 271.501 366.797 270.285C367.626 269.706 368.321 269.219 368.866 268.842C369.36 268.506 369.637 268.33 369.645 268.347C369.662 268.364 369.411 268.582 368.941 268.951C368.472 269.32 367.794 269.849 366.931 270.478C365.222 271.744 362.817 273.447 360.086 275.226C357.364 277.004 354.834 278.514 352.982 279.571C352.052 280.1 351.298 280.511 350.77 280.788C350.243 281.065 349.949 281.207 349.933 281.19H349.949Z" fill="#E0E0E0"/>
<path d="M363.261 296.492H338.765L346.758 357.094H355.269L363.261 296.492Z" fill="#E0E0E0"/>
<path d="M340.039 303.941C340.039 303.941 340.064 304.025 340.173 304.16C340.273 304.285 340.466 304.453 340.768 304.579C341.346 304.831 342.368 304.856 343.356 304.26C344.345 303.715 345.208 302.641 346.531 302.163C347.847 301.66 349.472 301.752 351.038 302.255C352.622 302.742 353.987 303.547 355.236 304.294C356.484 305.032 357.623 305.695 358.645 306.123C359.659 306.567 360.547 306.768 361.159 306.852C361.469 306.894 361.703 306.903 361.871 306.903C362.03 306.903 362.122 306.903 362.122 306.886C362.139 306.802 360.74 306.819 358.763 305.871C357.774 305.418 356.66 304.738 355.428 303.983C354.197 303.22 352.789 302.389 351.164 301.886C349.556 301.366 347.821 301.274 346.406 301.836C345.702 302.104 345.107 302.524 344.613 302.943C344.11 303.354 343.666 303.748 343.214 304.034C342.317 304.613 341.379 304.638 340.826 304.445C340.265 304.252 340.081 303.916 340.047 303.95L340.039 303.941Z" fill="#F5F5F5"/>
<path d="M340.927 315.099C340.927 315.099 341.119 314.847 341.505 314.444C341.899 314.058 342.535 313.547 343.465 313.203C344.387 312.85 345.568 312.641 346.875 312.691C348.19 312.733 349.614 313.027 351.139 313.27C352.655 313.522 354.163 313.639 355.504 313.454C356.844 313.278 358.009 312.892 358.939 312.473C359.868 312.054 360.555 311.584 360.999 311.24C361.452 310.896 361.67 310.669 361.653 310.653C361.611 310.585 360.664 311.433 358.821 312.213C357.9 312.59 356.76 312.943 355.453 313.085C354.147 313.245 352.706 313.127 351.198 312.876C349.69 312.632 348.24 312.347 346.883 312.322C345.526 312.288 344.303 312.54 343.356 312.943C342.401 313.337 341.756 313.907 341.387 314.344C341.212 314.57 341.086 314.755 341.019 314.889C340.943 315.023 340.918 315.09 340.927 315.099Z" fill="#F5F5F5"/>
<path d="M360.488 321.072C360.488 321.072 360.271 320.904 359.81 320.719C359.357 320.535 358.662 320.35 357.782 320.283C356.903 320.216 355.856 320.266 354.716 320.459C353.577 320.644 352.345 320.963 351.064 321.231C349.782 321.5 348.542 321.684 347.419 321.642C346.297 321.6 345.3 321.357 344.521 321.013C342.946 320.317 342.384 319.31 342.326 319.377C342.309 319.385 342.418 319.637 342.736 320.015C343.055 320.392 343.599 320.87 344.403 321.265C345.199 321.659 346.23 321.944 347.403 322.003C348.575 322.07 349.849 321.885 351.147 321.617C352.446 321.34 353.661 321.013 354.783 320.812C355.897 320.61 356.92 320.526 357.774 320.552C359.491 320.61 360.472 321.13 360.497 321.055L360.488 321.072Z" fill="#F5F5F5"/>
<path d="M343.096 329.477C343.105 329.545 343.968 328.932 345.476 329.234C346.213 329.368 347.034 329.738 347.964 330.165C348.885 330.593 350 330.962 351.198 331.055C353.602 331.289 355.747 330.509 357.054 329.696C357.724 329.293 358.193 328.865 358.511 328.571C358.813 328.253 358.964 328.068 358.939 328.051C358.888 327.993 358.243 328.714 356.911 329.452C355.596 330.182 353.535 330.878 351.231 330.66C348.911 330.526 347.134 329.142 345.526 328.957C344.738 328.84 344.085 328.957 343.675 329.117C343.264 329.276 343.088 329.461 343.096 329.477Z" fill="#F5F5F5"/>
<path d="M344.462 341.113C344.462 341.155 345.283 341.155 346.506 340.71C347.738 340.299 349.262 339.351 351.038 338.647C351.935 338.303 352.823 338.093 353.644 338.101C354.457 338.101 355.185 338.303 355.738 338.58C356.861 339.142 357.188 339.939 357.255 339.888C357.271 339.888 357.221 339.679 357.02 339.368C356.819 339.058 356.45 338.655 355.872 338.328C355.303 338.001 354.532 337.757 353.652 337.732C352.773 337.707 351.826 337.917 350.904 338.269C349.061 339.007 347.587 339.981 346.406 340.442C345.241 340.945 344.454 341.046 344.47 341.113H344.462Z" fill="#F5F5F5"/>
<path d="M345.66 346.524C345.643 346.574 346.23 346.784 347.21 347.027C348.19 347.27 349.556 347.531 351.089 347.682C352.622 347.833 354.012 347.841 355.018 347.799C356.023 347.749 356.643 347.656 356.635 347.606C356.635 347.489 354.155 347.589 351.122 347.287C348.089 346.994 345.685 346.406 345.652 346.524H345.66Z" fill="#F5F5F5"/>
<path d="M89.9252 19.4541H9.86035V135.658H89.9252V19.4541Z" fill="#E0E0E0"/>
<path d="M85.9124 19.4541H5.84753V135.658H85.9124V19.4541Z" fill="#F5F5F5"/>
<path d="M75.968 32.0376H15.8V123.066H75.968V32.0376Z" fill="white"/>
<path d="M75.9681 123.075C75.9681 123.075 75.9681 122.924 75.9597 122.63C75.9597 122.328 75.9597 121.9 75.9513 121.338C75.9513 120.197 75.9345 118.52 75.9262 116.347C75.9178 111.985 75.8927 105.626 75.8759 97.5975C75.8508 81.5493 75.8173 58.8152 75.7754 32.0459L75.9764 32.2473C57.596 32.2473 37.2216 32.2557 15.8168 32.264L16.0346 32.0459C16.0179 66.3904 16.0011 98.0505 15.9927 123.075L15.8168 122.899C34.1386 122.941 49.1597 122.966 59.615 122.991C64.8426 123.008 68.9225 123.024 71.7122 123.033C73.0945 123.041 74.1585 123.05 74.8873 123.05C75.6078 123.05 75.9848 123.066 75.9848 123.066C75.9848 123.066 75.6329 123.075 74.9209 123.083C74.2004 123.083 73.1532 123.092 71.7792 123.1C68.9979 123.108 64.9264 123.125 59.7155 123.142C49.2351 123.167 34.1805 123.192 15.8168 123.234H15.6409V123.058C15.6325 98.0337 15.6158 66.3653 15.599 32.0292V31.811H15.8252C37.23 31.811 57.6043 31.8194 75.9848 31.8278H76.1859V32.0292C76.144 58.8487 76.1105 81.6248 76.0853 97.7149C76.0602 105.726 76.0435 112.068 76.0351 116.422C76.0267 118.578 76.0183 120.239 76.0099 121.372C76.0099 121.926 76.0016 122.345 76.0016 122.639C76.0016 122.924 75.9932 123.058 75.9932 123.058L75.9681 123.075Z" fill="#E0E0E0"/>
<path d="M86.1385 19.454C86.1887 19.4875 85.6442 20.2845 84.7143 21.5261C83.7844 22.7676 82.4607 24.4622 80.9611 26.2994C79.4531 28.1282 78.0457 29.7557 77.0069 30.905C75.9681 32.0542 75.2895 32.7421 75.2476 32.7086C75.2057 32.6666 75.7921 31.9116 76.7723 30.7036C77.8446 29.4033 79.1683 27.7926 80.626 26.0226C82.0837 24.2441 83.4074 22.6418 84.4797 21.3415C85.4683 20.1503 86.0966 19.4204 86.1469 19.454H86.1385Z" fill="#E0E0E0"/>
<path d="M76.2697 122.781C79.2605 127.538 82.7874 131.959 86.7668 135.927L76.2697 122.781Z" fill="white"/>
<path d="M86.7668 135.918C86.7668 135.918 86.0128 135.339 84.9405 134.249C83.8682 133.167 82.4356 131.598 80.9779 129.778C79.5202 127.949 78.3138 126.212 77.4928 124.929C76.6718 123.637 76.2278 122.806 76.2697 122.773C76.32 122.739 76.8645 123.511 77.7441 124.753C78.6238 125.994 79.8637 127.689 81.313 129.501C82.7623 131.313 84.1446 132.898 85.1583 134.031C86.172 135.163 86.8087 135.86 86.7668 135.91V135.918Z" fill="#E0E0E0"/>
<path d="M5.83911 135.566C9.33257 131.246 12.8344 126.925 16.3279 122.613L5.83911 135.566Z" fill="white"/>
<path d="M16.3279 122.605C16.4201 122.68 14.1497 125.642 11.2511 129.224C8.35242 132.806 5.93129 135.641 5.83913 135.566C5.74698 135.49 8.01731 132.529 10.916 128.947C13.8146 125.373 16.2357 122.529 16.3279 122.605Z" fill="#E0E0E0"/>
<path d="M5.84749 19.454C5.93964 19.3785 8.21835 22.105 10.9411 25.5444C13.6554 28.9839 15.7833 31.8362 15.6912 31.9117C15.599 31.9872 13.3203 29.2608 10.5976 25.8213C7.88325 22.3818 5.75533 19.5295 5.84749 19.454Z" fill="#E0E0E0"/>
<path d="M57.2191 50.5184H37.0709V107.798H57.2191V50.5184Z" fill="#E0E0E0"/>
<path d="M190.264 0.0167236H127.34V65.7025H190.264V0.0167236Z" fill="#E0E0E0"/>
<path d="M186.008 0.0167236H123.084V65.7025H186.008V0.0167236Z" fill="#FAFAFA"/>
<path d="M186.033 65.7277H123.067V0H186.033V65.7277ZM123.109 65.6858H186V0.0419449H123.109V65.6858Z" fill="#E0E0E0"/>
<path d="M177.555 8.85034H131.545V56.8773H177.555V8.85034Z" fill="white"/>
<path d="M131.545 57.1962C131.579 57.2381 131.143 57.7414 130.406 58.5216C129.669 59.3018 128.638 60.3504 127.482 61.4913C126.326 62.6322 125.262 63.6473 124.474 64.3687C123.687 65.0902 123.184 65.518 123.142 65.4761C123.101 65.4341 123.536 64.9392 124.273 64.159C125.011 63.3788 126.041 62.3302 127.206 61.1809C128.37 60.04 129.434 59.0166 130.213 58.2951C131.001 57.5737 131.503 57.1458 131.537 57.1878L131.545 57.1962Z" fill="#E0E0E0"/>
<path d="M177.547 57.0787C177.588 57.0452 178.091 57.4814 178.87 58.2112C179.649 58.9495 180.697 59.9813 181.836 61.139C182.975 62.2967 183.989 63.3621 184.709 64.1506C185.43 64.9392 185.857 65.4425 185.815 65.4845C185.773 65.5264 185.279 65.0902 184.5 64.352C183.721 63.6137 182.674 62.5819 181.526 61.4158C180.387 60.2497 179.365 59.1843 178.644 58.4042C177.924 57.6156 177.496 57.1123 177.538 57.0787H177.547Z" fill="#E0E0E0"/>
<path d="M177.421 8.97623C177.387 8.93429 177.823 8.43095 178.56 7.65077C179.298 6.8706 180.328 5.82198 181.484 4.68107C182.64 3.54017 183.704 2.5251 184.492 1.80365C185.279 1.0822 185.782 0.654361 185.824 0.696306C185.866 0.738251 185.43 1.2332 184.693 2.01338C183.956 2.79355 182.925 3.84218 181.761 4.99147C180.596 6.13237 179.532 7.15583 178.753 7.87728C177.966 8.59873 177.463 9.02657 177.429 8.98462L177.421 8.97623Z" fill="#E0E0E0"/>
<path d="M131.419 9.09369C131.378 9.12724 130.875 8.69101 130.096 7.95278C129.317 7.21455 128.269 6.18271 127.13 5.02503C125.991 3.86735 124.977 2.80195 124.257 2.01338C123.536 1.22482 123.109 0.721477 123.151 0.679532C123.193 0.637587 123.687 1.07381 124.466 1.81205C125.245 2.55028 126.292 3.58212 127.44 4.74819C128.579 5.91426 129.602 6.97966 130.322 7.75984C131.042 8.5484 131.47 9.05174 131.428 9.0853L131.419 9.09369Z" fill="#E0E0E0"/>
<path d="M177.421 56.8774C177.421 56.8774 177.421 56.7935 177.413 56.6425C177.413 56.4747 177.413 56.2566 177.404 55.9714C177.404 55.3674 177.396 54.5033 177.388 53.3792C177.379 51.1058 177.362 47.7921 177.337 43.5892C177.312 35.1751 177.287 23.1956 177.245 8.85044L177.421 9.02661C164.025 9.02661 148.3 9.04338 131.545 9.05177L131.746 8.85044C131.738 26.4757 131.73 42.9685 131.721 56.8774L131.545 56.7012C145.293 56.7348 156.745 56.7683 164.771 56.7935C168.784 56.8103 171.934 56.8271 174.104 56.8354C175.176 56.8438 175.997 56.8522 176.575 56.8522C176.843 56.8522 177.052 56.8522 177.212 56.8606C177.354 56.8606 177.429 56.8606 177.438 56.869C177.438 56.869 177.371 56.869 177.237 56.8774C177.086 56.8774 176.885 56.8774 176.617 56.8858C176.047 56.8858 175.234 56.8942 174.179 56.9026C172.017 56.9109 168.876 56.9277 164.888 56.9445C156.837 56.9697 145.352 56.9948 131.554 57.0368H131.378V56.8606C131.369 42.9517 131.361 26.4589 131.353 8.83366V8.63232H131.562C148.317 8.64071 164.05 8.6491 177.438 8.65749H177.614V8.83366C177.572 23.2292 177.547 35.2506 177.522 43.6899C177.505 47.876 177.488 51.1729 177.471 53.4379C177.463 54.5452 177.455 55.4009 177.455 55.9965C177.455 56.2734 177.455 56.4915 177.446 56.6509C177.446 56.7935 177.446 56.869 177.438 56.8606L177.421 56.8774Z" fill="#E0E0E0"/>
<path d="M162.224 25.1753H146.868V40.5523H162.224V25.1753Z" fill="#EBEBEB"/>
<path d="M100.703 222.055L102.278 251.022C102.336 252.054 103.182 252.868 104.213 252.868L156.271 253.254C157.352 253.254 158.232 252.39 158.24 251.316L158.407 228.766C158.407 227.684 157.536 226.795 156.456 226.795L124.445 226.77C123.925 226.77 123.431 226.56 123.062 226.199L117.542 220.671C117.181 220.31 116.687 220.101 116.176 220.101L102.68 220C101.557 220 100.652 220.94 100.719 222.064L100.703 222.055Z" fill="#EBEBEB"/>
<path d="M158.436 223.391L101.562 222.974L101.313 257.007L158.187 257.424L158.436 223.391Z" fill="#F5F5F5"/>
<path d="M97.0164 225.99L101.096 261.509C101.172 262.138 101.699 262.616 102.336 262.624L157.762 263.027C158.416 263.027 158.969 262.532 159.019 261.878L162.068 226.409C162.127 225.679 161.557 225.05 160.829 225.042L98.2646 224.58C97.5106 224.58 96.9242 225.235 97.008 225.981L97.0164 225.99Z" fill="#EBEBEB"/>
<path d="M191.139 238.372L192.714 267.406C192.773 268.438 193.619 269.252 194.658 269.26L246.825 269.646C247.906 269.646 248.785 268.782 248.794 267.7L248.961 245.1C248.961 244.009 248.09 243.128 247.009 243.128L214.923 243.103C214.404 243.103 213.909 242.894 213.541 242.533L208.003 236.996C207.643 236.635 207.149 236.426 206.637 236.426L193.116 236.325C191.985 236.325 191.089 237.265 191.147 238.389L191.139 238.372Z" fill="#EBEBEB"/>
<path d="M249.002 239.709L192.002 239.291L191.753 273.399L248.752 273.818L249.002 239.709Z" fill="#F5F5F5"/>
<path d="M187.444 242.315L191.533 277.918C191.608 278.547 192.136 279.025 192.773 279.033L248.324 279.444C248.978 279.444 249.531 278.949 249.59 278.295L252.647 242.751C252.714 242.021 252.136 241.392 251.399 241.384L188.701 240.922C187.947 240.922 187.352 241.576 187.444 242.323V242.315Z" fill="#EBEBEB"/>
<path d="M267.381 46H82.6191C75.0975 46 69 52.488 69 60.4914V218.509C69 226.512 75.0975 233 82.6191 233H267.381C274.903 233 281 226.512 281 218.509V60.4914C281 52.488 274.903 46 267.381 46Z" fill="#263238"/>
<path d="M88.6555 54.5H260.345C267.042 54.5 272.5 60.1234 272.5 67.0965V209.904C272.5 216.877 267.042 222.5 260.345 222.5H88.6555C81.9582 222.5 76.5 216.877 76.5 209.904V67.0965C76.5 60.1234 81.9582 54.5 88.6555 54.5Z" stroke="url(#paint0_linear_1000_96)"/>
<path d="M56.4484 232.862C47.8613 219.708 49.1096 200.916 59.3722 189.021C62.5557 185.33 67.0042 182.117 71.8632 182.536C76.8311 182.964 80.8356 187.234 82.352 191.99C83.8599 196.747 83.3405 201.906 82.4525 206.822C81.2126 213.701 79.1266 220.748 74.3597 225.857C69.5929 230.966 62.5892 236.217 56.4568 232.87" fill="#F48462"/>
<path d="M59.0454 296.182C55.8117 288.623 58.1574 279.06 64.516 273.859C66.4931 272.248 69.0734 270.998 71.5365 271.652C74.0581 272.323 75.7336 274.882 76.0855 277.474C76.4374 280.066 75.7001 282.675 74.7954 285.125C73.5303 288.556 71.8213 291.996 68.9059 294.193C65.9905 296.391 61.9022 298.463 59.0454 296.182Z" fill="#F48462"/>
<path d="M40.489 291.66C42.8515 279.999 36.7107 267.131 26.1717 261.636C22.896 259.933 18.8748 258.926 15.574 260.579C12.1978 262.273 10.5726 266.401 10.8407 270.167C11.1087 273.942 12.9183 277.424 14.9205 280.628C17.7187 285.116 21.1535 289.487 25.9371 291.744C30.7207 294 37.1128 295.729 40.489 291.652" fill="#F48462"/>
<path d="M41.9718 260.126C46.0852 246.838 39.1151 230.731 27.4953 223.105C23.8846 220.739 19.3188 219.095 15.2891 220.63C11.1674 222.207 8.79649 226.813 8.66245 231.234C8.52841 235.655 10.2291 239.917 12.181 243.876C14.9121 249.43 18.3972 254.916 23.6919 258.104C28.9949 261.292 37.5652 264.48 41.9718 260.126Z" fill="#F48462"/>
<path d="M48.0791 325.073C48.0791 325.073 48.012 324.855 47.945 324.427C47.8696 323.941 47.7775 323.328 47.6686 322.573C47.6099 322.162 47.5513 321.718 47.4842 321.231C47.3921 320.745 47.2916 320.216 47.1826 319.654C46.9648 318.521 46.747 317.221 46.37 315.82C46.2025 315.116 46.0182 314.377 45.8339 313.606C45.6077 312.842 45.3815 312.054 45.1385 311.231C44.6945 309.579 44.041 307.876 43.4295 306.055C42.0723 302.465 40.38 298.598 38.3108 294.68C36.1996 290.787 33.9125 287.231 31.6757 284.118C30.5028 282.6 29.4472 281.115 28.3163 279.831C27.7717 279.177 27.2356 278.548 26.7245 277.944C26.1884 277.365 25.6689 276.803 25.1747 276.275C24.2112 275.184 23.2562 274.286 22.4352 273.481C22.0247 273.078 21.6477 272.701 21.2875 272.357C20.9188 272.03 20.5837 271.736 20.2738 271.459C19.7041 270.948 19.2433 270.528 18.8831 270.201C18.5731 269.907 18.4139 269.748 18.4223 269.731C18.4307 269.714 18.615 269.849 18.9585 270.109C19.3438 270.419 19.8214 270.805 20.4162 271.283C20.7345 271.543 21.0864 271.837 21.4634 272.147C21.832 272.491 22.2257 272.852 22.6446 273.246C23.4908 274.035 24.4709 274.924 25.4595 275.998C25.9622 276.526 26.49 277.08 27.0429 277.65C27.5623 278.254 28.1068 278.884 28.6681 279.529C29.8159 280.805 30.8966 282.289 32.0862 283.808C34.3565 286.929 36.6771 290.494 38.7967 294.412C40.8827 298.354 42.5666 302.255 43.907 305.871C44.5102 307.708 45.1469 309.428 45.5742 311.089C45.8003 311.911 46.0265 312.716 46.2444 313.48C46.4203 314.251 46.5878 314.998 46.747 315.72C47.0989 317.137 47.2916 318.446 47.4759 319.587C47.568 320.157 47.6518 320.686 47.7356 321.181C47.7858 321.667 47.8277 322.12 47.8696 322.531C47.9366 323.295 47.9953 323.916 48.0372 324.402C48.0707 324.83 48.0791 325.057 48.0623 325.057L48.0791 325.073Z" fill="#263238"/>
<path d="M47.7775 327.464C47.7775 327.464 47.7691 327.372 47.7775 327.196C47.7942 326.986 47.811 326.734 47.8361 326.424C47.9032 325.702 47.9953 324.721 48.1042 323.471C48.1712 322.825 48.2383 322.112 48.3137 321.34C48.3723 320.56 48.3974 319.713 48.4393 318.798C48.5063 316.969 48.6823 314.897 48.6152 312.599C48.6152 311.45 48.6069 310.241 48.5985 308.992C48.5817 307.733 48.4645 306.433 48.4058 305.082C48.3137 302.381 47.945 299.512 47.6267 296.492C46.8057 290.477 45.5155 283.908 43.5552 277.172C41.5278 270.453 39.0313 264.245 36.451 258.75C35.077 256.04 33.8288 253.44 32.4297 251.124C31.7511 249.958 31.1396 248.801 30.4693 247.744C29.7908 246.687 29.1373 245.68 28.5174 244.707C27.3194 242.744 26.046 241.099 24.9904 239.606C24.4542 238.868 23.9767 238.163 23.4992 237.543C23.0133 236.939 22.5693 236.376 22.1671 235.873C21.3964 234.892 20.7764 234.111 20.3324 233.549C20.1481 233.298 19.989 233.096 19.8633 232.937C19.7628 232.794 19.7125 232.719 19.7209 232.719C19.7292 232.719 19.7879 232.778 19.9052 232.903C20.0392 233.063 20.2068 233.247 20.4162 233.482C20.8854 234.036 21.5221 234.791 22.3347 235.747C22.7536 236.242 23.2143 236.796 23.7086 237.392C24.1945 238.004 24.6888 238.7 25.2417 239.43C26.3224 240.907 27.621 242.542 28.8441 244.497C29.4808 245.462 30.1426 246.468 30.8296 247.525C31.5165 248.582 32.1365 249.74 32.8318 250.906C34.2476 253.222 35.521 255.831 36.9117 258.54C39.5339 264.052 42.0556 270.285 44.0913 277.03C46.0601 283.799 47.3419 290.402 48.1377 296.45C48.4477 299.487 48.7996 302.364 48.875 305.082C48.9252 306.441 49.0341 307.742 49.0341 309.008C49.0341 310.267 49.0174 311.475 49.0174 312.632C49.0593 314.939 48.8498 317.02 48.7577 318.849C48.699 319.763 48.6571 320.61 48.5817 321.399C48.4896 322.171 48.3974 322.884 48.322 323.53C48.1629 324.771 48.0372 325.753 47.945 326.474C47.9032 326.785 47.8613 327.036 47.8361 327.238C47.811 327.405 47.7859 327.498 47.7775 327.498V327.464Z" fill="#263238"/>
<path d="M70.1374 198.416C70.1374 198.416 70.1122 198.509 70.0285 198.66C69.9279 198.844 69.8106 199.071 69.6598 199.348C69.2996 199.985 68.8137 200.866 68.1938 201.973C67.8754 202.544 67.4984 203.165 67.1382 203.869C66.7863 204.582 66.401 205.354 65.9904 206.185C65.5799 207.015 65.1359 207.904 64.6668 208.844C64.2228 209.792 63.7955 210.824 63.318 211.889C62.8572 212.963 62.3378 214.07 61.8687 215.253C61.4079 216.444 60.9388 217.677 60.4445 218.961C60.2015 219.599 59.9502 220.253 59.6905 220.916C59.4643 221.587 59.2297 222.266 58.9951 222.963C58.526 224.347 58.0485 225.773 57.5542 227.233C55.7363 233.13 54.0105 239.69 52.5528 246.661C51.1453 253.641 50.1568 260.361 49.4195 266.493C48.7912 272.634 48.3305 278.179 48.2048 282.843C48.0875 285.175 48.0624 287.289 48.054 289.143C48.0205 290.997 48.0205 292.6 48.054 293.9C48.0707 295.167 48.0875 296.173 48.0959 296.911C48.0959 297.23 48.0959 297.482 48.0959 297.692C48.0959 297.868 48.0875 297.96 48.0791 297.96C48.0707 297.96 48.054 297.868 48.0456 297.692C48.0289 297.482 48.0121 297.222 47.9954 296.911C47.9618 296.182 47.9116 295.175 47.8446 293.908C47.7692 292.6 47.744 291.006 47.744 289.143C47.7189 287.289 47.7189 285.167 47.811 282.835C47.8864 278.154 48.3137 272.6 48.9085 266.443C49.6122 260.294 50.5924 253.557 51.9998 246.561C53.4576 239.573 55.2085 232.987 57.0599 227.09C57.5626 225.63 58.0485 224.196 58.526 222.812C58.769 222.115 59.0035 221.436 59.2297 220.765C59.4894 220.102 59.7408 219.448 59.9921 218.81C60.4947 217.535 60.9806 216.293 61.4498 215.102C61.9357 213.919 62.4635 212.812 62.941 211.746C63.4269 210.681 63.8709 209.658 64.3317 208.71C64.8176 207.778 65.27 206.889 65.6972 206.067C66.1245 205.245 66.5182 204.482 66.8869 203.769C67.2638 203.072 67.6576 202.46 67.9927 201.889C68.6545 200.799 69.1739 199.943 69.5509 199.314C69.7185 199.046 69.8609 198.827 69.9698 198.651C70.0703 198.5 70.1206 198.433 70.129 198.433L70.1374 198.416Z" fill="#263238"/>
<path d="M67.2219 279.135C67.2219 279.135 66.9287 279.731 66.3087 280.737C65.6804 281.744 64.8175 283.229 63.8038 285.091C62.7818 286.945 61.6759 289.21 60.5533 291.777C59.4559 294.353 58.3584 297.23 57.395 300.309C56.4567 303.396 55.7362 306.391 55.1917 309.143C54.6806 311.894 54.312 314.394 54.1109 316.5C53.9015 318.605 53.7758 320.317 53.7256 321.508C53.6669 322.691 53.6167 323.345 53.5748 323.345C53.5329 323.345 53.5161 322.691 53.5078 321.5C53.491 320.308 53.5496 318.589 53.7172 316.466C53.868 314.344 54.1947 311.827 54.6806 309.05C55.2 306.282 55.9038 303.262 56.8504 300.15C57.8222 297.046 58.9364 294.151 60.0674 291.576C61.2235 289.009 62.3796 286.744 63.452 284.907C64.5159 283.061 65.4291 281.601 66.1161 280.628C66.7946 279.647 67.18 279.118 67.2135 279.144L67.2219 279.135Z" fill="#263238"/>
<path d="M31.215 319.159H68.9393L64.3735 357.74H35.9148L31.215 319.159Z" fill="#455A64"/>
<path d="M32.5889 353.579L35.7975 357.74H64.3735L67.6743 353.705L32.5889 353.579Z" fill="#263238"/>
<path d="M67.4733 330.501C67.4733 330.66 59.6402 330.786 49.9892 330.786C40.3382 330.786 32.5051 330.66 32.5051 330.501C32.5051 330.342 40.3298 330.216 49.9892 330.216C59.6486 330.216 67.4733 330.342 67.4733 330.501Z" fill="white"/>
<path d="M67.4733 333.068C67.4733 333.227 59.6402 333.353 49.9892 333.353C40.3382 333.353 32.5051 333.227 32.5051 333.068C32.5051 332.909 40.3298 332.783 49.9892 332.783C59.6486 332.783 67.4733 332.909 67.4733 333.068Z" fill="white"/>
<path d="M67.0042 335.56C67.0042 335.719 59.4476 335.845 50.1317 335.845C40.8158 335.845 33.2592 335.719 33.2592 335.56C33.2592 335.4 40.8158 335.274 50.1317 335.274C59.4476 335.274 67.0042 335.4 67.0042 335.56Z" fill="white"/>
<path d="M364.971 357.782C364.971 357.899 283.264 358 182.498 358C81.732 358 0.00842285 357.899 0.00842285 357.782C0.00842285 357.664 81.6985 357.564 182.498 357.564C283.297 357.564 364.971 357.664 364.971 357.782Z" fill="#263238"/>
<path d="M349.991 91.0876C347.177 87.5139 347.11 80.9957 347.202 79.2843C347.42 75.3331 338.623 52.2634 316.825 61.7933V61.7765C309.008 61.7765 308.883 69.4944 307.4 71.0547C305.917 72.6067 304.266 74.2258 303.881 76.3398C303.194 80.0897 306.746 83.7305 305.841 87.43C305.506 88.8226 304.576 89.9971 303.923 91.2638C303.228 92.4047 302.666 94.2419 302.968 95.2738C303.27 96.2972 303.923 97.1781 304.459 98.1008C304.995 99.0236 305.439 100.081 305.247 101.138C304.903 103.042 302.708 104.091 302.113 105.936C301.535 107.74 302.666 109.594 303.697 111.188C304.719 112.782 305.716 114.778 304.886 116.481C304.442 117.387 303.571 117.991 302.867 118.704C300.714 120.869 300.078 124.4 301.326 127.185C305.506 126.363 309.687 125.533 313.867 124.711C314.412 118.729 314.965 112.74 315.509 106.758C319.179 107.673 323.192 105.324 324.926 104.879L327.062 103.721C331.737 104.544 336.78 104.25 340.877 101.859C344.973 99.4682 351.047 102.522 350.251 97.8408C349.866 95.5674 351.407 92.9164 349.983 91.1044L349.991 91.0876Z" fill="#263238"/>
<path d="M335.691 69.2595L318.634 64.2009C313.138 63.3956 309.193 70.048 308.623 75.5848C307.986 81.7339 307.45 89.2588 307.995 93.8895C309.092 103.193 316.121 104.661 316.121 104.661C316.121 104.653 314.889 117.84 314.772 121.137L335.808 110.357L338.464 72.6822C338.564 70.996 337.358 69.5111 335.691 69.2679V69.2595Z" fill="#FFD3C1"/>
<path d="M309.678 83.1685C309.628 83.7976 310.122 84.3513 310.776 84.41C311.429 84.4688 311.991 84.0158 312.041 83.3866C312.091 82.7574 311.597 82.2037 310.952 82.145C310.298 82.0863 309.737 82.5393 309.687 83.1685H309.678Z" fill="#263238"/>
<path d="M309.05 80.4588C309.167 80.6098 310.173 80.3917 311.429 80.7692C312.686 81.1299 313.482 81.8765 313.649 81.801C313.733 81.7675 313.633 81.5242 313.289 81.1886C312.954 80.8615 312.334 80.4504 311.547 80.2239C310.767 79.9974 310.047 80.0142 309.611 80.1148C309.167 80.2155 308.983 80.3833 309.042 80.4504L309.05 80.4588Z" fill="#263238"/>
<path d="M321.499 84.1332C321.449 84.7624 321.943 85.316 322.597 85.3748C323.25 85.4335 323.811 84.9805 323.862 84.3513C323.912 83.7221 323.418 83.1685 322.773 83.1097C322.119 83.051 321.558 83.504 321.508 84.1332H321.499Z" fill="#263238"/>
<path d="M321.709 82.1366C321.893 82.2205 322.814 81.6081 324.239 81.4068C325.663 81.197 326.794 81.5158 326.928 81.3816C326.995 81.3229 326.794 81.1467 326.3 80.9957C325.814 80.8447 325.009 80.7524 324.121 80.8783C323.233 81.0041 322.53 81.3229 322.136 81.5997C321.742 81.8766 321.625 82.1031 321.717 82.1366H321.709Z" fill="#263238"/>
<path d="M317.31 90.4669C317.319 90.3914 316.531 90.2236 315.258 90.0055C314.931 89.9551 314.63 89.8796 314.579 89.6531C314.512 89.4182 314.663 89.0659 314.839 88.6968C315.174 87.9166 315.526 87.1113 315.903 86.2556C317.377 82.7742 318.467 79.9135 318.324 79.8548C318.182 79.7961 316.875 82.5644 315.392 86.0459C315.032 86.9015 314.697 87.7237 314.37 88.5038C314.236 88.873 314.001 89.284 314.152 89.779C314.227 90.0222 314.462 90.2152 314.671 90.2739C314.881 90.3494 315.057 90.3578 315.224 90.3746C316.515 90.5004 317.31 90.534 317.319 90.4585L317.31 90.4669Z" fill="#263238"/>
<path d="M316.121 104.661C316.121 104.661 322.186 105.441 328.494 101.985C328.386 102.002 324.708 108.419 315.895 107.119L316.121 104.669V104.661Z" fill="#F4AF9B"/>
<path d="M317.721 93.5623C318.207 92.9751 319.019 92.6731 319.815 92.7905C320.368 92.8744 320.913 93.1597 321.231 93.6294C321.549 94.0908 321.591 94.7368 321.273 95.1562C320.913 95.626 320.184 95.7099 319.589 95.5086C318.986 95.3072 318.483 94.8878 317.997 94.4683C317.863 94.3509 317.729 94.2335 317.645 94.0741C317.562 93.9231 317.553 93.7217 317.662 93.5959" fill="#F4AF9B"/>
<path d="M321.022 91.4987C320.812 91.4819 320.754 92.8661 319.531 93.7973C318.307 94.7368 316.841 94.5187 316.825 94.7117C316.799 94.7956 317.143 94.9969 317.763 95.0388C318.374 95.0808 319.271 94.9214 320.016 94.3509C320.762 93.7805 321.105 92.9835 321.173 92.4215C321.248 91.8426 321.105 91.4987 321.013 91.4987H321.022Z" fill="#263238"/>
<path d="M321.876 77.5898C321.985 77.9421 323.267 77.8247 324.758 78.0679C326.249 78.2777 327.439 78.7642 327.648 78.4622C327.741 78.3196 327.548 77.9841 327.07 77.6233C326.601 77.271 325.839 76.9186 324.951 76.7844C324.054 76.6502 323.233 76.7593 322.68 76.9606C322.119 77.1619 321.834 77.422 321.885 77.5898H321.876Z" fill="#263238"/>
<path d="M310.416 76.7676C310.625 77.0696 311.522 76.8011 312.577 76.8263C313.633 76.8179 314.521 77.1031 314.739 76.8011C314.831 76.6585 314.705 76.3649 314.328 76.0713C313.951 75.7861 313.323 75.5344 312.594 75.526C311.865 75.526 311.228 75.7609 310.851 76.0377C310.466 76.323 310.332 76.6166 310.424 76.7592L310.416 76.7676Z" fill="#263238"/>
<path d="M316.623 62.9929C323.485 64.0835 330.204 65.9962 336.612 68.6723C338.095 69.2931 339.653 70.0313 340.491 71.4071C341.379 72.8584 341.262 74.6956 341.12 76.3901C340.416 84.6785 339.712 92.9668 339.008 101.255L338.12 101.213C335.565 101.633 335.381 100.324 333.555 98.4867C331.728 96.6495 330.849 93.9063 331.267 91.3477C331.644 89.0911 332.951 86.826 332.248 84.6449C331.318 81.7675 327.372 80.7356 326.425 77.8582C325.872 76.1888 326.501 74.2761 325.864 72.6403C325.269 71.0967 323.702 70.1571 322.169 69.5363C320.636 68.9155 318.986 68.4625 317.721 67.3971C316.456 66.3317 315.719 64.3855 316.607 62.9929H316.623Z" fill="#263238"/>
<path d="M296.986 327.397L298.922 346.063C298.922 346.063 280.625 354.301 280.65 357.782L316.925 355.324L315.099 326.114L296.986 327.389V327.397Z" fill="#455A64"/>
<g opacity="0.3">
<path opacity="0.3" d="M296.986 327.397L298.922 346.063C298.922 346.063 280.625 354.301 280.65 357.782L316.925 355.324L315.099 326.114L296.986 327.389V327.397Z" fill="black"/>
</g>
<g opacity="0.6">
<path opacity="0.6" d="M310.03 343.73C310.742 343.873 311.287 344.636 311.17 345.358C311.052 346.079 310.29 346.633 309.569 346.499C308.849 346.365 308.179 345.475 308.371 344.771C308.564 344.066 309.502 343.462 310.164 343.764" fill="white"/>
</g>
<g opacity="0.6">
<path opacity="0.6" d="M316.925 355.324L316.623 352.388L281.957 355.844C281.957 355.844 280.39 356.658 280.65 357.782L316.925 355.324Z" fill="white"/>
</g>
<path d="M298.318 345.92C298.335 346.096 299.223 346.121 300.136 346.625C301.058 347.111 301.56 347.849 301.72 347.766C301.879 347.724 301.544 346.675 300.429 346.079C299.324 345.467 298.268 345.752 298.318 345.912V345.92Z" fill="#263238"/>
<path d="M294.624 347.749C294.599 347.925 295.386 348.177 296.031 348.881C296.701 349.569 296.911 350.375 297.087 350.349C297.254 350.366 297.305 349.317 296.484 348.453C295.663 347.581 294.615 347.573 294.624 347.749Z" fill="#263238"/>
<path d="M292.772 352.455C292.94 352.48 293.124 351.583 292.605 350.635C292.094 349.687 291.231 349.359 291.164 349.519C291.072 349.67 291.65 350.156 292.06 350.937C292.496 351.708 292.596 352.447 292.772 352.455Z" fill="#263238"/>
<path d="M298.352 341.616C298.436 341.776 299.231 341.474 300.237 341.474C301.242 341.457 302.046 341.734 302.13 341.583C302.222 341.449 301.418 340.845 300.237 340.861C299.056 340.861 298.26 341.491 298.352 341.625V341.616Z" fill="#263238"/>
<path d="M298.033 337.841C298.033 337.917 298.746 337.976 299.851 337.707C300.404 337.573 301.049 337.346 301.711 336.994C302.046 336.818 302.381 336.608 302.717 336.365C302.876 336.247 303.068 336.122 303.236 335.903C303.42 335.702 303.496 335.224 303.253 334.956C303.052 334.687 302.708 334.595 302.448 334.603C302.18 334.612 301.971 334.679 301.77 334.746C301.376 334.872 300.999 335.031 300.664 335.207C299.994 335.568 299.458 336.004 299.064 336.424C298.276 337.263 298.033 337.942 298.092 337.976C298.176 338.026 298.544 337.447 299.357 336.742C299.759 336.39 300.287 336.021 300.915 335.719C301.234 335.568 301.569 335.434 301.937 335.325C302.314 335.199 302.641 335.174 302.75 335.333C302.792 335.4 302.8 335.425 302.725 335.543C302.65 335.652 302.499 335.761 302.34 335.887C302.03 336.122 301.72 336.323 301.418 336.499C300.806 336.86 300.22 337.112 299.709 337.296C298.687 337.657 298.008 337.749 298.017 337.85L298.033 337.841Z" fill="#263238"/>
<path d="M298.276 338.076C298.343 338.101 298.653 337.439 298.637 336.289C298.637 335.719 298.519 335.031 298.251 334.318C298.117 333.957 297.941 333.597 297.715 333.244C297.481 332.9 297.187 332.439 296.492 332.405C296.132 332.414 295.855 332.716 295.772 332.967C295.671 333.219 295.663 333.437 295.629 333.647C295.587 334.075 295.629 334.494 295.713 334.872C295.88 335.635 296.241 336.256 296.618 336.7C297.388 337.598 298.142 337.757 298.151 337.699C298.201 337.606 297.564 337.304 296.961 336.44C296.66 336.013 296.383 335.442 296.274 334.771C296.216 334.435 296.199 334.083 296.232 333.714C296.266 333.32 296.383 333.001 296.534 333.034C296.718 333.018 297.037 333.286 297.212 333.588C297.422 333.899 297.589 334.226 297.732 334.544C298 335.182 298.142 335.811 298.209 336.34C298.335 337.405 298.184 338.076 298.285 338.101L298.276 338.076Z" fill="#263238"/>
<path d="M293.845 190.791C293.845 190.791 277.776 263.842 277.282 270.36C276.788 276.887 297.196 333.202 297.196 333.202L314.755 329.88C314.755 329.88 313.641 246.72 313.071 245.084C312.502 243.457 317.562 202.586 317.562 202.586L293.845 190.791Z" fill="#263238"/>
<path d="M305.062 328.261L305.255 347.027C305.255 347.027 286.271 353.529 285.97 357.002L322.312 357.379L323.208 328.681L305.054 328.27L305.062 328.261Z" fill="#455A64"/>
<g opacity="0.6">
<path opacity="0.6" d="M316.54 345.744C317.235 345.954 317.704 346.759 317.52 347.464C317.336 348.168 316.523 348.655 315.828 348.453C315.124 348.252 314.537 347.304 314.797 346.625C315.057 345.945 316.045 345.425 316.674 345.786" fill="white"/>
</g>
<g opacity="0.6">
<path opacity="0.6" d="M322.32 357.379L322.303 354.98L287.461 355.19C287.461 355.19 285.827 355.852 285.978 357.002L322.32 357.379Z" fill="white"/>
</g>
<path d="M304.677 346.826C304.677 347.002 305.565 347.111 306.42 347.698C307.291 348.269 307.726 349.049 307.886 348.982C308.053 348.948 307.81 347.883 306.763 347.178C305.716 346.465 304.635 346.65 304.677 346.818V346.826Z" fill="#263238"/>
<path d="M300.823 348.311C300.781 348.479 301.535 348.806 302.122 349.569C302.725 350.316 302.859 351.138 303.035 351.129C303.202 351.163 303.353 350.123 302.608 349.183C301.87 348.235 300.832 348.135 300.823 348.302V348.311Z" fill="#263238"/>
<path d="M298.536 352.824C298.695 352.866 298.963 351.985 298.536 351.004C298.109 350.014 297.288 349.611 297.204 349.754C297.104 349.896 297.623 350.433 297.966 351.247C298.327 352.052 298.36 352.807 298.536 352.824Z" fill="#263238"/>
<path d="M305.104 342.548C305.171 342.715 305.992 342.489 306.998 342.581C308.003 342.657 308.774 343.009 308.866 342.858C308.975 342.732 308.229 342.053 307.048 341.96C305.867 341.86 305.02 342.405 305.104 342.548Z" fill="#263238"/>
<g opacity="0.3">
<path opacity="0.3" d="M305.104 331.986L305.138 335.325L323.007 335.618L323.108 332.607L305.104 331.986Z" fill="black"/>
</g>
<path d="M305.138 338.764C305.138 338.84 305.833 338.965 306.956 338.798C307.517 338.714 308.179 338.546 308.874 338.261C309.226 338.118 309.578 337.942 309.93 337.732C310.097 337.632 310.298 337.523 310.491 337.321C310.692 337.145 310.818 336.675 310.6 336.382C310.424 336.096 310.097 335.971 309.829 335.954C309.561 335.937 309.343 335.987 309.142 336.029C308.732 336.113 308.355 336.239 308.003 336.39C307.299 336.692 306.729 337.078 306.294 337.447C305.431 338.21 305.129 338.865 305.188 338.898C305.263 338.957 305.691 338.412 306.562 337.791C306.998 337.481 307.55 337.162 308.212 336.919C308.539 336.801 308.891 336.692 309.268 336.625C309.653 336.533 309.98 336.541 310.08 336.717C310.114 336.784 310.122 336.81 310.039 336.919C309.955 337.019 309.796 337.12 309.628 337.221C309.301 337.422 308.975 337.598 308.656 337.749C308.011 338.051 307.4 338.244 306.88 338.378C305.833 338.647 305.146 338.672 305.146 338.773L305.138 338.764Z" fill="#263238"/>
<path d="M305.356 339.024C305.414 339.049 305.783 338.429 305.883 337.279C305.925 336.709 305.883 336.013 305.682 335.274C305.582 334.905 305.439 334.528 305.247 334.159C305.046 333.79 304.794 333.303 304.107 333.211C303.747 333.186 303.445 333.462 303.337 333.697C303.211 333.941 303.177 334.15 303.136 334.36C303.06 334.779 303.052 335.199 303.102 335.585C303.194 336.365 303.496 337.019 303.831 337.489C304.518 338.454 305.255 338.68 305.272 338.622C305.33 338.538 304.727 338.177 304.199 337.254C303.94 336.801 303.722 336.206 303.663 335.526C303.638 335.19 303.647 334.83 303.722 334.477C303.789 334.092 303.94 333.781 304.082 333.823C304.266 333.823 304.56 334.125 304.702 334.435C304.878 334.763 305.02 335.107 305.129 335.434C305.339 336.097 305.423 336.726 305.439 337.263C305.464 338.328 305.255 338.991 305.347 339.024H305.356Z" fill="#263238"/>
<path d="M334.686 189.667L293.845 190.791L299.709 263.557L303.345 333.697L324.532 334.435C325.613 320.896 325.688 273.053 325.688 273.053L329.969 244.153C330.958 236.36 334.082 228.172 335.59 221.184C336.47 217.073 337.769 211.746 338.037 210.01C338.849 204.867 334.694 189.667 334.694 189.667H334.686Z" fill="#263238"/>
<path d="M296.224 207.535C296.224 207.535 296.232 207.644 296.224 207.862C296.224 208.097 296.207 208.416 296.199 208.819C296.165 209.683 296.115 210.916 296.056 212.493C295.989 214.087 295.906 216.042 295.839 218.307C295.772 220.572 295.663 223.156 295.604 226.008C295.445 231.712 295.361 238.507 295.395 246.057C295.453 253.608 295.629 261.896 296.056 270.595C296.5 279.295 297.162 287.566 297.908 295.074C298.318 298.824 298.679 302.389 299.131 305.72C299.349 307.381 299.533 308.992 299.759 310.535C299.985 312.079 300.203 313.555 300.404 314.965C300.79 317.792 301.25 320.334 301.611 322.573C301.963 324.813 302.314 326.734 302.608 328.303C302.884 329.855 303.11 331.071 303.261 331.919C303.328 332.321 303.378 332.632 303.42 332.858C303.454 333.068 303.471 333.177 303.462 333.185C303.462 333.185 303.429 333.076 303.378 332.867C303.328 332.64 303.261 332.33 303.177 331.935C303.01 331.088 302.758 329.88 302.448 328.328C302.13 326.759 301.753 324.847 301.376 322.607C300.991 320.367 300.513 317.834 300.111 315.007C299.893 313.597 299.667 312.112 299.433 310.577C299.198 309.034 299.005 307.423 298.787 305.762C298.318 302.431 297.941 298.866 297.522 295.116C296.752 287.6 296.081 279.32 295.637 270.612C295.21 261.904 295.043 253.608 295.009 246.049C295.009 238.499 295.118 231.696 295.311 225.991C295.378 223.139 295.512 220.555 295.604 218.29C295.696 216.025 295.797 214.07 295.897 212.476C295.989 210.899 296.065 209.666 296.115 208.802C296.14 208.399 296.165 208.08 296.182 207.846C296.199 207.627 296.216 207.518 296.216 207.518L296.224 207.535Z" fill="#455A64"/>
<path d="M272.976 110.223L262.512 99.0404L254.269 104.82L262.512 117.026L272.976 110.223Z" fill="#FFD3C1"/>
<path d="M339.101 114.35L338.59 107.262L314.973 106.918L314.772 115.818C314.772 115.818 303.177 128.377 298.972 142.462C291.901 166.135 289.338 196.269 289.338 196.269H337.668C337.165 187.93 333.73 169.273 333.73 169.273L344.479 137.185C347.151 125.65 339.109 114.35 339.109 114.35H339.101Z" fill="#F48462"/>
<path d="M280.625 146.388C280.625 146.388 280.759 146.514 281.027 146.748C281.287 146.992 281.697 147.319 282.25 147.705C283.356 148.46 285.14 149.391 287.545 149.743C288.734 149.928 290.083 149.928 291.482 149.701C292.89 149.542 294.389 149.349 295.964 149.139C299.114 148.712 302.574 148.183 306.193 147.571C313.398 146.304 319.924 145.155 324.708 144.316C327.037 143.938 328.947 143.619 330.329 143.393C330.958 143.292 331.46 143.208 331.862 143.15C332.214 143.091 332.39 143.049 332.39 143.049C332.39 143.049 332.206 143.066 331.854 143.108C331.452 143.166 330.949 143.234 330.321 143.317C328.989 143.502 327.062 143.796 324.691 144.181C319.941 144.936 313.398 146.153 306.168 147.386C302.549 147.998 299.098 148.535 295.948 148.972C294.373 149.19 292.873 149.383 291.466 149.55C290.066 149.777 288.751 149.785 287.57 149.609C285.191 149.274 283.406 148.376 282.292 147.646C281.731 147.269 281.32 146.958 281.052 146.723C280.776 146.497 280.625 146.388 280.625 146.388Z" fill="#263238"/>
<path d="M340.583 134.945C340.583 134.945 340.609 134.878 340.634 134.761C340.667 134.585 340.709 134.408 340.743 134.215C340.835 133.737 340.96 133.049 341.078 132.185C341.304 130.482 341.547 128.033 340.902 125.432C340.24 122.832 338.615 120.843 337.149 119.912C336.411 119.434 335.75 119.174 335.28 119.065C334.811 118.947 334.543 118.931 334.543 118.931C334.518 118.989 335.649 119.057 337.082 120.021C338.506 120.961 340.089 122.924 340.734 125.482C341.371 128.041 341.153 130.474 340.96 132.177C340.86 133.033 340.751 133.729 340.684 134.207C340.659 134.4 340.634 134.585 340.609 134.761C340.592 134.887 340.583 134.954 340.592 134.954L340.583 134.945Z" fill="#263238"/>
<path d="M290.309 140.725C290.309 140.725 290.309 140.532 290.276 140.197L290.142 138.762C290.041 137.546 289.958 135.86 289.999 134.006C290.05 132.143 290.217 130.466 290.376 129.257C290.452 128.746 290.519 128.276 290.586 127.831C290.636 127.496 290.661 127.303 290.645 127.303C290.636 127.303 290.586 127.487 290.51 127.815C290.435 128.15 290.343 128.637 290.251 129.241C290.058 130.449 289.865 132.135 289.815 133.997C289.773 135.868 289.874 137.554 290.008 138.771C290.075 139.375 290.142 139.87 290.201 140.205C290.259 140.541 290.293 140.725 290.309 140.725Z" fill="#263238"/>
<path d="M315.057 115.692C315.551 114.015 316.607 112.572 317.637 111.171C319.329 108.881 321.156 106.481 323.795 105.399C325.587 104.661 330.22 105.072 331.46 103.57C335.314 98.8977 329.667 95.9868 331.72 89.5608C333.965 82.5141 332.809 83.5962 332.977 78.0595L341.538 74.3516C342.887 75.3582 346.624 78.9991 346.213 80.6265C345.803 82.2624 345.92 84.0744 346.54 86.0206C347.855 90.148 352.396 92.5892 354.541 96.3475C356.744 100.206 354.264 105.315 354.205 109.753C354.147 114.191 355.822 119.535 360.154 120.499C358.537 123.754 355.831 126.456 352.563 128.049C351.659 126.816 350.754 125.583 349.849 124.35C350.385 127.697 348.115 131.271 344.848 132.194C343.934 128.293 342.971 124.283 340.617 121.053C338.263 117.823 334.124 115.541 330.262 116.573C327.682 117.27 325.68 119.258 323.376 120.617C321.072 121.967 317.796 122.546 315.953 120.608C314.747 119.342 314.571 117.362 315.065 115.692H315.057Z" fill="#263238"/>
<g opacity="0.3">
<path opacity="0.3" d="M298.972 148.577C310.106 146.539 324.951 144.106 336.085 142.076C336.504 142 336.939 141.925 337.333 142.076C338.07 142.369 338.288 143.393 337.953 144.114C337.618 144.836 336.914 145.306 336.21 145.675C332.558 147.587 328.268 147.738 324.147 147.856C317.109 148.049 306.009 148.376 298.964 148.569L298.972 148.577Z" fill="black"/>
</g>
<path d="M290.837 149.693C294.297 149.76 334.175 142.47 334.175 142.47L290.837 149.693Z" fill="#F48462"/>
<path d="M333.496 117.53C336.42 117.89 338.321 118.402 341.74 122.06C342.108 122.454 342.443 122.941 342.762 123.494C346.565 130.205 343.809 139.475 336.529 141.992L329.475 143.443L290.837 149.685C290.837 149.685 282.602 151.539 275.54 140.549C272.951 136.522 255.098 109.854 255.098 109.854L266.827 101.993L290.469 127.32L333.504 117.521L333.496 117.53Z" fill="#F48462"/>
<path d="M280.625 146.388C280.625 146.388 280.759 146.514 281.027 146.748C281.287 146.992 281.697 147.319 282.25 147.705C283.356 148.46 285.14 149.391 287.545 149.743C288.734 149.928 290.083 149.928 291.482 149.701C292.89 149.542 294.389 149.349 295.964 149.139C299.114 148.712 302.574 148.183 306.193 147.571C313.398 146.304 319.924 145.155 324.708 144.316C327.037 143.938 328.947 143.619 330.329 143.393C330.958 143.292 331.46 143.208 331.862 143.15C332.214 143.091 332.39 143.049 332.39 143.049C332.39 143.049 332.206 143.066 331.854 143.108C331.452 143.166 330.949 143.234 330.321 143.317C328.989 143.502 327.062 143.796 324.691 144.181C319.941 144.936 313.398 146.153 306.168 147.386C302.549 147.998 299.098 148.535 295.948 148.972C294.373 149.19 292.873 149.383 291.466 149.55C290.066 149.777 288.751 149.785 287.57 149.609C285.191 149.274 283.406 148.376 282.292 147.646C281.731 147.269 281.32 146.958 281.052 146.723C280.776 146.497 280.625 146.388 280.625 146.388Z" fill="#263238"/>
<path d="M340.583 134.945C340.583 134.945 340.609 134.878 340.634 134.761C340.667 134.585 340.709 134.408 340.743 134.215C340.835 133.737 340.96 133.049 341.078 132.185C341.304 130.482 341.547 128.033 340.902 125.432C340.24 122.832 338.615 120.843 337.149 119.912C336.411 119.434 335.75 119.174 335.28 119.065C334.811 118.947 334.543 118.931 334.543 118.931C334.518 118.989 335.649 119.057 337.082 120.021C338.506 120.961 340.089 122.924 340.734 125.482C341.371 128.041 341.153 130.474 340.96 132.177C340.86 133.033 340.751 133.729 340.684 134.207C340.659 134.4 340.634 134.585 340.609 134.761C340.592 134.887 340.583 134.954 340.592 134.954L340.583 134.945Z" fill="#263238"/>
<path d="M290.309 140.725C290.309 140.725 290.309 140.532 290.276 140.197L290.142 138.762C290.041 137.546 289.958 135.86 289.999 134.006C290.05 132.143 290.217 130.466 290.376 129.257C290.452 128.746 290.519 128.276 290.586 127.831C290.636 127.496 290.661 127.303 290.645 127.303C290.636 127.303 290.586 127.487 290.51 127.815C290.435 128.15 290.343 128.637 290.251 129.241C290.058 130.449 289.865 132.135 289.815 133.997C289.773 135.868 289.874 137.554 290.008 138.771C290.075 139.375 290.142 139.87 290.201 140.205C290.259 140.541 290.293 140.725 290.309 140.725Z" fill="#263238"/>
<path d="M262.462 90.3997C262.144 87.9082 262.186 86.3478 262.244 85.5928C262.269 85.2405 261.976 84.9636 261.633 84.9888C260.996 85.0475 260.058 85.4082 259.48 86.8679C259.128 87.7655 259.228 88.6883 259.237 89.5776C259.254 91.0708 259.237 92.2453 259.237 92.2453C259.237 92.2453 251.797 83.3278 250.29 82.9251C249.477 82.707 249.184 82.9503 248.882 83.4284C248.606 83.8731 249.159 84.9133 249.159 84.9133L253.356 90.9198C253.356 90.9198 247.014 83.4452 245.866 83.4704C244.693 83.4956 244.216 84.3428 244.936 85.6935C245.481 86.7085 251.018 93.2771 251.018 93.2771C251.018 93.2771 245.095 87.5474 243.914 87.5978C242.733 87.6481 242.934 88.8981 243.554 89.4182C244.174 89.9383 248.555 95.0388 248.555 95.0388C248.555 95.0388 244.274 91.4231 243.411 91.7084C242.523 92.002 242.917 92.9499 243.378 93.7301C243.83 94.5019 254.57 105.257 254.57 105.257L263.878 100.576C264.121 99.2668 264.079 97.9246 263.736 96.6327C263.308 95.0388 262.747 92.6479 262.454 90.3829L262.462 90.3997Z" fill="#FFD3C1"/>
<path d="M216.634 127.85C217.964 128.621 219.048 130.694 219.048 132.48C219.048 134.069 218.185 134.894 217.067 134.507V168.248L229.308 142.443C229.512 141.939 229.521 141.377 229.331 140.868C226.24 133.682 223.953 125.587 223.184 117.281C223.145 117.019 223.052 116.769 222.91 116.546C222.768 116.323 222.58 116.132 222.36 115.987L210.925 109.354C210.847 109.289 210.752 109.248 210.652 109.238C210.551 109.227 210.45 109.246 210.36 109.293C210.271 109.341 210.197 109.413 210.148 109.502C210.1 109.592 210.079 109.693 210.087 109.794C209.318 116.98 207.13 122.306 204.164 125.9C204.005 126.107 203.894 126.348 203.84 126.603C203.786 126.859 203.789 127.124 203.849 127.378C205.57 132.997 215.488 165.401 216.21 167.756V134.015C215.077 133.088 214.228 131.271 214.228 129.682C214.223 127.893 215.301 127.077 216.634 127.85Z" fill="#27DEBF"/>
<path d="M198.248 130.617L210.608 170.994L211.457 170.502V171.498L217.053 168.248L229.294 142.443C229.498 141.939 229.506 141.377 229.317 140.868C226.226 133.682 223.939 125.587 223.169 117.281C223.131 117.019 223.037 116.769 222.896 116.546C222.754 116.323 222.566 116.132 222.346 115.987L210.911 109.354C210.68 109.236 210.424 109.175 210.165 109.175C209.906 109.175 209.651 109.236 209.419 109.354L205.31 111.736C205.089 111.882 204.901 112.073 204.757 112.296C204.614 112.52 204.519 112.771 204.478 113.033C203.711 120.218 201.523 125.544 198.554 129.136C198.397 129.344 198.288 129.586 198.235 129.842C198.182 130.098 198.187 130.363 198.248 130.617Z" fill="#A04B31"/>
<path opacity="0.15" d="M208.619 132.929C208.619 134.524 209.468 136.341 210.6 137.262V171.003L211.449 170.511V137.754C212.581 138.144 213.43 137.322 213.43 135.733C213.43 133.944 212.352 131.871 211.019 131.098C209.686 130.324 208.619 131.146 208.619 132.929Z" fill="#A8482B"/>
<path d="M198.248 130.617L210.608 170.995V137.262C209.476 136.341 208.627 134.524 208.627 132.929C208.627 131.146 209.705 130.324 211.039 131.098C212.372 131.871 213.45 133.941 213.45 135.733C213.45 137.322 212.601 138.144 211.469 137.754V171.498L223.713 145.699C223.919 145.196 223.928 144.633 223.738 144.124C220.648 136.938 218.361 128.843 217.585 120.523C217.547 120.261 217.454 120.01 217.313 119.786C217.171 119.563 216.984 119.372 216.764 119.226L205.333 112.595C205.255 112.534 205.162 112.497 205.064 112.488C204.966 112.478 204.867 112.497 204.78 112.542C204.692 112.588 204.619 112.657 204.57 112.742C204.52 112.828 204.496 112.926 204.5 113.025C203.733 120.21 201.545 125.536 198.576 129.127C198.414 129.335 198.301 129.577 198.244 129.835C198.187 130.093 198.188 130.36 198.248 130.617Z" fill="#F48462"/>
<path opacity="0.25" d="M217.336 119.869C217.459 120.07 217.537 120.296 217.565 120.531C218.341 128.84 220.628 136.932 223.719 144.132C223.823 144.404 223.868 144.695 223.852 144.985L229.453 141.738C229.471 141.443 229.426 141.147 229.323 140.871C226.229 133.685 223.945 125.59 223.172 117.284C223.141 117.048 223.061 116.822 222.937 116.619L217.336 119.869Z" fill="#F48462"/>
<path opacity="0.15" d="M204.384 112.745C204.398 112.658 204.434 112.576 204.49 112.508C204.545 112.44 204.617 112.388 204.699 112.357C204.78 112.326 204.869 112.317 204.955 112.331C205.041 112.345 205.123 112.382 205.19 112.437L216.625 119.068C216.873 119.226 217.076 119.444 217.216 119.703L222.818 116.441C222.677 116.186 222.476 115.971 222.232 115.813L210.797 109.179C210.565 109.061 210.309 109 210.049 109C209.789 109 209.532 109.061 209.3 109.179L205.193 111.562C204.78 111.835 204.49 112.26 204.384 112.745Z" fill="black"/>
<path d="M225.688 105.686L207.574 95.1789C207.343 95.0612 207.087 94.9999 206.828 94.9999C206.569 94.9999 206.314 95.0612 206.083 95.1789L201.976 97.5674C201.758 97.7093 201.577 97.9011 201.447 98.127C201.317 98.3528 201.242 98.6064 201.228 98.8669V106.88C201.242 107.14 201.317 107.394 201.447 107.619C201.577 107.845 201.758 108.037 201.976 108.179L220.09 118.7C220.321 118.818 220.577 118.879 220.836 118.879C221.095 118.879 221.35 118.818 221.582 118.7L225.691 116.314C225.909 116.172 226.09 115.981 226.22 115.755C226.35 115.529 226.425 115.275 226.438 115.015V106.985C226.424 106.724 226.349 106.471 226.218 106.245C226.088 106.019 225.906 105.827 225.688 105.686Z" fill="#F48462"/>
<path opacity="0.4" d="M201.234 98.7418C201.285 98.355 201.599 98.2129 201.976 98.4318L220.084 108.941C220.307 109.081 220.49 109.277 220.614 109.51L226.218 106.263C226.093 106.031 225.91 105.835 225.688 105.694L207.574 95.1874C207.343 95.0697 207.087 95.0084 206.828 95.0084C206.569 95.0084 206.314 95.0697 206.082 95.1874L201.976 97.5674C201.775 97.6984 201.606 97.871 201.478 98.0736C201.35 98.2762 201.267 98.5041 201.234 98.7418Z" fill="white"/>
<path opacity="0.15" d="M220.206 118.743H220.223H220.268L220.316 118.763C220.34 118.773 220.365 118.78 220.39 118.783L220.478 118.805H220.54C220.582 118.814 220.625 118.819 220.667 118.822C220.981 118.86 221.299 118.801 221.579 118.655L225.688 116.272C225.906 116.129 226.087 115.938 226.217 115.712C226.347 115.486 226.422 115.233 226.436 114.972V106.985C226.427 106.725 226.352 106.471 226.218 106.249L220.614 109.51C220.75 109.733 220.826 109.988 220.834 110.249V118.265C220.834 118.606 220.665 118.802 220.421 118.802C220.386 118.808 220.349 118.808 220.314 118.802C220.276 118.787 220.24 118.767 220.206 118.743Z" fill="black"/>
<path opacity="0.15" d="M211.452 171.498L217.053 168.248L229.291 142.443C229.388 142.219 229.442 141.979 229.45 141.735L223.846 144.982C223.84 145.228 223.786 145.471 223.687 145.696L211.452 171.498Z" fill="black"/>
<path opacity="0.15" d="M210.608 137.262V171.003L211.457 170.511V137.754C212.589 138.144 213.439 137.322 213.439 135.732C213.439 135.696 213.439 135.661 213.439 135.622L210.608 137.262Z" fill="black"/>
<path d="M184.719 127.56C184.719 126.642 185.359 126.272 186.148 126.73C186.565 127.003 186.911 127.37 187.16 127.802C187.409 128.234 187.553 128.719 187.58 129.218C187.58 129.96 187.156 130.338 186.576 130.213C187.382 147.163 199.193 167.136 213.6 175.493C220.758 179.644 227.469 180.327 232.495 177.412C237.242 174.657 239.979 168.99 240.262 161.375C239.655 160.81 239.289 160.03 239.243 159.2C239.243 158.284 239.883 157.912 240.658 158.369C241.075 158.642 241.421 159.01 241.669 159.443C241.918 159.876 242.061 160.361 242.088 160.86C242.088 161.642 241.621 162.023 240.992 161.833C240.607 169.51 237.757 175.237 232.863 178.075C230.642 179.34 228.126 179.99 225.572 179.957C221.771 179.957 217.562 178.68 213.207 176.155C198.472 167.608 186.414 147.072 185.786 129.79C185.15 129.218 184.766 128.416 184.719 127.56Z" fill="#F2744E"/>
<path d="M186.148 158.418C186.853 158.882 187.346 159.606 187.521 160.434L239.317 190.475C239.501 189.906 240.036 189.733 240.672 190.103C241.089 190.376 241.435 190.743 241.684 191.176C241.932 191.609 242.075 192.095 242.102 192.593C242.102 193.509 241.462 193.882 240.672 193.424C240.314 193.186 240.007 192.879 239.768 192.521C239.529 192.163 239.364 191.76 239.283 191.337L187.521 161.321C187.354 161.927 186.808 162.126 186.148 161.745C185.732 161.471 185.386 161.104 185.137 160.671C184.889 160.238 184.746 159.753 184.719 159.254C184.719 158.338 185.353 157.966 186.148 158.418Z" fill="#F2744E"/>
<path d="M238.671 160.007C238.671 160.412 238.791 160.807 239.014 161.143C239.238 161.479 239.556 161.741 239.928 161.896C240.299 162.051 240.709 162.091 241.103 162.012C241.498 161.934 241.861 161.739 242.145 161.453C242.43 161.167 242.624 160.803 242.702 160.406C242.781 160.01 242.74 159.598 242.586 159.225C242.432 158.851 242.172 158.532 241.837 158.307C241.502 158.083 241.109 157.963 240.706 157.963C240.439 157.962 240.174 158.015 239.927 158.118C239.68 158.22 239.456 158.371 239.266 158.561C239.077 158.751 238.928 158.976 238.825 159.224C238.723 159.473 238.671 159.739 238.671 160.007Z" fill="#D26F50"/>
<path d="M240.783 193.773C239.659 193.773 238.748 192.858 238.748 191.729C238.748 190.6 239.659 189.685 240.783 189.685C241.907 189.685 242.818 190.6 242.818 191.729C242.818 192.858 241.907 193.773 240.783 193.773Z" fill="#D26F50"/>
<path d="M184 160.138C184 160.542 184.119 160.938 184.343 161.274C184.567 161.61 184.884 161.872 185.256 162.027C185.628 162.182 186.037 162.222 186.432 162.143C186.827 162.064 187.189 161.87 187.474 161.584C187.759 161.298 187.952 160.934 188.031 160.537C188.109 160.14 188.069 159.729 187.915 159.356C187.761 158.982 187.5 158.663 187.166 158.438C186.831 158.214 186.438 158.094 186.035 158.094C185.495 158.094 184.978 158.309 184.596 158.692C184.214 159.076 184 159.596 184 160.138Z" fill="#D26F50"/>
<path d="M184.187 128.348C184.187 128.752 184.306 129.148 184.53 129.484C184.753 129.82 185.071 130.082 185.443 130.237C185.815 130.392 186.224 130.432 186.619 130.353C187.014 130.274 187.376 130.08 187.661 129.794C187.945 129.508 188.139 129.143 188.218 128.747C188.296 128.35 188.256 127.939 188.102 127.566C187.948 127.192 187.687 126.873 187.352 126.648C187.018 126.423 186.624 126.304 186.222 126.304C185.682 126.304 185.164 126.519 184.783 126.902C184.401 127.286 184.187 127.806 184.187 128.348Z" fill="#D26F50"/>
<path d="M141.946 193.614C142.542 194.928 144.71 195.221 145.97 195.273C147.89 195.338 149.654 194.47 151.361 193.694C152.561 193.144 153.725 192.521 154.909 191.934C156.093 191.348 157.265 190.677 158.553 190.387C160.08 190.042 162.772 189.877 163.304 191.834C163.88 193.947 160.996 195.723 159.632 196.74C158.269 197.757 156.409 198.874 155.745 200.489C154.945 202.454 157.589 203.073 158.989 203.149C162.968 203.362 166.876 202.048 170.527 200.617C175.771 198.568 180.99 196.318 186.477 194.992C191.069 193.879 198.212 192.774 200.876 197.909C200.928 198.01 200.764 198.199 200.692 198.082C197.816 193.341 191.237 194.321 186.693 195.422C181.146 196.768 175.895 199.058 170.583 201.124C167.036 202.502 163.312 203.703 159.465 203.635C157.709 203.603 154.165 202.856 155.261 200.296C155.829 198.966 157.181 197.982 158.285 197.13C159.644 196.081 161.184 195.121 162.256 193.743C162.94 192.867 163.156 191.593 161.988 190.986C160.992 190.464 159.616 190.641 158.573 190.898C156.973 191.3 155.457 192.224 153.993 192.963C152.641 193.646 151.281 194.305 149.886 194.888C148.262 195.563 146.638 195.932 144.882 195.639C143.73 195.446 142.006 195.024 141.535 193.791C141.439 193.546 141.85 193.389 141.934 193.622L141.946 193.614Z" fill="#F48462"/>
<path d="M114.046 112.794C116.093 115.249 119.473 118.568 121.393 120.987C122.409 122.252 122.958 123.83 122.949 125.455C122.949 126.661 122.605 127.665 121.433 127.151C120.585 126.781 120.045 126.347 118.809 125.118C117.697 124.013 112.322 118.954 112.322 118.954C112.322 118.954 111.314 112.734 109.654 112.228C107.994 111.721 106.579 109.057 106.579 109.057C109.294 108.784 111.454 109.676 114.046 112.794Z" fill="#9A4A4D"/>
<path d="M143.486 180.101C143.486 180.101 143.486 180.069 143.486 180.053L118.317 86.287V86.2629C118.311 86.2395 118.303 86.2167 118.293 86.1946C118.252 86.0604 118.191 85.9331 118.113 85.8169C118.03 85.6852 117.934 85.5626 117.825 85.4512C117.403 85.0546 116.884 84.7774 116.321 84.6476C114.082 84.0489 110.942 84.9047 109.31 86.5522C108.754 87.049 108.408 87.7403 108.342 88.4849C108.337 88.6533 108.359 88.8214 108.406 88.9831L133.307 181.825L133.567 182.797C133.759 183.525 134.439 184.115 135.567 184.405C137.815 184.999 140.963 184.147 142.594 182.5C143.394 181.708 143.686 180.837 143.486 180.101Z" fill="#E6E6E6"/>
<path d="M142.642 193.477L142.01 190.958C141.989 190.884 141.946 190.817 141.888 190.767C141.83 190.716 141.759 190.684 141.682 190.673C141.478 190.629 141.267 190.635 141.065 190.689C140.863 190.744 140.678 190.845 140.523 190.986C140.465 191.035 140.422 191.097 140.396 191.167C140.37 191.238 140.363 191.314 140.375 191.388L140.995 193.879C141.064 194.08 141.206 194.247 141.392 194.349C141.577 194.45 141.794 194.479 142 194.429C142.205 194.379 142.385 194.253 142.504 194.078C142.623 193.902 142.672 193.688 142.642 193.477Z" fill="#455A64"/>
<path d="M142.662 193.622C142.662 193.574 142.662 193.518 142.662 193.469C142.662 193.421 142.662 193.469 142.662 193.469C142.478 193.984 141.462 194.321 141.038 193.948C141.036 193.964 141.036 193.98 141.038 193.996V194.044C141.077 194.129 141.131 194.205 141.198 194.269C141.358 194.428 141.574 194.517 141.798 194.517C142.023 194.517 142.239 194.428 142.398 194.269C142.487 194.187 142.556 194.087 142.602 193.975C142.647 193.863 142.668 193.743 142.662 193.622Z" fill="#263238"/>
<path d="M142.666 188.844C142.132 189.329 141.491 189.68 140.796 189.869C140.101 190.057 139.371 190.078 138.667 189.929C138.26 189.849 137.899 189.618 137.655 189.282L133.935 183.492C134.368 183.968 134.937 184.296 135.563 184.433C137.811 185.031 140.955 184.179 142.59 182.528C143.081 182.078 143.413 181.48 143.534 180.824L143.23 187.699C143.234 187.745 143.234 187.79 143.23 187.836C143.165 188.228 142.966 188.585 142.666 188.844Z" fill="#E0E0E0"/>
<path opacity="0.1" d="M142.418 185.815C141.753 186.417 140.956 186.853 140.091 187.087C139.227 187.322 138.32 187.348 137.443 187.165C136.643 186.952 136.175 186.534 136.043 186.016C135.911 185.497 136.083 184.879 136.671 184.284C137.334 183.68 138.131 183.242 138.995 183.007C139.859 182.771 140.766 182.745 141.642 182.93C142.442 183.143 142.93 183.569 143.062 184.099C143.194 184.63 142.994 185.236 142.418 185.815Z" fill="black"/>
<path d="M142.666 188.844C142.132 189.329 141.491 189.68 140.796 189.869C140.101 190.057 139.371 190.078 138.667 189.929C138.26 189.849 137.899 189.618 137.655 189.282L133.935 183.492C134.368 183.968 134.937 184.296 135.563 184.433C137.811 185.031 140.955 184.179 142.59 182.528C143.081 182.078 143.413 181.48 143.534 180.824L143.23 187.699C143.234 187.745 143.234 187.79 143.23 187.836C143.165 188.228 142.966 188.585 142.666 188.844Z" fill="#E0E0E0"/>
<path d="M142.798 190.858L143.078 184.581C143.078 184.525 143.078 184.469 143.078 184.413C143.078 183.75 142.57 183.207 141.619 182.934C140.745 182.751 139.841 182.778 138.98 183.013C138.119 183.248 137.325 183.683 136.663 184.284C135.995 184.955 135.831 185.666 136.111 186.233C136.116 186.246 136.123 186.258 136.131 186.269L136.223 186.418L139.643 191.742C139.781 191.932 139.985 192.064 140.215 192.111C140.612 192.193 141.024 192.18 141.415 192.073C141.807 191.967 142.168 191.769 142.47 191.497C142.566 191.418 142.644 191.321 142.7 191.211C142.756 191.101 142.79 190.981 142.798 190.858Z" fill="#D27052"/>
<path opacity="0.1" d="M143.46 191.891L143.74 185.615C143.74 185.559 143.74 185.502 143.74 185.446C143.74 184.783 143.232 184.241 142.28 183.967C141.407 183.785 140.503 183.812 139.642 184.046C138.781 184.281 137.987 184.717 137.325 185.318C136.657 185.989 136.493 186.7 136.773 187.266C136.778 187.279 136.785 187.291 136.793 187.302L136.885 187.451L140.304 192.775C140.443 192.965 140.647 193.097 140.876 193.145C141.274 193.227 141.685 193.214 142.077 193.107C142.469 193 142.83 192.803 143.132 192.53C143.227 192.452 143.305 192.354 143.362 192.245C143.418 192.135 143.452 192.014 143.46 191.891Z" fill="black"/>
<path d="M142.418 185.815C141.753 186.417 140.956 186.853 140.091 187.087C139.227 187.322 138.32 187.348 137.443 187.165C136.643 186.952 136.175 186.534 136.043 186.016C135.911 185.497 136.083 184.879 136.671 184.284C137.334 183.68 138.131 183.242 138.995 183.007C139.859 182.771 140.766 182.745 141.642 182.93C142.442 183.143 142.93 183.569 143.062 184.099C143.194 184.63 142.994 185.236 142.418 185.815Z" fill="#27DEBF"/>
<path d="M142.418 185.815C141.753 186.417 140.956 186.853 140.091 187.087C139.227 187.322 138.32 187.348 137.443 187.165C136.643 186.952 136.175 186.534 136.043 186.016C135.911 185.497 136.083 184.879 136.671 184.284C137.334 183.68 138.131 183.242 138.995 183.007C139.859 182.771 140.766 182.745 141.642 182.93C142.442 183.143 142.93 183.569 143.062 184.099C143.194 184.63 142.994 185.236 142.418 185.815Z" fill="#F48462"/>
<path opacity="0.05" d="M143.698 184.901C143.618 184.65 143.478 184.423 143.29 184.24C143.103 184.056 142.873 183.922 142.622 183.848C141.005 185.008 139.031 185.555 137.05 185.391C136.88 185.582 136.758 185.811 136.694 186.059C136.63 186.307 136.626 186.567 136.682 186.817C136.814 187.336 137.298 187.753 138.082 187.966C138.959 188.15 139.866 188.123 140.731 187.889C141.595 187.654 142.392 187.218 143.058 186.616C143.634 186.038 143.838 185.439 143.698 184.901Z" fill="black"/>
<path d="M142.494 191.497C142.192 191.769 141.83 191.967 141.437 192.074C141.045 192.181 140.633 192.194 140.235 192.111C140.006 192.061 139.804 191.928 139.667 191.738L138.011 189.166C138.234 189.404 138.524 189.57 138.843 189.64C139.477 189.772 140.133 189.753 140.758 189.583C141.384 189.414 141.961 189.099 142.442 188.664C142.695 188.433 142.866 188.125 142.926 187.788L142.794 190.858C142.79 190.979 142.761 191.098 142.709 191.208C142.657 191.318 142.584 191.416 142.494 191.497Z" fill="#F48462"/>
<path d="M117.897 97.7384C117.841 97.5865 117.745 97.4524 117.62 97.35C117.495 97.2476 117.345 97.1805 117.185 97.1558C116.748 97.0648 116.295 97.0788 115.864 97.1968C115.434 97.3148 115.036 97.5334 114.706 97.8348C114.58 97.9365 114.483 98.0704 114.427 98.2225C114.371 98.3746 114.356 98.5391 114.386 98.6987L118.485 113.919C118.479 113.774 118.507 113.63 118.565 113.497C118.623 113.364 118.711 113.246 118.821 113.152C119.155 112.85 119.555 112.631 119.988 112.513C120.422 112.395 120.877 112.381 121.317 112.473C121.463 112.497 121.601 112.556 121.72 112.645C121.839 112.733 121.935 112.849 122.001 112.983L117.897 97.7384Z" fill="#FAFAFA"/>
<path d="M117.577 98.5982C117.245 98.8982 116.847 99.1155 116.415 99.2327C115.984 99.35 115.531 99.3639 115.093 99.2733C114.937 99.248 114.789 99.1816 114.666 99.0807C114.544 98.9798 114.449 98.848 114.394 98.6987C114.363 98.5398 114.375 98.3755 114.43 98.2233C114.485 98.0711 114.58 97.9368 114.705 97.8348C115.036 97.5334 115.433 97.3148 115.864 97.1968C116.295 97.0788 116.748 97.0648 117.185 97.1558C117.345 97.1719 117.497 97.2363 117.62 97.3405C117.744 97.4447 117.833 97.5838 117.876 97.7397C117.919 97.8956 117.914 98.0609 117.863 98.2141C117.811 98.3673 117.714 98.5012 117.585 98.5982H117.577Z" fill="#E0E0E0"/>
<path d="M119.025 90.972V90.9238C119.025 90.9238 119.025 90.8836 119.025 90.8595L117.845 86.4878L117.809 86.3512V86.315C117.597 85.6962 117.009 85.194 116.045 84.9408C114.046 84.4024 111.202 85.1699 109.734 86.6566C108.994 87.4039 108.738 88.1874 108.934 88.8544L110.134 93.2984C110.135 93.3091 110.135 93.3199 110.134 93.3306V93.3668C110.33 94.0056 110.934 94.528 111.918 94.7892C113.918 95.3276 116.761 94.5601 118.229 93.0734C118.901 92.3662 119.165 91.6149 119.025 90.972Z" fill="#F48462"/>
<path opacity="0.05" d="M118.268 91.1348V91.0866C118.268 91.0866 118.268 91.0464 118.268 91.0223L117.088 86.6506L117.052 86.514V86.4779C116.84 85.8591 116.252 85.3568 115.289 85.1037C113.289 84.5652 110.445 85.3327 108.977 86.8194C108.237 87.5668 107.981 88.3503 108.177 89.0173L109.377 93.4613C109.379 93.472 109.379 93.4828 109.377 93.4934V93.5296C109.573 94.1685 110.177 94.6908 111.161 94.952C113.161 95.4904 116.004 94.723 117.472 93.2363C118.144 92.5291 118.408 91.7777 118.268 91.1348Z" fill="black"/>
<path d="M141.243 184.638L139.535 178.297L122.069 113.108C122.069 113.108 122.069 113.108 122.069 113.083L122.033 112.947C121.967 112.813 121.871 112.697 121.752 112.609C121.633 112.52 121.495 112.461 121.349 112.437C120.908 112.344 120.451 112.357 120.016 112.475C119.581 112.593 119.18 112.812 118.845 113.116C118.735 113.209 118.648 113.326 118.589 113.458C118.531 113.591 118.504 113.734 118.509 113.879L118.557 114.052L136.043 179.229L137.747 185.578C137.803 185.727 137.897 185.859 138.02 185.96C138.143 186.061 138.29 186.127 138.447 186.152C139.088 186.289 139.757 186.197 140.339 185.891C140.418 185.854 140.496 185.813 140.571 185.767C140.7 185.683 140.821 185.586 140.931 185.477C141.05 185.376 141.142 185.246 141.197 185.099C141.252 184.952 141.267 184.793 141.243 184.638Z" fill="#455A64"/>
<path d="M121.737 113.859C121.404 114.159 121.006 114.377 120.575 114.494C120.144 114.611 119.691 114.625 119.253 114.534C119.096 114.509 118.949 114.442 118.826 114.341C118.703 114.24 118.609 114.109 118.553 113.959C118.523 113.8 118.537 113.636 118.592 113.484C118.648 113.331 118.744 113.197 118.869 113.095C119.199 112.792 119.596 112.573 120.027 112.455C120.459 112.338 120.912 112.326 121.349 112.42C121.509 112.444 121.66 112.51 121.785 112.613C121.911 112.715 122.006 112.85 122.061 113.003C122.087 113.162 122.07 113.324 122.013 113.475C121.957 113.625 121.861 113.758 121.737 113.859Z" fill="#263238"/>
<path d="M141.243 184.638L140.983 183.677C139.893 184.239 138.698 184.563 137.475 184.63L137.731 185.594C137.787 185.743 137.881 185.875 138.004 185.976C138.127 186.077 138.274 186.143 138.431 186.168C139.073 186.305 139.742 186.213 140.323 185.907C140.542 185.81 140.743 185.674 140.915 185.505C141.042 185.404 141.14 185.27 141.197 185.117C141.255 184.964 141.271 184.799 141.243 184.638Z" fill="#263238"/>
<path d="M117.401 88.7299C115.765 90.3773 112.622 91.2332 110.374 90.6345C109.266 90.3331 108.582 89.7424 108.394 89.0272C108.206 88.312 108.45 87.42 109.282 86.5802C110.906 84.9207 114.05 84.0689 116.297 84.6676C117.425 84.969 118.117 85.5677 118.297 86.315C118.477 87.0624 118.213 87.9102 117.401 88.7299Z" fill="#E0E0E0"/>
<path d="M117.245 88.2357C115.609 89.8831 112.466 90.7389 110.218 90.1403C109.11 89.8389 108.426 89.2482 108.218 88.533V88.5009L107.95 87.5285C107.953 87.5099 107.953 87.4909 107.95 87.4722C107.95 87.42 107.95 87.3678 107.922 87.3155C107.916 87.2447 107.916 87.1734 107.922 87.1026C107.922 87.0584 107.922 87.0142 107.922 86.966C107.92 86.9623 107.919 86.9581 107.919 86.9539C107.919 86.9497 107.92 86.9455 107.922 86.9419C107.916 86.8965 107.916 86.8506 107.922 86.8052C107.949 86.5986 108.006 86.397 108.09 86.2065C108.113 86.1484 108.14 86.092 108.17 86.0378C108.181 86.0077 108.196 85.9793 108.214 85.9534C108.238 85.9043 108.266 85.8573 108.298 85.8128C108.458 85.5519 108.648 85.3117 108.866 85.0976C110.498 83.4501 113.638 82.5943 115.877 83.189C116.439 83.3233 116.956 83.6 117.381 83.9926C117.435 84.045 117.484 84.1014 117.529 84.1613L117.653 84.3341C117.677 84.3704 117.698 84.4079 117.717 84.4466L117.757 84.519C117.777 84.5672 117.801 84.6154 117.817 84.6676V84.6998C117.817 84.748 117.853 84.7962 117.865 84.8484L118.097 85.6963C118.114 85.7332 118.126 85.7724 118.133 85.8128C118.369 86.5441 118.077 87.3999 117.245 88.2357Z" fill="#F48462"/>
<path opacity="0.3" d="M116.989 87.2592C115.357 88.9066 112.21 89.7585 109.966 89.1638C108.854 88.8584 108.174 88.2678 107.986 87.5566C107.798 86.8454 108.042 85.9493 108.874 85.1095C110.494 83.4541 113.642 82.6023 115.885 83.1969C117.013 83.4983 117.705 84.101 117.885 84.8443C118.065 85.5877 117.801 86.4395 116.989 87.2592Z" fill="#7D2910"/>
<path d="M104.295 106.787C103.239 106.788 102.194 106.579 101.219 106.174C100.244 105.768 99.3581 105.174 98.6119 104.424C97.8656 103.674 97.2738 102.784 96.8702 101.805C96.4666 100.825 96.2591 99.7751 96.2596 98.7149V98.2689C96.2596 96.4572 96.976 94.7198 98.2511 93.4388C99.5262 92.1578 101.256 91.4381 103.059 91.4381H105.511C107.314 91.4381 109.043 92.1578 110.318 93.4388C111.593 94.7198 112.31 96.4572 112.31 98.2689V98.7149C112.311 100.853 111.467 102.903 109.965 104.417C108.462 105.93 106.423 106.783 104.295 106.787Z" fill="#263238"/>
<path d="M93 107.607C93.9671 107.606 94.8942 107.219 95.5781 106.532C96.2619 105.845 96.6465 104.914 96.6476 103.942V96.6415C95.6802 96.6415 94.7524 97.0276 94.0683 97.7148C93.3843 98.402 93 99.3341 93 100.306V107.607Z" fill="#263238"/>
<path d="M112.562 186.622C113.495 187.611 114.521 188.507 115.625 189.299C115.8 189.411 115.946 189.562 116.053 189.741C116.197 190.046 116.421 190.793 115.049 191.271C114.358 191.514 113.622 191.604 112.892 191.535C112.162 191.465 111.456 191.239 110.822 190.87C109.694 190.162 109.646 188.688 108.582 187.848C107.782 187.225 106.814 187.068 106.182 186.241C105.738 185.674 105.854 184.923 106.086 183.991C106.338 182.97 106.454 182.203 106.79 182.279L106.734 182.749C107.134 183.42 109.322 183.617 110.286 183.151C110.282 183.163 111.954 185.951 112.562 186.622Z" fill="#263238"/>
<path d="M113.514 187.575C113.186 187.273 112.866 186.964 112.562 186.631C111.92 185.792 111.328 184.916 110.79 184.007C110.378 183.445 110.117 182.787 110.034 182.094C110.01 181.194 110.098 179.591 110.098 179.591L106.898 179.378L106.742 182.765C106.658 183.529 107.29 184.212 108.406 185.176C109.522 186.14 110.946 188.39 111.958 188.969C112.97 189.548 113.694 189.516 114.126 189.226C114.557 188.937 114.601 188.692 113.514 187.575Z" fill="#B16668"/>
<path d="M101.863 189.861C102.799 190.848 103.827 191.744 104.931 192.537C105.105 192.649 105.25 192.8 105.354 192.979C105.498 193.28 105.726 194.028 104.355 194.51C103.662 194.753 102.925 194.842 102.195 194.773C101.465 194.704 100.758 194.477 100.123 194.108C98.9992 193.397 98.9472 191.926 97.8873 191.087C97.0874 190.464 96.1155 190.303 95.4876 189.479C95.0476 188.913 95.1596 188.161 95.3916 187.229C95.6436 186.209 95.7596 185.441 96.0955 185.517L96.0395 185.988C96.4595 186.659 98.6272 186.855 99.5951 186.389C99.5871 186.389 101.247 189.178 101.863 189.861Z" fill="#263238"/>
<path d="M102.815 190.801C102.491 190.5 102.171 190.191 101.863 189.853C101.222 189.016 100.631 188.141 100.095 187.233C99.6973 186.651 99.4398 185.984 99.3433 185.284C99.2833 184.481 99.3233 182.849 99.3233 182.849L96.1236 182.87L96.0437 185.988C95.9637 186.755 96.5916 187.438 97.7115 188.398C98.8313 189.359 100.251 191.613 101.263 192.192C102.275 192.77 102.999 192.738 103.431 192.449C103.863 192.159 103.907 191.918 102.815 190.801Z" fill="#B16668"/>
<path d="M96.0756 130.566C93.2759 136.71 96.4756 160.003 96.4756 160.003C96.3916 160.999 95.5157 162.546 95.4117 165.596C95.2797 169.501 95.9716 183.938 95.9716 183.938C96.5339 184.238 97.1584 184.401 97.7948 184.414C98.4312 184.426 99.0617 184.288 99.6352 184.011C99.6352 184.011 102.951 164.419 103.599 159.263C104.163 154.763 105.247 144.188 105.247 144.188L107.478 159.239C107.478 159.239 106.33 161.751 106.278 164.017C106.198 167.063 106.646 181.194 106.646 181.194C106.646 181.194 108.002 181.672 110.37 181.323C110.37 181.323 113.742 162.201 114.058 158.548C114.25 156.37 112.626 129.646 112.626 129.646L96.0756 130.566Z" fill="#37474F"/>
<path d="M105.247 144.188L106.154 139.165C106.154 139.165 110.002 138.361 111.754 136.718C111.754 136.718 109.926 139.004 107.206 139.756L106.186 144.147L107.194 157.278L105.247 144.188Z" fill="#263238"/>
<path d="M101.539 109.202C99.0833 109.54 97.7634 110.086 96.9715 112.417C96.4516 113.935 96.5956 116.165 97.1155 117.684L99.2473 123.965C97.9459 126.038 96.8731 128.248 96.0476 130.554C102.323 134.074 110.686 132.202 112.574 129.634C112.654 129.088 112.146 126.452 112.298 123.659C112.462 120.682 112.938 117.258 112.47 115.418C111.606 111.999 109.23 109.765 106.554 109.045L101.539 109.202Z" fill="#F5F5F5"/>
<path d="M109.686 94.6926C110.538 95.1989 111.586 97.3405 111.482 101.837C111.394 105.646 110.166 106.586 109.546 106.859C108.926 107.133 107.738 106.964 106.582 106.771V109.057C106.582 109.057 108.182 110.922 108.082 111.97C107.982 113.019 105.77 113.268 104.275 112.244C103.305 111.542 102.472 110.666 101.819 109.66V104.135C101.819 104.135 101.039 105.184 99.7592 104.328C98.4793 103.472 98.4353 101.367 99.1792 100.611C99.9231 99.8559 101.523 100.093 101.819 101.138C101.819 101.138 103.667 101.206 106.122 99.8519C107.078 99.3334 107.898 98.5962 108.518 97.6998C109.137 96.8035 109.537 95.7733 109.686 94.6926Z" fill="#B16668"/>
<path d="M107.246 100.881C107.251 100.945 107.243 101.009 107.222 101.069C107.202 101.13 107.17 101.186 107.128 101.234C107.086 101.282 107.035 101.322 106.977 101.35C106.92 101.378 106.858 101.395 106.794 101.399C106.666 101.401 106.542 101.353 106.448 101.264C106.355 101.176 106.3 101.054 106.295 100.925C106.292 100.862 106.301 100.799 106.322 100.74C106.344 100.681 106.376 100.627 106.418 100.58C106.461 100.534 106.511 100.496 106.568 100.469C106.625 100.443 106.686 100.427 106.748 100.425C106.811 100.422 106.873 100.431 106.932 100.453C106.991 100.474 107.045 100.507 107.091 100.549C107.138 100.591 107.175 100.642 107.202 100.699C107.228 100.756 107.244 100.818 107.246 100.881Z" fill="#263238"/>
<path d="M107.374 104.107L108.482 104.465C108.462 104.539 108.428 104.609 108.381 104.67C108.333 104.731 108.274 104.782 108.207 104.819C108.14 104.857 108.066 104.88 107.99 104.889C107.913 104.897 107.836 104.889 107.762 104.867C107.612 104.815 107.488 104.707 107.416 104.566C107.343 104.424 107.329 104.26 107.374 104.107Z" fill="#9A4A4D"/>
<path d="M111.158 99.4101L110.194 98.7351C110.235 98.67 110.288 98.6139 110.351 98.5702C110.413 98.5264 110.484 98.4959 110.559 98.4805C110.634 98.4651 110.711 98.4651 110.786 98.4806C110.86 98.496 110.931 98.5265 110.994 98.5703C111.123 98.6627 111.212 98.8013 111.242 98.9574C111.273 99.1136 111.243 99.2756 111.158 99.4101Z" fill="#263238"/>
<path d="M110.934 100.535C110.938 100.599 110.93 100.663 110.91 100.724C110.889 100.784 110.857 100.84 110.815 100.889C110.773 100.937 110.722 100.976 110.665 101.004C110.608 101.033 110.546 101.049 110.482 101.053C110.383 101.062 110.285 101.041 110.198 100.993C110.111 100.944 110.041 100.871 109.996 100.783C109.952 100.694 109.934 100.594 109.947 100.495C109.959 100.396 110 100.304 110.066 100.229C110.131 100.154 110.217 100.1 110.313 100.075C110.408 100.05 110.509 100.054 110.603 100.087C110.696 100.12 110.778 100.18 110.837 100.26C110.896 100.34 110.93 100.436 110.934 100.535Z" fill="#263238"/>
<path d="M108.686 100.258L108.762 103.143L110.274 102.673L108.686 100.258Z" fill="#9A4A4D"/>
<path d="M106.582 106.771C105.383 106.61 102.855 105.887 102.463 104.891C102.62 105.394 102.927 105.837 103.343 106.16C104.091 106.807 106.582 107.535 106.582 107.535V106.771Z" fill="#9A4A4D"/>
<path d="M125.88 127.765C125.136 128.051 124.389 128.067 123.373 128.569C122.702 128.952 121.948 129.167 121.177 129.196C120.177 129.244 117.381 128.047 114.922 126.898C112.022 125.543 108.922 123.092 107.75 121.742C105.351 119.01 103.283 115.587 102.219 113.758C101.347 112.256 100.443 110.07 99.0634 109.793C96.6637 110.046 95.6638 114.277 97.2316 116.889C98.7994 119.5 101.587 122.916 104.559 125.813C106.003 127.219 108.642 128.738 112.422 130.365C114.891 131.438 117.44 132.314 120.045 132.985C120.805 133.186 121.337 133.467 122.761 133.957C123.335 134.195 123.942 134.347 124.561 134.407C125.331 134.436 126.102 134.352 126.848 134.158C127.794 133.921 128.657 133.43 129.348 132.74C129.729 132.36 130.017 131.897 130.188 131.386C130.354 130.87 130.334 130.313 130.132 129.811C130.094 129.709 130.03 129.619 129.948 129.55C129.863 129.501 129.77 129.471 129.673 129.459C129.576 129.447 129.478 129.455 129.384 129.481C128.304 129.638 127.16 129.971 126.072 130.012C125.156 130.048 124.501 129.947 124.617 129.803C124.733 129.658 125.276 129.674 125.972 129.276C126.668 128.879 127.068 128.127 126.824 127.77C126.58 127.412 126.628 127.484 125.88 127.765Z" fill="#B16668"/>
<path d="M125.912 117.644C125.912 117.644 124.912 116.841 123.013 117.158C122.097 117.311 122.449 120.806 125.412 121.779C127.336 122.414 127.728 122.088 128.348 123.675C128.348 123.675 129.508 123.434 129.224 121.666C128.917 119.832 128.102 118.122 126.872 116.732C126.024 115.727 125.968 114.884 125.552 115.169C125.136 115.454 125.372 116.322 125.372 116.322L125.912 117.644Z" fill="#B16668"/>
</g>
<defs>
<linearGradient id="paint0_linear_1000_96" x1="71.5" y1="60.5" x2="278" y2="236.5" gradientUnits="userSpaceOnUse">
<stop stop-color="white"/>
<stop offset="0.301269" stop-color="#D5D5D5" stop-opacity="0.486446"/>
<stop offset="1" stop-color="white"/>
</linearGradient>
<clipPath id="clip0_1000_96">
<rect width="380" height="358" fill="white"/>
</clipPath>
</defs>
</svg>
