<svg width="380" height="358" viewBox="0 0 380 358" fill="none" xmlns="http://www.w3.org/2000/svg">
<g clip-path="url(#clip0_181_2611)">
<path d="M22.4101 164.256L23.9935 193.383C24.0521 194.423 24.8983 195.237 25.9371 195.245L78.2804 195.631C79.3611 195.631 80.2491 194.767 80.2575 193.677L80.4251 171.001C80.4251 169.911 79.5538 169.021 78.4647 169.021L46.2696 168.996C45.7501 168.996 45.2475 168.786 44.8789 168.417L39.3245 162.855C38.9559 162.486 38.47 162.285 37.9506 162.277L24.3789 162.176C23.2479 162.176 22.3431 163.115 22.4017 164.248L22.4101 164.256Z" fill="#EBEBEB"/>
<path d="M80.4688 165.597L23.2764 165.177L23.0259 199.395L80.2183 199.814L80.4688 165.597Z" fill="#F5F5F5"/>
<path d="M18.7072 168.216L22.8122 203.936C22.8876 204.574 23.4154 205.052 24.0605 205.06L79.7967 205.471C80.4586 205.471 81.0115 204.977 81.0618 204.314L84.128 168.644C84.195 167.906 83.6169 167.276 82.8797 167.268L19.9722 166.807C19.2099 166.807 18.6234 167.461 18.7072 168.216Z" fill="#EBEBEB"/>
<path d="M260.058 169.29L261.423 194.373C261.473 195.27 262.202 195.967 263.099 195.975L308.17 196.302C309.1 196.302 309.871 195.556 309.871 194.624L310.013 175.103C310.013 174.164 309.259 173.4 308.321 173.4L280.6 173.375C280.156 173.375 279.72 173.199 279.402 172.88L274.618 168.09C274.308 167.78 273.881 167.595 273.437 167.595L261.75 167.511C260.778 167.511 259.999 168.325 260.049 169.298L260.058 169.29Z" fill="#EBEBEB"/>
<path d="M310.04 170.436L260.798 170.075L260.582 199.544L309.825 199.906L310.04 170.436Z" fill="#F5F5F5"/>
<path d="M256.866 172.696L260.401 203.45C260.46 203.995 260.921 204.406 261.473 204.414L309.469 204.767C310.038 204.767 310.508 204.339 310.558 203.768L313.197 173.056C313.247 172.427 312.753 171.882 312.125 171.874L257.955 171.479C257.301 171.479 256.79 172.041 256.866 172.696Z" fill="#EBEBEB"/>
<path d="M350.05 4.92432H269.952V137.688H350.05V4.92432Z" fill="#E0E0E0"/>
<path d="M347.386 4.92432H267.288V137.688H347.386V4.92432Z" fill="#EBEBEB"/>
<path d="M343.985 7.61719H270.706V134.996H343.985V7.61719Z" fill="white"/>
<path d="M329.709 24.1687H284.654V118.444H329.709V24.1687Z" fill="#EBEBEB"/>
<path d="M284.654 85.0895C284.554 76.281 292.454 67.6823 301.167 66.4575C305.322 65.8703 309.729 66.6924 313.616 65.1069C320.544 62.2631 322.747 53.0519 329.718 50.3171L330.036 118.461H284.663V85.0979L284.654 85.0895Z" fill="#E0E0E0"/>
<path d="M345.426 175.019C345.426 175.019 338.79 174.541 339.402 189.44C340.014 204.339 341.53 212.283 341.53 212.283C341.53 212.283 341.337 215.589 338.782 214.943C336.227 214.297 331.418 211.075 329.047 213.483C326.584 215.974 327.464 219.8 330.723 224.305C333.99 228.81 340.784 238.935 341.396 239.858C341.999 240.756 342.234 242.45 340.424 242.291C338.615 242.131 326.383 237.979 324.766 243.91C323.149 249.841 334.308 260.889 335.506 262.122C336.704 263.355 336.771 264.127 336.286 264.874C335.8 265.621 331.82 263.834 328.293 262.802C324.766 261.762 320.494 261.183 319.849 264.681C319.204 268.179 324.113 278.422 342.518 289.177L351.374 293.606L359.751 288.254C376.992 275.704 380.854 265.025 379.866 261.611C378.869 258.196 374.68 259.203 371.279 260.587C367.877 261.971 364.091 264.144 363.538 263.456C362.977 262.76 362.968 261.98 364.032 260.637C365.096 259.295 375.099 247.182 372.896 241.443C370.692 235.705 358.939 241.058 357.154 241.402C355.37 241.745 355.437 240.042 355.948 239.078C356.467 238.105 362.214 227.342 365.012 222.535C367.81 217.728 368.305 213.835 365.599 211.604C362.993 209.448 358.536 213.131 356.057 214.028C353.577 214.926 353.058 211.663 353.058 211.663C353.058 211.663 353.778 203.609 352.898 188.727C352.019 173.845 345.308 175.036 345.308 175.036" fill="#EBEBEB"/>
<path d="M345.945 188.366C345.945 188.366 345.962 188.475 345.978 188.677C345.995 188.895 346.02 189.197 346.045 189.591C346.104 190.413 346.18 191.596 346.28 193.106C346.481 196.16 346.741 200.589 347.042 206.059C347.646 216.998 348.358 232.115 349.087 248.809C349.815 265.511 350.486 280.628 351.03 291.568C351.307 297.029 351.533 301.45 351.692 304.52C351.767 306.039 351.826 307.222 351.868 308.044C351.885 308.438 351.893 308.74 351.901 308.958C351.901 309.168 351.901 309.268 351.901 309.268C351.901 309.268 351.885 309.159 351.868 308.958C351.851 308.74 351.826 308.438 351.801 308.044C351.742 307.222 351.667 306.039 351.566 304.529C351.365 301.475 351.106 297.046 350.804 291.576C350.201 280.637 349.489 265.52 348.76 248.817C348.031 232.123 347.361 217.006 346.816 206.067C346.54 200.606 346.314 196.185 346.154 193.115C346.079 191.596 346.02 190.413 345.978 189.591C345.962 189.197 345.953 188.895 345.945 188.677C345.945 188.467 345.945 188.366 345.945 188.366Z" fill="#E0E0E0"/>
<path d="M335.582 218.248C335.582 218.248 335.791 218.399 336.135 218.709C336.478 219.02 336.956 219.481 337.542 220.06C338.707 221.218 340.282 222.862 341.982 224.707C343.649 226.528 345.149 228.18 346.314 229.456C346.833 230.018 347.269 230.496 347.629 230.89C347.939 231.226 348.106 231.419 348.09 231.435C348.073 231.452 347.88 231.293 347.537 230.982C347.193 230.672 346.716 230.211 346.138 229.623C344.982 228.449 343.432 226.788 341.731 224.942C340.055 223.13 338.539 221.494 337.366 220.228C336.847 219.666 336.403 219.196 336.043 218.802C335.733 218.458 335.565 218.265 335.582 218.248Z" fill="#E0E0E0"/>
<path d="M348.969 231.142C348.902 231.075 352.144 227.677 356.199 223.558C360.262 219.431 363.605 216.151 363.672 216.209C363.739 216.277 360.505 219.674 356.442 223.793C352.379 227.912 349.036 231.201 348.969 231.142Z" fill="#E0E0E0"/>
<path d="M348.936 256.837C348.936 256.837 349.145 256.678 349.556 256.443C350.025 256.175 350.603 255.856 351.29 255.47C352.747 254.648 354.766 253.507 356.945 252.165C359.123 250.831 361.058 249.556 362.449 248.616C363.102 248.18 363.647 247.811 364.099 247.509C364.493 247.249 364.711 247.114 364.727 247.14C364.744 247.165 364.543 247.333 364.175 247.618C363.806 247.911 363.261 248.322 362.583 248.809C361.226 249.799 359.307 251.108 357.112 252.45C354.926 253.792 352.89 254.908 351.399 255.68C350.653 256.065 350.042 256.359 349.614 256.56C349.187 256.762 348.944 256.854 348.936 256.837Z" fill="#E0E0E0"/>
<path d="M334.266 247.844C334.266 247.844 334.493 247.928 334.878 248.129C335.263 248.331 335.808 248.641 336.487 249.019C337.835 249.782 339.687 250.864 341.714 252.072C343.75 253.28 345.576 254.396 346.892 255.218C347.553 255.629 348.081 255.965 348.441 256.208C348.802 256.451 348.994 256.586 348.986 256.611C348.978 256.628 348.76 256.527 348.374 256.325C347.989 256.124 347.445 255.814 346.766 255.436C345.417 254.673 343.566 253.591 341.538 252.383C339.503 251.175 337.676 250.059 336.361 249.237C335.699 248.826 335.171 248.49 334.811 248.247C334.451 248.004 334.258 247.869 334.266 247.844Z" fill="#E0E0E0"/>
<path d="M331.351 270.52C331.351 270.52 331.636 270.637 332.13 270.897C332.675 271.199 333.37 271.577 334.191 272.038C335.925 273.011 338.305 274.379 340.927 275.905C343.549 277.432 345.911 278.833 347.612 279.857C348.416 280.352 349.087 280.763 349.623 281.09C350.092 281.383 350.343 281.56 350.335 281.585C350.326 281.601 350.05 281.467 349.556 281.207C349.011 280.905 348.316 280.528 347.495 280.066C345.761 279.093 343.381 277.726 340.759 276.199C338.137 274.672 335.775 273.271 334.074 272.248C333.27 271.753 332.599 271.342 332.063 271.015C331.594 270.721 331.343 270.545 331.351 270.52Z" fill="#E0E0E0"/>
<path d="M349.949 281.19C349.949 281.19 350.209 280.989 350.72 280.67C351.281 280.326 352.01 279.89 352.873 279.362C354.691 278.254 357.196 276.711 359.91 274.941C362.633 273.171 365.054 271.501 366.797 270.285C367.626 269.706 368.321 269.219 368.866 268.842C369.36 268.506 369.637 268.33 369.645 268.347C369.662 268.364 369.411 268.582 368.941 268.951C368.472 269.32 367.794 269.849 366.931 270.478C365.222 271.744 362.817 273.447 360.086 275.226C357.364 277.004 354.834 278.514 352.982 279.571C352.052 280.1 351.298 280.511 350.77 280.788C350.243 281.065 349.949 281.207 349.933 281.19H349.949Z" fill="#E0E0E0"/>
<path d="M363.261 296.492H338.765L346.758 357.094H355.269L363.261 296.492Z" fill="#E0E0E0"/>
<path d="M340.039 303.941C340.039 303.941 340.064 304.025 340.173 304.16C340.273 304.285 340.466 304.453 340.768 304.579C341.346 304.831 342.368 304.856 343.356 304.26C344.345 303.715 345.208 302.641 346.531 302.163C347.847 301.66 349.472 301.752 351.038 302.255C352.622 302.742 353.987 303.547 355.236 304.294C356.484 305.032 357.623 305.695 358.645 306.123C359.659 306.567 360.547 306.768 361.159 306.852C361.469 306.894 361.703 306.903 361.871 306.903C362.03 306.903 362.122 306.903 362.122 306.886C362.139 306.802 360.74 306.819 358.763 305.871C357.774 305.418 356.66 304.738 355.428 303.983C354.197 303.22 352.789 302.389 351.164 301.886C349.556 301.366 347.821 301.274 346.406 301.836C345.702 302.104 345.107 302.524 344.613 302.943C344.11 303.354 343.666 303.748 343.214 304.034C342.317 304.613 341.379 304.638 340.826 304.445C340.265 304.252 340.081 303.916 340.047 303.95L340.039 303.941Z" fill="#F5F5F5"/>
<path d="M340.927 315.099C340.927 315.099 341.119 314.847 341.505 314.444C341.899 314.058 342.535 313.547 343.465 313.203C344.387 312.85 345.568 312.641 346.875 312.691C348.19 312.733 349.614 313.027 351.139 313.27C352.655 313.522 354.163 313.639 355.504 313.454C356.844 313.278 358.009 312.892 358.939 312.473C359.868 312.054 360.555 311.584 360.999 311.24C361.452 310.896 361.67 310.669 361.653 310.653C361.611 310.585 360.664 311.433 358.821 312.213C357.9 312.59 356.76 312.943 355.453 313.085C354.147 313.245 352.706 313.127 351.198 312.876C349.69 312.632 348.24 312.347 346.883 312.322C345.526 312.288 344.303 312.54 343.356 312.943C342.401 313.337 341.756 313.907 341.387 314.344C341.212 314.57 341.086 314.755 341.019 314.889C340.943 315.023 340.918 315.09 340.927 315.099Z" fill="#F5F5F5"/>
<path d="M360.488 321.072C360.488 321.072 360.271 320.904 359.81 320.719C359.357 320.535 358.662 320.35 357.782 320.283C356.903 320.216 355.856 320.266 354.716 320.459C353.577 320.644 352.345 320.963 351.064 321.231C349.782 321.5 348.542 321.684 347.419 321.642C346.297 321.6 345.3 321.357 344.521 321.013C342.946 320.317 342.384 319.31 342.326 319.377C342.309 319.385 342.418 319.637 342.736 320.015C343.055 320.392 343.599 320.87 344.403 321.265C345.199 321.659 346.23 321.944 347.403 322.003C348.575 322.07 349.849 321.885 351.147 321.617C352.446 321.34 353.661 321.013 354.783 320.812C355.897 320.61 356.92 320.526 357.774 320.552C359.491 320.61 360.472 321.13 360.497 321.055L360.488 321.072Z" fill="#F5F5F5"/>
<path d="M343.096 329.477C343.105 329.545 343.968 328.932 345.476 329.234C346.213 329.368 347.034 329.738 347.964 330.165C348.885 330.593 350 330.962 351.198 331.055C353.602 331.289 355.747 330.509 357.054 329.696C357.724 329.293 358.193 328.865 358.511 328.571C358.813 328.253 358.964 328.068 358.939 328.051C358.888 327.993 358.243 328.714 356.911 329.452C355.596 330.182 353.535 330.878 351.231 330.66C348.911 330.526 347.134 329.142 345.526 328.957C344.738 328.84 344.085 328.957 343.675 329.117C343.264 329.276 343.088 329.461 343.096 329.477Z" fill="#F5F5F5"/>
<path d="M344.462 341.113C344.462 341.155 345.283 341.155 346.506 340.71C347.738 340.299 349.262 339.351 351.038 338.647C351.935 338.303 352.823 338.093 353.644 338.101C354.457 338.101 355.185 338.303 355.738 338.58C356.861 339.142 357.188 339.939 357.255 339.888C357.271 339.888 357.221 339.679 357.02 339.368C356.819 339.058 356.45 338.655 355.872 338.328C355.303 338.001 354.532 337.757 353.652 337.732C352.773 337.707 351.826 337.917 350.904 338.269C349.061 339.007 347.587 339.981 346.406 340.442C345.241 340.945 344.454 341.046 344.47 341.113H344.462Z" fill="#F5F5F5"/>
<path d="M345.66 346.524C345.643 346.574 346.23 346.784 347.21 347.027C348.19 347.27 349.556 347.531 351.089 347.682C352.622 347.833 354.012 347.841 355.018 347.799C356.023 347.749 356.643 347.656 356.635 347.606C356.635 347.489 354.155 347.589 351.122 347.287C348.089 346.994 345.685 346.406 345.652 346.524H345.66Z" fill="#F5F5F5"/>
<path d="M89.9252 19.4541H9.86035V135.658H89.9252V19.4541Z" fill="#E0E0E0"/>
<path d="M85.9124 19.4541H5.84753V135.658H85.9124V19.4541Z" fill="#F5F5F5"/>
<path d="M75.968 32.0376H15.8V123.066H75.968V32.0376Z" fill="white"/>
<path d="M75.9681 123.075C75.9681 123.075 75.9681 122.924 75.9597 122.63C75.9597 122.328 75.9597 121.9 75.9513 121.338C75.9513 120.197 75.9345 118.52 75.9262 116.347C75.9178 111.985 75.8927 105.626 75.8759 97.5975C75.8508 81.5493 75.8173 58.8152 75.7754 32.0459L75.9764 32.2473C57.596 32.2473 37.2216 32.2557 15.8168 32.264L16.0346 32.0459C16.0179 66.3904 16.0011 98.0505 15.9927 123.075L15.8168 122.899C34.1386 122.941 49.1597 122.966 59.615 122.991C64.8426 123.008 68.9225 123.024 71.7122 123.033C73.0945 123.041 74.1585 123.05 74.8873 123.05C75.6078 123.05 75.9848 123.066 75.9848 123.066C75.9848 123.066 75.6329 123.075 74.9209 123.083C74.2004 123.083 73.1532 123.092 71.7792 123.1C68.9979 123.108 64.9264 123.125 59.7155 123.142C49.2351 123.167 34.1805 123.192 15.8168 123.234H15.6409V123.058C15.6325 98.0337 15.6158 66.3653 15.599 32.0292V31.811H15.8252C37.23 31.811 57.6043 31.8194 75.9848 31.8278H76.1859V32.0292C76.144 58.8487 76.1105 81.6248 76.0853 97.7149C76.0602 105.726 76.0435 112.068 76.0351 116.422C76.0267 118.578 76.0183 120.239 76.0099 121.372C76.0099 121.926 76.0016 122.345 76.0016 122.639C76.0016 122.924 75.9932 123.058 75.9932 123.058L75.9681 123.075Z" fill="#E0E0E0"/>
<path d="M86.1385 19.454C86.1887 19.4875 85.6442 20.2845 84.7143 21.5261C83.7844 22.7676 82.4607 24.4622 80.9611 26.2994C79.4531 28.1282 78.0457 29.7557 77.0069 30.905C75.9681 32.0542 75.2895 32.7421 75.2476 32.7086C75.2057 32.6666 75.7921 31.9116 76.7723 30.7036C77.8446 29.4033 79.1683 27.7926 80.626 26.0226C82.0837 24.2441 83.4074 22.6418 84.4797 21.3415C85.4683 20.1503 86.0966 19.4204 86.1469 19.454H86.1385Z" fill="#E0E0E0"/>
<path d="M76.2697 122.781C79.2605 127.538 82.7874 131.959 86.7668 135.927L76.2697 122.781Z" fill="white"/>
<path d="M86.7668 135.918C86.7668 135.918 86.0128 135.339 84.9405 134.249C83.8682 133.167 82.4356 131.598 80.9779 129.778C79.5202 127.949 78.3138 126.212 77.4928 124.929C76.6718 123.637 76.2278 122.806 76.2697 122.773C76.32 122.739 76.8645 123.511 77.7441 124.753C78.6238 125.994 79.8637 127.689 81.313 129.501C82.7623 131.313 84.1446 132.898 85.1583 134.031C86.172 135.163 86.8087 135.86 86.7668 135.91V135.918Z" fill="#E0E0E0"/>
<path d="M5.83911 135.566C9.33257 131.246 12.8344 126.925 16.3279 122.613L5.83911 135.566Z" fill="white"/>
<path d="M16.3279 122.605C16.4201 122.68 14.1497 125.642 11.2511 129.224C8.35242 132.806 5.93129 135.641 5.83913 135.566C5.74698 135.49 8.01731 132.529 10.916 128.947C13.8146 125.373 16.2357 122.529 16.3279 122.605Z" fill="#E0E0E0"/>
<path d="M5.84749 19.454C5.93964 19.3785 8.21835 22.105 10.9411 25.5444C13.6554 28.9839 15.7833 31.8362 15.6912 31.9117C15.599 31.9872 13.3203 29.2608 10.5976 25.8213C7.88325 22.3818 5.75533 19.5295 5.84749 19.454Z" fill="#E0E0E0"/>
<path d="M57.2191 50.5184H37.0709V107.798H57.2191V50.5184Z" fill="#E0E0E0"/>
<path d="M190.264 0.0167236H127.34V65.7025H190.264V0.0167236Z" fill="#E0E0E0"/>
<path d="M186.008 0.0167236H123.084V65.7025H186.008V0.0167236Z" fill="#FAFAFA"/>
<path d="M186.033 65.7277H123.067V0H186.033V65.7277ZM123.109 65.6858H186V0.0419449H123.109V65.6858Z" fill="#E0E0E0"/>
<path d="M177.555 8.85034H131.545V56.8773H177.555V8.85034Z" fill="white"/>
<path d="M131.545 57.1962C131.579 57.2381 131.143 57.7414 130.406 58.5216C129.669 59.3018 128.638 60.3504 127.482 61.4913C126.326 62.6322 125.262 63.6473 124.474 64.3687C123.687 65.0902 123.184 65.518 123.142 65.4761C123.101 65.4341 123.536 64.9392 124.273 64.159C125.011 63.3788 126.041 62.3302 127.206 61.1809C128.37 60.04 129.434 59.0166 130.213 58.2951C131.001 57.5737 131.503 57.1458 131.537 57.1878L131.545 57.1962Z" fill="#E0E0E0"/>
<path d="M177.547 57.0787C177.588 57.0452 178.091 57.4814 178.87 58.2112C179.649 58.9495 180.697 59.9813 181.836 61.139C182.975 62.2967 183.989 63.3621 184.709 64.1506C185.43 64.9392 185.857 65.4425 185.815 65.4845C185.773 65.5264 185.279 65.0902 184.5 64.352C183.721 63.6137 182.674 62.5819 181.526 61.4158C180.387 60.2497 179.365 59.1843 178.644 58.4042C177.924 57.6156 177.496 57.1123 177.538 57.0787H177.547Z" fill="#E0E0E0"/>
<path d="M177.421 8.97623C177.387 8.93429 177.823 8.43095 178.56 7.65077C179.298 6.8706 180.328 5.82198 181.484 4.68107C182.64 3.54017 183.704 2.5251 184.492 1.80365C185.279 1.0822 185.782 0.654361 185.824 0.696306C185.866 0.738251 185.43 1.2332 184.693 2.01338C183.956 2.79355 182.925 3.84218 181.761 4.99147C180.596 6.13237 179.532 7.15583 178.753 7.87728C177.966 8.59873 177.463 9.02657 177.429 8.98462L177.421 8.97623Z" fill="#E0E0E0"/>
<path d="M131.419 9.09369C131.378 9.12724 130.875 8.69101 130.096 7.95278C129.317 7.21455 128.269 6.18271 127.13 5.02503C125.991 3.86735 124.977 2.80195 124.257 2.01338C123.536 1.22482 123.109 0.721477 123.151 0.679532C123.193 0.637587 123.687 1.07381 124.466 1.81205C125.245 2.55028 126.292 3.58212 127.44 4.74819C128.579 5.91426 129.602 6.97966 130.322 7.75984C131.042 8.5484 131.47 9.05174 131.428 9.0853L131.419 9.09369Z" fill="#E0E0E0"/>
<path d="M177.421 56.8774C177.421 56.8774 177.421 56.7935 177.413 56.6425C177.413 56.4747 177.413 56.2566 177.404 55.9714C177.404 55.3674 177.396 54.5033 177.388 53.3792C177.379 51.1058 177.362 47.7921 177.337 43.5892C177.312 35.1751 177.287 23.1956 177.245 8.85044L177.421 9.02661C164.025 9.02661 148.3 9.04338 131.545 9.05177L131.746 8.85044C131.738 26.4757 131.73 42.9685 131.721 56.8774L131.545 56.7012C145.293 56.7348 156.745 56.7683 164.771 56.7935C168.784 56.8103 171.934 56.8271 174.104 56.8354C175.176 56.8438 175.997 56.8522 176.575 56.8522C176.843 56.8522 177.052 56.8522 177.212 56.8606C177.354 56.8606 177.429 56.8606 177.438 56.869C177.438 56.869 177.371 56.869 177.237 56.8774C177.086 56.8774 176.885 56.8774 176.617 56.8858C176.047 56.8858 175.234 56.8942 174.179 56.9026C172.017 56.9109 168.876 56.9277 164.888 56.9445C156.837 56.9697 145.352 56.9948 131.554 57.0368H131.378V56.8606C131.369 42.9517 131.361 26.4589 131.353 8.83366V8.63232H131.562C148.317 8.64071 164.05 8.6491 177.438 8.65749H177.614V8.83366C177.572 23.2292 177.547 35.2506 177.522 43.6899C177.505 47.876 177.488 51.1729 177.471 53.4379C177.463 54.5452 177.455 55.4009 177.455 55.9965C177.455 56.2734 177.455 56.4915 177.446 56.6509C177.446 56.7935 177.446 56.869 177.438 56.8606L177.421 56.8774Z" fill="#E0E0E0"/>
<path d="M162.224 25.1753H146.868V40.5523H162.224V25.1753Z" fill="#EBEBEB"/>
<path d="M94.4658 265.62L96.0408 294.588C96.0995 295.619 96.9456 296.433 97.976 296.433L150.034 296.819C151.115 296.819 151.995 295.955 152.003 294.881L152.171 272.332C152.171 271.25 151.3 270.36 150.219 270.36L118.208 270.335C117.689 270.335 117.194 270.125 116.826 269.765L111.305 264.236C110.945 263.876 110.45 263.666 109.939 263.666L96.4429 263.565C95.3203 263.565 94.4156 264.505 94.4826 265.629L94.4658 265.62Z" fill="#EBEBEB"/>
<path d="M152.199 266.956L95.3254 266.539L95.0763 300.572L151.95 300.989L152.199 266.956Z" fill="#F5F5F5"/>
<path d="M90.7797 269.555L94.8596 305.074C94.935 305.703 95.4627 306.181 96.0994 306.19L151.526 306.592C152.179 306.592 152.732 306.097 152.782 305.443L155.832 269.974C155.89 269.244 155.321 268.615 154.592 268.607L92.0279 268.146C91.2739 268.146 90.6875 268.8 90.7713 269.546L90.7797 269.555Z" fill="#EBEBEB"/>
<path d="M184.902 281.937L186.477 310.971C186.536 312.003 187.382 312.817 188.421 312.825L240.588 313.211C241.669 313.211 242.549 312.347 242.557 311.265L242.725 288.665C242.725 287.574 241.853 286.694 240.773 286.694L208.686 286.668C208.167 286.668 207.673 286.459 207.304 286.098L201.766 280.561C201.406 280.201 200.912 279.991 200.401 279.991L186.879 279.89C185.748 279.89 184.852 280.83 184.911 281.954L184.902 281.937Z" fill="#EBEBEB"/>
<path d="M242.765 283.274L185.766 282.856L185.516 316.964L242.516 317.383L242.765 283.274Z" fill="#F5F5F5"/>
<path d="M181.208 285.88L185.296 321.483C185.371 322.112 185.899 322.59 186.536 322.598L242.088 323.01C242.741 323.01 243.294 322.515 243.353 321.86L246.411 286.316C246.478 285.586 245.9 284.957 245.162 284.949L182.464 284.487C181.71 284.487 181.116 285.142 181.208 285.888V285.88Z" fill="#EBEBEB"/>
<path d="M56.4484 232.862C47.8613 219.708 49.1096 200.916 59.3722 189.021C62.5557 185.33 67.0042 182.117 71.8632 182.536C76.8311 182.964 80.8356 187.234 82.352 191.99C83.8599 196.747 83.3405 201.906 82.4525 206.822C81.2126 213.701 79.1266 220.748 74.3597 225.857C69.5929 230.966 62.5892 236.217 56.4568 232.87" fill="#F48462"/>
<path d="M59.0454 296.182C55.8117 288.623 58.1574 279.06 64.516 273.859C66.4931 272.248 69.0734 270.998 71.5365 271.652C74.0581 272.323 75.7336 274.882 76.0855 277.474C76.4374 280.066 75.7001 282.675 74.7954 285.125C73.5303 288.556 71.8213 291.996 68.9059 294.193C65.9905 296.391 61.9022 298.463 59.0454 296.182Z" fill="#F48462"/>
<path d="M40.489 291.66C42.8515 279.999 36.7107 267.131 26.1717 261.636C22.896 259.933 18.8748 258.926 15.574 260.579C12.1978 262.273 10.5726 266.401 10.8407 270.167C11.1087 273.942 12.9183 277.424 14.9205 280.628C17.7187 285.116 21.1535 289.487 25.9371 291.744C30.7207 294 37.1128 295.729 40.489 291.652" fill="#F48462"/>
<path d="M41.9718 260.126C46.0852 246.838 39.1151 230.731 27.4953 223.105C23.8846 220.739 19.3188 219.095 15.2891 220.63C11.1674 222.207 8.79649 226.813 8.66245 231.234C8.52841 235.655 10.2291 239.917 12.181 243.876C14.9121 249.43 18.3972 254.916 23.6919 258.104C28.9949 261.292 37.5652 264.48 41.9718 260.126Z" fill="#F48462"/>
<path d="M48.0791 325.073C48.0791 325.073 48.012 324.855 47.945 324.427C47.8696 323.941 47.7775 323.328 47.6686 322.573C47.6099 322.162 47.5513 321.718 47.4842 321.231C47.3921 320.745 47.2916 320.216 47.1826 319.654C46.9648 318.521 46.747 317.221 46.37 315.82C46.2025 315.116 46.0182 314.377 45.8339 313.606C45.6077 312.842 45.3815 312.054 45.1385 311.231C44.6945 309.579 44.041 307.876 43.4295 306.055C42.0723 302.465 40.38 298.598 38.3108 294.68C36.1996 290.787 33.9125 287.231 31.6757 284.118C30.5028 282.6 29.4472 281.115 28.3163 279.831C27.7717 279.177 27.2356 278.548 26.7245 277.944C26.1884 277.365 25.6689 276.803 25.1747 276.275C24.2112 275.184 23.2562 274.286 22.4352 273.481C22.0247 273.078 21.6477 272.701 21.2875 272.357C20.9188 272.03 20.5837 271.736 20.2738 271.459C19.7041 270.948 19.2433 270.528 18.8831 270.201C18.5731 269.907 18.4139 269.748 18.4223 269.731C18.4307 269.714 18.615 269.849 18.9585 270.109C19.3438 270.419 19.8214 270.805 20.4162 271.283C20.7345 271.543 21.0864 271.837 21.4634 272.147C21.832 272.491 22.2257 272.852 22.6446 273.246C23.4908 274.035 24.4709 274.924 25.4595 275.998C25.9622 276.526 26.49 277.08 27.0429 277.65C27.5623 278.254 28.1068 278.884 28.6681 279.529C29.8159 280.805 30.8966 282.289 32.0862 283.808C34.3565 286.929 36.6771 290.494 38.7967 294.412C40.8827 298.354 42.5666 302.255 43.907 305.871C44.5102 307.708 45.1469 309.428 45.5742 311.089C45.8003 311.911 46.0265 312.716 46.2444 313.48C46.4203 314.251 46.5878 314.998 46.747 315.72C47.0989 317.137 47.2916 318.446 47.4759 319.587C47.568 320.157 47.6518 320.686 47.7356 321.181C47.7858 321.667 47.8277 322.12 47.8696 322.531C47.9366 323.295 47.9953 323.916 48.0372 324.402C48.0707 324.83 48.0791 325.057 48.0623 325.057L48.0791 325.073Z" fill="#263238"/>
<path d="M47.7775 327.464C47.7775 327.464 47.7691 327.372 47.7775 327.196C47.7942 326.986 47.811 326.734 47.8361 326.424C47.9032 325.702 47.9953 324.721 48.1042 323.471C48.1712 322.825 48.2383 322.112 48.3137 321.34C48.3723 320.56 48.3974 319.713 48.4393 318.798C48.5063 316.969 48.6823 314.897 48.6152 312.599C48.6152 311.45 48.6069 310.241 48.5985 308.992C48.5817 307.733 48.4645 306.433 48.4058 305.082C48.3137 302.381 47.945 299.512 47.6267 296.492C46.8057 290.477 45.5155 283.908 43.5552 277.172C41.5278 270.453 39.0313 264.245 36.451 258.75C35.077 256.04 33.8288 253.44 32.4297 251.124C31.7511 249.958 31.1396 248.801 30.4693 247.744C29.7908 246.687 29.1373 245.68 28.5174 244.707C27.3194 242.744 26.046 241.099 24.9904 239.606C24.4542 238.868 23.9767 238.163 23.4992 237.543C23.0133 236.939 22.5693 236.376 22.1671 235.873C21.3964 234.892 20.7764 234.111 20.3324 233.549C20.1481 233.298 19.989 233.096 19.8633 232.937C19.7628 232.794 19.7125 232.719 19.7209 232.719C19.7292 232.719 19.7879 232.778 19.9052 232.903C20.0392 233.063 20.2068 233.247 20.4162 233.482C20.8854 234.036 21.5221 234.791 22.3347 235.747C22.7536 236.242 23.2143 236.796 23.7086 237.392C24.1945 238.004 24.6888 238.7 25.2417 239.43C26.3224 240.907 27.621 242.542 28.8441 244.497C29.4808 245.462 30.1426 246.468 30.8296 247.525C31.5165 248.582 32.1365 249.74 32.8318 250.906C34.2476 253.222 35.521 255.831 36.9117 258.54C39.5339 264.052 42.0556 270.285 44.0913 277.03C46.0601 283.799 47.3419 290.402 48.1377 296.45C48.4477 299.487 48.7996 302.364 48.875 305.082C48.9252 306.441 49.0341 307.742 49.0341 309.008C49.0341 310.267 49.0174 311.475 49.0174 312.632C49.0593 314.939 48.8498 317.02 48.7577 318.849C48.699 319.763 48.6571 320.61 48.5817 321.399C48.4896 322.171 48.3974 322.884 48.322 323.53C48.1629 324.771 48.0372 325.753 47.945 326.474C47.9032 326.785 47.8613 327.036 47.8361 327.238C47.811 327.405 47.7859 327.498 47.7775 327.498V327.464Z" fill="#263238"/>
<path d="M70.1374 198.416C70.1374 198.416 70.1122 198.509 70.0285 198.66C69.9279 198.844 69.8106 199.071 69.6598 199.348C69.2996 199.985 68.8137 200.866 68.1938 201.973C67.8754 202.544 67.4984 203.165 67.1382 203.869C66.7863 204.582 66.401 205.354 65.9904 206.185C65.5799 207.015 65.1359 207.904 64.6668 208.844C64.2228 209.792 63.7955 210.824 63.318 211.889C62.8572 212.963 62.3378 214.07 61.8687 215.253C61.4079 216.444 60.9388 217.677 60.4445 218.961C60.2015 219.599 59.9502 220.253 59.6905 220.916C59.4643 221.587 59.2297 222.266 58.9951 222.963C58.526 224.347 58.0485 225.773 57.5542 227.233C55.7363 233.13 54.0105 239.69 52.5528 246.661C51.1453 253.641 50.1568 260.361 49.4195 266.493C48.7912 272.634 48.3305 278.179 48.2048 282.843C48.0875 285.175 48.0624 287.289 48.054 289.143C48.0205 290.997 48.0205 292.6 48.054 293.9C48.0707 295.167 48.0875 296.173 48.0959 296.911C48.0959 297.23 48.0959 297.482 48.0959 297.692C48.0959 297.868 48.0875 297.96 48.0791 297.96C48.0707 297.96 48.054 297.868 48.0456 297.692C48.0289 297.482 48.0121 297.222 47.9954 296.911C47.9618 296.182 47.9116 295.175 47.8446 293.908C47.7692 292.6 47.744 291.006 47.744 289.143C47.7189 287.289 47.7189 285.167 47.811 282.835C47.8864 278.154 48.3137 272.6 48.9085 266.443C49.6122 260.294 50.5924 253.557 51.9998 246.561C53.4576 239.573 55.2085 232.987 57.0599 227.09C57.5626 225.63 58.0485 224.196 58.526 222.812C58.769 222.115 59.0035 221.436 59.2297 220.765C59.4894 220.102 59.7408 219.448 59.9921 218.81C60.4947 217.535 60.9806 216.293 61.4498 215.102C61.9357 213.919 62.4635 212.812 62.941 211.746C63.4269 210.681 63.8709 209.658 64.3317 208.71C64.8176 207.778 65.27 206.889 65.6972 206.067C66.1245 205.245 66.5182 204.482 66.8869 203.769C67.2638 203.072 67.6576 202.46 67.9927 201.889C68.6545 200.799 69.1739 199.943 69.5509 199.314C69.7185 199.046 69.8609 198.827 69.9698 198.651C70.0703 198.5 70.1206 198.433 70.129 198.433L70.1374 198.416Z" fill="#263238"/>
<path d="M67.2219 279.135C67.2219 279.135 66.9287 279.731 66.3087 280.737C65.6804 281.744 64.8175 283.229 63.8038 285.091C62.7818 286.945 61.6759 289.21 60.5533 291.777C59.4559 294.353 58.3584 297.23 57.395 300.309C56.4567 303.396 55.7362 306.391 55.1917 309.143C54.6806 311.894 54.312 314.394 54.1109 316.5C53.9015 318.605 53.7758 320.317 53.7256 321.508C53.6669 322.691 53.6167 323.345 53.5748 323.345C53.5329 323.345 53.5161 322.691 53.5078 321.5C53.491 320.308 53.5496 318.589 53.7172 316.466C53.868 314.344 54.1947 311.827 54.6806 309.05C55.2 306.282 55.9038 303.262 56.8504 300.15C57.8222 297.046 58.9364 294.151 60.0674 291.576C61.2235 289.009 62.3796 286.744 63.452 284.907C64.5159 283.061 65.4291 281.601 66.1161 280.628C66.7946 279.647 67.18 279.118 67.2135 279.144L67.2219 279.135Z" fill="#263238"/>
<path d="M31.215 319.159H68.9393L64.3735 357.74H35.9148L31.215 319.159Z" fill="#455A64"/>
<path d="M32.5889 353.579L35.7975 357.74H64.3735L67.6743 353.705L32.5889 353.579Z" fill="#263238"/>
<path d="M67.4733 330.501C67.4733 330.66 59.6402 330.786 49.9892 330.786C40.3382 330.786 32.5051 330.66 32.5051 330.501C32.5051 330.342 40.3298 330.216 49.9892 330.216C59.6486 330.216 67.4733 330.342 67.4733 330.501Z" fill="white"/>
<path d="M67.4733 333.068C67.4733 333.227 59.6402 333.353 49.9892 333.353C40.3382 333.353 32.5051 333.227 32.5051 333.068C32.5051 332.909 40.3298 332.783 49.9892 332.783C59.6486 332.783 67.4733 332.909 67.4733 333.068Z" fill="white"/>
<path d="M67.0042 335.56C67.0042 335.719 59.4476 335.845 50.1317 335.845C40.8158 335.845 33.2592 335.719 33.2592 335.56C33.2592 335.4 40.8158 335.274 50.1317 335.274C59.4476 335.274 67.0042 335.4 67.0042 335.56Z" fill="white"/>
<path d="M364.971 357.782C364.971 357.899 283.264 358 182.498 358C81.732 358 0.00842285 357.899 0.00842285 357.782C0.00842285 357.664 81.6985 357.564 182.498 357.564C283.297 357.564 364.971 357.664 364.971 357.782Z" fill="#263238"/>
<path d="M349.991 91.0876C347.176 87.5139 347.109 80.9957 347.202 79.2843C347.419 75.3331 338.623 52.2634 316.824 61.7933V61.7765C309.008 61.7765 308.882 69.4944 307.4 71.0547C305.917 72.6067 304.266 74.2258 303.881 76.3398C303.194 80.0897 306.746 83.7305 305.841 87.43C305.506 88.8226 304.576 89.9971 303.923 91.2638C303.228 92.4047 302.666 94.2419 302.968 95.2738C303.269 96.2972 303.923 97.1781 304.459 98.1008C304.995 99.0236 305.439 100.081 305.247 101.138C304.903 103.042 302.708 104.091 302.113 105.936C301.535 107.74 302.666 109.594 303.697 111.188C304.719 112.782 305.716 114.778 304.886 116.481C304.442 117.387 303.571 117.991 302.867 118.704C300.714 120.869 300.078 124.4 301.326 127.185C305.506 126.363 309.687 125.533 313.867 124.711C314.412 118.729 314.965 112.74 315.509 106.758C319.178 107.673 323.191 105.324 324.926 104.879L327.062 103.721C331.737 104.544 336.78 104.25 340.877 101.859C344.973 99.4682 351.047 102.522 350.251 97.8408C349.866 95.5674 351.407 92.9164 349.983 91.1044L349.991 91.0876Z" fill="#263238"/>
<path d="M335.691 69.2595L318.634 64.2009C313.138 63.3956 309.192 70.048 308.623 75.5848C307.986 81.7339 307.45 89.2588 307.994 93.8895C309.092 103.193 316.121 104.661 316.121 104.661C316.121 104.653 314.889 117.84 314.772 121.137L335.808 110.357L338.464 72.6822C338.564 70.996 337.358 69.5111 335.691 69.2679V69.2595Z" fill="#FFD3C1"/>
<path d="M309.678 83.1685C309.628 83.7976 310.122 84.3513 310.776 84.41C311.429 84.4688 311.99 84.0158 312.041 83.3866C312.091 82.7574 311.597 82.2037 310.952 82.145C310.298 82.0863 309.737 82.5393 309.687 83.1685H309.678Z" fill="#263238"/>
<path d="M309.05 80.4588C309.167 80.6098 310.173 80.3917 311.429 80.7692C312.686 81.1299 313.482 81.8765 313.649 81.801C313.733 81.7675 313.632 81.5242 313.289 81.1886C312.954 80.8615 312.334 80.4504 311.546 80.2239C310.767 79.9974 310.047 80.0142 309.611 80.1148C309.167 80.2155 308.983 80.3833 309.042 80.4504L309.05 80.4588Z" fill="#263238"/>
<path d="M321.499 84.1332C321.449 84.7624 321.943 85.316 322.597 85.3748C323.25 85.4335 323.811 84.9805 323.862 84.3513C323.912 83.7221 323.418 83.1685 322.773 83.1097C322.119 83.051 321.558 83.504 321.507 84.1332H321.499Z" fill="#263238"/>
<path d="M321.709 82.1366C321.893 82.2205 322.814 81.6081 324.239 81.4068C325.663 81.197 326.794 81.5158 326.928 81.3816C326.995 81.3229 326.794 81.1467 326.3 80.9957C325.814 80.8447 325.009 80.7524 324.121 80.8783C323.233 81.0041 322.53 81.3229 322.136 81.5997C321.742 81.8766 321.625 82.1031 321.717 82.1366H321.709Z" fill="#263238"/>
<path d="M317.31 90.4669C317.319 90.3914 316.531 90.2236 315.258 90.0055C314.931 89.9551 314.629 89.8796 314.579 89.6531C314.512 89.4182 314.663 89.0659 314.839 88.6968C315.174 87.9166 315.526 87.1113 315.903 86.2556C317.377 82.7742 318.466 79.9135 318.324 79.8548C318.182 79.7961 316.875 82.5644 315.392 86.0459C315.032 86.9015 314.697 87.7237 314.37 88.5038C314.236 88.873 314.001 89.284 314.152 89.779C314.227 90.0222 314.462 90.2152 314.671 90.2739C314.881 90.3494 315.057 90.3578 315.224 90.3746C316.514 90.5004 317.31 90.534 317.319 90.4585L317.31 90.4669Z" fill="#263238"/>
<path d="M316.121 104.661C316.121 104.661 322.186 105.441 328.494 101.985C328.386 102.002 324.708 108.419 315.895 107.119L316.121 104.669V104.661Z" fill="#F4AF9B"/>
<path d="M317.721 93.5623C318.207 92.9751 319.019 92.6731 319.815 92.7905C320.368 92.8744 320.913 93.1597 321.231 93.6294C321.549 94.0908 321.591 94.7368 321.273 95.1562C320.913 95.626 320.184 95.7099 319.589 95.5086C318.986 95.3072 318.483 94.8878 317.997 94.4683C317.863 94.3509 317.729 94.2335 317.645 94.0741C317.562 93.9231 317.553 93.7217 317.662 93.5959" fill="#F4AF9B"/>
<path d="M321.022 91.4987C320.812 91.4819 320.754 92.8661 319.53 93.7973C318.307 94.7368 316.841 94.5187 316.824 94.7117C316.799 94.7956 317.143 94.9969 317.763 95.0388C318.374 95.0808 319.271 94.9214 320.016 94.3509C320.762 93.7805 321.105 92.9835 321.172 92.4215C321.248 91.8426 321.105 91.4987 321.013 91.4987H321.022Z" fill="#263238"/>
<path d="M321.876 77.5898C321.985 77.9421 323.267 77.8247 324.758 78.0679C326.249 78.2777 327.439 78.7642 327.648 78.4622C327.74 78.3196 327.548 77.9841 327.07 77.6233C326.601 77.271 325.839 76.9186 324.951 76.7844C324.054 76.6502 323.233 76.7593 322.68 76.9606C322.119 77.1619 321.834 77.422 321.884 77.5898H321.876Z" fill="#263238"/>
<path d="M310.416 76.7676C310.625 77.0696 311.521 76.8011 312.577 76.8263C313.633 76.8179 314.521 77.1031 314.738 76.8011C314.831 76.6585 314.705 76.3649 314.328 76.0713C313.951 75.7861 313.323 75.5344 312.594 75.526C311.865 75.526 311.228 75.7609 310.851 76.0377C310.466 76.323 310.332 76.6166 310.424 76.7592L310.416 76.7676Z" fill="#263238"/>
<path d="M316.623 62.9929C323.485 64.0835 330.203 65.9962 336.612 68.6723C338.095 69.2931 339.653 70.0313 340.491 71.4071C341.379 72.8584 341.262 74.6956 341.119 76.3901C340.416 84.6785 339.712 92.9668 339.008 101.255L338.12 101.213C335.565 101.633 335.381 100.324 333.554 98.4867C331.728 96.6495 330.848 93.9063 331.267 91.3477C331.644 89.0911 332.951 86.826 332.248 84.6449C331.318 81.7675 327.372 80.7356 326.425 77.8582C325.872 76.1888 326.5 74.2761 325.864 72.6403C325.269 71.0967 323.702 70.1571 322.169 69.5363C320.636 68.9155 318.986 68.4625 317.721 67.3971C316.456 66.3317 315.719 64.3855 316.607 62.9929H316.623Z" fill="#263238"/>
<path d="M260.627 46.3575H193.003C190.25 46.3575 188.019 48.5923 188.019 51.349V105.777C188.019 108.533 190.25 110.768 193.003 110.768H260.627C263.38 110.768 265.612 108.533 265.612 105.777V51.349C265.612 48.5923 263.38 46.3575 260.627 46.3575Z" fill="#263238"/>
<path d="M296.986 327.397L298.922 346.063C298.922 346.063 280.625 354.301 280.65 357.782L316.925 355.324L315.099 326.114L296.986 327.389V327.397Z" fill="#455A64"/>
<g opacity="0.3">
<path opacity="0.3" d="M296.986 327.397L298.922 346.063C298.922 346.063 280.625 354.301 280.65 357.782L316.925 355.324L315.099 326.114L296.986 327.389V327.397Z" fill="black"/>
</g>
<g opacity="0.6">
<path opacity="0.6" d="M310.03 343.73C310.742 343.873 311.287 344.636 311.17 345.358C311.052 346.079 310.29 346.633 309.569 346.499C308.849 346.365 308.179 345.475 308.371 344.771C308.564 344.066 309.502 343.462 310.164 343.764" fill="white"/>
</g>
<g opacity="0.6">
<path opacity="0.6" d="M316.925 355.324L316.623 352.388L281.957 355.844C281.957 355.844 280.39 356.658 280.65 357.782L316.925 355.324Z" fill="white"/>
</g>
<path d="M298.318 345.92C298.335 346.096 299.223 346.121 300.136 346.625C301.058 347.111 301.56 347.849 301.72 347.765C301.879 347.724 301.544 346.675 300.429 346.079C299.324 345.467 298.268 345.752 298.318 345.911V345.92Z" fill="#263238"/>
<path d="M294.624 347.749C294.599 347.925 295.386 348.177 296.031 348.881C296.701 349.569 296.911 350.375 297.087 350.349C297.254 350.366 297.305 349.317 296.484 348.453C295.663 347.581 294.615 347.573 294.624 347.749Z" fill="#263238"/>
<path d="M292.772 352.455C292.94 352.48 293.124 351.583 292.605 350.635C292.094 349.687 291.231 349.359 291.164 349.519C291.072 349.67 291.65 350.156 292.06 350.937C292.496 351.708 292.596 352.447 292.772 352.455Z" fill="#263238"/>
<path d="M298.352 341.616C298.436 341.776 299.231 341.474 300.237 341.474C301.242 341.457 302.046 341.734 302.13 341.583C302.222 341.449 301.418 340.845 300.237 340.861C299.056 340.861 298.26 341.491 298.352 341.625V341.616Z" fill="#263238"/>
<path d="M298.033 337.841C298.033 337.917 298.746 337.976 299.851 337.707C300.404 337.573 301.049 337.346 301.711 336.994C302.046 336.818 302.381 336.608 302.717 336.365C302.876 336.247 303.068 336.122 303.236 335.903C303.42 335.702 303.496 335.224 303.253 334.956C303.052 334.687 302.708 334.595 302.448 334.603C302.18 334.612 301.971 334.679 301.77 334.746C301.376 334.872 300.999 335.031 300.664 335.207C299.994 335.568 299.458 336.004 299.064 336.424C298.276 337.263 298.033 337.942 298.092 337.976C298.176 338.026 298.544 337.447 299.357 336.742C299.759 336.39 300.287 336.021 300.915 335.719C301.234 335.568 301.569 335.434 301.937 335.325C302.314 335.199 302.641 335.174 302.75 335.333C302.792 335.4 302.8 335.425 302.725 335.543C302.65 335.652 302.499 335.761 302.34 335.887C302.03 336.122 301.72 336.323 301.418 336.499C300.806 336.86 300.22 337.112 299.709 337.296C298.687 337.657 298.008 337.749 298.017 337.85L298.033 337.841Z" fill="#263238"/>
<path d="M298.276 338.076C298.343 338.101 298.653 337.439 298.637 336.289C298.637 335.719 298.519 335.031 298.251 334.318C298.117 333.957 297.941 333.597 297.715 333.244C297.481 332.9 297.187 332.439 296.492 332.405C296.132 332.414 295.855 332.716 295.772 332.967C295.671 333.219 295.663 333.437 295.629 333.647C295.587 334.075 295.629 334.494 295.713 334.872C295.88 335.635 296.241 336.256 296.618 336.7C297.388 337.598 298.142 337.757 298.151 337.699C298.201 337.606 297.564 337.304 296.961 336.44C296.66 336.013 296.383 335.442 296.274 334.771C296.216 334.435 296.199 334.083 296.232 333.714C296.266 333.32 296.383 333.001 296.534 333.034C296.718 333.018 297.037 333.286 297.212 333.588C297.422 333.899 297.589 334.226 297.732 334.544C298 335.182 298.142 335.811 298.209 336.34C298.335 337.405 298.184 338.076 298.285 338.101L298.276 338.076Z" fill="#263238"/>
<path d="M293.845 190.791C293.845 190.791 277.776 263.842 277.282 270.36C276.788 276.887 297.196 333.202 297.196 333.202L314.755 329.88C314.755 329.88 313.641 246.72 313.071 245.084C312.502 243.457 317.562 202.586 317.562 202.586L293.845 190.791Z" fill="#263238"/>
<path d="M305.062 328.261L305.255 347.027C305.255 347.027 286.271 353.529 285.97 357.002L322.312 357.379L323.208 328.681L305.054 328.27L305.062 328.261Z" fill="#455A64"/>
<g opacity="0.6">
<path opacity="0.6" d="M316.54 345.744C317.235 345.954 317.704 346.759 317.52 347.464C317.336 348.168 316.523 348.655 315.828 348.453C315.124 348.252 314.537 347.304 314.797 346.625C315.057 345.945 316.045 345.425 316.674 345.786" fill="white"/>
</g>
<g opacity="0.6">
<path opacity="0.6" d="M322.32 357.379L322.303 354.98L287.461 355.19C287.461 355.19 285.827 355.853 285.978 357.002L322.32 357.379Z" fill="white"/>
</g>
<path d="M304.677 346.826C304.677 347.002 305.565 347.111 306.42 347.698C307.291 348.269 307.726 349.049 307.886 348.982C308.053 348.948 307.81 347.883 306.763 347.178C305.716 346.465 304.635 346.65 304.677 346.818V346.826Z" fill="#263238"/>
<path d="M300.823 348.311C300.781 348.479 301.535 348.806 302.122 349.569C302.725 350.316 302.859 351.138 303.035 351.129C303.202 351.163 303.353 350.123 302.608 349.183C301.87 348.235 300.832 348.135 300.823 348.302V348.311Z" fill="#263238"/>
<path d="M298.536 352.824C298.695 352.866 298.963 351.985 298.536 351.004C298.109 350.014 297.288 349.611 297.204 349.754C297.104 349.896 297.623 350.433 297.966 351.247C298.327 352.052 298.36 352.807 298.536 352.824Z" fill="#263238"/>
<path d="M305.104 342.548C305.171 342.715 305.992 342.489 306.998 342.581C308.003 342.657 308.774 343.009 308.866 342.858C308.975 342.732 308.229 342.053 307.048 341.96C305.867 341.86 305.02 342.405 305.104 342.548Z" fill="#263238"/>
<g opacity="0.3">
<path opacity="0.3" d="M305.104 331.986L305.138 335.325L323.007 335.618L323.108 332.607L305.104 331.986Z" fill="black"/>
</g>
<path d="M305.138 338.764C305.138 338.84 305.833 338.965 306.956 338.798C307.517 338.714 308.179 338.546 308.874 338.261C309.226 338.118 309.578 337.942 309.93 337.732C310.097 337.632 310.298 337.523 310.491 337.321C310.692 337.145 310.818 336.675 310.6 336.382C310.424 336.096 310.097 335.971 309.829 335.954C309.561 335.937 309.343 335.987 309.142 336.029C308.732 336.113 308.355 336.239 308.003 336.39C307.299 336.692 306.729 337.078 306.294 337.447C305.431 338.21 305.129 338.865 305.188 338.898C305.263 338.957 305.691 338.412 306.562 337.791C306.998 337.481 307.55 337.162 308.212 336.919C308.539 336.801 308.891 336.692 309.268 336.625C309.653 336.533 309.98 336.541 310.08 336.717C310.114 336.784 310.122 336.81 310.039 336.919C309.955 337.019 309.796 337.12 309.628 337.221C309.301 337.422 308.975 337.598 308.656 337.749C308.011 338.051 307.4 338.244 306.88 338.378C305.833 338.647 305.146 338.672 305.146 338.773L305.138 338.764Z" fill="#263238"/>
<path d="M305.356 339.024C305.414 339.049 305.783 338.429 305.883 337.279C305.925 336.709 305.883 336.013 305.682 335.274C305.582 334.905 305.439 334.528 305.247 334.159C305.046 333.79 304.794 333.303 304.107 333.211C303.747 333.186 303.445 333.462 303.337 333.697C303.211 333.941 303.177 334.15 303.136 334.36C303.06 334.779 303.052 335.199 303.102 335.585C303.194 336.365 303.496 337.019 303.831 337.489C304.518 338.454 305.255 338.68 305.272 338.622C305.33 338.538 304.727 338.177 304.199 337.254C303.94 336.801 303.722 336.206 303.663 335.526C303.638 335.19 303.647 334.83 303.722 334.477C303.789 334.092 303.94 333.781 304.082 333.823C304.266 333.823 304.56 334.125 304.702 334.435C304.878 334.763 305.02 335.107 305.129 335.434C305.339 336.097 305.423 336.726 305.439 337.263C305.464 338.328 305.255 338.991 305.347 339.024H305.356Z" fill="#263238"/>
<path d="M334.686 189.667L293.845 190.791L299.709 263.557L303.345 333.697L324.532 334.435C325.613 320.896 325.688 273.053 325.688 273.053L329.969 244.153C330.958 236.36 334.082 228.172 335.59 221.184C336.47 217.073 337.769 211.746 338.037 210.01C338.849 204.867 334.694 189.667 334.694 189.667H334.686Z" fill="#263238"/>
<path d="M296.224 207.535C296.224 207.535 296.232 207.644 296.224 207.862C296.224 208.097 296.207 208.416 296.199 208.819C296.165 209.683 296.115 210.916 296.056 212.493C295.989 214.087 295.906 216.042 295.839 218.307C295.772 220.572 295.663 223.156 295.604 226.008C295.445 231.712 295.361 238.507 295.395 246.057C295.453 253.608 295.629 261.896 296.056 270.595C296.5 279.295 297.162 287.566 297.908 295.074C298.318 298.824 298.679 302.389 299.131 305.72C299.349 307.381 299.533 308.992 299.759 310.535C299.985 312.079 300.203 313.555 300.404 314.965C300.79 317.792 301.25 320.334 301.611 322.573C301.963 324.813 302.314 326.734 302.608 328.303C302.884 329.855 303.11 331.071 303.261 331.919C303.328 332.321 303.378 332.632 303.42 332.858C303.454 333.068 303.471 333.177 303.462 333.185C303.462 333.185 303.429 333.076 303.378 332.867C303.328 332.64 303.261 332.33 303.177 331.935C303.01 331.088 302.758 329.88 302.448 328.328C302.13 326.759 301.753 324.847 301.376 322.607C300.991 320.367 300.513 317.834 300.111 315.007C299.893 313.597 299.667 312.112 299.433 310.577C299.198 309.034 299.005 307.423 298.787 305.762C298.318 302.431 297.941 298.866 297.522 295.116C296.752 287.6 296.081 279.32 295.637 270.612C295.21 261.904 295.043 253.608 295.009 246.049C295.009 238.499 295.118 231.696 295.311 225.991C295.378 223.139 295.512 220.555 295.604 218.29C295.696 216.025 295.797 214.07 295.897 212.476C295.989 210.899 296.065 209.666 296.115 208.802C296.14 208.399 296.165 208.08 296.182 207.846C296.199 207.627 296.216 207.518 296.216 207.518L296.224 207.535Z" fill="#455A64"/>
<path d="M272.976 110.223L262.512 99.0404L254.269 104.82L262.512 117.026L272.976 110.223Z" fill="#FFD3C1"/>
<path d="M339.1 114.35L338.589 107.262L314.973 106.918L314.772 115.818C314.772 115.818 303.177 128.377 298.972 142.462C291.901 166.135 289.337 196.269 289.337 196.269H337.668C337.165 187.93 333.73 169.273 333.73 169.273L344.479 137.185C347.151 125.65 339.109 114.35 339.109 114.35H339.1Z" fill="#F48462"/>
<path d="M280.625 146.388C280.625 146.388 280.759 146.514 281.027 146.748C281.287 146.992 281.697 147.319 282.25 147.705C283.356 148.46 285.14 149.391 287.545 149.743C288.734 149.928 290.083 149.928 291.482 149.701C292.89 149.542 294.389 149.349 295.964 149.139C299.114 148.712 302.574 148.183 306.193 147.571C313.398 146.304 319.924 145.155 324.708 144.316C327.037 143.938 328.947 143.619 330.329 143.393C330.957 143.292 331.46 143.208 331.862 143.15C332.214 143.091 332.39 143.049 332.39 143.049C332.39 143.049 332.206 143.066 331.854 143.108C331.452 143.166 330.949 143.234 330.321 143.317C328.989 143.502 327.062 143.796 324.691 144.181C319.941 144.936 313.398 146.153 306.168 147.386C302.549 147.998 299.097 148.535 295.947 148.972C294.372 149.19 292.873 149.383 291.465 149.55C290.066 149.777 288.751 149.785 287.57 149.609C285.191 149.274 283.406 148.376 282.292 147.646C281.731 147.269 281.32 146.958 281.052 146.723C280.776 146.497 280.625 146.388 280.625 146.388Z" fill="#263238"/>
<path d="M340.583 134.945C340.583 134.945 340.608 134.878 340.634 134.761C340.667 134.585 340.709 134.408 340.742 134.215C340.835 133.737 340.96 133.049 341.078 132.185C341.304 130.482 341.547 128.033 340.902 125.432C340.24 122.832 338.615 120.843 337.148 119.912C336.411 119.434 335.749 119.174 335.28 119.065C334.811 118.947 334.543 118.931 334.543 118.931C334.518 118.989 335.649 119.057 337.081 120.021C338.506 120.961 340.089 122.924 340.734 125.482C341.371 128.041 341.153 130.474 340.96 132.177C340.86 133.033 340.751 133.729 340.684 134.207C340.659 134.4 340.634 134.585 340.608 134.761C340.592 134.887 340.583 134.954 340.592 134.954L340.583 134.945Z" fill="#263238"/>
<path d="M290.309 140.725C290.309 140.725 290.309 140.532 290.276 140.197L290.142 138.762C290.041 137.546 289.957 135.86 289.999 134.006C290.05 132.143 290.217 130.466 290.376 129.257C290.452 128.746 290.519 128.276 290.586 127.831C290.636 127.496 290.661 127.303 290.644 127.303C290.636 127.303 290.586 127.487 290.51 127.815C290.435 128.15 290.343 128.637 290.251 129.241C290.058 130.449 289.865 132.135 289.815 133.997C289.773 135.868 289.874 137.554 290.008 138.771C290.075 139.375 290.142 139.87 290.2 140.205C290.259 140.541 290.293 140.725 290.309 140.725Z" fill="#263238"/>
<path d="M315.057 115.692C315.551 114.015 316.607 112.572 317.637 111.171C319.329 108.881 321.156 106.481 323.795 105.399C325.587 104.661 330.22 105.072 331.46 103.57C335.314 98.8977 329.667 95.9868 331.72 89.5608C333.965 82.5141 332.809 83.5962 332.976 78.0595L341.538 74.3516C342.887 75.3582 346.624 78.9991 346.213 80.6265C345.803 82.2624 345.92 84.0744 346.54 86.0206C347.855 90.148 352.396 92.5892 354.54 96.3475C356.744 100.206 354.264 105.315 354.205 109.753C354.147 114.191 355.822 119.535 360.153 120.499C358.537 123.754 355.831 126.456 352.563 128.049C351.658 126.816 350.754 125.583 349.849 124.35C350.385 127.697 348.115 131.271 344.847 132.194C343.934 128.293 342.971 124.283 340.617 121.053C338.263 117.823 334.124 115.541 330.262 116.573C327.682 117.27 325.68 119.258 323.376 120.617C321.072 121.967 317.796 122.546 315.953 120.608C314.747 119.342 314.571 117.362 315.065 115.692H315.057Z" fill="#263238"/>
<g opacity="0.3">
<path opacity="0.3" d="M298.972 148.577C310.106 146.539 324.951 144.106 336.085 142.076C336.503 142 336.939 141.925 337.333 142.076C338.07 142.369 338.288 143.393 337.953 144.114C337.618 144.836 336.914 145.306 336.21 145.675C332.558 147.587 328.268 147.738 324.146 147.856C317.109 148.049 306.009 148.376 298.963 148.569L298.972 148.577Z" fill="black"/>
</g>
<path d="M290.837 149.693C294.297 149.76 334.174 142.47 334.174 142.47L290.837 149.693Z" fill="#F48462"/>
<path d="M333.496 117.53C336.42 117.89 338.321 118.402 341.739 122.06C342.108 122.454 342.443 122.941 342.761 123.494C346.565 130.205 343.809 139.475 336.529 141.992L329.475 143.443L290.837 149.685C290.837 149.685 282.602 151.539 275.54 140.549C272.951 136.522 255.098 109.854 255.098 109.854L266.827 101.993L290.468 127.32L333.504 117.521L333.496 117.53Z" fill="#F48462"/>
<path d="M280.625 146.388C280.625 146.388 280.759 146.514 281.027 146.748C281.287 146.992 281.697 147.319 282.25 147.705C283.356 148.46 285.14 149.391 287.545 149.743C288.734 149.928 290.083 149.928 291.482 149.701C292.89 149.542 294.389 149.349 295.964 149.139C299.114 148.712 302.574 148.183 306.193 147.571C313.398 146.304 319.924 145.155 324.708 144.316C327.037 143.938 328.947 143.619 330.329 143.393C330.957 143.292 331.46 143.208 331.862 143.15C332.214 143.091 332.39 143.049 332.39 143.049C332.39 143.049 332.206 143.066 331.854 143.108C331.452 143.166 330.949 143.234 330.321 143.317C328.989 143.502 327.062 143.796 324.691 144.181C319.941 144.936 313.398 146.153 306.168 147.386C302.549 147.998 299.097 148.535 295.947 148.972C294.372 149.19 292.873 149.383 291.465 149.55C290.066 149.777 288.751 149.785 287.57 149.609C285.191 149.274 283.406 148.376 282.292 147.646C281.731 147.269 281.32 146.958 281.052 146.723C280.776 146.497 280.625 146.388 280.625 146.388Z" fill="#263238"/>
<path d="M340.583 134.945C340.583 134.945 340.608 134.878 340.634 134.761C340.667 134.585 340.709 134.408 340.742 134.215C340.835 133.737 340.96 133.049 341.078 132.185C341.304 130.482 341.547 128.033 340.902 125.432C340.24 122.832 338.615 120.843 337.148 119.912C336.411 119.434 335.749 119.174 335.28 119.065C334.811 118.947 334.543 118.931 334.543 118.931C334.518 118.989 335.649 119.057 337.081 120.021C338.506 120.961 340.089 122.924 340.734 125.482C341.371 128.041 341.153 130.474 340.96 132.177C340.86 133.033 340.751 133.729 340.684 134.207C340.659 134.4 340.634 134.585 340.608 134.761C340.592 134.887 340.583 134.954 340.592 134.954L340.583 134.945Z" fill="#263238"/>
<path d="M290.309 140.725C290.309 140.725 290.309 140.532 290.276 140.197L290.142 138.762C290.041 137.546 289.957 135.86 289.999 134.006C290.05 132.143 290.217 130.466 290.376 129.257C290.452 128.746 290.519 128.276 290.586 127.831C290.636 127.496 290.661 127.303 290.644 127.303C290.636 127.303 290.586 127.487 290.51 127.815C290.435 128.15 290.343 128.637 290.251 129.241C290.058 130.449 289.865 132.135 289.815 133.997C289.773 135.868 289.874 137.554 290.008 138.771C290.075 139.375 290.142 139.87 290.2 140.205C290.259 140.541 290.293 140.725 290.309 140.725Z" fill="#263238"/>
<path d="M262.462 90.3997C262.144 87.9082 262.186 86.3478 262.244 85.5928C262.269 85.2405 261.976 84.9636 261.633 84.9888C260.996 85.0475 260.058 85.4082 259.48 86.8679C259.128 87.7655 259.228 88.6883 259.237 89.5776C259.253 91.0708 259.237 92.2453 259.237 92.2453C259.237 92.2453 251.797 83.3278 250.289 82.9251C249.477 82.707 249.184 82.9503 248.882 83.4284C248.605 83.8731 249.158 84.9133 249.158 84.9133L253.356 90.9198C253.356 90.9198 247.014 83.4452 245.866 83.4704C244.693 83.4956 244.216 84.3428 244.936 85.6935C245.481 86.7085 251.018 93.2771 251.018 93.2771C251.018 93.2771 245.095 87.5474 243.914 87.5978C242.733 87.6481 242.934 88.8981 243.554 89.4182C244.174 89.9383 248.555 95.0388 248.555 95.0388C248.555 95.0388 244.274 91.4231 243.411 91.7084C242.523 92.002 242.917 92.9499 243.378 93.7301C243.83 94.5019 254.57 105.257 254.57 105.257L263.878 100.576C264.121 99.2668 264.079 97.9246 263.735 96.6327C263.308 95.0388 262.747 92.6479 262.454 90.3829L262.462 90.3997Z" fill="#FFD3C1"/>
<path d="M125.681 196.336C120.948 196.336 117.111 192.494 117.111 187.754V113.142C117.111 109.342 120.395 106.272 124.441 106.272H131.445C134.301 106.272 136.899 104.711 138.097 102.279L139.604 99.2165C140.802 96.7837 143.4 95.2234 146.256 95.2234H179.515C182.104 95.2234 184.508 96.5069 185.824 98.6041L187.457 101.196C188.773 103.285 191.177 104.577 193.766 104.577H236.165C240.211 104.577 243.495 107.656 243.495 111.448V187.754C243.495 192.494 239.658 196.336 234.925 196.336H125.681Z" fill="#F48462"/>
<g opacity="0.3">
<path opacity="0.3" d="M125.681 196.336C120.948 196.336 117.111 192.494 117.111 187.754V113.142C117.111 109.342 120.395 106.272 124.441 106.272H131.445C134.301 106.272 136.899 104.711 138.097 102.279L139.604 99.2165C140.802 96.7837 143.4 95.2234 146.256 95.2234H179.515C182.104 95.2234 184.508 96.5069 185.824 98.6041L187.457 101.196C188.773 103.285 191.177 104.577 193.766 104.577H236.165C240.211 104.577 243.495 107.656 243.495 111.448V187.754C243.495 192.494 239.658 196.336 234.925 196.336H125.681Z" fill="black"/>
</g>
<path d="M189.585 104.569L162.618 104.51L160.205 99.9967C158.638 97.069 155.455 95.2234 151.961 95.2234H125.597C120.906 95.2234 117.102 98.7887 117.102 103.193V187.284C117.102 192.284 121.425 196.336 126.753 196.336H233.836C239.164 196.336 243.487 192.284 243.487 187.284V110.751C243.487 107.337 240.722 104.569 237.312 104.569H189.577H189.585Z" fill="#F48462"/>
<path d="M203.19 168.291H191.252C190.783 168.291 190.406 167.914 190.406 167.444C190.406 166.974 190.783 166.597 191.252 166.597H203.19C209.742 166.597 215.07 161.261 215.07 154.701C215.07 148.141 210.136 143.183 203.844 142.839C203.475 142.822 203.165 142.562 203.073 142.21C200.912 133.813 193.355 127.949 184.701 127.949C178.912 127.949 173.517 130.549 169.881 135.088C169.697 135.314 169.412 135.432 169.127 135.398C168.465 135.323 167.87 135.281 167.318 135.281C158.697 135.281 151.685 142.302 151.685 150.935C151.685 159.567 158.697 166.588 167.318 166.588H176.994C177.463 166.588 177.84 166.966 177.84 167.436C177.84 167.906 177.463 168.283 176.994 168.283H167.318C157.767 168.283 149.993 160.498 149.993 150.935C149.993 141.371 157.767 133.586 167.318 133.586C167.803 133.586 168.315 133.611 168.859 133.662C172.805 128.947 178.56 126.246 184.701 126.246C193.925 126.246 202.001 132.361 204.548 141.195C211.442 141.883 216.762 147.696 216.762 154.693C216.762 162.184 210.68 168.275 203.199 168.275L203.19 168.291Z" fill="white"/>
<path d="M183.888 175.925C183.419 175.925 183.042 175.548 183.042 175.078V153.267C183.042 152.797 183.419 152.419 183.888 152.419C184.358 152.419 184.735 152.797 184.735 153.267V175.078C184.735 175.548 184.358 175.925 183.888 175.925Z" fill="white"/>
<path d="M190.247 161.974C189.987 161.974 189.736 161.857 189.568 161.639L184.014 154.19C183.964 154.131 183.922 154.122 183.855 154.114C183.805 154.114 183.746 154.131 183.696 154.19L177.806 161.429C177.513 161.79 176.977 161.849 176.617 161.555C176.256 161.261 176.198 160.725 176.491 160.364L182.38 153.124C182.749 152.671 183.294 152.428 183.88 152.419C184.467 152.428 185.003 152.696 185.363 153.166L190.917 160.624C191.194 161.001 191.118 161.53 190.75 161.807C190.599 161.924 190.423 161.974 190.247 161.974Z" fill="white"/>
<path d="M167.535 214.011V210.253H168.231V213.986C168.231 215.547 168.96 216.26 170.233 216.26C171.506 216.26 172.244 215.547 172.244 213.986V210.253H172.922V214.011C172.922 215.899 171.909 216.872 170.233 216.872C168.557 216.872 167.535 215.899 167.535 214.011Z" fill="#263238"/>
<path d="M179.859 214.355C179.859 215.857 178.812 216.872 177.404 216.872C176.617 216.872 175.947 216.537 175.528 215.899V218.651H174.866V211.897H175.503V212.871C175.905 212.216 176.592 211.855 177.404 211.855C178.812 211.855 179.859 212.871 179.859 214.355ZM179.197 214.355C179.197 213.214 178.401 212.434 177.362 212.434C176.324 212.434 175.528 213.214 175.528 214.355C175.528 215.496 176.315 216.276 177.362 216.276C178.41 216.276 179.197 215.505 179.197 214.355Z" fill="#263238"/>
<path d="M181.216 209.859H181.878V216.822H181.216V209.859Z" fill="#263238"/>
<path d="M183.243 214.355C183.243 212.896 184.307 211.855 185.757 211.855C187.206 211.855 188.262 212.896 188.262 214.355C188.262 215.815 187.206 216.872 185.757 216.872C184.307 216.872 183.243 215.823 183.243 214.355ZM187.583 214.355C187.583 213.198 186.804 212.434 185.757 212.434C184.709 212.434 183.922 213.206 183.922 214.355C183.922 215.505 184.709 216.276 185.757 216.276C186.804 216.276 187.583 215.505 187.583 214.355Z" fill="#263238"/>
<path d="M193.297 213.76V216.813H192.66V216.042C192.358 216.545 191.78 216.855 190.968 216.855C189.853 216.855 189.166 216.276 189.166 215.421C189.166 214.657 189.652 214.02 191.068 214.02H192.635V213.718C192.635 212.87 192.157 212.417 191.236 212.417C190.599 212.417 189.996 212.644 189.594 212.996L189.292 212.501C189.786 212.082 190.515 211.839 191.294 211.839C192.568 211.839 193.288 212.476 193.288 213.751L193.297 213.76ZM192.635 215.337V214.531H191.093C190.138 214.531 189.828 214.909 189.828 215.412C189.828 215.983 190.289 216.344 191.076 216.344C191.864 216.344 192.375 215.983 192.643 215.337H192.635Z" fill="#263238"/>
<path d="M199.622 209.859V216.822H198.985V215.849C198.583 216.511 197.896 216.872 197.083 216.872C195.676 216.872 194.629 215.849 194.629 214.355C194.629 212.862 195.676 211.855 197.083 211.855C197.871 211.855 198.549 212.191 198.96 212.829V209.867H199.622V209.859ZM198.968 214.355C198.968 213.198 198.181 212.434 197.142 212.434C196.103 212.434 195.307 213.206 195.307 214.355C195.307 215.505 196.095 216.276 197.142 216.276C198.189 216.276 198.968 215.505 198.968 214.355Z" fill="#263238"/>
<path d="M201.037 216.352C201.037 216.058 201.264 215.849 201.532 215.849C201.8 215.849 202.034 216.067 202.034 216.352C202.034 216.637 201.8 216.872 201.532 216.872C201.264 216.872 201.037 216.646 201.037 216.352Z" fill="#263238"/>
<path d="M203.023 216.352C203.023 216.058 203.249 215.849 203.517 215.849C203.785 215.849 204.02 216.067 204.02 216.352C204.02 216.637 203.785 216.872 203.517 216.872C203.249 216.872 203.023 216.646 203.023 216.352Z" fill="#263238"/>
<path d="M205.008 216.352C205.008 216.058 205.235 215.849 205.503 215.849C205.771 215.849 206.005 216.067 206.005 216.352C206.005 216.637 205.771 216.872 205.503 216.872C205.235 216.872 205.008 216.646 205.008 216.352Z" fill="#263238"/>
<path d="M247.667 228.046H117.01C113.942 228.046 111.456 230.536 111.456 233.608V235.227C111.456 238.299 113.942 240.789 117.01 240.789H247.667C250.735 240.789 253.222 238.299 253.222 235.227V233.608C253.222 230.536 250.735 228.046 247.667 228.046Z" fill="#E0E0E0"/>
<path d="M117.01 228.046H176.793C179.859 228.046 182.347 230.538 182.347 233.608V235.236C182.347 238.306 179.859 240.798 176.793 240.798H117.01C113.944 240.798 111.456 238.306 111.456 235.236V233.608C111.456 230.538 113.944 228.046 117.01 228.046Z" fill="#F48462"/>
<g opacity="0.3">
<path opacity="0.3" d="M122.171 228.046L114.622 240.034L115.804 240.563C116.139 240.714 116.499 240.789 116.859 240.789H119.255L127.449 228.046H122.154H122.171Z" fill="white"/>
</g>
<g opacity="0.3">
<path opacity="0.3" d="M135.65 228.046L127.633 240.789H132.752L140.945 228.046H135.65Z" fill="white"/>
</g>
<g opacity="0.3">
<path opacity="0.3" d="M149.138 228.046L141.112 240.789H146.24L154.424 228.046H149.138Z" fill="white"/>
</g>
<g opacity="0.3">
<path opacity="0.3" d="M162.618 228.046L154.6 240.789H159.719L167.912 228.046H162.618Z" fill="white"/>
</g>
<g opacity="0.3">
<path opacity="0.3" d="M176.106 228.046L168.088 240.789H173.207L179.658 230.748L180.42 229.657C179.432 228.558 177.915 228.122 176.106 228.046Z" fill="white"/>
</g>
<path d="M247.793 240.789C247.793 240.789 248.053 240.789 248.564 240.705C249.066 240.638 249.82 240.462 250.666 239.933C251.513 239.43 252.434 238.524 252.954 237.173C253.213 236.502 253.331 235.722 253.314 234.892C253.297 234.053 253.372 233.147 253.113 232.249C252.669 230.454 251.069 228.659 248.807 228.256C248.254 228.139 247.667 228.164 247.064 228.164C246.461 228.164 245.849 228.164 245.229 228.164C243.981 228.164 242.683 228.164 241.334 228.172C235.955 228.18 229.823 228.189 223.054 228.206C195.961 228.222 158.546 228.248 117.22 228.273C115.98 228.273 114.748 228.717 113.793 229.506C112.838 230.294 112.176 231.41 111.942 232.618C111.816 233.214 111.841 233.835 111.841 234.481C111.841 235.127 111.841 235.731 111.967 236.335C112.218 237.526 112.905 238.616 113.835 239.38C114.773 240.143 115.971 240.563 117.169 240.579C118.418 240.579 119.657 240.579 120.897 240.579C123.377 240.579 125.832 240.579 128.27 240.579C138.013 240.579 147.412 240.588 156.368 240.596C174.271 240.613 190.398 240.63 203.945 240.646C217.483 240.68 228.432 240.697 236.022 240.714C239.801 240.73 242.741 240.747 244.744 240.756C245.732 240.764 246.486 240.772 247.014 240.781C247.525 240.781 247.785 240.806 247.785 240.806C247.785 240.806 247.525 240.823 247.014 240.831C246.494 240.831 245.732 240.839 244.744 240.856C242.741 240.865 239.801 240.881 236.022 240.898C228.441 240.915 217.483 240.94 203.945 240.965C190.398 240.982 174.271 240.99 156.368 241.016C147.412 241.016 138.013 241.024 128.27 241.032C125.832 241.032 123.377 241.032 120.897 241.032C119.657 241.032 118.409 241.032 117.161 241.032C115.862 241.016 114.564 240.563 113.55 239.74C112.536 238.91 111.799 237.744 111.523 236.444C111.38 235.798 111.389 235.127 111.389 234.497C111.389 233.868 111.364 233.205 111.498 232.551C111.757 231.251 112.478 230.043 113.5 229.187C114.53 228.34 115.862 227.862 117.203 227.853C158.521 227.878 195.936 227.904 223.037 227.92C229.806 227.929 235.93 227.946 241.317 227.954C242.666 227.954 243.956 227.954 245.213 227.962C245.841 227.962 246.453 227.962 247.047 227.962C247.642 227.962 248.245 227.946 248.823 228.071C251.169 228.508 252.811 230.37 253.255 232.224C253.515 233.164 253.431 234.078 253.439 234.917C253.448 235.764 253.322 236.561 253.046 237.249C252.501 238.625 251.546 239.539 250.683 240.042C249.82 240.563 249.05 240.722 248.539 240.781C248.028 240.839 247.768 240.814 247.768 240.814L247.793 240.789Z" fill="#263238"/>
<g clip-path="url(#clip1_181_2611)">
<path d="M230.746 79.1259C230.634 79.1259 230.539 79.1259 230.444 79.1259C226.438 79.1259 222.433 79.1259 218.427 79.1259C217.466 79.1259 216.98 78.6785 216.98 77.7934C216.98 73.2748 216.98 68.7569 216.98 64.2383C216.98 63.3686 217.47 62.9174 218.414 62.9174C224.723 62.9174 231.032 62.9174 237.342 62.9174C238.267 62.9174 238.762 63.3738 238.762 64.2261C238.762 66.6462 238.762 69.0657 238.762 71.4858C238.762 71.5658 238.762 71.6451 238.762 71.7411C238.247 71.5903 237.743 71.4697 237.218 71.4426C237.121 71.4375 237.076 71.4001 237.086 71.3066C237.092 71.2512 237.087 71.1944 237.087 71.1377C237.087 69.0953 237.087 67.0536 237.087 65.0113C237.087 64.5703 236.966 64.4601 236.483 64.4601C230.741 64.4601 224.999 64.4601 219.257 64.4601C218.775 64.4601 218.656 64.5697 218.656 65.0139C218.656 69.0173 218.656 73.0214 218.656 77.0249C218.656 77.4697 218.777 77.5813 219.255 77.5813C222.877 77.5813 226.498 77.5832 230.12 77.5761C230.351 77.5761 230.432 77.6271 230.442 77.8462C230.464 78.2801 230.603 78.6959 230.747 79.1253L230.746 79.1259Z" fill="white" fill-opacity="0.53"/>
<path d="M224.949 76.8109C223.214 76.8109 221.478 76.8077 219.742 76.8154C219.537 76.816 219.487 76.7683 219.488 76.5807C219.499 75.4719 219.497 74.363 219.49 73.2535C219.489 73.1046 219.539 72.9982 219.642 72.8899C220.4 72.0918 221.154 71.2898 221.907 70.4891C222.511 69.847 223.415 69.8528 224.004 70.5117C224.658 71.2434 225.306 71.9797 225.948 72.7197C226.059 72.848 226.11 72.8513 226.225 72.7217C227.481 71.3118 228.741 69.9064 230.004 68.5029C230.687 67.7441 231.556 67.7434 232.235 68.4984C233.114 69.4757 233.988 70.4563 234.871 71.4304C235.001 71.5729 235.008 71.616 234.797 71.6844C232.246 72.5089 230.783 74.1574 230.432 76.6304C230.408 76.7986 230.332 76.8128 230.183 76.8128C228.438 76.8096 226.693 76.8109 224.949 76.8109H224.949Z" fill="white" fill-opacity="0.53"/>
<path d="M226.285 68.9026C225.353 68.9058 224.605 68.2212 224.603 67.3651C224.601 66.5121 225.355 65.8146 226.278 65.8165C227.2 65.8185 227.956 66.5218 227.949 67.3715C227.942 68.218 227.201 68.8994 226.285 68.9026Z" fill="white" fill-opacity="0.53"/>
<path d="M236.699 72.1795C233.7 72.173 231.232 74.4075 231.223 77.1371C231.214 79.9446 233.627 82.201 236.65 82.2113C239.659 82.2217 242.105 79.9749 242.113 77.1938C242.121 74.4507 239.675 72.1853 236.699 72.1795ZM239.123 76.992C239.033 77.1383 238.889 77.2002 238.709 77.1964C238.692 77.1964 238.674 77.1951 238.657 77.1964C238.417 77.2125 238.095 77.0997 237.959 77.2434C237.841 77.3672 237.925 77.656 237.925 77.872C237.923 78.643 237.925 79.4147 237.924 80.1858C237.923 80.5326 237.777 80.668 237.405 80.6693C236.916 80.6712 236.428 80.6712 235.94 80.6693C235.554 80.668 235.413 80.5345 235.412 80.1696C235.41 79.7119 235.412 79.2535 235.412 78.7958C235.412 78.3136 235.407 77.832 235.414 77.3498C235.417 77.2273 235.386 77.1803 235.243 77.1893C235.034 77.2028 234.824 77.1944 234.615 77.1964C234.435 77.1983 234.294 77.1345 234.206 76.9856C234.116 76.8328 234.151 76.6922 234.256 76.5575C234.934 75.6827 235.61 74.8065 236.293 73.9343C236.511 73.6564 236.829 73.6584 237.048 73.9381C237.726 74.8033 238.396 75.6736 239.07 76.5414C239.179 76.6826 239.223 76.8315 239.124 76.9914L239.123 76.992Z" fill="white" fill-opacity="0.53"/>
</g>
</g>
<defs>
<clipPath id="clip0_181_2611">
<rect width="380" height="358" fill="white"/>
</clipPath>
<clipPath id="clip1_181_2611">
<rect width="25.1328" height="19.2947" fill="white" transform="translate(216.98 62.9174)"/>
</clipPath>
</defs>
</svg>
