<svg width="21" height="17" viewBox="0 0 21 17" fill="none" xmlns="http://www.w3.org/2000/svg">
<g clip-path="url(#clip0_1052_1603)">
<path d="M-0.000428388 7.50092C0.0691897 7.35714 0.155801 7.22827 0.275851 7.11538C2.70591 4.82823 5.13322 2.53895 7.56054 0.249133C7.68004 0.13624 7.80283 0.0350626 7.97386 0.00896934C8.38992 -0.0549324 8.73637 0.218248 8.74295 0.633077C8.75227 1.19062 8.74624 1.7487 8.74624 2.30624C8.74624 2.87709 8.75336 3.44848 8.74185 4.01934C8.73856 4.19347 8.77803 4.25524 8.97044 4.26003C10.2559 4.29358 11.5145 4.5018 12.7134 4.95337C17.1311 6.61535 19.8363 9.70127 20.7989 14.2143C20.9404 14.8789 20.9919 15.5541 20.999 16.2326C21.0029 16.6341 20.8362 16.8897 20.5188 16.9749C20.1981 17.0606 19.9224 16.9243 19.7168 16.5755C18.5322 14.5631 16.8663 13.054 14.7065 12.0656C13.2665 11.4069 11.7458 11.0741 10.155 11.0496C9.75214 11.0432 9.34813 11.0549 8.94522 11.0437C8.78735 11.0395 8.74075 11.0773 8.74185 11.237C8.74953 12.366 8.74514 13.4944 8.74624 14.6233C8.74624 14.9103 8.62454 15.1255 8.351 15.2405C8.06815 15.3592 7.81818 15.2879 7.6022 15.0839C7.54354 15.0285 7.48434 14.9732 7.42514 14.9178C5.14967 12.7718 2.87365 10.6262 0.599274 8.47968C0.382197 8.27466 0.137711 8.09254 -0.000976562 7.81936V7.50039L-0.000428388 7.50092Z" fill="#2E4C6D"/>
</g>
<defs>
<clipPath id="clip0_1052_1603">
<rect width="21" height="17" fill="white"/>
</clipPath>
</defs>
</svg>
