<svg width="25" height="25" viewBox="0 0 25 25" fill="none" xmlns="http://www.w3.org/2000/svg">
<g clip-path="url(#clip0_1107_264)">
<path d="M24.9805 11.6777C24.9772 11.631 24.9687 11.5902 24.9619 11.5307C24.9076 11.0652 24.8965 10.5955 24.8024 10.1343C24.222 7.29724 22.8558 4.91717 20.6709 3.01533C18.9 1.47195 16.8492 0.517202 14.5378 0.116278C14.1627 0.0508727 13.8191 0.0101008 13.4059 0.0101008H13.2599C12.7372 -0.0298217 11.3855 0.0593669 11.3855 0.0593669C10.2892 0.157899 9.2235 0.391488 8.19085 0.773725C2.20028 2.989 -1.15223 9.30016 0.362382 15.5068C1.961 22.0533 8.55571 26.1568 15.153 24.7094C20.2136 23.6001 24.0955 19.4218 24.8295 14.3032C24.8668 14.045 24.9279 13.7817 24.9619 13.5311C24.9619 13.5311 25.0323 12.1729 24.9805 11.6768V11.6777ZM12.4699 23.5491C6.38519 23.5313 1.42388 18.5537 1.44849 12.4914C1.4731 6.4045 6.40725 1.4711 12.4767 1.4643C18.542 1.4575 23.516 6.43678 23.5101 12.5101C23.5041 18.5911 18.5284 23.5669 12.4699 23.5491Z" fill="black"/>
<path d="M8.13846 8.70226C9.57161 8.70226 10.7409 9.81245 10.8418 11.2692C10.869 11.6608 10.6857 11.9199 10.3531 11.9572C10.0544 11.9912 9.79477 11.7593 9.76423 11.383C9.73283 11.0067 9.62252 10.6721 9.38324 10.379C8.97256 9.87786 8.28525 9.67485 7.64886 9.87106C7.03114 10.0622 6.58312 10.6185 6.52881 11.2624C6.50675 11.5189 6.46772 11.7687 6.20468 11.9003C5.81521 12.0948 5.40792 11.7873 5.42743 11.3159C5.48768 9.85917 6.68834 8.70142 8.13846 8.70142V8.70226Z" fill="black"/>
<path d="M16.8162 8.70227C18.2663 8.69973 19.4653 9.85153 19.5323 11.3125C19.5484 11.6642 19.3567 11.9165 19.0427 11.9564C18.7551 11.9929 18.4954 11.7882 18.4606 11.4374C18.4089 10.9125 18.24 10.458 17.8073 10.1335C17.3049 9.7564 16.7466 9.6859 16.1789 9.93138C15.6011 10.182 15.271 10.644 15.2091 11.282C15.1964 11.4111 15.1853 11.5419 15.1285 11.6599C15.0224 11.8791 14.7738 11.9938 14.5413 11.9394C14.2596 11.8731 14.1068 11.6616 14.1119 11.3474C14.134 9.9025 15.3584 8.70567 16.817 8.70227H16.8162Z" fill="black"/>
<path d="M17.8267 18H6.17331C6.01918 18.0001 5.86652 17.9744 5.72409 17.9242C5.58167 17.874 5.45226 17.8003 5.34328 17.7074C5.23429 17.6145 5.14787 17.5042 5.08896 17.3828C5.03006 17.2615 4.99983 17.1314 5 17C5 16.8687 5.03034 16.7386 5.0893 16.6173C5.14826 16.496 5.2347 16.3857 5.34365 16.2929C5.4526 16.2 5.58196 16.1264 5.72431 16.0761C5.86666 16.0259 6.01923 16 6.17331 16H17.8267C18.1378 16.0003 18.436 16.1057 18.656 16.2932C18.8759 16.4807 18.9997 16.7349 19 17C19 17.2652 18.8764 17.5196 18.6564 17.7071C18.4363 17.8946 18.1379 18 17.8267 18Z" fill="black"/>
<path d="M8 15H7V17H8V15Z" fill="black"/>
<path d="M10 15H9V17H10V15Z" fill="black"/>
<path d="M14 15H13V17H14V15Z" fill="black"/>
<path d="M12 15H11V17H12V15Z" fill="black"/>
<path d="M16 15H15V17H16V15Z" fill="black"/>
<path d="M18 15H17V17H18V15Z" fill="black"/>
<mask id="path-11-inside-1_1107_264" fill="white">
<path d="M7 17H6V19H7V17Z"/>
</mask>
<path d="M7 17H6V19H7V17Z" fill="#5E5763"/>
<path d="M6 17V16H5V17H6ZM7 17H8V16H7V17ZM7 19V20H8V19H7ZM6 19H5V20H6V19ZM6 18H7V16H6V18ZM6 17V19H8V17H6ZM7 18H6V20H7V18ZM7 19V17H5V19H7Z" fill="black" mask="url(#path-11-inside-1_1107_264)"/>
<mask id="path-13-inside-2_1107_264" fill="white">
<path d="M9 17H8V19H9V17Z"/>
</mask>
<path d="M9 17H8V19H9V17Z" fill="#5E5763"/>
<path d="M8 17V16H7V17H8ZM9 17H10V16H9V17ZM9 19V20H10V19H9ZM8 19H7V20H8V19ZM8 18H9V16H8V18ZM8 17V19H10V17H8ZM9 18H8V20H9V18ZM9 19V17H7V19H9Z" fill="black" mask="url(#path-13-inside-2_1107_264)"/>
<mask id="path-15-inside-3_1107_264" fill="white">
<path d="M13 17H12V19H13V17Z"/>
</mask>
<path d="M13 17H12V19H13V17Z" fill="#5E5763"/>
<path d="M12 17V16H11V17H12ZM13 17H14V16H13V17ZM13 19V20H14V19H13ZM12 19H11V20H12V19ZM12 18H13V16H12V18ZM12 17V19H14V17H12ZM13 18H12V20H13V18ZM13 19V17H11V19H13Z" fill="black" mask="url(#path-15-inside-3_1107_264)"/>
<mask id="path-17-inside-4_1107_264" fill="white">
<path d="M10 17H11V19H10V17Z"/>
</mask>
<path d="M10 17H11V19H10V17Z" fill="#5E5763"/>
<path d="M11 17V16H12V17H11ZM10 17H9V16H10V17ZM10 19V20H9V19H10ZM11 19H12V20H11V19ZM11 18H10V16H11V18ZM11 17V19H9V17H11ZM10 18H11V20H10V18ZM10 19V17H12V19H10Z" fill="black" mask="url(#path-17-inside-4_1107_264)"/>
<mask id="path-19-inside-5_1107_264" fill="white">
<path d="M14 17H15V19H14V17Z"/>
</mask>
<path d="M14 17H15V19H14V17Z" fill="#5E5763"/>
<path d="M15 17V16H16V17H15ZM14 17H13V16H14V17ZM14 19V20H13V19H14ZM15 19H16V20H15V19ZM15 18H14V16H15V18ZM15 17V19H13V17H15ZM14 18H15V20H14V18ZM14 19V17H16V19H14Z" fill="black" mask="url(#path-19-inside-5_1107_264)"/>
<mask id="path-21-inside-6_1107_264" fill="white">
<path d="M17 17H16V19H17V17Z"/>
</mask>
<path d="M17 17H16V19H17V17Z" fill="#5E5763"/>
<path d="M16 17V16H15V17H16ZM17 17H18V16H17V17ZM17 19V20H18V19H17ZM16 19H15V20H16V19ZM16 18H17V16H16V18ZM16 17V19H18V17H16ZM17 18H16V20H17V18ZM17 19V17H15V19H17Z" fill="black" mask="url(#path-21-inside-6_1107_264)"/>
<mask id="path-23-inside-7_1107_264" fill="white">
<path d="M19 17H18V19H19V17Z"/>
</mask>
<path d="M19 17H18V19H19V17Z" fill="#5E5763"/>
<path d="M18 17V16H17V17H18ZM19 17H20V16H19V17ZM19 19V20H20V19H19ZM18 19H17V20H18V19ZM18 18H19V16H18V18ZM18 17V19H20V17H18ZM19 18H18V20H19V18ZM19 19V17H17V19H19Z" fill="black" mask="url(#path-23-inside-7_1107_264)"/>
<path d="M17.8678 20.9941C17.7243 20.994 17.5838 20.9593 17.4637 20.8943C17.3436 20.8293 17.249 20.7368 17.1915 20.6281L16.1137 18.5953C15.9735 18.3277 15.9626 18.0259 16.083 17.7519C16.2035 17.4778 16.4462 17.2522 16.7614 17.1214C17.0767 16.9905 17.4405 16.9644 17.7784 17.0483C18.1162 17.1322 18.4024 17.3197 18.5783 17.5725L19.9039 19.4993C19.9532 19.5712 19.9843 19.6506 19.9954 19.7327C20.0065 19.8148 19.9974 19.898 19.9685 19.9771C19.9396 20.0562 19.8916 20.1297 19.8274 20.193C19.7631 20.2563 19.6841 20.3082 19.5949 20.3456L18.1995 20.9341C18.0969 20.9775 17.9832 21.0001 17.8678 21V20.9941ZM17.4037 17.6643C17.291 17.6643 17.1809 17.6919 17.0872 17.7436C16.9936 17.7954 16.9206 17.8689 16.8775 17.9549C16.8344 18.041 16.8231 18.1356 16.8451 18.227C16.8671 18.3183 16.9213 18.4022 17.0009 18.468C17.0806 18.5339 17.182 18.5787 17.2925 18.5969C17.403 18.615 17.5175 18.6057 17.6216 18.5701C17.7257 18.5344 17.8146 18.4741 17.8772 18.3967C17.9398 18.3193 17.9732 18.2282 17.9732 18.1351C17.9732 18.0103 17.9132 17.8905 17.8064 17.8022C17.6996 17.7139 17.5547 17.6643 17.4037 17.6643Z" fill="#5E5763"/>
<path d="M17.4235 17.2321C17.6276 17.2323 17.828 17.2776 18.0044 17.3634C18.1808 17.4492 18.3269 17.5725 18.4279 17.7207L18.9593 18.4981L19.6701 19.5441C19.7072 19.5989 19.7305 19.6593 19.7389 19.7218C19.7472 19.7843 19.7403 19.8475 19.7186 19.9077C19.6968 19.9679 19.6608 20.0238 19.6125 20.072C19.5642 20.1202 19.5047 20.1598 19.4376 20.1882L18.1356 20.7368C18.0583 20.7699 17.9727 20.787 17.8858 20.7868C17.7779 20.7867 17.6724 20.7604 17.5821 20.7111C17.4917 20.6618 17.4205 20.5917 17.377 20.5092L17.2574 20.2871L16.3646 18.5825C16.2875 18.4351 16.2555 18.274 16.2717 18.1137C16.2879 17.9534 16.3516 17.799 16.4571 17.6645C16.5626 17.53 16.7066 17.4196 16.876 17.3433C17.0455 17.267 17.235 17.2273 17.4274 17.2277L17.4235 17.2321ZM17.4474 18.7579C17.5788 18.7579 17.7072 18.7253 17.8164 18.6643C17.9257 18.6033 18.0108 18.5166 18.0611 18.4151C18.1114 18.3137 18.1245 18.202 18.0989 18.0943C18.0733 17.9866 18.01 17.8877 17.9171 17.81C17.8242 17.7324 17.7058 17.6795 17.577 17.6581C17.4481 17.6367 17.3145 17.6477 17.1931 17.6897C17.0718 17.7317 16.968 17.8029 16.895 17.8942C16.822 17.9855 16.7831 18.0928 16.7831 18.2027C16.7831 18.3499 16.8531 18.4911 16.9776 18.5953C17.1022 18.6994 17.2712 18.7579 17.4474 18.7579ZM17.4235 17.01C17.2011 17.0106 16.9819 17.0543 16.7831 17.1377C16.4581 17.2745 16.2081 17.5101 16.0845 17.7962C15.961 18.0822 15.9732 18.397 16.1188 18.6757L17.0063 20.367L17.1258 20.5891C17.1896 20.7114 17.2948 20.8155 17.4284 20.8885C17.562 20.9615 17.7182 21.0003 17.8778 21C18.0061 20.9997 18.1325 20.9746 18.2472 20.9267L19.5492 20.3781C19.6484 20.336 19.7364 20.2775 19.8079 20.2062C19.8793 20.1349 19.9327 20.0522 19.9649 19.9632C19.997 19.8741 20.0073 19.7806 19.995 19.6881C19.9827 19.5957 19.9481 19.5063 19.8933 19.4253L19.1812 18.3792L18.6564 17.6019C18.532 17.4196 18.3523 17.2679 18.1353 17.1622C17.9184 17.0565 17.6719 17.0006 17.4208 17L17.4235 17.01ZM17.4474 18.5358C17.3685 18.5358 17.2915 18.5163 17.2259 18.4797C17.1604 18.4431 17.1093 18.391 17.0791 18.3302C17.049 18.2693 17.0411 18.2023 17.0565 18.1377C17.0718 18.073 17.1098 18.0137 17.1655 17.9671C17.2213 17.9205 17.2923 17.8888 17.3696 17.8759C17.4469 17.8631 17.5271 17.8697 17.5999 17.8949C17.6727 17.9201 17.735 17.9628 17.7788 18.0176C17.8226 18.0724 17.846 18.1368 17.846 18.2027C17.846 18.291 17.804 18.3758 17.7292 18.4382C17.6545 18.5007 17.5531 18.5358 17.4474 18.5358Z" fill="black"/>
</g>
<defs>
<clipPath id="clip0_1107_264">
<rect width="25" height="25" fill="white"/>
</clipPath>
</defs>
</svg>
