<svg width="25" height="25" viewBox="0 0 25 25" fill="none" xmlns="http://www.w3.org/2000/svg">
<g clip-path="url(#clip0_1107_291)">
<path d="M24.9805 11.6777C24.9772 11.631 24.9687 11.5902 24.9619 11.5307C24.9076 11.0652 24.8965 10.5955 24.8024 10.1343C24.222 7.29724 22.8558 4.91717 20.6709 3.01533C18.9 1.47195 16.8492 0.517202 14.5378 0.116278C14.1627 0.0508727 13.8191 0.0101008 13.4059 0.0101008H13.2599C12.7372 -0.0298217 11.3855 0.0593669 11.3855 0.0593669C10.2892 0.157899 9.2235 0.391488 8.19085 0.773725C2.20028 2.989 -1.15223 9.30016 0.362382 15.5068C1.961 22.0533 8.55571 26.1568 15.153 24.7094C20.2136 23.6001 24.0955 19.4218 24.8295 14.3032C24.8668 14.045 24.9279 13.7817 24.9619 13.5311C24.9619 13.5311 25.0323 12.1729 24.9805 11.6768V11.6777ZM12.4699 23.5491C6.38519 23.5313 1.42388 18.5537 1.44849 12.4914C1.4731 6.4045 6.40725 1.4711 12.4767 1.4643C18.542 1.4575 23.516 6.43678 23.5101 12.5101C23.5041 18.5911 18.5284 23.5669 12.4699 23.5491Z" fill="black"/>
<path d="M12.2855 18.4773C10.4212 18.4374 8.68093 17.695 7.26644 16.2043C7.01189 15.9359 6.99237 15.6106 7.21978 15.3838C7.44039 15.1629 7.76538 15.1672 8.01993 15.4313C8.56638 15.9979 9.17138 16.4838 9.89177 16.8065C11.8603 17.6891 13.7805 17.5855 15.6431 16.4957C16.1157 16.2196 16.5264 15.8637 16.9006 15.4645C17.0804 15.2725 17.2926 15.168 17.5548 15.2666C17.9213 15.405 18.0215 15.8476 17.7423 16.1499C16.6443 17.3391 15.3011 18.0858 13.7033 18.3695C13.2935 18.4425 12.882 18.4689 12.2855 18.4782V18.4773Z" fill="black"/>
<path d="M8.13846 8.70226C9.57161 8.70226 10.7409 9.81245 10.8418 11.2692C10.869 11.6608 10.6857 11.9199 10.3531 11.9572C10.0544 11.9912 9.79477 11.7593 9.76423 11.383C9.73283 11.0067 9.62252 10.6721 9.38324 10.379C8.97256 9.87786 8.28525 9.67485 7.64886 9.87106C7.03114 10.0622 6.58312 10.6185 6.52881 11.2624C6.50675 11.5189 6.46772 11.7687 6.20468 11.9003C5.81521 12.0948 5.40792 11.7873 5.42743 11.3159C5.48768 9.85917 6.68834 8.70142 8.13846 8.70142V8.70226Z" fill="black"/>
<path d="M16.8162 8.70227C18.2663 8.69973 19.4653 9.85153 19.5323 11.3125C19.5484 11.6642 19.3567 11.9165 19.0427 11.9564C18.7551 11.9929 18.4954 11.7882 18.4606 11.4374C18.4089 10.9125 18.24 10.458 17.8073 10.1335C17.3049 9.7564 16.7466 9.6859 16.1789 9.93138C15.6011 10.182 15.271 10.644 15.2091 11.282C15.1964 11.4111 15.1853 11.5419 15.1285 11.6599C15.0224 11.8791 14.7738 11.9938 14.5413 11.9394C14.2596 11.8731 14.1068 11.6616 14.1119 11.3474C14.134 9.9025 15.3584 8.70567 16.817 8.70227H16.8162Z" fill="black"/>
<g clip-path="url(#clip1_1107_291)">
<path d="M11.4202 24.9767C11.0957 24.9293 10.9592 24.9044 10.7013 24.8675C5.58068 24.1325 1.40063 20.2447 0.290551 15.1761C-1.15769 8.56846 2.94766 1.96402 9.49647 0.363112C15.7055 -1.15425 22.0198 2.20259 24.2359 8.20217C24.6182 9.23597 24.8544 10.1099 24.9532 11.2072C24.9572 11.2506 24.9765 11.3566 24.999 11.5213V11.7165C24.9636 11.7486 24.9765 11.792 24.9741 11.8321C24.9829 11.8916 24.9524 11.9558 24.999 12.0096V12.9374C24.9572 12.9792 24.9797 13.0314 24.9741 13.0796C24.9741 13.1093 24.9741 13.139 24.9741 13.1688C24.9765 13.2073 24.9652 13.2483 24.999 13.2796V13.5238C24.9419 13.8668 24.9516 14.2162 24.8921 14.5592C24.4913 16.8742 23.5379 18.929 21.9933 20.7018C20.0052 22.983 17.5152 24.3767 14.5352 24.8972C14.1681 24.9615 13.7938 24.9486 13.4259 24.9992H13.2797C13.2484 24.9655 13.2074 24.9767 13.1689 24.9743C13.1392 24.9743 13.1094 24.9743 13.0797 24.9743C13.0323 24.98 12.9793 24.9583 12.9383 24.9992H12.0106C11.9568 24.9526 11.8917 24.9832 11.8331 24.9743C11.7937 24.9775 11.7504 24.9639 11.7174 24.9992C11.6363 24.9992 11.5014 24.9759 11.4202 24.9759V24.9767Z" fill="black"/>
<path d="M24.9998 12.0096C24.9251 11.9566 24.9556 11.8811 24.9572 11.8112C24.9725 11.7919 24.9869 11.7943 24.9998 11.8144V12.0096Z" fill="black"/>
<path d="M11.8125 24.9574C11.8824 24.955 11.9579 24.9253 12.0109 25H11.8158C11.8005 24.992 11.7957 24.9823 11.7997 24.9727C11.8037 24.9622 11.8085 24.9574 11.8133 24.9574H11.8125Z" fill="black"/>
<path d="M24.9589 13.086C24.9533 13.0306 24.938 12.9735 25.0007 12.9374V13.0836C24.9878 13.1045 24.9742 13.1061 24.9589 13.0852V13.086Z" fill="black"/>
<path d="M12.9385 25C12.9746 24.9374 13.0317 24.9526 13.0871 24.9582C13.1015 24.9679 13.1064 24.9775 13.1007 24.9864C13.0951 24.9952 13.0903 24.9992 13.0855 24.9992H12.9393L12.9385 25Z" fill="black"/>
<path d="M24.9998 11.8144C24.9853 11.8144 24.9717 11.8128 24.9572 11.8112C24.9532 11.7711 24.942 11.7285 24.9998 11.7164V11.8144Z" fill="black"/>
<path d="M24.959 13.086C24.9726 13.086 24.9871 13.0844 25.0008 13.0844V13.1823C24.9887 13.2024 24.975 13.2048 24.9598 13.1856C24.9598 13.1526 24.9598 13.1197 24.9598 13.0868L24.959 13.086Z" fill="black"/>
<path d="M24.9598 13.1848C24.9734 13.1848 24.9871 13.1832 25.0007 13.1816V13.2796C24.9413 13.2675 24.9541 13.225 24.9598 13.1848Z" fill="black"/>
<path d="M11.8126 24.9574C11.815 24.9711 11.8158 24.9855 11.8158 25H11.7178C11.7298 24.9421 11.7724 24.9534 11.8126 24.9574Z" fill="black"/>
<path d="M13.085 25C13.085 24.9864 13.085 24.9719 13.0866 24.9583C13.1195 24.9583 13.1524 24.9583 13.1854 24.9583C13.199 24.9687 13.203 24.9775 13.1982 24.9864C13.1934 24.9944 13.1878 24.9992 13.183 24.9992H13.085V25Z" fill="black"/>
<path d="M13.1829 25C13.1829 24.9863 13.1837 24.9727 13.1853 24.959C13.2255 24.9526 13.2681 24.9406 13.2801 25H13.1821H13.1829Z" fill="black"/>
<path d="M19.7878 4.14568C21.0657 5.09755 21.9059 6.38839 22.6031 7.78929C22.6353 7.85355 22.6722 7.91941 22.6626 7.99653C22.7003 8.1363 22.7598 8.26964 22.771 8.41583C22.7726 8.50258 22.7654 8.58934 22.7935 8.67368C22.8031 8.70822 22.8088 8.74356 22.812 8.77971C22.8176 8.86004 22.812 8.94117 22.8441 9.01828C22.8634 9.07451 22.8827 9.12993 22.8802 9.19098C22.8602 9.31227 22.8634 9.43196 22.9035 9.55004C22.9156 9.60386 22.9228 9.65768 22.9212 9.7131C22.9212 10.2208 22.9228 10.7292 22.9212 11.2369C22.9244 11.2939 22.9172 11.3502 22.9051 11.4064C22.8586 11.5333 22.873 11.6666 22.8666 11.7984C22.8642 11.8369 22.8577 11.8755 22.8489 11.9132C22.8136 12.0096 22.8192 12.11 22.8208 12.2105C22.8216 12.3253 22.8063 12.4378 22.7598 12.5446C22.7196 12.6225 22.7204 12.7069 22.7204 12.792C22.5718 13.7029 22.2714 14.5632 21.8906 15.4018C21.5878 16.0693 21.236 16.7063 20.8095 17.2983C20.4545 17.7899 20.1042 18.2896 19.636 18.6872C19.4906 18.7852 19.3693 18.9089 19.2705 19.0543C18.8295 19.5643 18.2841 19.9531 17.7339 20.3274C16.9861 20.8351 16.2005 21.2841 15.3394 21.5781C14.4936 21.8673 13.6478 22.1637 12.7458 22.2336C12.6478 22.2336 12.549 22.2288 12.4542 22.2617C12.4173 22.2713 12.3803 22.277 12.3426 22.2802C12.2164 22.289 12.0879 22.2681 11.965 22.3155C11.8735 22.3404 11.7819 22.3693 11.6847 22.3533C11.3289 22.3139 10.9722 22.346 10.6164 22.3356C10.5184 22.3356 10.4212 22.334 10.3232 22.3356C10.2557 22.338 10.1891 22.33 10.1224 22.3163C10.0244 22.2818 9.92159 22.2834 9.81958 22.2834C9.76817 22.2818 9.71837 22.2754 9.66857 22.2641C9.57218 22.2304 9.47178 22.2352 9.37137 22.2368C8.72798 22.1894 8.11109 22.0151 7.49661 21.8328C6.72229 21.603 6.00098 21.2512 5.28771 20.8809C5.12063 20.7941 4.98649 20.6624 4.82906 20.5628C4.0957 19.9041 3.5013 19.1306 2.98402 18.296C2.84104 18.0654 2.71975 17.8221 2.58802 17.5851C2.54786 17.5152 2.56874 17.426 2.51412 17.361C2.31653 16.8003 2.26753 16.2115 2.18158 15.6299C2.17516 15.5183 2.17997 15.4066 2.17355 15.2958C2.17114 15.1689 2.13178 15.046 2.12776 14.9191C2.12616 14.6427 2.12776 14.3672 2.12616 14.0909C2.11491 13.9359 2.16471 13.7865 2.17194 13.633C2.18158 13.5407 2.17676 13.4475 2.17997 13.3551C2.31893 12.1791 2.57677 11.0321 3.03623 9.93641C3.53022 8.75722 4.19209 7.68406 5.02906 6.71532C6.10219 5.47347 7.37613 4.4959 8.85168 3.781C9.97219 3.23799 11.1497 2.87893 12.3867 2.71908C12.4759 2.70783 12.5626 2.68454 12.651 2.6741C12.7281 2.66687 12.806 2.67088 12.8831 2.66044C12.9892 2.64036 13.0952 2.61707 13.2036 2.61787C13.3169 2.61867 13.4309 2.61787 13.5442 2.61707C13.8542 2.61787 14.1651 2.61707 14.4751 2.61707C14.5748 2.61707 14.6744 2.61787 14.774 2.61948C14.896 2.62269 15.0133 2.66606 15.137 2.66526C15.2165 2.67169 15.2969 2.66767 15.3764 2.67329C16.4487 2.82029 17.4961 3.06288 18.4962 3.48379C18.9428 3.67175 19.3974 3.84927 19.7878 4.14889V4.14568Z" fill="#FECD00"/>
<path d="M2.23949 15.6203C2.34151 16.2075 2.44432 16.7946 2.54633 17.3818C2.52705 17.4011 2.50858 17.3995 2.49091 17.3802C1.95675 16.3456 1.61217 15.2468 1.4708 14.0965C0.969574 10.0199 2.25958 6.59881 5.38337 3.9392C7.71919 1.94952 10.4775 1.13661 13.537 1.4041C15.7861 1.6009 17.7757 2.44835 19.53 3.86289C19.632 3.94483 19.7051 4.04925 19.7878 4.14725C19.4545 4.04604 19.1669 3.84522 18.8505 3.70626C17.8938 3.28615 16.9098 2.96966 15.8729 2.82749C15.7066 2.805 15.5419 2.76242 15.3773 2.72869C15.2985 2.69655 15.2198 2.69655 15.1403 2.72869C15.0174 2.756 14.909 2.68049 14.7909 2.67969C14.6841 2.63792 14.5732 2.66924 14.4648 2.6596C14.1628 2.6596 13.8616 2.6596 13.5595 2.6596C13.4358 2.67005 13.3097 2.63711 13.1876 2.67969L12.8864 2.72708C12.8077 2.69736 12.729 2.69575 12.6511 2.72788C12.2189 2.82829 11.7772 2.87086 11.3442 2.97047C10.2783 3.21546 9.26864 3.60264 8.31359 4.12797C7.23323 4.72239 6.27095 5.47344 5.42353 6.37069C4.76327 7.06953 4.19618 7.83745 3.72308 8.67284C3.14073 9.70102 2.71903 10.7951 2.47565 11.9518C2.37926 12.4088 2.31821 12.8731 2.2411 13.3342C2.20897 13.429 2.21058 13.5238 2.2403 13.6185L2.1921 14.0668C2.15917 14.3567 2.15997 14.6467 2.1921 14.9367C2.19612 15.0556 2.26921 15.164 2.2419 15.2869C2.20897 15.3986 2.20897 15.5094 2.2419 15.6211L2.23949 15.6203Z" fill="#FEE354"/>
<path d="M4.82827 20.5595C5.21462 20.7588 5.59938 20.9604 5.98734 21.1564C6.98978 21.6624 8.05809 21.9612 9.15772 22.1621C9.22841 22.1749 9.30311 22.1661 9.3762 22.1677C9.46536 22.2303 9.57701 22.1556 9.66617 22.2151C9.71597 22.2151 9.76577 22.2151 9.81477 22.2159C9.90393 22.2785 10.0156 22.2038 10.1055 22.2633L10.3031 22.2649C10.4116 22.3139 10.5256 22.2777 10.6365 22.2898C10.9955 22.3026 11.3562 22.2633 11.7144 22.3115C11.798 22.2954 11.8815 22.2793 11.965 22.2633C12.0887 22.2014 12.2293 22.2825 12.3522 22.2159L12.4534 22.2143C12.5434 22.1564 12.6542 22.2295 12.7426 22.1669C13.3554 22.1131 13.9458 21.9596 14.5314 21.7765C15.235 21.5564 15.9306 21.3146 16.5764 20.9539C17.3251 20.5363 18.0464 20.0776 18.697 19.5129C18.8866 19.3482 19.0833 19.194 19.2376 18.994C19.3693 18.8968 19.4842 18.7827 19.5805 18.651C19.9115 18.3947 20.1573 18.0582 20.4095 17.7345C20.8585 17.1569 21.269 16.5497 21.5911 15.8902C22.0457 14.96 22.4304 14.0025 22.6321 12.9807C22.6449 12.9173 22.6481 12.853 22.6553 12.7888C22.7148 12.7173 22.6465 12.6209 22.7027 12.5486C22.7317 12.4353 22.7678 12.3229 22.7525 12.2032C22.8144 12.1148 22.7413 12.004 22.7999 11.9148L22.8015 11.8128C22.8674 11.6899 22.7871 11.5493 22.8489 11.4264C22.8489 11.3758 22.8505 11.3244 22.8513 11.2738C22.8915 10.738 22.8915 10.2023 22.8513 9.66648C22.8513 9.61587 22.8505 9.56607 22.8497 9.51546C22.8144 9.40301 22.8152 9.29055 22.8497 9.17809L22.8007 9.02547C22.7461 8.95237 22.8128 8.85598 22.7533 8.78369V8.68489C22.6963 8.61259 22.7638 8.5154 22.7051 8.44391C22.7204 8.29129 22.6232 8.14911 22.6618 7.99408C22.9453 8.45435 23.0979 8.97005 23.2305 9.48414C24.1791 13.1647 23.522 16.5328 21.1461 19.5097C19.4111 21.6833 17.1339 23.0199 14.386 23.4762C11.0895 24.024 8.11833 23.232 5.49254 21.1612C5.258 20.9756 5.01863 20.7917 4.82666 20.5579L4.82827 20.5595Z" fill="#FEB000"/>
<path d="M2.49072 17.3803C2.5092 17.3803 2.52767 17.3819 2.54615 17.3819C2.60318 17.4397 2.5839 17.5128 2.58711 17.5819C2.53811 17.5224 2.50197 17.4574 2.49072 17.3795V17.3803Z" fill="#D4C05F"/>
<path d="M22.8521 9.6673C22.9259 9.72995 22.8986 9.8159 22.8994 9.89302C22.9019 10.2786 22.9019 10.6633 22.8994 11.0489C22.8994 11.126 22.9251 11.212 22.8521 11.2746C22.8521 10.7389 22.8521 10.2031 22.8521 9.6673Z" fill="#FECB3B"/>
<path d="M11.7145 22.3123C11.3418 22.3123 10.9683 22.3123 10.5956 22.3123C10.5788 22.3026 10.5731 22.2922 10.5788 22.2826C10.5844 22.2729 10.59 22.2673 10.5956 22.2673C10.8936 22.2673 11.1908 22.2641 11.4888 22.2673C11.5651 22.2673 11.6519 22.2376 11.7145 22.3131V22.3123Z" fill="#FECA3D"/>
<path d="M13.5241 2.63392H14.5008C14.5161 2.64356 14.5217 2.6524 14.5169 2.66204C14.512 2.67167 14.5064 2.67649 14.5016 2.67649H13.5233C13.508 2.66685 13.5024 2.65722 13.508 2.64758C13.5136 2.63794 13.5184 2.63312 13.5241 2.63312V2.63392Z" fill="#FEE25F"/>
<path d="M2.18981 14.9351C2.12073 14.6451 2.11992 14.3552 2.18981 14.0652C2.18981 14.3552 2.18981 14.6451 2.18981 14.9351Z" fill="#FEE669"/>
<path d="M19.5813 18.6518C19.5218 18.8213 19.407 18.9353 19.2383 18.9948C19.3315 18.859 19.4455 18.745 19.5813 18.6518Z" fill="#FEC41A"/>
<path d="M22.8505 11.4272C22.8304 11.5558 22.9019 11.6947 22.8031 11.8136C22.8232 11.6851 22.7557 11.5461 22.8505 11.4272Z" fill="#FECA36"/>
<path d="M12.353 22.2167C12.2341 22.3147 12.0943 22.244 11.9658 22.2641C12.0855 22.1701 12.2245 22.2368 12.353 22.2167Z" fill="#FECC39"/>
<path d="M13.5244 2.63388C13.5244 2.64834 13.5244 2.6628 13.5244 2.67726C13.4119 2.67726 13.2995 2.67726 13.187 2.67726C13.2906 2.59131 13.4127 2.65075 13.5252 2.63308L13.5244 2.63388Z" fill="#FEE66B"/>
<path d="M22.8496 9.17969C22.8496 9.29214 22.8496 9.4046 22.8496 9.51706C22.7749 9.4046 22.7733 9.29214 22.8496 9.17969Z" fill="#FECC37"/>
<path d="M8.45419 8.36842C9.81086 8.36842 10.9177 9.41828 11.0133 10.7959C11.039 11.1662 10.8655 11.4112 10.5506 11.4465C10.2679 11.4787 10.0221 11.2594 9.9932 10.9035C9.96348 10.5477 9.85906 10.2312 9.63254 9.95406C9.24378 9.48014 8.59315 9.28816 7.99072 9.47371C7.40597 9.65444 6.98186 10.1806 6.93045 10.7895C6.90956 11.032 6.87262 11.2682 6.62361 11.3927C6.25493 11.5767 5.86937 11.2859 5.88785 10.8401C5.94488 9.46246 7.08146 8.36761 8.45419 8.36761V8.36842Z" fill="black"/>
<path d="M16.6694 8.36841C18.0421 8.366 19.1771 9.45523 19.2406 10.8368C19.2558 11.1694 19.0743 11.408 18.7771 11.4457C18.5048 11.4803 18.259 11.2867 18.2261 10.9549C18.1771 10.4585 18.0172 10.0288 17.6076 9.72191C17.1321 9.36526 16.6035 9.29859 16.0662 9.53074C15.5192 9.7677 15.2067 10.2047 15.1481 10.8079C15.136 10.93 15.1256 11.0537 15.0718 11.1654C14.9714 11.3726 14.736 11.4811 14.5159 11.4297C14.2493 11.367 14.1047 11.167 14.1095 10.8698C14.1304 9.50343 15.2894 8.37163 16.6702 8.36841H16.6694Z" fill="black"/>
<path d="M2.23957 15.6203C2.1721 15.5086 2.1721 15.397 2.23957 15.2861C2.23957 15.3978 2.23957 15.5094 2.23957 15.6203Z" fill="#FEE56A"/>
<path d="M14.5024 2.67648C14.5024 2.66202 14.5024 2.64757 14.5024 2.63391C14.5988 2.64837 14.7049 2.59616 14.7908 2.67729C14.6944 2.67729 14.5988 2.67729 14.5032 2.67729L14.5024 2.67648Z" fill="#FEE66C"/>
<path d="M2.2377 13.6169C2.17103 13.5222 2.17023 13.4266 2.23851 13.3326C2.23851 13.4274 2.23851 13.5222 2.2377 13.6169Z" fill="#FEE56A"/>
<path d="M22.8014 11.9156C22.7877 12.012 22.8423 12.1197 22.754 12.204C22.7692 12.1076 22.7138 12 22.8014 11.9156Z" fill="#FECB36"/>
<path d="M12.7436 22.1677C12.6592 22.2568 12.5508 22.2014 12.4536 22.2151C12.5388 22.1275 12.6464 22.1829 12.7436 22.1677Z" fill="#FECA33"/>
<path d="M10.1057 22.2649C10.0085 22.2496 9.90008 22.3051 9.81494 22.2175C9.91213 22.2328 10.0206 22.1765 10.1057 22.2649Z" fill="#FECA3C"/>
<path d="M10.5954 22.2673C10.5954 22.2825 10.5954 22.297 10.5954 22.3123C10.4974 22.301 10.389 22.3524 10.3022 22.2665C10.3994 22.2665 10.4974 22.2673 10.5946 22.2681L10.5954 22.2673Z" fill="#FEBE2A"/>
<path d="M9.66595 22.2159C9.56875 22.2006 9.46032 22.256 9.37598 22.1685C9.47317 22.1837 9.58161 22.1275 9.66595 22.2159Z" fill="#FECA3C"/>
<path d="M12.6494 2.72627C12.7281 2.66121 12.806 2.66201 12.8848 2.72547C12.806 2.72547 12.7273 2.72547 12.6494 2.72627Z" fill="#FEE66A"/>
<path d="M15.1396 2.72628C15.2184 2.66041 15.2979 2.66041 15.3766 2.72628C15.2979 2.72628 15.2192 2.72628 15.1396 2.72628Z" fill="#FEE66C"/>
<path d="M22.7052 8.4455C22.7871 8.51297 22.7421 8.60535 22.7525 8.68647C22.6714 8.619 22.7164 8.52663 22.7052 8.4455Z" fill="#FEC934"/>
<path d="M22.7542 8.78528C22.8369 8.85275 22.7919 8.94513 22.8016 9.02706C22.7212 8.95878 22.7654 8.86641 22.7542 8.78528Z" fill="#FECB33"/>
<path d="M22.7045 12.5494C22.6941 12.6305 22.7391 12.7221 22.6571 12.7896C22.6676 12.7084 22.6234 12.6169 22.7045 12.5494Z" fill="#FEC82F"/>
<path d="M17.8267 18H6.17331C6.01918 18.0001 5.86652 17.9744 5.72409 17.9242C5.58167 17.874 5.45226 17.8003 5.34328 17.7074C5.23429 17.6145 5.14787 17.5042 5.08896 17.3828C5.03006 17.2615 4.99983 17.1314 5 17C5 16.8687 5.03034 16.7386 5.0893 16.6173C5.14826 16.496 5.2347 16.3857 5.34365 16.2929C5.4526 16.2 5.58196 16.1264 5.72431 16.0761C5.86666 16.0259 6.01923 16 6.17331 16H17.8267C18.1378 16.0003 18.436 16.1057 18.656 16.2932C18.8759 16.4807 18.9997 16.7349 19 17C19 17.2652 18.8764 17.5196 18.6564 17.7071C18.4363 17.8946 18.1379 18 17.8267 18Z" fill="black"/>
<path d="M8 15H7V17H8V15Z" fill="black"/>
<path d="M10 15H9V17H10V15Z" fill="black"/>
<path d="M14 15H13V17H14V15Z" fill="black"/>
<path d="M12 15H11V17H12V15Z" fill="black"/>
<path d="M16 15H15V17H16V15Z" fill="black"/>
<path d="M18 15H17V17H18V15Z" fill="black"/>
<mask id="path-51-inside-1_1107_291" fill="white">
<path d="M7 17H6V19H7V17Z"/>
</mask>
<path d="M7 17H6V19H7V17Z" fill="#5E5763"/>
<path d="M6 17V16H5V17H6ZM7 17H8V16H7V17ZM7 19V20H8V19H7ZM6 19H5V20H6V19ZM6 18H7V16H6V18ZM6 17V19H8V17H6ZM7 18H6V20H7V18ZM7 19V17H5V19H7Z" fill="black" mask="url(#path-51-inside-1_1107_291)"/>
<mask id="path-53-inside-2_1107_291" fill="white">
<path d="M9 17H8V19H9V17Z"/>
</mask>
<path d="M9 17H8V19H9V17Z" fill="#5E5763"/>
<path d="M8 17V16H7V17H8ZM9 17H10V16H9V17ZM9 19V20H10V19H9ZM8 19H7V20H8V19ZM8 18H9V16H8V18ZM8 17V19H10V17H8ZM9 18H8V20H9V18ZM9 19V17H7V19H9Z" fill="black" mask="url(#path-53-inside-2_1107_291)"/>
<mask id="path-55-inside-3_1107_291" fill="white">
<path d="M13 17H12V19H13V17Z"/>
</mask>
<path d="M13 17H12V19H13V17Z" fill="#5E5763"/>
<path d="M12 17V16H11V17H12ZM13 17H14V16H13V17ZM13 19V20H14V19H13ZM12 19H11V20H12V19ZM12 18H13V16H12V18ZM12 17V19H14V17H12ZM13 18H12V20H13V18ZM13 19V17H11V19H13Z" fill="black" mask="url(#path-55-inside-3_1107_291)"/>
<mask id="path-57-inside-4_1107_291" fill="white">
<path d="M10 17H11V19H10V17Z"/>
</mask>
<path d="M10 17H11V19H10V17Z" fill="#5E5763"/>
<path d="M11 17V16H12V17H11ZM10 17H9V16H10V17ZM10 19V20H9V19H10ZM11 19H12V20H11V19ZM11 18H10V16H11V18ZM11 17V19H9V17H11ZM10 18H11V20H10V18ZM10 19V17H12V19H10Z" fill="black" mask="url(#path-57-inside-4_1107_291)"/>
<mask id="path-59-inside-5_1107_291" fill="white">
<path d="M14 17H15V19H14V17Z"/>
</mask>
<path d="M14 17H15V19H14V17Z" fill="#5E5763"/>
<path d="M15 17V16H16V17H15ZM14 17H13V16H14V17ZM14 19V20H13V19H14ZM15 19H16V20H15V19ZM15 18H14V16H15V18ZM15 17V19H13V17H15ZM14 18H15V20H14V18ZM14 19V17H16V19H14Z" fill="black" mask="url(#path-59-inside-5_1107_291)"/>
<mask id="path-61-inside-6_1107_291" fill="white">
<path d="M17 17H16V19H17V17Z"/>
</mask>
<path d="M17 17H16V19H17V17Z" fill="#5E5763"/>
<path d="M16 17V16H15V17H16ZM17 17H18V16H17V17ZM17 19V20H18V19H17ZM16 19H15V20H16V19ZM16 18H17V16H16V18ZM16 17V19H18V17H16ZM17 18H16V20H17V18ZM17 19V17H15V19H17Z" fill="black" mask="url(#path-61-inside-6_1107_291)"/>
<mask id="path-63-inside-7_1107_291" fill="white">
<path d="M19 17H18V19H19V17Z"/>
</mask>
<path d="M19 17H18V19H19V17Z" fill="#5E5763"/>
<path d="M18 17V16H17V17H18ZM19 17H20V16H19V17ZM19 19V20H20V19H19ZM18 19H17V20H18V19ZM18 18H19V16H18V18ZM18 17V19H20V17H18ZM19 18H18V20H19V18ZM19 19V17H17V19H19Z" fill="black" mask="url(#path-63-inside-7_1107_291)"/>
<path d="M17.8678 20.9941C17.7243 20.994 17.5838 20.9593 17.4637 20.8943C17.3436 20.8293 17.249 20.7368 17.1915 20.6281L16.1137 18.5953C15.9735 18.3277 15.9626 18.0259 16.083 17.7519C16.2035 17.4778 16.4462 17.2522 16.7614 17.1214C17.0767 16.9905 17.4405 16.9644 17.7784 17.0483C18.1162 17.1322 18.4024 17.3197 18.5783 17.5725L19.9039 19.4993C19.9532 19.5712 19.9843 19.6506 19.9954 19.7327C20.0065 19.8148 19.9974 19.898 19.9685 19.9771C19.9396 20.0562 19.8916 20.1297 19.8274 20.193C19.7631 20.2563 19.6841 20.3082 19.5949 20.3456L18.1995 20.9341C18.0969 20.9775 17.9832 21.0001 17.8678 21V20.9941ZM17.4037 17.6643C17.291 17.6643 17.1809 17.6919 17.0872 17.7436C16.9936 17.7954 16.9206 17.8689 16.8775 17.9549C16.8344 18.041 16.8231 18.1356 16.8451 18.227C16.8671 18.3183 16.9213 18.4022 17.0009 18.468C17.0806 18.5339 17.182 18.5787 17.2925 18.5969C17.403 18.615 17.5175 18.6057 17.6216 18.5701C17.7257 18.5344 17.8146 18.4741 17.8772 18.3967C17.9398 18.3193 17.9732 18.2282 17.9732 18.1351C17.9732 18.0103 17.9132 17.8905 17.8064 17.8022C17.6996 17.7139 17.5547 17.6643 17.4037 17.6643Z" fill="#5E5763"/>
<path d="M17.4235 17.2321C17.6276 17.2323 17.828 17.2776 18.0044 17.3634C18.1808 17.4492 18.3269 17.5725 18.4279 17.7207L18.9593 18.4981L19.6701 19.5441C19.7072 19.5989 19.7305 19.6593 19.7389 19.7218C19.7472 19.7843 19.7403 19.8475 19.7186 19.9077C19.6968 19.9679 19.6608 20.0238 19.6125 20.072C19.5642 20.1202 19.5047 20.1598 19.4376 20.1882L18.1356 20.7368C18.0583 20.7699 17.9727 20.787 17.8858 20.7868C17.7779 20.7867 17.6724 20.7604 17.5821 20.7111C17.4917 20.6618 17.4205 20.5917 17.377 20.5092L17.2574 20.2871L16.3646 18.5825C16.2875 18.4351 16.2555 18.274 16.2717 18.1137C16.2879 17.9534 16.3516 17.799 16.4571 17.6645C16.5626 17.53 16.7066 17.4196 16.876 17.3433C17.0455 17.267 17.235 17.2273 17.4274 17.2277L17.4235 17.2321ZM17.4474 18.7579C17.5788 18.7579 17.7072 18.7253 17.8164 18.6643C17.9257 18.6033 18.0108 18.5166 18.0611 18.4151C18.1114 18.3137 18.1245 18.202 18.0989 18.0943C18.0733 17.9866 18.01 17.8877 17.9171 17.81C17.8242 17.7324 17.7058 17.6795 17.577 17.6581C17.4481 17.6367 17.3145 17.6477 17.1931 17.6897C17.0718 17.7317 16.968 17.8029 16.895 17.8942C16.822 17.9855 16.7831 18.0928 16.7831 18.2027C16.7831 18.3499 16.8531 18.4911 16.9776 18.5953C17.1022 18.6994 17.2712 18.7579 17.4474 18.7579ZM17.4235 17.01C17.2011 17.0106 16.9819 17.0543 16.7831 17.1377C16.4581 17.2745 16.2081 17.5101 16.0845 17.7962C15.961 18.0822 15.9732 18.397 16.1188 18.6757L17.0063 20.367L17.1258 20.5891C17.1896 20.7114 17.2948 20.8155 17.4284 20.8885C17.562 20.9615 17.7182 21.0003 17.8778 21C18.0061 20.9997 18.1325 20.9746 18.2472 20.9267L19.5492 20.3781C19.6484 20.336 19.7364 20.2775 19.8079 20.2062C19.8793 20.1349 19.9327 20.0522 19.9649 19.9632C19.997 19.8741 20.0073 19.7806 19.995 19.6881C19.9827 19.5957 19.9481 19.5063 19.8933 19.4253L19.1812 18.3792L18.6564 17.6019C18.532 17.4196 18.3523 17.2679 18.1353 17.1622C17.9184 17.0565 17.6719 17.0006 17.4208 17L17.4235 17.01ZM17.4474 18.5358C17.3685 18.5358 17.2915 18.5163 17.2259 18.4797C17.1604 18.4431 17.1093 18.391 17.0791 18.3302C17.049 18.2693 17.0411 18.2023 17.0565 18.1377C17.0718 18.073 17.1098 18.0137 17.1655 17.9671C17.2213 17.9205 17.2923 17.8888 17.3696 17.8759C17.4469 17.8631 17.5271 17.8697 17.5999 17.8949C17.6727 17.9201 17.735 17.9628 17.7788 18.0176C17.8226 18.0724 17.846 18.1368 17.846 18.2027C17.846 18.291 17.804 18.3758 17.7292 18.4382C17.6545 18.5007 17.5531 18.5358 17.4474 18.5358Z" fill="black"/>
</g>
</g>
<defs>
<clipPath id="clip0_1107_291">
<rect width="25" height="25" fill="white"/>
</clipPath>
<clipPath id="clip1_1107_291">
<rect width="25" height="25" fill="white"/>
</clipPath>
</defs>
</svg>
