<svg width="18" height="18" viewBox="0 0 18 18" fill="none" xmlns="http://www.w3.org/2000/svg">
<rect width="18" height="18" rx="9" fill="#F48462"/>
<g clip-path="url(#clip0_1054_1685)">
<path d="M14.2324 4.9715C13.9789 4.7329 13.7376 4.48022 13.4912 4.23393C13.4157 4.15845 13.3364 4.08744 13.2449 4.03115C12.77 3.74009 12.1901 3.81877 11.7741 4.23393C10.7572 5.24913 9.74151 6.26561 8.7252 7.28145C7.31656 8.68942 5.90793 10.098 4.49866 11.5054C4.42378 11.5802 4.36362 11.6602 4.34442 11.7664C4.18698 12.6216 4.02826 13.4763 3.8721 14.3322C3.82666 14.5823 3.8817 14.684 4.10762 14.7864H4.25738C4.26186 14.7813 4.26506 14.7723 4.27018 14.7717C5.0945 14.6194 5.91881 14.4678 6.74313 14.3168C6.88009 14.2919 7.01001 14.2637 7.11625 14.1575C9.55015 11.7216 11.986 9.28754 14.4218 6.85285C14.5652 6.70956 14.6708 6.54452 14.7341 6.35133C14.752 6.29568 14.7469 6.23235 14.786 6.18309V5.8626C14.7264 5.48774 14.4973 5.22163 14.2324 4.9715ZM5.42985 13.9081C5.1713 13.956 4.91274 14.0021 4.65482 14.052C4.60042 14.0622 4.56714 14.0699 4.5825 13.9919C4.67722 13.4935 4.76874 12.9939 4.86154 12.495C4.86346 12.4854 4.87114 12.4771 4.8705 12.4777C5.29994 12.9069 5.73065 13.3375 6.16329 13.7699C5.92329 13.8147 5.67689 13.8626 5.42985 13.9081ZM13.0791 7.28657C12.3847 7.98064 11.6903 8.67471 10.9959 9.36878C9.63975 10.7243 8.2836 12.0792 6.93001 13.4373C6.85833 13.5089 6.82505 13.4993 6.75977 13.4341C6.23881 12.9082 5.71593 12.3856 5.18986 11.8649C5.1297 11.8054 5.13226 11.776 5.1905 11.7184C7.24488 9.66816 9.29799 7.61601 11.3492 5.56194C11.4145 5.49606 11.4439 5.50501 11.5034 5.56514C12.0269 6.09353 12.5537 6.61808 13.0797 7.14327C13.1021 7.16566 13.1233 7.18933 13.1469 7.21492C13.1226 7.24051 13.1009 7.26482 13.0791 7.28657ZM13.9572 6.4089C13.8548 6.51253 13.7492 6.61361 13.6487 6.71916C13.6128 6.7569 13.5936 6.7537 13.5578 6.71788C13.0004 6.15878 12.441 5.60097 11.8938 5.0553C12.0353 4.90498 12.1652 4.74761 12.3149 4.61263C12.4865 4.45719 12.7489 4.45975 12.9364 4.59856C12.9735 4.62607 13.0081 4.65677 13.0407 4.6894C13.346 4.99325 13.6506 5.29711 13.9546 5.60225C14.2087 5.85748 14.2093 6.15366 13.9572 6.4089Z" fill="white"/>
</g>
<defs>
<clipPath id="clip0_1054_1685">
<rect width="10.9286" height="10.9286" fill="white" transform="translate(3.85693 3.85715)"/>
</clipPath>
</defs>
</svg>
