<svg width="57" height="57" viewBox="0 0 57 57" fill="none" xmlns="http://www.w3.org/2000/svg">
<path fill-rule="evenodd" clip-rule="evenodd" d="M56.9515 28.4757C56.9515 12.7502 44.201 0 28.4757 0C12.7502 0 0 12.7502 0 28.4757C0 42.6875 10.4117 54.4685 24.0268 56.6074V36.709H16.7947V28.4757H24.0268V22.2007C24.0268 15.0646 28.2795 11.1203 34.7827 11.1203C37.8981 11.1203 41.1577 11.6769 41.1577 11.6769V18.6848H37.5658C34.03 18.6848 32.9246 20.8792 32.9246 23.1337V28.4755H40.8211L39.5599 36.7087H32.9244V56.607C46.5396 54.4725 56.9511 42.6914 56.9511 28.4755L56.9515 28.4757Z" fill="#1977F3"/>
<path fill-rule="evenodd" clip-rule="evenodd" d="M39.5597 36.7086L40.8213 28.4754H32.9246V23.1336C32.9246 20.8831 34.0258 18.6847 37.5657 18.6847H41.1579V11.6767C41.1579 11.6767 37.8984 11.1201 34.7827 11.1201C28.2795 11.1201 24.0268 15.0606 24.0268 22.2005V28.4756H16.7947V36.7088H24.0268V56.6072C25.4764 56.835 26.962 56.9513 28.4757 56.9513C29.9894 56.9513 31.4751 56.8311 32.9246 56.6072V36.7088H39.5601L39.5597 36.7086Z" fill="#FEFEFE"/>
</svg>
