<svg width="20" height="16" viewBox="0 0 20 16" fill="none" xmlns="http://www.w3.org/2000/svg">
<g clip-path="url(#clip0_1911_4225)">
<path d="M20 3.31315C19.9123 3.52425 19.7484 3.66727 19.5746 3.80606C18.9625 4.2958 18.3566 4.79188 17.7481 5.28373C17.4746 5.50433 17.2059 5.53071 16.958 5.37081C16.6115 5.14705 16.5614 4.63672 16.8813 4.37127C17.5841 3.78689 18.2947 3.212 19.0131 2.64662C19.3262 2.40069 19.7573 2.52418 19.9399 2.88093C19.9598 2.91946 19.9514 2.9754 20.002 2.99704L20 3.31315Z" fill="white"/>
<path d="M20 12.1591C19.9207 12.291 19.8623 12.4362 19.7234 12.5259C19.4834 12.681 19.2089 12.6721 18.9636 12.4731C18.2761 11.9215 17.5907 11.3673 16.9075 10.8107C16.7774 10.7085 16.6929 10.5582 16.6723 10.393C16.6518 10.2278 16.6969 10.061 16.7979 9.92941C16.8482 9.86205 16.9114 9.80567 16.9838 9.76369C17.0562 9.72171 17.1363 9.69498 17.2192 9.68512C17.3021 9.67525 17.3861 9.68246 17.4661 9.70631C17.5462 9.73015 17.6207 9.77014 17.685 9.82386C18.269 10.2851 18.8446 10.7574 19.4234 11.2255C19.6436 11.4034 19.8894 11.5575 20.0021 11.8398L20 12.1591Z" fill="white"/>
<path d="M19.9998 7.73613C19.8469 8.09183 19.5823 8.22851 19.1982 8.21532C18.5876 8.19474 17.9755 8.21057 17.3644 8.20951C16.9511 8.20951 16.6719 7.95303 16.6719 7.57623C16.6719 7.19942 16.9474 6.94558 17.3644 6.94294C17.9692 6.94294 18.5741 6.95772 19.1784 6.93714C19.5667 6.92341 19.8448 7.04796 19.9998 7.41632V7.73613Z" fill="white"/>
<path d="M15.8279 0.586828C15.825 0.491005 15.7991 0.397333 15.7525 0.313865C15.7058 0.230397 15.6398 0.159629 15.5602 0.10764C15.3311 -0.0538485 15.0994 -0.0111019 14.8572 0.0875853C11.5357 1.43473 8.21319 2.78046 4.8896 4.12479C4.74606 4.18435 4.5923 4.21466 4.43714 4.21398C3.55832 4.21028 2.6795 4.1992 1.80172 4.21926C1.32468 4.23314 0.871475 4.43322 0.537097 4.77756C0.202718 5.1219 0.0131253 5.58376 0.0080636 6.06634C-0.00237373 6.86904 -0.00550492 7.67225 0.0080636 8.47442C0.0211103 9.11298 0.326924 9.58267 0.888974 9.87979C1.30647 10.102 1.76153 10.1141 2.21921 10.1078C2.57512 10.1025 2.58452 10.1078 2.63253 10.4608C2.86528 12.087 3.09525 13.7135 3.32244 15.3403C3.3861 15.7963 3.60268 15.9995 4.06036 16C4.82159 16 5.58281 16 6.34404 16C6.87896 16 7.12371 15.7393 7.06787 15.1973C6.9635 14.2036 6.84817 13.2109 6.73753 12.2182C6.689 11.7812 6.64151 11.3443 6.59141 10.8851C6.67386 10.9173 6.73284 10.9379 6.79181 10.9643L14.8839 14.2363C15.0112 14.289 15.1396 14.3329 15.281 14.3123C15.6385 14.2595 15.8284 14.0072 15.8284 13.5766V0.744621C15.831 0.691847 15.8305 0.639074 15.8279 0.586828ZM1.83773 8.8412C1.71397 8.84235 1.59139 8.8168 1.47816 8.76626C1.41074 8.74005 1.35308 8.69322 1.31323 8.6323C1.27338 8.57137 1.25332 8.49939 1.25585 8.42639C1.25585 7.64323 1.25063 6.86006 1.25585 6.07743C1.25771 5.92057 1.31976 5.77058 1.42891 5.65911C1.53807 5.54765 1.68577 5.48344 1.84086 5.48002C2.57565 5.47053 3.31096 5.48003 4.04626 5.47264C4.17777 5.47264 4.17308 5.54019 4.17256 5.63096C4.17256 6.14445 4.17256 6.65741 4.17256 7.1709C4.17256 7.68439 4.16839 8.18416 4.17569 8.69079C4.17569 8.81534 4.14073 8.84383 4.02278 8.84278C3.2953 8.83908 2.56678 8.8412 1.83773 8.8412ZM5.60352 14.7392C5.28518 14.7281 4.96579 14.7297 4.64746 14.7392C4.52951 14.7429 4.49821 14.7044 4.48255 14.5893C4.32234 13.4246 4.15482 12.2609 3.98991 11.0973C3.94398 10.7727 3.89962 10.4476 3.8537 10.1152C4.30563 10.0956 4.74453 10.0624 5.15367 10.2946C5.23612 10.3416 5.27944 10.378 5.28988 10.4761C5.38694 11.378 5.48923 12.2789 5.58995 13.1803C5.64214 13.6442 5.69119 14.108 5.74651 14.5714C5.76164 14.6917 5.7439 14.7445 5.60352 14.7392ZM14.5697 12.7438C14.0677 12.5417 13.574 12.3443 13.0813 12.1454C10.5833 11.1353 8.08464 10.1255 5.58525 9.11615C5.46626 9.06812 5.4193 9.01377 5.42034 8.87603C5.42713 7.7245 5.42504 6.57297 5.42034 5.42092C5.42034 5.31959 5.43652 5.25732 5.54298 5.21404C8.53501 4.00763 11.527 2.79911 14.5191 1.58848C14.535 1.58512 14.5513 1.58371 14.5676 1.58425L14.5697 12.7438Z" fill="white"/>
</g>
<defs>
<clipPath id="clip0_1911_4225">
<rect width="20" height="16" fill="white"/>
</clipPath>
</defs>
</svg>
