<svg width="24" height="24" viewBox="0 0 24 24" fill="none" xmlns="http://www.w3.org/2000/svg">
<g clip-path="url(#clip0_1911_2755)">
<path d="M22.5913 21.6407C22.5913 21.5112 22.5913 21.4247 22.5913 21.3389C22.5913 17.3889 22.5913 13.4395 22.5913 9.48944C22.5913 8.43275 22.0657 7.82791 21.1454 7.82648C20.591 7.82576 20.036 7.82719 19.4816 7.82648C19.0275 7.82505 18.708 7.49832 18.703 7.0336C18.698 6.55817 19.0187 6.22429 19.4885 6.22214C20.0667 6.22 20.6449 6.21714 21.2225 6.22214C22.8237 6.23644 23.9963 7.58125 23.997 9.40651C23.9989 13.9536 23.9957 18.5006 24.0001 23.0477C24.0001 23.4266 23.9168 23.7404 23.6061 23.9149C23.3079 24.0822 23.0398 23.985 22.7779 23.7698C21.5626 22.7703 20.3386 21.7851 19.1233 20.7856C18.7149 20.4488 18.2701 20.2958 17.7677 20.2966C15.0258 20.3023 12.2839 20.2994 9.54197 20.2994C7.86375 20.2994 6.70297 18.9753 6.70109 17.06C6.70109 16.8641 6.6967 16.6675 6.70234 16.4716C6.71612 16.0312 7.01493 15.6945 7.39079 15.688C7.77856 15.6816 8.08802 16.0169 8.10493 16.4702C8.11245 16.6746 8.10681 16.8805 8.10681 17.085C8.10869 18.0845 8.64429 18.6936 9.52631 18.6936C12.2839 18.6944 15.0415 18.6958 17.799 18.6929C18.5808 18.6922 19.2887 18.936 19.9208 19.4658C20.2603 19.7503 20.6055 20.0256 20.9487 20.3051C21.4856 20.742 22.0231 21.1781 22.5906 21.6392L22.5913 21.6407Z" fill="#FFA98F"/>
<path d="M17.2946 0.897256C17.2946 0.800024 17.2921 0.699931 17.2708 0.606988C17.175 0.18946 16.9156 0 16.4458 0C11.9167 0 7.38693 0 2.8578 0C2.76446 0 2.67049 0.00285978 2.57716 0.0100092C1.53226 0.091513 0.77678 0.677768 0.282522 1.7223C0.145333 2.01186 0.108373 2.3393 0 2.63886V17.1901C0.337649 17.8651 0.714137 17.9559 1.27417 17.4997C2.46753 16.5274 3.66402 15.5601 4.853 14.5806C5.26707 14.2389 5.71247 14.0773 6.22614 14.0787C8.99812 14.0887 11.7707 14.088 14.5433 14.0816C16.0938 14.078 17.2928 12.7132 17.2946 10.9515C17.2984 7.59987 17.2959 4.24892 17.2946 0.897256ZM15.8889 10.9058C15.8889 11.8438 15.3314 12.4765 14.5032 12.4772C11.7469 12.4794 8.9906 12.4851 6.23429 12.4736C5.42431 12.4701 4.7039 12.7217 4.04928 13.2665C3.1873 13.9836 2.31343 14.6814 1.40635 15.4185V14.9938C1.40635 11.0902 1.40635 7.18663 1.40635 3.28303C1.40635 2.20418 1.9219 1.60577 2.85968 1.60577C7.13072 1.60434 11.4024 1.60577 15.6734 1.60076C15.84 1.60076 15.8952 1.63151 15.8945 1.8417C15.887 4.86306 15.8908 7.88442 15.8889 10.9058Z" fill="#FFA98F"/>
<path d="M9.11844 5.96906C7.77598 5.96906 6.43291 5.97335 5.09046 5.96692C4.52165 5.96406 4.18275 5.35135 4.43708 4.80298C4.57928 4.49627 4.81545 4.36615 5.1105 4.36472C5.6104 4.36258 6.10967 4.36472 6.60956 4.36472C8.76387 4.36472 10.9188 4.36401 13.0731 4.36472C13.5336 4.36472 13.8468 4.65714 13.8756 5.10255C13.9069 5.59157 13.6 5.96406 13.1464 5.96692C12.3421 5.97263 11.5384 5.96835 10.734 5.96906C10.1953 5.96906 9.65654 5.96906 9.11781 5.96906H9.11844Z" fill="#FFA98F"/>
<path d="M9.11517 9.71395C7.77272 9.71395 6.42964 9.71824 5.08719 9.71181C4.53092 9.70895 4.18888 9.10982 4.4263 8.56789C4.57101 8.2383 4.82221 8.10747 5.13668 8.1089C5.76875 8.11104 6.40145 8.1089 7.03353 8.1089C9.04752 8.1089 11.0615 8.10818 13.0761 8.1089C13.5247 8.1089 13.8354 8.39202 13.8742 8.82313C13.9187 9.3193 13.6055 9.70823 13.1432 9.71109C12.2611 9.71681 9.5756 9.71252 9.11517 9.71252V9.71395Z" fill="#FFA98F"/>
</g>
<defs>
<clipPath id="clip0_1911_2755">
<rect width="24" height="24" fill="white"/>
</clipPath>
</defs>
</svg>
