<svg width="42" height="42" viewBox="0 0 42 42" fill="none" xmlns="http://www.w3.org/2000/svg">
<circle cx="21" cy="21" r="21" fill="#2E4C6D"/>
<path d="M20.9516 34C20.5968 34 20.4194 33.8217 20.2419 33.465C19.1774 31.5035 18.1129 29.542 17.0484 27.7589C16.871 27.4022 16.6935 27.2239 16.5161 26.8673C16.3387 26.689 16.5161 26.689 16.5161 26.5106C18.1129 24.9058 19.7097 23.3009 21.4839 21.5177C21.6613 21.3394 21.8387 20.9828 21.8387 20.8045C21.6613 20.2695 20.9516 19.9129 20.5968 20.4478C20.4194 20.6261 20.2419 20.8045 19.8871 21.1611C18.2903 22.5876 16.871 24.0142 15.4516 25.4407C15.2742 25.619 15.2742 25.619 15.0968 25.4407C12.7903 24.1925 10.6613 22.9443 8.53226 21.696C8.17742 21.5177 8 21.3394 8 20.9828C8 20.6261 8.17742 20.4478 8.53226 20.2695C15.2742 17.5947 22.0161 14.7416 28.7581 12.0669C29.2903 11.8886 29.8226 12.0669 30 12.6018C30 12.7801 30 12.9585 29.8226 13.1368C28.5806 16.1682 27.3387 19.0213 26.2742 22.0527C24.6774 25.7974 23.2581 29.542 21.6613 33.465C21.6613 33.6434 21.3065 34 20.9516 34Z" fill="white"/>
</svg>
