<svg width="34" height="34" viewBox="0 0 34 34" fill="none" xmlns="http://www.w3.org/2000/svg">
<circle cx="17" cy="17" r="17" fill="white"/>
<path d="M16.9608 27.5238C16.6736 27.5238 16.53 27.3795 16.3863 27.0908C15.5246 25.5029 14.6628 23.915 13.8011 22.4715C13.6575 22.1828 13.5138 22.0384 13.3702 21.7497C13.2266 21.6054 13.3702 21.6054 13.3702 21.461C14.6628 20.1618 15.9555 18.8627 17.3917 17.4191C17.5353 17.2748 17.679 16.9861 17.679 16.8417C17.5353 16.4087 16.9608 16.1199 16.6736 16.553C16.53 16.6974 16.3863 16.8417 16.0991 17.1304C14.8065 18.2852 13.6575 19.4401 12.5085 20.5949C12.3648 20.7392 12.3648 20.7392 12.2212 20.5949C10.3541 19.5844 8.63057 18.5739 6.90707 17.5635C6.61982 17.4191 6.4762 17.2748 6.4762 16.9861C6.4762 16.6974 6.61982 16.553 6.90707 16.4087C12.3648 14.2434 17.8226 11.9337 23.2803 9.76843C23.7112 9.62407 24.1421 9.76843 24.2857 10.2015C24.2857 10.3458 24.2857 10.4902 24.1421 10.6345C23.1367 13.0885 22.1313 15.3982 21.2696 17.8522C19.977 20.8836 18.828 23.915 17.5353 27.0908C17.5353 27.2351 17.2481 27.5238 16.9608 27.5238Z" fill="#2E4C6D"/>
</svg>
