<svg width="26" height="26" viewBox="0 0 26 26" fill="none" xmlns="http://www.w3.org/2000/svg">
<path d="M20.6043 23.0213C19.9597 20.0155 18.3293 17.7053 15.6864 16.121C15.5531 16.041 15.5211 16.002 15.6301 15.8581C16.7498 14.3845 17.2054 12.7273 16.9471 10.8908C16.4885 7.62801 13.6815 5.19587 10.397 5.20002C9.90167 5.21245 9.41053 5.25745 8.9259 5.36934C4.22836 6.45043 2.21047 12.0542 5.15851 15.8457C5.27048 15.9901 5.24204 16.0322 5.10223 16.1145C3.6762 16.9498 2.51322 18.0635 1.62573 19.4578C0.549836 21.1475 0.0136686 22.9988 4.22531e-05 25.0017C-0.00232755 25.309 0.0948343 25.5695 0.330037 25.766C0.619745 26.0082 0.951518 26.0668 1.30284 25.9212C1.64409 25.7797 1.8473 25.5168 1.87752 25.1468C1.91603 24.6767 1.91129 24.2036 1.99305 23.7359C2.49663 20.8645 4.0607 18.7787 6.64437 17.4424C6.76523 17.3797 6.84758 17.3903 6.96193 17.4602C7.9768 18.0836 9.08231 18.4098 10.2731 18.4323C11.5599 18.4566 12.7514 18.1239 13.8503 17.4572C13.9386 17.4039 14.0079 17.3542 14.1282 17.4146C16.3671 18.5442 17.8577 20.2996 18.5805 22.7022C18.8163 23.4855 18.8874 24.2907 18.9211 25.1041C18.9431 25.634 19.3862 26.0206 19.8874 25.9969C20.4147 25.9721 20.7962 25.563 20.7998 25.0218C20.8039 24.3481 20.7459 23.6779 20.6049 23.0207L20.6043 23.0213ZM10.3993 16.5407C7.78662 16.5407 5.67157 14.4247 5.67453 11.8132C5.67749 9.20405 7.79965 7.08925 10.41 7.09398C13.0091 7.09872 15.1217 9.21352 15.1247 11.8132C15.1277 14.4241 13.012 16.5407 10.3993 16.5413V16.5407Z" fill="white"/>
<path d="M20.1931 7.55966C20.1931 7.19994 20.178 6.83886 20.1986 6.47983C20.2109 6.26524 20.1313 6.2336 19.9426 6.23635C19.2315 6.24667 18.5204 6.24185 17.8087 6.23979C17.2671 6.23841 16.8958 5.89727 16.8999 5.40894C16.9041 4.93367 17.2754 4.59528 17.7998 4.5939C18.528 4.59184 19.2569 4.5884 19.9851 4.59734C20.1498 4.5994 20.1993 4.55951 20.1972 4.38894C20.1869 3.66057 20.1917 2.9322 20.1931 2.20314C20.1945 1.67698 20.5301 1.30626 21.005 1.30007C21.4917 1.29388 21.8376 1.66872 21.839 2.20727C21.841 2.91844 21.85 3.63031 21.8328 4.34148C21.8273 4.56639 21.898 4.60216 22.1019 4.59872C22.8129 4.58565 23.524 4.59184 24.2357 4.5939C24.7587 4.59528 25.1294 4.93711 25.1314 5.41306C25.1335 5.8897 24.7622 6.23772 24.2433 6.23979C23.5061 6.24254 22.769 6.24529 22.0325 6.23635C21.8733 6.23429 21.8328 6.27418 21.8349 6.43375C21.8445 7.16212 21.8403 7.89049 21.8383 8.61955C21.8369 9.16153 21.4972 9.53569 21.0119 9.53362C20.5253 9.53156 20.1945 9.16084 20.1924 8.61336C20.191 8.26189 20.1924 7.91043 20.1924 7.55897L20.1931 7.55966Z" fill="white"/>
</svg>
