<svg width="61" height="55" viewBox="0 0 61 55" fill="none" xmlns="http://www.w3.org/2000/svg">
<path d="M30.4752 20.8799L30.4313 20.9237L30.4303 20.9247L29.9893 21.3649L29.655 20.8392L29.4472 20.5118C29.447 20.5116 29.4469 20.5114 29.4468 20.5112C28.0418 18.318 25.3865 17.2865 22.9172 17.9627L30.4752 20.8799ZM30.4752 20.8799L30.507 20.8267C31.3442 19.428 32.4667 18.5011 33.9557 18.0308L33.9558 18.0308C38.0324 16.7423 42.1361 20.1764 41.6261 24.4327M30.4752 20.8799L41.6261 24.4327M41.6261 24.4327C41.3448 26.7786 40.3946 28.8594 39.0851 30.8323L39.0851 30.8323C36.7219 34.3935 33.686 37.3385 30.3162 39.9924L30.3161 39.9925C30.1853 40.0956 30.1085 40.1101 30.0736 40.1108C30.0431 40.1115 29.979 40.1036 29.8669 40.0153C26.3134 37.2033 23.1136 34.0972 20.7118 30.2693M41.6261 24.4327L22.9171 17.9627C19.8556 18.8014 18.0408 21.7427 18.6008 25.0045L18.6008 25.0046C18.926 26.9004 19.6834 28.63 20.7118 30.2693M20.7118 30.2693L20.2885 30.5349L20.7118 30.2693Z" fill="#FF0000" stroke="#FF0000"/>
<path d="M19.8204 10H18.1796C18.0804 10 18 9.91959 18 9.82041V8.17959C18 8.08041 18.0804 8 18.1796 8H19.8204C19.9196 8 20 8.08041 20 8.17959V9.82041C20 9.91959 19.9196 10 19.8204 10Z" fill="#01A18D"/>
<path d="M49.8204 44.2556H48.1796C48.0804 44.2556 48 44.1752 48 44.076V42.4352C48 42.336 48.0804 42.2556 48.1796 42.2556H49.8204C49.9196 42.2556 50 42.336 50 42.4352V44.076C50 44.1752 49.9196 44.2556 49.8204 44.2556Z" fill="#01A18D"/>
<path d="M54.8204 20H53.1796C53.0804 20 53 19.9196 53 19.8204V18.1796C53 18.0804 53.0804 18 53.1796 18H54.8204C54.9196 18 55 18.0804 55 18.1796V19.8204C55 19.9196 54.9196 20 54.8204 20Z" fill="#FACF19"/>
<path d="M35.8204 42.2556H34.1796C34.0804 42.2556 34 42.1752 34 42.076V40.4352C34 40.336 34.0804 40.2556 34.1796 40.2556H35.8204C35.9196 40.2556 36 40.336 36 40.4352V42.076C36 42.1752 35.9196 42.2556 35.8204 42.2556Z" fill="#FF0000"/>
<path d="M16.8204 40H15.1796C15.0804 40 15 39.9196 15 39.8204V38.1796C15 38.0804 15.0804 38 15.1796 38H16.8204C16.9196 38 17 38.0804 17 38.1796V39.8204C17 39.9196 16.9196 40 16.8204 40Z" fill="#FACF19"/>
<path d="M39.6408 51.2556H36.3592C36.1608 51.2556 36 51.0948 36 50.8964V47.6148C36 47.4164 36.1608 47.2556 36.3592 47.2556H39.6408C39.8392 47.2556 40 47.4164 40 47.6148V50.8964C40 51.0948 39.8392 51.2556 39.6408 51.2556Z" fill="#01A18D"/>
<path d="M25.2556 10.2635C25.2556 10.2635 24.734 5.77031 20.9464 2.15113L20.2445 2.9633C20.2445 2.9633 23.5693 6.30569 24.2948 10.4658L25.2567 10.2625L25.2556 10.2635Z" fill="#FF0A77"/>
<path d="M23.2258 42.464L23.8451 41.337C23.8451 41.337 24.6361 41.656 24.9803 42.5517C25.3246 43.4474 25.3393 43.7295 25.277 44.2689C25.2146 44.8084 24.8343 45.5606 24.1712 46.035C23.5081 46.5095 23.1157 46.5328 23.1157 46.5328C23.1157 46.5328 22.6726 46.6638 22.8601 46.977C23.0475 47.2903 23.7223 47.8338 23.7939 47.8865C23.8655 47.9392 25.4875 49.4816 24.4456 50.648C24.4456 50.648 23.6803 51.5328 22.4261 51.8599C22.4261 51.8599 21.2854 52.2156 21.3001 52.4977C21.3147 52.7798 21.5668 53.1689 21.7267 53.2093L20.8991 54.248C20.8991 54.248 20.3671 53.9095 20.0966 53.1048C19.8261 52.3001 20.3404 51.4488 20.7991 51.2134C21.2577 50.978 23.0286 50.2232 23.1534 50.109C23.2783 49.9949 23.5231 49.7897 23.4709 49.6083C23.4186 49.4269 22.8639 48.7924 22.5833 48.5168C22.3028 48.2413 21.8074 47.8032 21.6759 47.4555C21.5444 47.1078 21.4339 46.5372 21.7072 46.0245C21.9805 45.5119 22.6631 45.2964 22.9957 45.1741C23.3284 45.0518 23.9511 44.735 23.9956 44.0702C24.0401 43.4054 23.9247 42.8557 23.2247 42.4629L23.2258 42.464Z" fill="#FE0A77"/>
<path d="M37.2258 1.46399L37.8451 0.337048C37.8451 0.337048 38.6361 0.656042 38.9803 1.55174C39.3246 2.44743 39.3393 2.72952 39.277 3.26894C39.2146 3.80836 38.8343 4.56055 38.1712 5.03504C37.5081 5.50954 37.1157 5.53281 37.1157 5.53281C37.1157 5.53281 36.6726 5.66375 36.8601 5.97703C37.0475 6.2903 37.7223 6.83381 37.7939 6.88651C37.8655 6.93921 39.4875 8.4816 38.4456 9.64802C38.4456 9.64802 37.6803 10.5328 36.4261 10.8599C36.4261 10.8599 35.2854 11.2156 35.3001 11.4977C35.3147 11.7798 35.5668 12.1689 35.7267 12.2093L34.8991 13.248C34.8991 13.248 34.3671 12.9095 34.0966 12.1048C33.8261 11.3001 34.3404 10.4488 34.7991 10.2134C35.2577 9.97797 37.0286 9.22321 37.1534 9.10904C37.2783 8.99488 37.5231 8.78967 37.4709 8.60831C37.4186 8.42694 36.8639 7.7924 36.5833 7.51683C36.3028 7.24126 35.8074 6.80321 35.6759 6.45549C35.5444 6.10776 35.4339 5.53715 35.7072 5.02454C35.9805 4.51193 36.6631 4.29639 36.9957 4.17409C37.3284 4.05178 37.9511 3.73503 37.9956 3.0702C38.0401 2.40536 37.9247 1.8557 37.2247 1.46293L37.2258 1.46399Z" fill="#FACF19"/>
<path d="M12.8654 22.2349L14.038 22.7626C14.038 22.7626 13.7829 23.5764 12.9175 23.9909C12.052 24.4053 11.772 24.4423 11.2293 24.4231C10.6866 24.4039 9.90656 24.0846 9.38082 23.4614C8.85508 22.8381 8.80066 22.4488 8.80066 22.4488C8.80066 22.4488 8.6349 22.0176 8.33753 22.2294C8.04016 22.4411 7.55204 23.157 7.50521 23.2325C7.45837 23.3081 6.04989 25.0476 4.80429 24.1018C4.80429 24.1018 3.86147 23.4094 3.43557 22.1851C3.43557 22.1851 2.9903 21.0764 2.71027 21.1134C2.43024 21.1505 2.06235 21.4327 2.03489 21.5953L0.933603 20.8529C0.933603 20.8529 1.22866 20.2957 2.00933 19.962C2.79 19.6284 3.6795 20.0734 3.95065 20.5118C4.2218 20.9503 5.11503 22.6555 5.23877 22.7709C5.36251 22.8862 5.58654 23.114 5.76317 23.0475C5.9398 22.9809 6.52821 22.3775 6.78059 22.076C7.03297 21.7744 7.43022 21.2457 7.76638 21.0869C8.10255 20.9282 8.66256 20.7727 9.19528 21.0043C9.72801 21.236 9.99716 21.8993 10.1455 22.2211C10.2939 22.543 10.6592 23.1386 11.3255 23.13C11.9917 23.1215 12.5305 22.9628 12.8663 22.2337L12.8654 22.2349Z" fill="#FE0A77"/>
<path d="M16.6829 30.0445L14.1445 29.3334C13.9911 29.2904 13.8319 29.38 13.7889 29.5334L13.0778 32.0717C13.0348 32.2252 13.1243 32.3844 13.2778 32.4274L15.8161 33.1385C15.9695 33.1815 16.1288 33.092 16.1718 32.9385L16.8829 30.4002C16.9258 30.2467 16.8363 30.0875 16.6829 30.0445Z" fill="#4A74FE"/>
<path d="M31.9533 3.55511L30.5028 3.14876C30.4151 3.12419 30.3241 3.17536 30.2995 3.26304L29.8932 4.71356C29.8686 4.80125 29.9198 4.89224 30.0074 4.9168L31.458 5.32316C31.5456 5.34772 31.6366 5.29656 31.6612 5.20887L32.0676 3.75835C32.0921 3.67067 32.041 3.57968 31.9533 3.55511Z" fill="#4A74FE"/>
<path d="M51.0178 32.5447L46.8702 31.3828C46.6195 31.3125 46.3593 31.4588 46.2891 31.7095L45.1272 35.8571C45.0569 36.1078 45.2032 36.368 45.4539 36.4382L49.6015 37.6001C49.8522 37.6704 50.1124 37.5241 50.1826 37.2734L51.3446 33.1258C51.4148 32.8751 51.2685 32.6149 51.0178 32.5447Z" fill="#4A74FE"/>
<path d="M59.2006 10.9412L56.9946 10.3232C56.8613 10.2859 56.7229 10.3637 56.6855 10.497L56.0675 12.703C56.0302 12.8363 56.108 12.9747 56.2413 13.0121L58.4473 13.6301C58.5807 13.6674 58.719 13.5896 58.7564 13.4563L59.3744 11.2503C59.4117 11.117 59.3339 10.9786 59.2006 10.9412Z" fill="#4A74FE"/>
<path d="M9.20058 14.6856L6.99462 14.0676C6.86127 14.0303 6.72289 14.1081 6.68553 14.2414L6.06754 16.4474C6.03019 16.5808 6.108 16.7191 6.24135 16.7565L8.44731 17.3745C8.58066 17.4118 8.71904 17.334 8.7564 17.2007L9.37439 14.9947C9.41174 14.8614 9.33393 14.723 9.20058 14.6856Z" fill="#4A74FE"/>
<path d="M44.6026 16.7175L42.2568 14.3717C42.115 14.2299 42.115 13.9999 42.2568 13.8581L44.6026 11.5123C44.7444 11.3705 44.9743 11.3705 45.1161 11.5123L47.4619 13.8581C47.6037 13.9999 47.6037 14.2299 47.4619 14.3717L45.1161 16.7175C44.9743 16.8593 44.7444 16.8593 44.6026 16.7175Z" fill="#FF0A77"/>
<path d="M6.60258 45.4619L4.25676 43.1161C4.11496 42.9743 4.11495 42.7444 4.25676 42.6026L6.60258 40.2567C6.74438 40.1149 6.97429 40.1149 7.11609 40.2567L9.46192 42.6026C9.60372 42.7444 9.60372 42.9743 9.46191 43.1161L7.11609 45.4619C6.97429 45.6037 6.74438 45.6037 6.60258 45.4619Z" fill="#FF0A77"/>
<path d="M44.039 6.03895L45.6798 7.67975C45.779 7.77894 45.9398 7.77894 46.039 7.67975L47.6798 6.03896C47.7789 5.93977 47.7789 5.77896 47.6798 5.67977L46.039 4.03898C45.9398 3.93979 45.779 3.93979 45.6798 4.03898L44.039 5.67978C43.9398 5.77896 43.9398 5.93977 44.039 6.03895Z" fill="#FF0A77"/>
<path d="M57.8573 35.0503L56.268 33.4609C56.1719 33.3648 56.1719 33.2091 56.268 33.113L57.8573 31.5236C57.9534 31.4276 58.1092 31.4276 58.2052 31.5236L59.7946 33.113C59.8907 33.2091 59.8907 33.3648 59.7946 33.4609L58.2052 35.0503C58.1092 35.1464 57.9534 35.1464 57.8573 35.0503Z" fill="#FF0A77"/>
<path d="M46.1555 24.4615C46.1555 24.4615 53.0544 22.3862 60.5318 25.8514L59.7393 27.4405C59.7393 27.4405 52.9328 24.506 46.4052 26.0581L46.1555 24.4615Z" fill="#01A18D"/>
<path d="M8.80562 32.3298C8.80562 32.3298 5.35726 34.168 1.01135 33.121L1.26372 32.1914C1.26372 32.1914 5.19627 33.0276 8.50282 31.5072L8.80562 32.3298Z" fill="#01A18D"/>
<path d="M39.2273 39.3032C39.2273 39.3032 44.7389 42.93 46.6985 50.2188L45.1165 50.5958C45.1165 50.5958 43.1783 44.0901 38.2524 40.4168L39.2273 39.3032Z" fill="#FACF19"/>
<path d="M16.945 18.0001L16.432 17.7806C16.432 17.7806 16.5064 17.4785 16.4551 17.3959C16.4038 17.3133 16.3109 17.2437 16.046 17.3133C15.7812 17.383 14.9503 17.5951 14.672 17.153C14.3937 16.7108 14.5412 16.1074 14.5553 15.9771C14.5694 15.8467 14.6823 15.4434 14.679 15.3219C14.6758 15.2004 14.7137 15.0789 14.5277 15.1308C14.3418 15.1826 13.7891 15.3041 13.4595 14.9396C13.13 14.5752 13.0716 14.3323 13.0235 14.1023C12.9754 13.8723 12.9927 13.3564 13.1543 13.0001L13.6108 13.3556C13.6108 13.3556 13.3877 14.0456 13.7102 14.3185C14.0327 14.5914 14.1296 14.5096 14.3386 14.4788C14.5476 14.4481 14.9708 14.427 15.1215 14.7655C15.2721 15.104 15.1901 15.594 15.1901 15.594C15.1901 15.594 14.9907 16.2662 15.0285 16.5269C15.0663 16.7877 15.3036 16.7529 15.3036 16.7529C15.3036 16.7529 15.9152 16.6752 16.1005 16.6314C16.2858 16.5877 16.8424 16.5666 16.9835 17.2607C16.9835 17.2607 17.0399 17.702 16.9443 18.0001H16.945Z" fill="#FACF19"/>
</svg>
