<svg width="51" height="51" viewBox="0 0 51 51" fill="none" xmlns="http://www.w3.org/2000/svg">
<path d="M25.4981 12.4953C25.0501 12.4953 24.6069 12.5182 24.1703 12.5629C23.7337 12.6076 23.3031 12.6739 22.8798 12.7608C22.4566 12.8479 22.0408 12.9556 21.6334 13.0828L20.4376 13.5218L19.299 14.0716L18.2247 14.7253L17.2208 15.4762L16.2945 16.3176L15.4522 17.2431L14.7006 18.2458L14.046 19.3192L13.496 20.4564C13.3306 20.8454 13.1835 21.2442 13.0562 21.6513C12.9289 22.0584 12.8212 22.4739 12.734 22.8967C12.6468 23.3195 12.5806 23.7496 12.5357 24.1859C12.4908 24.6222 12.4683 25.0649 12.4683 25.5124C12.4683 25.96 12.4911 26.4027 12.5357 26.839C12.58 27.2719 12.6462 27.7022 12.734 28.1283C12.8212 28.5527 12.9289 28.9667 13.0562 29.3738C13.1835 29.7809 13.3304 30.1795 13.496 30.5686L14.046 31.7058L14.7006 32.779L15.4522 33.7819L16.2945 34.7074L17.2208 35.549L18.2247 36.2998L19.299 36.9533L20.4376 37.5032L21.6334 37.9423L22.8798 38.2643C23.3063 38.352 23.7371 38.4182 24.1703 38.4624C24.6115 38.5074 25.0547 38.53 25.4981 38.5297C25.9462 38.5297 26.3894 38.507 26.8259 38.4624C27.2591 38.4182 27.6898 38.352 28.1163 38.2643L29.3629 37.9423L30.5587 37.5032L31.6971 36.9533L32.7716 36.2998L33.7755 35.549L34.702 34.7074L35.5444 33.7819L36.2959 32.779L36.9505 31.7058L37.5007 30.5686L37.9401 29.3738C38.0675 28.9667 38.1754 28.5511 38.2625 28.1283L38.4606 26.8388C38.5056 26.4025 38.5282 25.9599 38.5282 25.5123C38.5282 25.0647 38.5056 24.622 38.4606 24.1857C38.4164 23.7529 38.3502 23.3227 38.2625 22.8965C38.1754 22.4722 38.0675 22.0584 37.9401 21.6511L37.5007 20.4563L36.9505 19.319L36.2959 18.2457L35.5444 17.2429L34.702 16.3174L33.7755 15.476L32.7716 14.7252L31.6971 14.0714L30.5587 13.5217L29.3629 13.0826L28.1163 12.7607L26.8259 12.5627C26.3847 12.5177 25.9416 12.4951 25.4981 12.4951V12.4953ZM25.4981 16.9883C25.7944 16.9883 26.0867 17.003 26.3747 17.0321L27.2235 17.1605L28.0434 17.3694L28.8285 17.6546L29.5749 18.0121L30.2768 18.4373L30.933 18.9265L31.5379 19.4753L32.0872 20.0795L32.5769 20.7351L33.0026 21.4379L33.3601 22.1839C33.4674 22.4392 33.5628 22.7008 33.6457 22.9684C33.7286 23.2359 33.7983 23.5093 33.8546 23.7878C33.9109 24.0662 33.9526 24.3496 33.9831 24.6374L34.0269 25.5133C34.0269 25.8092 34.0122 26.1014 33.9831 26.3893C33.954 26.6772 33.9113 26.9606 33.8546 27.2389C33.798 27.5172 33.7281 27.7906 33.6457 28.0583L33.3601 28.8428L33.0026 29.5887L32.5769 30.2914L32.0872 30.9471L31.5379 31.5514L30.933 32.1002L30.2768 32.5894L29.5749 33.0146L28.8285 33.3721L28.0434 33.6572L27.2235 33.8661L26.3747 33.9944C26.0834 34.0236 25.7908 34.0382 25.498 34.0382C25.2051 34.0382 24.9125 34.0236 24.6211 33.9944L23.7723 33.8661C23.4937 33.8097 23.2201 33.7398 22.9523 33.6572L22.1672 33.3721L21.4207 33.0146L20.7188 32.5894L20.0626 32.1002L19.4577 31.5514L18.9085 30.9471L18.4188 30.2914L17.9931 29.5887L17.6356 28.8428L17.3499 28.0583L17.141 27.2389L17.0126 26.3893C16.9833 26.0982 16.9687 25.8058 16.9688 25.5133C16.9687 25.2207 16.9833 24.9284 17.0126 24.6374C17.0414 24.3496 17.0844 24.0661 17.141 23.7878C17.1971 23.5114 17.2669 23.238 17.3501 22.9685L17.6358 22.184L17.9932 21.4381L18.4189 20.7352L18.9086 20.0797L19.4579 19.4754L20.0628 18.9266L20.719 18.4375L21.4209 18.0122L22.1673 17.6548C22.4242 17.5469 22.6863 17.4517 22.9526 17.3696L23.7727 17.1607C24.0513 17.1042 24.335 17.0611 24.6215 17.0322C24.9128 17.003 25.2055 16.9884 25.4983 16.9885L25.4981 16.9883Z" fill="url(#paint0_radial_1187_1229)"/>
<path d="M39.0563 8.79199C38.953 8.79199 38.8497 8.79723 38.7467 8.80767C38.6438 8.81807 38.5415 8.83364 38.44 8.85434C38.3388 8.87504 38.2383 8.90079 38.1396 8.93154C38.0405 8.96233 37.9436 8.99806 37.848 9.03861C37.7528 9.07923 37.6598 9.12463 37.5688 9.17459C37.4779 9.22448 37.3898 9.2789 37.3045 9.33767C37.2189 9.39647 37.1365 9.45956 37.0576 9.52668C36.9783 9.59373 36.9026 9.66471 36.8304 9.73937C36.7586 9.81406 36.6903 9.89237 36.6259 9.97392C36.5615 10.0555 36.5013 10.1403 36.4454 10.2279C36.3895 10.3155 36.3382 10.4058 36.2912 10.4985C36.2445 10.5914 36.202 10.6865 36.1645 10.7836C36.127 10.8806 36.0944 10.9795 36.0665 11.0798C36.0389 11.1801 36.0162 11.2818 35.9989 11.3844C35.9812 11.487 35.9688 11.5904 35.9614 11.6942C35.9561 11.7677 35.9536 11.8415 35.9536 11.9152C35.9536 12.0194 35.9586 12.1235 35.9692 12.2271C35.9794 12.3307 35.995 12.4337 36.0155 12.5358C36.0361 12.6378 36.0615 12.7388 36.092 12.8382C36.1227 12.9377 36.1581 13.0356 36.1985 13.1316C36.2388 13.2275 36.2837 13.3214 36.3336 13.4128C36.3832 13.5042 36.4373 13.5931 36.4957 13.6791C36.5541 13.765 36.6167 13.8479 36.6832 13.9275C36.7501 14.0072 36.8205 14.0834 36.8948 14.156C36.9691 14.2285 37.0466 14.2973 37.128 14.362C37.209 14.4268 37.2932 14.4874 37.3803 14.5437C37.4673 14.6 37.5572 14.6518 37.6492 14.6991C37.7415 14.7463 37.836 14.7889 37.9322 14.8267C38.0288 14.8645 38.1268 14.8973 38.2266 14.9251C38.3264 14.9529 38.4272 14.9757 38.5291 14.9934C38.631 15.0111 38.734 15.0237 38.837 15.0311C38.9102 15.0363 38.9835 15.0389 39.0567 15.0389C39.16 15.0389 39.2637 15.0338 39.3667 15.0234C39.4693 15.013 39.5719 14.9974 39.6731 14.9767C39.7746 14.9561 39.8748 14.9303 39.9738 14.8995C40.0725 14.8687 40.1698 14.833 40.265 14.7924C40.3602 14.7519 40.4536 14.7065 40.5442 14.6566C40.6351 14.6067 40.7232 14.5522 40.8089 14.4934C40.8941 14.4346 40.9766 14.3716 41.0558 14.3046C41.1347 14.2374 41.2105 14.1664 41.2826 14.0917C41.3548 14.017 41.4231 13.9387 41.4872 13.8571C41.5516 13.7755 41.6117 13.6908 41.6676 13.6032C41.7235 13.5155 41.7752 13.4251 41.8219 13.3324C41.8689 13.2395 41.9114 13.1444 41.9489 13.0474C41.9864 12.9503 42.019 12.8514 42.0466 12.7511C42.0742 12.6508 42.0968 12.5491 42.1145 12.4465C42.1322 12.3439 42.1446 12.2405 42.1516 12.1367C42.157 12.0631 42.1598 11.9894 42.1598 11.9157C42.1598 11.8116 42.1545 11.7075 42.1442 11.6039C42.134 11.5003 42.1184 11.3973 42.0979 11.2953C42.0773 11.1932 42.0515 11.0923 42.0211 10.9928C41.9903 10.8933 41.9549 10.7954 41.9146 10.6995C41.8742 10.6035 41.8293 10.5097 41.7798 10.4182C41.7302 10.3268 41.6761 10.238 41.6177 10.152C41.559 10.066 41.4964 9.98309 41.4298 9.90341C41.363 9.82376 41.2925 9.74747 41.2186 9.6749C41.1443 9.60237 41.0665 9.53362 40.9854 9.4689C40.9044 9.40419 40.8202 9.34361 40.7331 9.28739C40.6461 9.23109 40.5562 9.17922 40.4639 9.13199C40.3715 9.08472 40.2771 9.04211 40.1808 9.00436C40.0846 8.96661 39.9862 8.93377 39.8864 8.90593C39.787 8.87804 39.6858 8.85522 39.5839 8.83753C39.482 8.81987 39.3794 8.80731 39.2761 8.79999C39.2028 8.79475 39.1296 8.79217 39.0563 8.79217V8.79199Z" fill="url(#paint1_radial_1187_1229)"/>
<path d="M23.0273 0.0463732C21.6102 0.0440878 20.3455 0.0499635 19.2094 0.0659598L16.1636 0.147574C15.2612 0.186749 14.464 0.237836 13.7484 0.303943C13.3906 0.336915 13.0531 0.373805 12.7331 0.414449C12.4287 0.452822 12.1251 0.497503 11.8225 0.548462C11.5344 0.597432 11.261 0.650315 10.9988 0.70777C10.7367 0.765229 10.4863 0.827255 10.2447 0.893853C10.0086 0.958975 9.77421 1.03061 9.54203 1.10866C9.31448 1.18538 9.09249 1.26667 8.87325 1.35351C8.43482 1.52718 8.00718 1.72207 7.56677 1.94047C7.22791 2.1086 6.91484 2.27884 6.61745 2.45905C6.32005 2.63925 6.0383 2.82958 5.76245 3.03688C5.47836 3.2514 5.20454 3.4792 4.94192 3.71952C4.66735 3.96957 4.38694 4.2446 4.09556 4.55197C3.72946 4.93605 3.41131 5.29417 3.12893 5.64559C2.98773 5.82123 2.85552 5.99493 2.73098 6.16958C2.60781 6.34168 2.49006 6.51764 2.37791 6.6971C2.26692 6.87504 2.1618 7.05624 2.06125 7.24263C1.95913 7.43225 1.86262 7.62484 1.77184 7.82012C1.58609 8.21906 1.41274 8.64868 1.23972 9.12826C1.11136 9.48276 0.996419 9.84204 0.895143 10.2052C0.791821 10.5764 0.699924 10.9647 0.617981 11.3847C0.536041 11.8047 0.464546 12.2564 0.401702 12.7558C0.333984 13.3033 0.279884 13.8525 0.239455 14.4027C0.193751 15.0076 0.155882 15.6732 0.124868 16.4141L0.0514158 18.8776L0.0119142 21.8805L0.000488281 25.5102L0.0339501 30.7885L0.138416 34.7876L0.218888 36.3496L0.319437 37.6442C0.351669 37.9931 0.391997 38.3409 0.44039 38.688C0.48446 38.9962 0.531799 39.2658 0.582725 39.4994C0.686061 39.9739 0.808253 40.4441 0.94901 40.909C1.08378 41.3541 1.23791 41.7929 1.41094 42.2246C1.58103 42.6474 1.76711 43.055 1.96951 43.4474C2.17192 43.8398 2.39064 44.217 2.62569 44.5793C2.86074 44.9413 3.11212 45.2887 3.38046 45.6213C3.6485 45.9539 3.93362 46.272 4.23465 46.5752C4.53612 46.8788 4.8541 47.1676 5.18922 47.4421C5.52825 47.7199 5.88074 47.981 6.24529 48.2241C6.58366 48.4502 6.91845 48.6575 7.25569 48.8475C7.59289 49.0379 7.93306 49.2102 8.28271 49.3673C8.63233 49.5241 8.9908 49.6652 9.36525 49.7923C9.73968 49.9193 10.1298 50.0322 10.5421 50.1323C10.9544 50.2328 11.3909 50.3205 11.8529 50.3973C12.3148 50.4741 12.8085 50.5399 13.3361 50.5965C13.8637 50.6531 14.4265 50.6998 15.0312 50.7391C15.636 50.7784 16.2824 50.8095 16.9769 50.8347C18.0498 50.8736 19.6739 50.8962 21.5468 50.9051L27.6099 50.8927L33.3514 50.8124L35.5345 50.7508L36.9565 50.6779C37.2618 50.6528 37.5605 50.6234 37.8489 50.5891C38.1372 50.5548 38.4214 50.5155 38.6984 50.4706C38.9751 50.426 39.2458 50.3761 39.5115 50.3205C39.7744 50.2657 40.0359 50.2045 40.2956 50.1372C40.5528 50.0718 40.8065 49.9975 41.0577 49.9186C41.3086 49.84 41.5573 49.7548 41.8043 49.6631C42.0527 49.5711 42.2986 49.4731 42.5424 49.3694C42.7876 49.2647 43.0325 49.1533 43.2784 49.0347C43.6559 48.8528 43.9598 48.7011 44.2266 48.5532C44.4779 48.4155 44.7195 48.2616 44.9506 48.0921C45.1784 47.9244 45.4049 47.7333 45.666 47.4927C45.9271 47.2521 46.2233 46.9623 46.5895 46.5958C46.9118 46.2738 47.1832 45.9939 47.4175 45.7395C47.6517 45.4851 47.8491 45.2562 48.0222 45.0354C48.187 44.8259 48.3406 44.608 48.4825 44.3822C48.6208 44.1618 48.7482 43.9328 48.8777 43.6792C49.073 43.2974 49.2468 42.9435 49.4021 42.6021C49.5532 42.2734 49.6912 41.9383 49.8157 41.5986C49.9385 41.2614 50.045 40.9186 50.1345 40.5711C50.2265 40.2137 50.3058 39.8362 50.3744 39.4222C50.4427 39.0083 50.5007 38.5578 50.551 38.0547C50.6012 37.5519 50.644 36.9957 50.6815 36.3712L50.7813 34.2741L50.8666 31.6662L50.9278 28.7607L50.9512 25.7227L50.8967 19.7559L50.8238 17.0833L50.7244 14.7887L50.6002 12.9997C50.5552 12.5019 50.5064 12.1098 50.4551 11.8447C50.3978 11.5518 50.3341 11.2603 50.2637 10.9703C50.195 10.6881 50.1197 10.4077 50.0376 10.1292C49.9576 9.85782 49.8706 9.58856 49.7768 9.32167C49.6841 9.05806 49.5857 8.79998 49.4828 8.54749C49.3802 8.29496 49.2687 8.04834 49.153 7.80692C49.0369 7.5655 48.9156 7.32996 48.7882 7.09979C48.6605 6.86966 48.5278 6.64523 48.3887 6.42631C48.25 6.20744 48.1053 5.99408 47.9546 5.78645C47.8049 5.57949 47.6485 5.37728 47.4861 5.18006C47.3244 4.98396 47.1567 4.793 46.983 4.60745C46.8096 4.42219 46.6302 4.24244 46.4455 4.0685C46.2604 3.89449 46.0701 3.72603 45.8737 3.56313C45.6763 3.39969 45.4742 3.24242 45.2669 3.09156C45.0578 2.93916 44.8441 2.79317 44.6258 2.65379C44.4046 2.51242 44.1796 2.37764 43.9503 2.24963C43.7175 2.11947 43.4804 1.99602 43.2405 1.87943C42.8417 1.68567 42.4731 1.5138 42.1114 1.36134C41.7555 1.21004 41.3928 1.07566 41.0245 0.958657C40.654 0.841946 40.2683 0.74189 39.8441 0.655541C39.4195 0.569193 38.9567 0.49721 38.433 0.435997C37.9094 0.374788 37.3245 0.325331 36.6554 0.284197C35.9866 0.243063 35.2342 0.210742 34.3751 0.184625L31.4556 0.119335L27.7606 0.0757531L23.0289 0.0466969L23.0273 0.0463732ZM25.4847 4.53548L32.3082 4.57433L34.8823 4.62394C35.5911 4.64386 36.1321 4.66722 36.4491 4.69414C36.8624 4.72892 37.2555 4.77248 37.632 4.82474C37.9929 4.87459 38.3524 4.93659 38.709 5.01064C39.0519 5.08247 39.3788 5.16406 39.692 5.25613C40.0047 5.3482 40.3037 5.45137 40.5903 5.56545C40.8773 5.67956 41.1515 5.80506 41.4155 5.94252C41.6773 6.07892 41.9317 6.22902 42.1776 6.3922C42.4225 6.55461 42.6585 6.72962 42.8877 6.91814C43.1167 7.10666 43.3389 7.30873 43.5558 7.52485C43.7851 7.75289 43.9963 7.98515 44.1909 8.22476C44.3848 8.46292 44.5645 8.71251 44.7284 8.97219C44.8943 9.23558 45.0436 9.50898 45.176 9.79077C45.3111 10.0781 45.4325 10.3817 45.5415 10.7044C45.6508 11.0271 45.7477 11.37 45.8337 11.7365C45.924 12.125 45.9993 12.5167 46.0602 12.9109C46.1253 13.3288 46.1812 13.7744 46.2286 14.2515C46.2757 14.7286 46.3149 15.2374 46.3471 15.7818C46.373 16.2184 46.3956 16.7946 46.4147 17.4751L46.4625 19.7954L46.4989 25.479L46.4575 31.1572L46.4076 33.4709L46.3386 35.1536C46.2912 35.9416 46.241 36.604 46.1808 37.1804C46.1508 37.4687 46.1179 37.7355 46.0818 37.9857C46.0478 38.222 46.0075 38.4573 45.9611 38.6916C45.9186 38.9053 45.8695 39.1176 45.8132 39.3285C45.7598 39.5291 45.6993 39.7283 45.6324 39.9254C45.5648 40.1232 45.4916 40.3188 45.4123 40.512C45.3285 40.7165 45.24 40.9186 45.1469 41.1188C45.0641 41.2975 44.9771 41.4716 44.8851 41.6407C44.7942 41.8085 44.6972 41.9726 44.5953 42.1336C44.4941 42.2932 44.388 42.4482 44.2769 42.5982C44.1665 42.7475 44.0508 42.8929 43.9298 43.0341C43.8095 43.1749 43.6839 43.3108 43.5533 43.4424C43.4227 43.5737 43.2872 43.7004 43.1467 43.8228C43.0066 43.9452 42.8609 44.0631 42.7101 44.1763C42.5597 44.2895 42.4037 44.3981 42.2427 44.5022C42.0814 44.6065 41.9154 44.7063 41.7438 44.8019C41.5722 44.897 41.3953 44.988 41.2134 45.0747C41.028 45.1628 40.8405 45.2452 40.6501 45.322C40.4537 45.4012 40.2552 45.4748 40.0546 45.5431C39.6463 45.6822 39.2161 45.8043 38.7628 45.9093C38.2908 46.0187 37.8142 46.1078 37.3344 46.1768C37.1497 46.2037 36.7258 46.2292 36.1186 46.2526L33.8048 46.317L27.2447 46.4022L20.3783 46.4128L17.6817 46.3842L15.9308 46.3297L14.6396 46.2388C14.2388 46.2051 13.8659 46.1676 13.5166 46.1248C13.1673 46.0824 12.842 46.035 12.536 45.9812C12.2459 45.9313 11.9577 45.8711 11.6717 45.8018C11.4109 45.7384 11.1528 45.6645 10.898 45.5803C10.6523 45.4985 10.4174 45.4087 10.1889 45.31C9.96036 45.2112 9.73837 45.103 9.5185 44.9848C9.29863 44.8666 9.08106 44.7385 8.86101 44.5984C8.69503 44.493 8.53457 44.3861 8.38016 44.2732C8.22575 44.16 8.07654 44.0471 7.93292 43.929C7.78926 43.8108 7.65134 43.6891 7.5183 43.5638C7.38614 43.4389 7.25855 43.3094 7.1357 43.1757C7.01328 43.0419 6.89623 42.9046 6.78393 42.7624C6.6712 42.6194 6.56377 42.4722 6.4619 42.3215C6.35848 42.1683 6.26065 42.0116 6.16858 41.8516C6.07552 41.6899 5.98707 41.5229 5.903 41.3502C5.81751 41.1747 5.73776 40.9964 5.66388 40.8156C5.58879 40.6313 5.5176 40.4413 5.4507 40.2452C5.31684 39.8525 5.19933 39.4346 5.09715 38.9891C4.99496 38.5437 4.90778 38.0702 4.83401 37.5657C4.76023 37.0615 4.70082 36.5265 4.65348 35.9582C4.61856 35.5397 4.59082 34.8875 4.56959 34.0648L4.52518 31.139L4.54149 23.6802L4.66997 16.553L4.76791 14.0419L4.82339 13.2119C4.84267 12.9902 4.8626 12.826 4.88298 12.7274C4.95024 12.4031 5.01796 12.1013 5.08798 11.8187C5.15341 11.5522 5.22619 11.2875 5.30623 11.025C5.3823 10.7772 5.46244 10.5451 5.54814 10.3252C5.63076 10.1122 5.72286 9.90301 5.82416 9.69825C5.92306 9.49911 6.02935 9.30843 6.14473 9.12285C6.26015 8.93727 6.3847 8.75724 6.5205 8.57816C6.6563 8.39909 6.80254 8.22232 6.96169 8.0431C7.12084 7.86389 7.29273 7.68287 7.47913 7.49629C7.69638 7.27781 7.92258 7.06841 8.15717 6.86867C8.37871 6.68022 8.60969 6.5032 8.84926 6.33835C9.08481 6.1751 9.3264 6.02985 9.57794 5.89631C9.82948 5.76281 10.091 5.64216 10.366 5.53364C10.641 5.42508 10.93 5.32796 11.236 5.23982C11.5575 5.14963 11.8826 5.07267 12.2105 5.00916C12.5552 4.94161 12.9213 4.88266 13.3123 4.83125C13.7032 4.77984 14.1191 4.73543 14.5638 4.6969C14.8739 4.67015 15.4083 4.6463 16.112 4.62624L18.673 4.57564L25.4859 4.534L25.4847 4.53548Z" fill="url(#paint2_radial_1187_1229)"/>
<defs>
<radialGradient id="paint0_radial_1187_1229" cx="0" cy="0" r="1" gradientUnits="userSpaceOnUse" gradientTransform="translate(8.11772 54.6126) rotate(-9.53101) scale(107.684 65.3633)">
<stop stop-color="#FED576"/>
<stop offset="0.263" stop-color="#F47133"/>
<stop offset="0.609" stop-color="#BC3081"/>
<stop offset="1" stop-color="#4C63D2"/>
</radialGradient>
<radialGradient id="paint1_radial_1187_1229" cx="0" cy="0" r="1" gradientUnits="userSpaceOnUse" gradientTransform="translate(8.1177 54.6123) rotate(-9.53102) scale(107.684 65.3633)">
<stop stop-color="#FED576"/>
<stop offset="0.263" stop-color="#F47133"/>
<stop offset="0.609" stop-color="#BC3081"/>
<stop offset="1" stop-color="#4C63D2"/>
</radialGradient>
<radialGradient id="paint2_radial_1187_1229" cx="0" cy="0" r="1" gradientUnits="userSpaceOnUse" gradientTransform="translate(8.11783 54.6125) rotate(-9.53101) scale(107.684 65.3633)">
<stop stop-color="#FED576"/>
<stop offset="0.263" stop-color="#F47133"/>
<stop offset="0.609" stop-color="#BC3081"/>
<stop offset="1" stop-color="#4C63D2"/>
</radialGradient>
</defs>
</svg>
