<svg width="20" height="20" viewBox="0 0 20 20" fill="none" xmlns="http://www.w3.org/2000/svg">
<g clip-path="url(#clip0_181_3365)">
<path d="M11.3505 0C11.6994 0.088875 12.0568 0.149952 12.3799 0.322612C13.4604 0.900495 14.0591 1.79512 14.1217 3.02057C14.1495 3.56596 14.1327 4.1137 14.128 4.66065C14.1241 5.1246 13.7893 5.46561 13.35 5.46757C12.9108 5.46953 12.5713 5.12852 12.5654 4.66731C12.5596 4.19239 12.5647 3.71709 12.5639 3.24178C12.5623 2.22775 11.9026 1.56373 10.8921 1.56295C8.34211 1.56177 5.79175 1.56177 3.24178 1.56295C2.22931 1.56334 1.56686 2.22618 1.56647 3.23787C1.56569 7.74857 1.56569 12.2597 1.56647 16.7704C1.56647 17.7707 2.23088 18.4355 3.23121 18.4363C5.78784 18.4378 8.34446 18.4378 10.9011 18.4363C11.8998 18.4355 12.5615 17.7691 12.5639 16.7684C12.565 16.3064 12.5623 15.844 12.5647 15.382C12.567 14.8844 12.8861 14.5363 13.3395 14.532C13.8007 14.5277 14.1343 14.8797 14.1276 15.3867C14.1186 16.0366 14.1722 16.6885 14.0908 17.3369C13.9252 18.6524 12.78 19.7925 11.4629 19.962C11.2879 19.9847 11.1133 19.9992 10.9371 19.9992C8.35425 19.9992 5.77178 20.0016 3.18893 19.998C1.78924 19.9961 0.628389 19.179 0.170311 17.8799C0.049723 17.5401 0 17.1869 0 16.826C0.00117456 12.2761 -0.00156608 7.72625 0.0019576 3.1764C0.00313216 1.55081 1.12562 0.260752 2.71754 0.0344537C2.74338 0.0309301 2.76883 0.029364 2.7794 0H11.3505Z" fill="white"/>
<path d="M19.9998 10.4685C19.8569 11.0048 19.5081 11.3979 19.1173 11.7703C18.6366 12.2287 18.1777 12.7099 17.7016 13.1731C17.4409 13.4268 17.0881 13.4652 16.7835 13.2976C16.4816 13.1316 16.3305 12.8023 16.3971 12.4539C16.4315 12.2738 16.5349 12.1348 16.6621 12.0091C17.0505 11.6258 17.4377 11.2413 17.8629 10.8197H17.6119C14.5933 10.8197 11.5743 10.8189 8.5557 10.8212C8.29573 10.8212 8.06121 10.766 7.88385 10.5691C7.66969 10.3314 7.61057 10.0531 7.7292 9.75393C7.8443 9.46343 8.06982 9.30212 8.3799 9.26336C8.45703 9.25357 8.53612 9.25749 8.61442 9.25749C11.6072 9.25749 14.5996 9.25749 17.5924 9.25749H17.8093C17.8124 9.17997 17.749 9.15608 17.7118 9.1185C17.359 8.76221 17.0012 8.41063 16.6492 8.05317C16.3031 7.70198 16.2902 7.22393 16.6116 6.9068C16.9358 6.58693 17.4033 6.60455 17.7592 6.95731C18.319 7.51209 18.8715 8.07392 19.4349 8.62557C19.7179 8.90277 19.8761 9.24417 19.9998 9.60907V10.4685Z" fill="white"/>
</g>
<defs>
<clipPath id="clip0_181_3365">
<rect width="20" height="20" fill="white"/>
</clipPath>
</defs>
</svg>
