<svg width="28" height="28" viewBox="0 0 28 28" fill="none" xmlns="http://www.w3.org/2000/svg">
<g clip-path="url(#clip0_320_552)">
<path d="M18.7611 27.1663C26.0314 24.5345 29.7916 16.5072 27.1598 9.23692C24.528 1.96663 16.5007 -1.79361 9.23044 0.838202C1.96015 3.47001 -1.80009 11.4973 0.83172 18.7676C3.46353 26.0378 11.4908 29.7981 18.7611 27.1663Z" fill="#F48462"/>
<path d="M17.1214 9.81265C17.1214 11.5348 15.7214 12.9349 13.9992 12.9349C12.277 12.9349 10.877 11.5348 10.877 9.81265C10.877 8.09048 12.277 6.69043 13.9992 6.69043C15.7214 6.69043 17.1214 8.09048 17.1214 9.81265Z" fill="white"/>
<path d="M13.9993 14C10.8027 14 8.20703 16.5957 8.20703 19.7922C8.20703 20.6285 8.88847 21.31 9.72478 21.31H18.2675C19.1038 21.31 19.7853 20.6285 19.7853 19.7922C19.7853 16.5957 17.1896 14 13.9931 14H13.9993Z" fill="white"/>
</g>
<defs>
<clipPath id="clip0_320_552">
<rect width="28" height="28" fill="white"/>
</clipPath>
</defs>
</svg>
