<svg width="49" height="50" viewBox="0 0 49 50" fill="none" xmlns="http://www.w3.org/2000/svg">
<path d="M21 50C32.598 50 42 40.598 42 29C42 17.402 32.598 8 21 8C9.40202 8 0 17.402 0 29C0 40.598 9.40202 50 21 50Z" fill="#F48462"/>
<path d="M15.2205 34H27.6148C27.9963 34 28.3721 33.9033 28.7106 33.7181C29.049 33.5328 29.3401 33.2645 29.5591 32.9358C29.7782 32.6071 29.9189 32.2277 29.9692 31.8297C30.0195 31.4316 29.9779 31.0267 29.8481 30.6492L27.5903 24.0783C27.2047 22.6181 26.3753 21.331 25.229 20.4139C24.0827 19.4968 22.6825 19.0002 21.2427 19V19C19.7439 19 18.2898 19.538 17.1207 20.5252C15.9515 21.5124 15.1371 22.8898 14.812 24.43L12.9516 30.7633C12.842 31.1373 12.8174 31.533 12.8797 31.9188C12.942 32.3045 13.0894 32.6695 13.3101 32.9844C13.5308 33.2992 13.8186 33.5551 14.1504 33.7315C14.4823 33.9079 14.8488 33.9999 15.2205 34V34Z" fill="white"/>
<path d="M17.6208 35.6667C17.8025 36.6086 18.288 37.4554 18.9949 38.0637C19.7019 38.6719 20.5869 39.0042 21.5 39.0042C22.4131 39.0042 23.2981 38.6719 24.005 38.0637C24.712 37.4554 25.1975 36.6086 25.3792 35.6667H17.6208Z" fill="white"/>
<circle cx="39" cy="10" r="10" fill="#FF4F4F"/>
</svg>
