<svg width="18" height="18" viewBox="0 0 18 18" fill="none" xmlns="http://www.w3.org/2000/svg">
<g clip-path="url(#clip0_1616_433)">
<path d="M0.74984 18.0001C0.948736 18 1.13947 17.921 1.28009 17.7803L6.24434 12.8161L7.18034 13.7851C7.88581 14.5306 8.85813 14.9659 9.88409 14.9956C10.2261 14.9966 10.5658 14.939 10.8883 14.8253C11.3867 14.6537 11.8246 14.3411 12.1488 13.9255C12.473 13.5098 12.6695 13.009 12.7146 12.4838C12.796 11.7232 12.7396 10.9541 12.5481 10.2136L12.3876 9.43205C12.3572 9.30708 12.3594 9.17639 12.3941 9.05253C12.4288 8.92868 12.4947 8.81582 12.5856 8.7248L13.7758 7.5338C13.8228 7.48667 13.8863 7.45975 13.9528 7.4588C13.9762 7.45446 14.0003 7.45672 14.0224 7.46533C14.0445 7.47395 14.0638 7.48857 14.0781 7.50755C14.4548 7.90704 14.9616 8.15912 15.5075 8.21851C16.0534 8.27789 16.6025 8.14069 17.0563 7.83155C17.3226 7.64172 17.5443 7.39612 17.706 7.11186C17.8677 6.8276 17.9655 6.51151 17.9925 6.1856C18.0196 5.8597 17.9753 5.53181 17.8627 5.22478C17.7501 4.91775 17.5719 4.63895 17.3406 4.4078L13.6498 0.715552C13.2709 0.327128 12.7674 0.0842654 12.2275 0.0294264C11.6877 -0.0254126 11.1457 0.111261 10.6963 0.415552C10.43 0.605327 10.2082 0.85088 10.0465 1.13511C9.88472 1.41934 9.78688 1.73542 9.75975 2.06133C9.73262 2.38723 9.77686 2.71514 9.88939 3.0222C10.0019 3.32926 10.18 3.6081 10.4113 3.8393L10.4683 3.8963C10.5113 3.93957 10.5354 3.99808 10.5354 4.05905C10.5354 4.12003 10.5113 4.17853 10.4683 4.2218L9.26834 5.4218C9.17628 5.51366 9.06192 5.58001 8.93648 5.61433C8.81105 5.64865 8.67884 5.64976 8.55284 5.61755L7.94009 5.4608C7.18638 5.26396 6.40333 5.20476 5.62859 5.28605C5.07911 5.34296 4.55735 5.55578 4.12482 5.89941C3.69229 6.24304 3.36702 6.70317 3.18734 7.22555C2.99126 7.76237 2.9526 8.34402 3.0759 8.90207C3.1992 9.46011 3.47934 9.97132 3.88334 10.3756L5.20184 11.7406L0.21959 16.7198C0.114733 16.8247 0.0433283 16.9583 0.0144026 17.1038C-0.014523 17.2492 0.00032918 17.4 0.0570817 17.537C0.113834 17.6741 0.209939 17.7912 0.333246 17.8736C0.456554 17.956 0.601527 18 0.74984 18.0001ZM4.60109 7.72505C4.6856 7.46954 4.84238 7.24401 5.05242 7.07575C5.26247 6.9075 5.51679 6.80375 5.78459 6.77705C5.95726 6.75908 6.13074 6.75007 6.30434 6.75005C6.72983 6.75007 7.15355 6.80477 7.56509 6.9128L8.18234 7.0703C8.5605 7.16598 8.95701 7.16203 9.33319 7.05885C9.70938 6.95567 10.0524 6.75677 10.3288 6.48155L11.5288 5.28155C11.8526 4.95679 12.0345 4.5169 12.0345 4.0583C12.0345 3.5997 11.8526 3.15981 11.5288 2.83505L11.4718 2.77805C11.3942 2.70058 11.3345 2.60701 11.2969 2.50396C11.2593 2.4009 11.2448 2.29085 11.2544 2.18158C11.264 2.0723 11.2974 1.96646 11.3524 1.87152C11.4073 1.77657 11.4824 1.69483 11.5723 1.63205C11.7324 1.53517 11.9209 1.49644 12.1062 1.5224C12.2915 1.54836 12.4621 1.63742 12.5893 1.77455L16.2823 5.46755C16.36 5.54503 16.4197 5.63859 16.4573 5.74165C16.4948 5.84471 16.5093 5.95475 16.4998 6.06403C16.4902 6.1733 16.4567 6.27914 16.4018 6.37409C16.3469 6.46904 16.2718 6.55078 16.1818 6.61355C16.0201 6.71176 15.8291 6.7505 15.6419 6.72313C15.4546 6.69575 15.2827 6.60396 15.1558 6.46355C15.0015 6.30444 14.8169 6.17787 14.6129 6.0913C14.4088 6.00474 14.1895 5.95994 13.9678 5.95955C13.5003 5.96168 13.0519 6.14566 12.7176 6.47255L11.5281 7.6628C11.258 7.93309 11.0612 8.26771 10.9562 8.63512C10.8512 9.00253 10.8416 9.39062 10.9281 9.7628L11.0923 10.5563C11.2437 11.1349 11.2897 11.7359 11.2281 12.3308C11.2102 12.5734 11.1213 12.8054 10.9727 12.9979C10.824 13.1905 10.622 13.3351 10.3918 13.4138C10.0082 13.5147 9.60379 13.5048 9.2255 13.3853C8.84721 13.2659 8.51049 13.0417 8.25434 12.7388L4.95434 9.3263C4.74857 9.12108 4.60593 8.86118 4.54332 8.57739C4.48071 8.29359 4.50076 7.9978 4.60109 7.72505Z" fill="black"/>
</g>
<defs>
<clipPath id="clip0_1616_433">
<rect width="18" height="18" fill="white"/>
</clipPath>
</defs>
</svg>
