<svg width="18" height="18" viewBox="0 0 18 18" fill="none" xmlns="http://www.w3.org/2000/svg">
<g clip-path="url(#clip0_1616_439)">
<path d="M17.4559 5.05718L12.9964 0.599934C12.6809 0.273488 12.2606 0.0683963 11.8091 0.0205456C11.3576 -0.0273051 10.9036 0.0851323 10.5267 0.338184C10.3044 0.496238 10.1193 0.700872 9.9843 0.937814C9.84927 1.17476 9.76755 1.4383 9.74484 1.71007C9.72214 1.98185 9.75899 2.2553 9.85283 2.51136C9.94667 2.76743 10.0952 2.99994 10.2882 3.19268L10.7322 3.63593C10.8453 3.74975 10.9088 3.90371 10.9088 4.06418C10.9088 4.22466 10.8453 4.37861 10.7322 4.49243L9.15718 6.06744C9.01896 6.20505 8.84746 6.30453 8.65938 6.35618C8.4713 6.40783 8.27304 6.4099 8.08393 6.36219L7.46893 6.20468C6.75971 6.01956 6.0229 5.96391 5.29393 6.04043C4.81486 6.09026 4.36002 6.27601 3.98303 6.57579C3.60604 6.87558 3.32262 7.2769 3.16618 7.73244C2.99482 8.20331 2.96145 8.71332 3.07 9.20251C3.17855 9.69169 3.42449 10.1397 3.77893 10.4939L5.08843 11.8499L0.220177 16.7197C0.148544 16.7889 0.0914078 16.8716 0.052101 16.9631C0.0127943 17.0546 -0.00789538 17.153 -0.00876074 17.2526C-0.00962611 17.3522 0.00935018 17.451 0.0470608 17.5431C0.0847715 17.6353 0.140461 17.7191 0.210881 17.7895C0.2813 17.8599 0.365039 17.9156 0.457212 17.9533C0.549384 17.991 0.648144 18.01 0.747728 18.0091C0.847312 18.0083 0.945727 17.9876 1.03723 17.9483C1.12873 17.909 1.21149 17.8518 1.28068 17.7802L6.13093 12.9299L7.06843 13.9004C7.70397 14.5747 8.58057 14.97 9.50668 14.9999C9.80608 15.0003 10.1033 14.9496 10.3857 14.8499C10.8165 14.7012 11.1951 14.4308 11.4754 14.0714C11.7557 13.712 11.9259 13.279 11.9652 12.8249C12.0411 12.1026 11.9867 11.3725 11.8047 10.6694L11.6457 9.89993C11.6011 9.71225 11.6053 9.51629 11.6578 9.33067C11.7103 9.14505 11.8094 8.97595 11.9457 8.83944L13.5124 7.27493C13.6343 7.16314 13.7919 7.09828 13.9572 7.09194C14.0297 7.09179 14.1016 7.1061 14.1686 7.13405C14.2355 7.16199 14.2962 7.203 14.3472 7.25469L14.7267 7.63418C15.0406 7.96934 15.4637 8.18167 15.92 8.23308C16.3763 8.28448 16.8361 8.1716 17.2167 7.91469C17.439 7.75669 17.6241 7.5521 17.7592 7.31519C17.8943 7.07828 17.9761 6.81474 17.9989 6.54297C18.0217 6.2712 17.9849 5.99773 17.8911 5.74163C17.7973 5.48553 17.6488 5.25298 17.4559 5.06018V5.05718Z" fill="black"/>
</g>
<defs>
<clipPath id="clip0_1616_439">
<rect width="18" height="18" fill="white"/>
</clipPath>
</defs>
</svg>
