<svg width="20" height="20" viewBox="0 0 20 20" fill="none" xmlns="http://www.w3.org/2000/svg">
<g clip-path="url(#clip0_181_3360)">
<path d="M19.812 17.1359C19.1922 14.2457 17.6245 12.0243 15.0832 10.5009C14.955 10.4241 14.9243 10.3865 15.0291 10.2482C16.1058 8.83123 16.5438 7.23781 16.2955 5.4719C15.8545 2.3346 13.1554 -0.0040104 9.99719 -2.54325e-05C9.52094 0.0119295 9.04869 0.0551948 8.5827 0.162789C4.06578 1.2023 2.12548 6.59054 4.96016 10.2362C5.06783 10.3751 5.04049 10.4155 4.90604 10.4947C3.53485 11.2979 2.41658 12.3687 1.56322 13.7094C0.528695 15.3341 0.0131431 17.1143 4.06285e-05 19.0401C-0.00223805 19.3356 0.0911879 19.5861 0.317347 19.7751C0.595916 20.0079 0.914932 20.0643 1.25275 19.9242C1.58088 19.7882 1.77627 19.5354 1.80533 19.1796C1.84236 18.7276 1.8378 18.2728 1.91641 17.823C2.40063 15.062 3.90456 13.0564 6.3889 11.7716C6.50511 11.7112 6.58429 11.7215 6.69424 11.7886C7.67008 12.3881 8.73309 12.7018 9.87813 12.7234C11.1155 12.7467 12.2611 12.4268 13.3178 11.7858C13.4027 11.7346 13.4693 11.6867 13.585 11.7448C15.7378 12.831 17.171 14.5189 17.866 16.8291C18.0928 17.5822 18.1611 18.3564 18.1936 19.1386C18.2147 19.6481 18.6408 20.0199 19.1227 19.9971C19.6297 19.9732 19.9966 19.5798 20 19.0595C20.004 18.4117 19.9482 17.7672 19.8126 17.1353L19.812 17.1359ZM9.99947 10.9046C7.48722 10.9046 5.4535 8.86994 5.45634 6.35884C5.45919 3.85002 7.49975 1.81655 10.0097 1.8211C12.5089 1.82566 14.5403 3.85913 14.5432 6.35884C14.546 8.86937 12.5117 10.9046 9.99947 10.9051V10.9046Z" fill="white"/>
</g>
<defs>
<clipPath id="clip0_181_3360">
<rect width="20" height="20" fill="white"/>
</clipPath>
</defs>
</svg>
