<svg width="18" height="20" viewBox="0 0 18 20" fill="none" xmlns="http://www.w3.org/2000/svg">
<path d="M13.1665 6.66666H4.83317V5.83333C4.83291 4.9095 5.13969 4.01178 5.70527 3.28131C6.27084 2.55084 7.06315 2.02904 7.95761 1.79796C8.85208 1.56688 9.79797 1.63961 10.6466 2.00473C11.4952 2.36985 12.1984 3.00664 12.6457 3.81499C12.6988 3.9107 12.7703 3.99499 12.856 4.06308C12.9417 4.13116 13.04 4.1817 13.1452 4.2118C13.2504 4.2419 13.3606 4.25098 13.4693 4.23852C13.5781 4.22605 13.6833 4.19229 13.779 4.13916C13.8747 4.08603 13.959 4.01457 14.0271 3.92886C14.0952 3.84315 14.1457 3.74487 14.1758 3.63963C14.2059 3.53439 14.215 3.42425 14.2025 3.31551C14.1901 3.20676 14.1563 3.10153 14.1032 3.00583C13.4767 1.87442 12.4921 0.983261 11.304 0.472422C10.116 -0.0384158 8.79181 -0.139964 7.53973 0.183741C6.28765 0.507445 5.17864 1.23805 4.38703 2.2607C3.59541 3.28336 3.16607 4.54008 3.1665 5.83333V7.01999C2.4243 7.34392 1.79258 7.8771 1.34859 8.55434C0.904592 9.23158 0.667569 10.0235 0.666504 10.8333V15.8333C0.667827 16.938 1.10724 17.997 1.88835 18.7781C2.66947 19.5593 3.72851 19.9987 4.83317 20H13.1665C14.2712 19.9987 15.3302 19.5593 16.1113 18.7781C16.8924 17.997 17.3318 16.938 17.3332 15.8333V10.8333C17.3318 9.72867 16.8924 8.66963 16.1113 7.88851C15.3302 7.1074 14.2712 6.66798 13.1665 6.66666V6.66666ZM15.6665 15.8333C15.6665 16.4964 15.4031 17.1323 14.9343 17.6011C14.4654 18.0699 13.8295 18.3333 13.1665 18.3333H4.83317C4.17013 18.3333 3.53424 18.0699 3.0654 17.6011C2.59656 17.1323 2.33317 16.4964 2.33317 15.8333V10.8333C2.33317 10.1703 2.59656 9.5344 3.0654 9.06556C3.53424 8.59672 4.17013 8.33333 4.83317 8.33333H13.1665C13.8295 8.33333 14.4654 8.59672 14.9343 9.06556C15.4031 9.5344 15.6665 10.1703 15.6665 10.8333V15.8333Z" fill="white"/>
</svg>
