<svg width="430" height="322" viewBox="0 0 430 322" fill="none" xmlns="http://www.w3.org/2000/svg">
<path d="M338.305 85.0552C348.233 98.4269 355.625 113.733 360.254 129.815C364.874 145.906 366.747 162.771 365.978 179.474C365.201 196.184 361.685 212.748 355.642 228.316C352.641 236.104 348.993 243.639 344.733 250.806C340.489 257.982 335.688 264.815 330.332 271.182C329.858 271.746 329.016 271.819 328.443 271.346C327.895 270.88 327.814 270.072 328.247 269.509C333.243 263.035 337.774 256.219 341.724 249.084C345.657 241.949 349.067 234.528 351.872 226.895C357.482 211.622 360.589 195.491 361.251 179.278C361.529 171.163 361.26 163.033 360.311 154.975C359.362 146.918 357.751 138.95 355.593 131.13C351.267 115.489 344.586 100.533 336.089 86.5572C335.705 85.9205 335.909 85.096 336.539 84.7205C337.136 84.3613 337.905 84.5245 338.313 85.0633L338.305 85.0552Z" fill="#FFF4C1" fill-opacity="0.13"/>
<path d="M228.743 17.1351C236.536 17.4045 244.272 18.776 251.795 20.8495C253.676 21.3801 255.541 21.9597 257.397 22.5475C259.245 23.1679 261.077 23.8455 262.917 24.4986C264.74 25.1843 266.548 25.9354 268.363 26.6537C270.162 27.3966 271.928 28.2375 273.711 29.0293C280.785 32.3355 287.58 36.1968 294.024 40.5806C295.627 41.6909 297.197 42.8337 298.783 43.9603C300.337 45.1358 301.85 46.3522 303.387 47.5441L307.844 51.2911C309.291 52.5809 310.698 53.9197 312.129 55.2341C312.669 55.732 312.71 56.581 312.203 57.1198C311.728 57.6341 310.935 57.6913 310.395 57.2668L310.355 57.2341L305.865 53.6993L301.286 50.3033L296.592 47.0787L291.808 43.993C285.364 39.9929 278.658 36.4254 271.748 33.3315L266.523 31.111C264.757 30.4334 263.007 29.715 261.232 29.062C259.441 28.4497 257.667 27.7966 255.868 27.2089L250.454 25.5109C243.201 23.3312 235.841 21.5516 228.391 19.7964C227.672 19.625 227.222 18.9066 227.385 18.1882C227.533 17.5515 228.113 17.1351 228.743 17.1515V17.1351Z" fill="#FFF4C1" fill-opacity="0.13"/>
<path d="M331.461 47.8951L333.211 55.879C333.832 58.7036 336.04 60.9077 338.861 61.52L346.859 63.267L338.861 65.0139C336.032 65.6344 333.824 67.8385 333.211 70.6549L331.461 78.6388L329.711 70.6549C329.089 67.8303 326.881 65.6262 324.06 65.0139L316.062 63.267L324.06 61.52C326.89 60.8996 329.097 58.6954 329.711 55.879L331.461 47.8951Z" fill="#FFF4C1" fill-opacity="0.13"/>
<path d="M75.5125 86.5492C67.0161 100.525 60.335 115.481 56.0091 131.122C53.8503 138.942 52.2393 146.91 51.2907 154.967C50.3339 163.025 50.0641 171.155 50.3503 179.27C51.0127 195.483 54.1201 211.622 59.7299 226.887C62.543 234.52 65.9448 241.941 69.8782 249.076C73.828 256.211 78.3583 263.027 83.3548 269.501C83.8045 270.08 83.6982 270.921 83.1176 271.378C82.5452 271.819 81.7356 271.721 81.2777 271.182C75.9214 264.815 71.1212 257.982 66.8771 250.806C62.6166 243.639 58.9694 236.104 55.9682 228.316C49.9332 212.748 46.4087 196.185 45.6319 179.474C44.8632 162.772 46.744 145.914 51.3561 129.816C55.9846 113.734 63.3771 98.427 73.3046 85.0553C73.7462 84.4593 74.5803 84.3369 75.1772 84.7777C75.7333 85.194 75.8805 85.9532 75.5289 86.541L75.5125 86.5492Z" fill="#FFF4C1" fill-opacity="0.13"/>
<path d="M183.21 19.7801C175.761 21.5352 168.401 23.3149 161.148 25.4945L155.734 27.1925C153.935 27.7803 152.16 28.4334 150.37 29.0456C148.595 29.6987 146.845 30.4171 145.079 31.0947L139.853 33.3151C132.943 36.4091 126.238 39.9765 119.794 43.9766L115.01 47.0624L110.316 50.287L105.737 53.683L101.247 57.2178L101.206 57.2504C100.626 57.7076 99.7833 57.6096 99.3254 57.03C98.892 56.4831 98.9656 55.6912 99.4726 55.2177C100.895 53.9034 102.302 52.5728 103.758 51.2748L108.214 47.5277C109.744 46.3359 111.265 45.1195 112.818 43.944C114.405 42.8174 115.983 41.6745 117.578 40.5643C124.013 36.1805 130.817 32.3192 137.891 29.013C139.673 28.2211 141.44 27.3803 143.239 26.6374C145.054 25.919 146.853 25.168 148.685 24.4822C150.525 23.8373 152.357 23.1516 154.205 22.5312C156.069 21.9434 157.934 21.3638 159.806 20.8332C167.33 18.7596 175.066 17.3882 182.859 17.1188C183.603 17.0943 184.224 17.6739 184.249 18.4168C184.274 19.0699 183.824 19.625 183.21 19.7719V19.7801Z" fill="#FFF4C1" fill-opacity="0.13"/>
<path d="M80.141 47.8951L78.391 55.879C77.7695 58.7036 75.5616 60.9077 72.7403 61.52L64.7427 63.267L72.7403 65.0139C75.5697 65.6344 77.7777 67.8385 78.391 70.6549L80.141 78.6388L81.891 70.6549C82.5124 67.8303 84.7204 65.6262 87.5416 65.0139L95.5393 63.267L87.5416 61.52C84.7122 60.8996 82.5043 58.6954 81.891 55.879L80.141 47.8951Z" fill="#FFF4C1" fill-opacity="0.13"/>
<path d="M208.798 0L207.735 4.87359C207.359 6.59609 206.009 7.94306 204.284 8.31858L199.402 9.37983L204.284 10.4411C206.009 10.8166 207.359 12.1636 207.735 13.8861L208.798 18.7597L209.861 13.8861C210.237 12.1636 211.586 10.8166 213.312 10.4411L218.194 9.37983L213.312 8.31858C211.586 7.94306 210.237 6.59609 209.861 4.87359L208.798 0V0Z" fill="#FFF4C1" fill-opacity="0.13"/>
<path d="M356.975 75.7325L355.912 80.6061C355.535 82.3286 354.186 83.6756 352.461 84.0511L347.579 85.1124L352.461 86.1736C354.186 86.5491 355.535 87.8961 355.912 89.6186L356.975 94.4922L358.038 89.6186C358.414 87.8961 359.763 86.5491 361.489 86.1736L366.371 85.1124L361.489 84.0511C359.763 83.6756 358.414 82.3286 358.038 80.6061L356.975 75.7325Z" fill="#FFF4C1" fill-opacity="0.13"/>
<path d="M52.6235 75.2019L51.5604 80.0755C51.1843 81.798 49.835 83.145 48.1095 83.5205L43.2275 84.5817L48.1095 85.643C49.835 86.0185 51.1843 87.3655 51.5604 89.088L52.6235 93.9616L53.6866 89.088C54.0628 87.3655 55.4121 86.0185 57.1375 85.643L62.0195 84.5817L57.1375 83.5205C55.4121 83.145 54.0628 81.798 53.6866 80.0755L52.6235 75.2019Z" fill="#FFF4C1" fill-opacity="0.13"/>
<path d="M207.866 322C289.611 322 355.879 255.846 355.879 174.241C355.879 92.6362 289.611 26.4823 207.866 26.4823C126.12 26.4823 59.8525 92.6362 59.8525 174.241C59.8525 255.846 126.12 322 207.866 322Z" fill="#FFF4C1" fill-opacity="0.13"/>
<path d="M177.167 87.8226C176.709 87.8226 176.251 87.6348 175.932 87.2593L168.843 79.0958C168.254 78.4101 168.327 77.3815 169.006 76.7937C169.685 76.206 170.723 76.2794 171.312 76.957L178.402 85.1205C178.991 85.8062 178.917 86.8348 178.238 87.4226C177.928 87.692 177.543 87.8226 177.167 87.8226Z" fill="white"/>
<path d="M191.682 87.0552C191.045 87.0552 190.439 86.6797 190.178 86.0592L181.779 66.3281C181.428 65.4955 181.812 64.5403 182.646 64.1893C183.48 63.8383 184.437 64.222 184.789 65.0546L193.187 84.7857C193.539 85.6184 193.154 86.5735 192.32 86.9246C192.116 87.0144 191.895 87.0552 191.682 87.0552Z" fill="white"/>
<path d="M238.564 87.8226C238.188 87.8226 237.804 87.692 237.493 87.4226C236.814 86.8348 236.741 85.7981 237.329 85.1205L244.419 76.957C245.008 76.2794 246.047 76.206 246.725 76.7937C247.404 77.3815 247.478 78.4183 246.889 79.0958L239.799 87.2593C239.472 87.6348 239.022 87.8226 238.564 87.8226Z" fill="white"/>
<path d="M224.049 87.0552C223.836 87.0552 223.616 87.0144 223.411 86.9246C222.577 86.5735 222.193 85.6103 222.544 84.7857L230.943 65.0546C231.294 64.222 232.259 63.8383 233.085 64.1893C233.919 64.5403 234.304 65.5036 233.952 66.3281L225.554 86.0592C225.292 86.6797 224.687 87.0552 224.049 87.0552Z" fill="white"/>
<path d="M207.964 85.9205C207.915 85.9205 207.874 85.9205 207.825 85.9205C206.925 85.8471 206.255 85.0552 206.328 84.1572C206.803 78.4428 206.631 71.6181 206.459 65.0139C206.287 58.328 206.108 51.4054 206.598 45.5195C206.672 44.6215 207.465 43.944 208.365 44.0256C209.264 44.0991 209.935 44.8909 209.861 45.7889C209.387 51.5033 209.558 58.328 209.73 64.9322C209.902 71.6181 210.082 78.5408 209.591 84.4266C209.518 85.2838 208.806 85.9287 207.964 85.9287V85.9205Z" fill="white"/>
<path d="M245.654 269.329C245.196 269.329 244.738 269.142 244.419 268.766L237.329 260.603C236.741 259.925 236.814 258.888 237.493 258.3C238.172 257.713 239.21 257.786 239.799 258.464L246.889 266.627C247.478 267.313 247.404 268.342 246.725 268.929C246.415 269.199 246.03 269.329 245.654 269.329Z" fill="white"/>
<path d="M232.447 281.664C231.809 281.664 231.204 281.289 230.943 280.668L222.544 260.937C222.193 260.105 222.577 259.149 223.411 258.798C224.245 258.447 225.202 258.831 225.554 259.664L233.952 279.395C234.304 280.228 233.919 281.183 233.085 281.534C232.881 281.623 232.66 281.664 232.447 281.664Z" fill="white"/>
<path d="M170.077 269.329C169.701 269.329 169.317 269.199 169.006 268.929C168.327 268.342 168.254 267.305 168.843 266.627L175.932 258.464C176.521 257.786 177.56 257.713 178.238 258.3C178.917 258.888 178.991 259.925 178.402 260.603L171.312 268.766C170.985 269.142 170.535 269.329 170.077 269.329Z" fill="white"/>
<path d="M183.284 281.664C183.071 281.664 182.851 281.623 182.646 281.534C181.812 281.183 181.428 280.219 181.779 279.395L190.178 259.664C190.529 258.831 191.494 258.447 192.32 258.798C193.154 259.149 193.539 260.113 193.187 260.937L184.789 280.668C184.527 281.289 183.922 281.664 183.284 281.664Z" fill="white"/>
<path d="M207.489 301.706C207.44 301.706 207.399 301.706 207.35 301.706C206.451 301.632 205.78 300.84 205.854 299.942C206.328 294.228 206.157 287.403 205.985 280.799C205.813 274.113 205.633 267.19 206.124 261.305C206.197 260.407 206.991 259.737 207.89 259.811C208.79 259.884 209.46 260.676 209.387 261.574C208.912 267.288 209.084 274.113 209.256 280.717C209.427 287.403 209.607 294.326 209.117 300.212C209.043 301.069 208.332 301.714 207.489 301.714V301.706Z" fill="white"/>
<path d="M428.43 149.947L353.336 152.257C347.497 154.306 336.367 154.314 330.365 152.796L329.686 152.624C324.134 151.212 319.072 148.314 315.048 144.232L285.062 113.823C281.21 109.913 276.14 107.415 270.694 106.737L231.319 101.823C224.957 101.031 218.938 104.892 217.016 111.007L211.644 128.134L202.289 200.495C202.289 200.495 203.09 213.597 215.013 219.924C217.572 221.279 219.314 223.826 219.69 226.691C220.835 235.41 228.538 252.733 271.879 251.729C271.879 251.729 299.838 251.386 311.377 245.418C316.136 242.961 321.255 241.288 326.513 240.243L351.856 234.977C353.123 234.716 354.407 234.561 355.699 234.512L428.79 231.924L428.446 149.947H428.43Z" fill="#E49371"/>
<path d="M218.317 124.011C217.221 123.979 216.444 122.917 216.763 121.864C217.221 120.354 217.793 118.738 218.472 117.529C220.402 114.085 223.362 111.464 227.263 110.525C230.558 109.742 234.001 110.174 237.362 110.615C245.556 111.684 253.938 112.338 262.066 113.848C267.554 114.868 271.912 118.632 269.933 123.203C269.532 124.126 266.515 124.73 265.509 124.705C259 123.889 251.575 123.807 243.961 123.538C234.672 123.203 226.085 123.448 218.325 124.011H218.317Z" fill="#E49D80"/>
<path d="M226.093 219.646C225.685 219.303 225.251 218.993 224.777 218.724C222.201 217.271 219.96 215.099 218.995 212.242C217.826 208.797 218.93 205.042 221.784 202.821C224.442 200.748 226.919 199.417 225.685 195.564C224.384 191.507 218.709 191.058 215.528 189.017C213.435 187.678 211.603 185.776 210.826 183.425C209.886 180.592 210.613 177.327 212.478 174.984C215.651 171.008 220.713 172.119 224.155 169.025C226.429 166.976 226.527 163.277 225.137 160.559C222.356 155.13 215.389 153.726 212.699 148.273C211.309 145.465 205.045 131.701 234.279 123.864C234.279 123.864 224.564 123.121 212.911 124.297L211.816 127.791L202.46 200.152C202.46 200.152 203.262 213.164 215.062 219.516C217.654 220.912 219.478 223.434 219.862 226.348C222.585 247.157 249.555 251.386 266.409 251.459C268.658 251.467 270.906 251.394 273.155 251.239C262.884 251.712 252.515 250.014 242.931 246.284C239.496 244.945 236.095 243.304 233.511 240.684C228.89 235.99 230.616 230.659 229.234 224.904C228.743 222.846 227.68 220.977 226.11 219.646H226.093Z" fill="#C78063"/>
<path d="M256.416 125.481C250.356 125.481 242.816 125.146 234.68 124.738C229.086 124.46 224.262 124.215 222.479 124.338C222.111 124.362 221.792 124.085 221.767 123.717C221.743 123.35 222.021 123.032 222.389 123.007C224.253 122.885 228.882 123.113 234.745 123.407C241.467 123.742 249.816 124.166 256.653 124.15C267.104 124.134 268.993 123.072 269.32 122.615C269.532 122.313 269.949 122.248 270.252 122.46C270.554 122.672 270.62 123.089 270.407 123.391C269.287 124.95 264.029 125.481 256.407 125.481H256.416Z" fill="#724948"/>
<path d="M276.77 251.5C312.898 245.533 310.829 218.128 353.524 212.022C358.471 211.311 422.902 212.814 429.182 212.74L428.773 231.924C420.719 232.904 355.151 233.614 348.814 234.855C312.971 241.876 301.318 251.925 276.77 251.5Z" fill="#C78063"/>
<path d="M238.777 245.075C238.662 245.075 238.556 245.051 238.45 244.986C238.311 244.912 238.09 244.806 237.836 244.684C235.367 243.524 227.843 239.998 229.103 228.308C229.144 227.94 229.471 227.679 229.839 227.712C230.207 227.753 230.468 228.079 230.436 228.446C229.283 239.198 235.915 242.308 238.409 243.475C238.703 243.614 238.94 243.72 239.12 243.826C239.439 244.006 239.554 244.414 239.374 244.733C239.251 244.953 239.022 245.067 238.793 245.067L238.777 245.075Z" fill="#724948"/>
<path d="M226.093 220.316C225.938 220.316 225.791 220.267 225.66 220.161C225.284 219.842 224.875 219.556 224.441 219.312C222.315 218.112 219.535 215.948 218.357 212.471C217.106 208.773 218.316 204.691 221.367 202.307C221.767 201.997 222.168 201.752 222.552 201.507C223.28 201.058 223.902 200.674 224.319 200.005C224.989 198.927 225.284 197.638 225.137 196.38C225.096 196.013 225.357 195.686 225.725 195.638C226.093 195.597 226.42 195.858 226.469 196.225C226.649 197.784 226.29 199.376 225.464 200.707C224.883 201.638 224.057 202.152 223.264 202.642C222.904 202.862 222.536 203.091 222.193 203.36C219.584 205.393 218.554 208.887 219.625 212.046C220.672 215.132 223.182 217.067 225.104 218.161C225.603 218.446 226.085 218.781 226.527 219.156C226.805 219.393 226.846 219.818 226.6 220.095C226.469 220.25 226.281 220.332 226.093 220.332V220.316Z" fill="#724948"/>
<path d="M217.785 190.813C217.703 190.813 217.613 190.797 217.532 190.764C216.509 190.348 215.782 189.988 215.168 189.588C213.427 188.478 211.153 186.535 210.188 183.645C209.199 180.658 209.877 177.188 211.955 174.584C213.819 172.249 216.256 171.555 218.611 170.878L219.151 170.723C219.445 170.641 219.731 170.559 220.018 170.486C221.22 170.167 222.266 169.89 223.182 169.114C224.335 168.143 225.145 166.804 225.456 165.335C225.537 164.975 225.889 164.747 226.249 164.82C226.609 164.902 226.838 165.253 226.764 165.612C226.388 167.367 225.415 168.976 224.041 170.127C222.896 171.09 221.669 171.416 220.361 171.759C220.083 171.833 219.805 171.906 219.519 171.988L218.971 172.143C216.714 172.788 214.588 173.392 212.993 175.392C211.219 177.613 210.613 180.682 211.448 183.204C212.282 185.727 214.318 187.449 215.88 188.445C216.428 188.796 217.09 189.123 218.03 189.507C218.374 189.645 218.537 190.037 218.398 190.38C218.292 190.641 218.047 190.797 217.777 190.797L217.785 190.813Z" fill="#724948"/>
<path d="M217.662 132.289C209.468 139.457 212.805 147.008 213.287 147.987C213.95 149.326 216.207 152.836 222.871 156.551C223.19 156.73 223.305 157.139 223.125 157.457C223.002 157.677 222.773 157.8 222.544 157.8C222.438 157.8 222.323 157.775 222.217 157.718C215.471 153.955 212.977 150.379 212.085 148.575C211.537 147.465 207.637 138.648 217.474 130.697" fill="#724948"/>
<path d="M268.33 252.431C251.084 252.431 238.057 249.394 229.569 243.394C221.947 238.006 219.625 231.377 219.02 226.773C218.676 224.12 217.008 221.752 214.563 220.438C202.575 213.981 201.618 200.658 201.61 200.527C201.61 200.487 201.61 200.446 201.61 200.405L210.965 128.044C210.965 128.044 210.981 127.971 210.989 127.93L216.362 110.803C218.374 104.378 224.695 100.321 231.384 101.162L270.759 106.076C276.336 106.77 281.578 109.358 285.528 113.358L315.515 143.767C319.448 147.759 324.404 150.6 329.842 151.979L330.52 152.151C336.408 153.645 342.55 153.375 348.29 151.367C348.29 151.367 429.992 148.436 429.992 148.657L429.787 233.492C429.787 233.81 356.1 234.839 349.509 235.981C346.36 236.528 343.097 237.1 339.9 237.671C332.001 239.092 324.224 241.663 316.717 244.145C314.746 244.798 312.71 245.467 310.706 246.112C298.342 250.063 286.01 252.063 271.888 252.39C270.685 252.415 269.5 252.431 268.33 252.431ZM202.959 200.503C203.041 201.45 204.276 213.385 215.201 219.263C218.022 220.781 219.944 223.524 220.345 226.593C220.917 230.936 223.109 237.19 230.338 242.3C239.161 248.537 253.128 251.484 271.855 251.051C285.847 250.725 298.064 248.757 310.297 244.839C312.301 244.202 314.329 243.524 316.292 242.88C323.848 240.382 331.665 237.802 339.663 236.357C342.868 235.777 346.131 235.214 349.28 234.659C355.863 233.516 361.914 233.475 369.822 232.936L427.947 230.896L428.422 149.938L348.732 152.616C342.746 154.714 336.335 155 330.193 153.432L329.515 153.261C323.839 151.816 318.671 148.853 314.566 144.689L284.579 114.28C280.842 110.493 275.878 108.043 270.604 107.39L231.229 102.476C225.177 101.725 219.47 105.39 217.646 111.195L212.29 128.264L202.951 200.495L202.959 200.503Z" fill="#724948"/>
<path d="M329.433 153.465L331.33 238.104L342.018 235.214L339.344 153.571L329.433 153.465Z" fill="#C78063"/>
<path d="M350.776 251.255L344.937 251.574C341.029 251.786 337.676 248.798 337.463 244.888L331.796 142.265C331.575 138.216 334.331 134.607 338.305 133.758C339.041 133.603 339.826 133.481 340.661 133.407C342.026 133.285 343.31 133.318 344.488 133.44C348.495 133.865 351.586 137.154 351.806 141.171L357.474 243.794C357.686 247.696 354.693 251.043 350.776 251.255Z" fill="#FFA53A"/>
<path d="M338.068 196.323L334.446 190.299L337.463 244.896C337.676 248.798 341.028 251.794 344.937 251.582L350.776 251.264C354.685 251.051 357.686 247.704 357.473 243.802L354.513 190.242L352.608 195.107C350.146 201.377 341.552 202.103 338.076 196.332L338.068 196.323Z" fill="#FF8334"/>
<path d="M344.537 252.251C342.623 252.251 340.8 251.557 339.368 250.276C337.823 248.896 336.907 246.994 336.793 244.929L331.126 142.306C330.88 137.897 333.84 134.028 338.166 133.114C338.968 132.942 339.786 132.82 340.595 132.746C341.912 132.632 343.236 132.64 344.553 132.779C348.895 133.236 352.232 136.746 352.469 141.13L358.136 243.753C358.373 248.023 355.086 251.68 350.809 251.917L344.97 252.235C344.823 252.235 344.676 252.243 344.537 252.243V252.251ZM342.419 134.003C341.854 134.003 341.282 134.028 340.718 134.077C339.957 134.142 339.189 134.256 338.444 134.42C334.773 135.195 332.254 138.485 332.458 142.232L338.125 244.855C338.224 246.569 338.976 248.137 340.252 249.28C341.527 250.423 343.179 251.002 344.896 250.904L350.735 250.586C354.276 250.39 356.991 247.361 356.795 243.827L351.128 141.204C350.923 137.473 348.094 134.493 344.406 134.101C343.743 134.028 343.073 133.995 342.402 133.995L342.419 134.003Z" fill="#724948"/>
<path d="M199.941 149.685C199.606 149.685 199.32 149.44 199.279 149.098C199.23 148.73 199.492 148.395 199.86 148.355L203.425 147.914C203.793 147.865 204.128 148.126 204.169 148.493C204.218 148.861 203.957 149.196 203.589 149.236L200.023 149.677C200.023 149.677 199.966 149.677 199.941 149.677V149.685Z" fill="#724948"/>
<path d="M-1.16016 137.767L48.6246 136.795C62.1094 136.64 75.0871 131.66 85.2109 122.77L119.916 92.2717C125.084 87.7246 132.109 85.896 138.847 87.3328L179.514 96.0187C185.369 97.2677 190.178 101.423 192.255 107.031L210.63 118.46C212.903 119.872 214.776 121.856 215.994 124.24C218.472 129.097 219.739 137.416 208.626 147.049C208.626 147.049 219.985 165.392 204.619 178.502C204.619 178.502 217.531 195.621 199.721 205.401C199.721 205.401 208.225 212.038 205.134 221.328C204.096 224.455 201.912 227.075 199.099 228.806L177.167 242.292C171.034 246.063 163.936 247.998 156.74 247.851C143.124 247.565 120.44 246.21 106.595 240.626C103.079 239.206 99.3743 238.332 95.5882 238.063L-0.767635 237.492L-1.15198 137.767H-1.16016Z" fill="#FAB983"/>
<path d="M157.517 249.272C157.255 249.272 156.985 249.272 156.723 249.263C143.983 249.002 120.497 247.704 106.342 241.99C102.842 240.577 99.2108 239.728 95.5391 239.475C95.5391 239.475 -2.98377 239.19 -2.99194 238.847L-2.58307 137.832C-2.58307 137.652 25.7602 137.138 25.9401 137.138L48.6328 136.877C61.9458 136.722 74.7927 131.799 84.7856 123.015L119.491 92.5166C124.798 87.8553 132.093 85.9532 139.003 87.4308L179.669 96.1167C185.704 97.4065 190.611 101.594 192.819 107.333L211.006 118.64C213.418 120.142 215.356 122.232 216.607 124.681C218.259 127.913 218.758 131.293 218.079 134.722C217.196 139.203 214.309 143.653 209.493 147.93C210.253 149.285 212.29 153.318 213.058 158.502C213.901 164.233 213.263 172.461 205.527 179.351C206.827 181.262 211.038 188.16 209.493 195.393C208.552 199.776 205.658 203.434 200.874 206.266C202.926 208.201 208.43 214.34 205.78 222.283C204.717 225.483 202.468 228.267 199.459 230.112L177.527 243.598C171.484 247.312 164.59 249.263 157.525 249.263L157.517 249.272ZM-1.78985 237.492L95.629 238.145C99.4397 238.406 103.21 239.288 106.84 240.749C120.799 246.382 144.097 247.663 156.748 247.925C163.83 248.072 170.764 246.186 176.815 242.463L198.748 228.977C201.487 227.287 203.531 224.765 204.496 221.859C207.408 213.116 199.385 206.732 199.304 206.666C199.124 206.528 199.034 206.307 199.05 206.087C199.067 205.866 199.197 205.662 199.394 205.556C204.3 202.862 207.252 199.344 208.168 195.107C209.828 187.368 204.145 179.719 204.088 179.637C203.875 179.36 203.916 178.96 204.186 178.731C210.36 173.457 212.895 166.731 211.734 158.731C210.85 152.706 208.086 148.175 208.062 148.134C207.89 147.857 207.947 147.498 208.193 147.277C218.766 138.118 217.948 130.256 215.405 125.277C214.26 123.04 212.494 121.138 210.286 119.758L191.911 108.329C191.789 108.248 191.69 108.133 191.641 107.995C189.63 102.574 185.05 98.6147 179.383 97.4065L138.716 88.7206C132.215 87.3328 125.354 89.1206 120.366 93.5044L85.6606 124.003C75.4223 132.999 62.2811 138.036 48.641 138.199L-0.743124 139.048L-1.78167 237.475L-1.78985 237.492Z" fill="#724948"/>
<path d="M193.522 130.036C190.161 130.011 185.68 130.901 183.938 134.101C182.082 137.514 184.437 140.91 186.391 143.653C188.289 146.306 190.529 149.147 193.269 150.992C194.471 151.8 195.845 152.314 197.243 152.322C199.655 152.338 201.25 149.93 200.857 147.653L197.758 132.926C197.341 131.04 195.444 130.052 193.514 130.036H193.522Z" fill="#FAD5B6"/>
<path d="M197.276 152.983H197.251C195.804 152.975 194.299 152.477 192.901 151.538C190.039 149.612 187.733 146.665 185.852 144.036C183.914 141.326 181.264 137.612 183.349 133.783C185.606 129.636 191.707 129.358 193.522 129.375C195.591 129.391 197.905 130.452 198.421 132.787L201.52 147.522C201.765 148.942 201.364 150.42 200.449 151.498C199.631 152.461 198.502 152.992 197.268 152.992L197.276 152.983ZM193.408 130.697C191.65 130.697 186.4 130.991 184.535 134.412C182.973 137.277 184.707 140.118 186.948 143.261C188.755 145.791 190.971 148.624 193.653 150.436C194.831 151.228 196.074 151.645 197.259 151.653C198.093 151.653 198.87 151.294 199.435 150.624C200.097 149.849 200.391 148.779 200.211 147.759L197.112 133.056C196.761 131.448 195.051 130.705 193.514 130.697C193.481 130.697 193.44 130.697 193.4 130.697H193.408Z" fill="#724948"/>
<path d="M156.159 215.083C156.65 217.818 158.653 220.226 161.18 221.377C166.765 223.932 191.69 225.247 194.144 225.108C198.159 224.879 202.313 222.528 203.294 218.381C204.218 214.471 202.019 211.254 198.551 209.613C196.057 208.438 193.252 208.144 190.513 207.932C184.829 207.499 167.632 207.703 164.745 207.915C162.955 208.054 160.526 207.801 158.923 208.74C156.797 209.981 155.734 212.699 156.159 215.075V215.083Z" fill="#FFD8A3"/>
<path d="M157.672 184.421L191.927 182.486C195.485 182.282 198.903 183.85 201.07 186.666C203.867 190.307 204.047 195.319 201.512 199.148L201.389 199.327C199.41 202.315 196.073 204.119 192.484 204.144L158.391 204.373C154.883 204.397 151.62 202.568 149.813 199.564L149.723 199.409C148.129 196.764 147.867 193.523 149.012 190.658C150.435 187.074 153.82 184.641 157.68 184.421H157.672Z" fill="#FFD8A3"/>
<path d="M198.306 154.396C195.853 157.13 186.416 161.547 177.404 155.212C175.867 155.253 174.011 154.967 172.784 155.024C166.414 155.286 157.198 153.8 154.417 162.861C152.864 167.923 156.012 174.764 162.096 174.592C169.701 174.421 191.216 173.947 194.365 173.874C198.478 173.784 202.305 173.596 205.2 170.159C207.44 167.506 208.381 163.482 207.122 160.184C205.731 156.567 202.19 154.241 198.314 154.396H198.306Z" fill="#FFD8A3"/>
<path d="M154.998 210.438C154.957 211.222 154.883 212.005 154.81 212.773C154.744 213.548 154.663 214.307 154.614 215.075C154.573 215.834 154.507 216.593 154.499 217.352C154.499 218.112 154.499 218.855 154.564 219.622V219.638C154.581 219.793 154.458 219.932 154.303 219.948C154.188 219.957 154.082 219.891 154.025 219.793C153.632 219.05 153.436 218.226 153.33 217.418C153.232 216.601 153.232 215.785 153.305 214.977C153.371 214.169 153.51 213.377 153.698 212.593C153.894 211.809 154.131 211.05 154.483 210.307C154.548 210.169 154.712 210.111 154.843 210.177C154.949 210.226 155.006 210.332 154.998 210.438Z" fill="#724948"/>
<path d="M147.9 187.988C147.818 188.935 147.712 189.882 147.614 190.821C147.524 191.76 147.417 192.691 147.352 193.621C147.327 194.087 147.286 194.552 147.27 195.017L147.237 195.711C147.237 195.94 147.237 196.176 147.229 196.405C147.229 197.327 147.262 198.242 147.368 199.172C147.385 199.344 147.27 199.483 147.115 199.499C146.992 199.515 146.878 199.442 146.82 199.344C146.379 198.438 146.158 197.45 146.043 196.47C145.929 195.483 145.945 194.495 146.027 193.523C146.109 192.552 146.264 191.589 146.485 190.642C146.706 189.695 146.976 188.764 147.368 187.858C147.425 187.719 147.589 187.654 147.728 187.719C147.834 187.768 147.9 187.874 147.892 187.988H147.9Z" fill="#724948"/>
<path d="M152.495 159.784C152.455 160.731 152.389 161.686 152.332 162.625C152.283 163.563 152.217 164.502 152.201 165.433C152.201 165.898 152.177 166.363 152.185 166.829V167.523C152.185 167.751 152.201 167.98 152.201 168.217C152.242 169.139 152.316 170.053 152.463 170.976C152.487 171.139 152.381 171.286 152.226 171.319C152.103 171.335 151.988 171.278 151.931 171.172C151.449 170.29 151.187 169.31 151.032 168.331C150.876 167.351 150.844 166.363 150.885 165.384C150.925 164.404 151.032 163.433 151.212 162.478C151.392 161.522 151.62 160.584 151.972 159.661C152.029 159.522 152.185 159.449 152.324 159.506C152.438 159.547 152.504 159.661 152.495 159.767V159.784Z" fill="#724948"/>
<path d="M157.001 134.444C156.96 135.391 156.895 136.346 156.838 137.285C156.789 138.224 156.723 139.163 156.707 140.093C156.707 140.559 156.682 141.024 156.691 141.489V142.183C156.691 142.412 156.707 142.64 156.707 142.877C156.748 143.799 156.821 144.714 156.969 145.636C156.993 145.8 156.887 145.946 156.731 145.979C156.609 145.995 156.494 145.938 156.437 145.832C155.955 144.951 155.693 143.971 155.538 142.991C155.382 142.012 155.349 141.024 155.39 140.044C155.431 139.065 155.538 138.093 155.717 137.138C155.897 136.183 156.126 135.244 156.478 134.322C156.535 134.183 156.691 134.109 156.83 134.167C156.944 134.207 157.01 134.322 157.001 134.428V134.444Z" fill="#724948"/>
<path d="M196.769 128.117L203.646 128.322C206.884 128.419 209.779 130.485 210.801 133.554C211.374 135.269 211.594 137.252 210.875 139.252C209.967 141.775 207.71 143.571 205.077 144.085L200.612 144.959L196.769 128.117Z" fill="#FFD8A3"/>
<g opacity="0.5">
<path opacity="0.5" d="M133.442 134.51C123.449 128.771 112.262 138.755 104.714 144.191C97.6325 149.294 90.9024 154.861 84.573 160.837C81.6781 163.571 78.8814 165.816 77.6793 169.645C76.5426 173.262 76.7716 177.327 79.3557 180.315C82.6022 184.078 88.1057 185.474 92.9386 185.735C103.201 186.299 113.628 183.221 121.862 177.204C130.097 171.188 136.075 162.274 138.438 152.494C140.008 146.012 139.321 137.881 133.45 134.51H133.442Z" fill="#FFD8A3"/>
</g>
<g opacity="0.5">
<path opacity="0.5" d="M83.5753 208.895L109.899 203.099C119.008 201.091 128.511 203.932 135.004 210.626C138.136 213.858 141.431 217.663 144.252 221.777C149.879 229.989 142.83 239.655 133.082 239.475C102.204 238.896 90.518 230.292 81.0321 219.981C77.4912 216.136 78.4725 210.022 83.5753 208.895Z" fill="#FFD8A3"/>
</g>
<g opacity="0.5">
<path opacity="0.5" d="M140.368 92.8186C138.676 92.6798 136.926 92.5737 135.298 93.0798C133.671 93.586 132.174 94.8431 131.864 96.5167C131.561 98.1412 132.444 99.8147 133.712 100.876C134.979 101.945 136.582 102.525 138.152 103.047C148.987 106.688 160.281 108.966 171.68 109.815C173.88 109.978 176.308 110.019 178.042 108.656C181.035 106.288 179.743 102.264 176.75 100.729C173.978 99.3086 170.257 98.8922 167.272 97.9861C158.522 95.3166 149.486 93.5778 140.368 92.8186Z" fill="#FFD8A3"/>
</g>
<path d="M59.877 136.567L66.3372 135.456L68.9622 237.965L60.1223 237.753L59.877 136.567Z" fill="#CF996C"/>
<path d="M56.9167 243.337H51.0698C47.1527 243.337 43.9717 240.169 43.9717 236.251V133.473C43.9717 129.416 46.9238 125.962 50.9389 125.342C51.6831 125.228 52.4763 125.146 53.3022 125.122C54.6761 125.073 55.9518 125.171 57.1211 125.358C61.0954 125.995 64.0066 129.456 64.0066 133.473V236.251C64.0066 240.161 60.8337 243.337 56.9085 243.337H56.9167Z" fill="#AD93FF"/>
<path d="M47.259 187.784L43.9717 181.572V236.251C43.9717 240.161 47.1446 243.337 51.0698 243.337H56.9167C60.8337 243.337 64.0148 240.169 64.0148 236.251V182.609L61.8396 187.36C59.0347 193.482 50.4156 193.735 47.259 187.784Z" fill="#8D76D3"/>
<path d="M56.9167 244.006H51.0698C46.793 244.006 43.3093 240.529 43.3093 236.259V133.481C43.3093 129.064 46.474 125.366 50.8408 124.689C51.6504 124.566 52.4682 124.485 53.2859 124.46C54.6025 124.419 55.9354 124.501 57.2357 124.705C61.5452 125.399 64.6772 129.089 64.6772 133.481V236.259C64.6772 240.529 61.1936 244.006 56.9167 244.006ZM53.981 125.775C53.7684 125.775 53.5476 125.775 53.335 125.783C52.5745 125.807 51.8058 125.881 51.0453 125.995C47.3327 126.575 44.6423 129.718 44.6423 133.465V236.243C44.6423 239.777 47.5289 242.659 51.0698 242.659H56.9167C60.4576 242.659 63.3443 239.777 63.3443 236.243V133.465C63.3443 129.734 60.6866 126.591 57.023 126.003C56.0172 125.84 54.995 125.758 53.981 125.758V125.775Z" fill="#724948"/>
<path d="M138.038 194.144C138.038 194.144 136.034 187.474 126.458 186.584C126.458 186.584 139.6 179.915 142.715 169.025C142.715 169.025 144.089 174.053 147.466 177.294C148.17 177.972 139.15 177.694 138.038 194.144Z" fill="#CF996C"/>
<path d="M167.673 181.588C161.581 181.588 155.995 181.253 152.348 180.282C148.668 179.302 145.708 176.984 143.786 173.58C141.529 169.572 140.998 164.412 142.355 159.775C143.803 154.853 147.597 150.6 152.258 148.673C152.602 148.534 152.986 148.698 153.133 149.032C153.272 149.375 153.109 149.759 152.774 149.906C148.472 151.685 144.972 155.604 143.639 160.151C142.372 164.453 142.862 169.229 144.948 172.927C146.681 176.004 149.364 178.102 152.684 178.992C161.466 181.327 182.025 179.858 193.064 179.074C194.503 178.968 195.795 178.878 196.891 178.804C197.259 178.78 197.578 179.058 197.603 179.425C197.627 179.792 197.349 180.111 196.981 180.135C195.885 180.209 194.602 180.298 193.162 180.404C186.555 180.878 176.57 181.588 167.673 181.588Z" fill="#724948"/>
<path d="M98.2622 194.968C86.3311 194.968 77.2296 191.801 77.1314 191.768C76.7798 191.646 76.5999 191.262 76.7225 190.919C76.8452 190.568 77.2296 190.388 77.573 190.511C77.6793 190.552 88.2447 194.217 101.476 193.556C113.628 192.944 130.604 188.437 142.429 170.437C142.633 170.127 143.042 170.045 143.353 170.241C143.664 170.445 143.746 170.853 143.549 171.163C138.185 179.327 131.357 185.49 123.236 189.482C116.743 192.674 109.433 194.495 101.5 194.887C100.405 194.944 99.3171 194.968 98.2622 194.968Z" fill="#724948"/>
<path d="M156.944 208.658C152.283 208.658 148.21 207.703 144.849 205.826C141.415 203.907 139.289 201.001 137.98 196.405C135.781 188.707 140.017 179.939 147.417 176.853C147.761 176.715 148.153 176.87 148.292 177.213C148.431 177.555 148.276 177.939 147.932 178.086C141.129 180.919 137.244 188.968 139.264 196.038C140.474 200.266 142.396 202.928 145.504 204.658C148.881 206.544 153.035 207.442 157.852 207.311C170.077 206.985 194.855 206.65 195.1 206.642C195.468 206.642 195.771 206.928 195.779 207.303C195.779 207.67 195.493 207.973 195.117 207.981C194.871 207.981 170.093 208.324 157.884 208.65C157.574 208.658 157.263 208.666 156.952 208.666L156.944 208.658Z" fill="#724948"/>
<path d="M137.98 193.14C137.735 193.14 137.506 193.009 137.383 192.78C135.061 188.29 127.897 186.805 127.824 186.788C127.464 186.715 127.227 186.364 127.301 186.005C127.374 185.646 127.726 185.409 128.086 185.482C128.404 185.548 135.944 187.107 138.569 192.168C138.741 192.495 138.61 192.895 138.283 193.066C138.185 193.115 138.078 193.14 137.98 193.14Z" fill="#724948"/>
<path d="M162.309 230.267C162.309 230.267 164.533 234.716 164.427 241.492C164.427 241.492 178.68 239.377 184.69 233.263L162.309 230.259V230.267Z" fill="#CF996C"/>
<path d="M185.467 234.047C185.467 234.047 185.41 234.047 185.385 234.047L165.792 231.598C163.453 231.32 161.335 230.953 159.324 230.471C154.638 229.345 148.088 227.263 145.242 222.193C142.601 217.475 143.026 210.201 148.333 206.675C148.636 206.47 149.053 206.552 149.257 206.862C149.462 207.173 149.38 207.581 149.069 207.785C144.4 210.895 144.048 217.344 146.403 221.548C148.341 225.01 152.667 227.508 159.626 229.181C161.589 229.655 163.658 230.014 165.947 230.283L185.549 232.732C185.917 232.781 186.179 233.108 186.13 233.475C186.089 233.81 185.803 234.063 185.467 234.063V234.047Z" fill="#724948"/>
<path d="M182.908 236.716C182.834 236.716 182.769 236.708 182.695 236.684C179.539 235.63 177.47 233.132 177.38 233.026C177.143 232.741 177.192 232.324 177.47 232.087C177.756 231.851 178.173 231.9 178.41 232.177C178.41 232.177 180.34 234.488 183.112 235.41C183.464 235.524 183.652 235.908 183.537 236.251C183.447 236.528 183.186 236.708 182.908 236.708V236.716Z" fill="#724948"/>
<path d="M164.091 242.937C164.091 242.937 164.018 242.937 163.985 242.929C163.617 242.871 163.372 242.529 163.429 242.161C164.173 237.484 162.243 231.189 162.227 231.124C162.121 230.773 162.317 230.398 162.668 230.292C163.02 230.185 163.396 230.381 163.503 230.732C163.584 231.002 165.547 237.386 164.746 242.373C164.696 242.7 164.41 242.937 164.083 242.937H164.091Z" fill="#724948"/>
<path d="M195.795 124.983C195.436 124.983 195.133 124.697 195.125 124.33C195.117 123.962 195.411 123.652 195.779 123.644L203.769 123.448C204.137 123.432 204.447 123.734 204.455 124.101C204.464 124.468 204.169 124.779 203.801 124.787L195.812 124.983H195.795Z" fill="#724948"/>
<path d="M157.525 120.615L133.139 120.281C133.139 120.281 144.694 134.558 146.518 140.844C146.518 140.844 145.169 129.783 155.685 128.452L157.631 128.232L157.517 120.615H157.525Z" fill="#CF996C"/>
<path d="M146.338 141.122C146.076 141.122 145.823 140.967 145.716 140.706C142.854 133.775 137.596 125.864 131.291 119.007C131.038 118.738 131.062 118.313 131.332 118.068C131.602 117.815 132.027 117.84 132.273 118.109C138.684 125.072 144.032 133.13 146.951 140.199C147.09 140.542 146.927 140.926 146.591 141.073C146.51 141.106 146.42 141.122 146.338 141.122Z" fill="#724948"/>
<path d="M189.507 159.375C189.229 159.375 188.951 159.375 188.665 159.359C183.824 159.13 178.958 157.318 174.959 154.249C171.091 151.277 167.967 147.351 165.105 143.587C161.875 139.35 158.866 135.13 157.443 130.166C155.815 124.485 156.879 118.721 160.215 115.138C160.469 114.868 160.886 114.852 161.155 115.105C161.425 115.358 161.442 115.774 161.188 116.044C157.582 119.921 157.549 125.693 158.727 129.799C160.084 134.542 163.02 138.64 166.168 142.779C169.096 146.624 172.032 150.314 175.777 153.187C179.555 156.094 184.159 157.816 188.73 158.028C188.984 158.037 189.229 158.045 189.474 158.045C195.763 158.045 200.007 154.281 200.391 150.624C200.857 146.183 193.097 116.419 191.461 111.505C191.347 111.154 191.535 110.778 191.887 110.664C192.238 110.55 192.614 110.737 192.729 111.088C194.111 115.227 202.231 145.873 201.724 150.771C201.266 155.106 196.613 159.392 189.507 159.392V159.375Z" fill="#724948"/>
<path d="M167.959 153.139C165.441 153.139 163.437 152.771 161.246 152.208C161.246 152.208 154.09 150.355 154.049 150.347C149.748 149.228 146.452 145.449 145.855 140.942C145.594 138.967 145.512 135.187 147.933 132.052C149.871 129.538 152.954 127.995 157.108 127.464C157.476 127.415 157.811 127.677 157.852 128.044C157.901 128.411 157.639 128.746 157.271 128.787C153.485 129.269 150.697 130.64 148.987 132.86C146.861 135.62 146.943 138.991 147.172 140.763C147.704 144.738 150.598 148.077 154.376 149.057C154.376 149.057 154.483 149.081 161.573 150.918C164.345 151.636 166.806 152.02 170.486 151.694L173.226 151.392C173.594 151.351 173.921 151.612 173.962 151.979C174.002 152.347 173.741 152.673 173.373 152.714L170.617 153.016C169.66 153.098 168.777 153.139 167.951 153.139H167.959Z" fill="#724948"/>
</svg>
