<svg width="32" height="32" viewBox="0 0 32 32" fill="none" xmlns="http://www.w3.org/2000/svg">
<rect x="0.5" y="0.5" width="31" height="31" rx="15.5" fill="#2E4C6D" stroke="#2E4C6D"/>
<g clip-path="url(#clip0_805_97)">
<path d="M16.014 8.99998C12.1416 8.99438 9.00842 12.108 9.00002 15.972C8.99162 19.864 12.1052 22.9944 15.9916 23C19.864 23.0056 22.9972 19.878 23 16.0028C23.0028 12.1388 19.878 9.00558 16.014 8.99998ZM16 21.88C12.7576 21.88 10.12 19.2452 10.12 16.0028C10.12 12.7604 12.7548 10.1256 15.9972 10.1256C19.2424 10.1256 21.8772 12.7576 21.88 16C21.88 19.2368 19.2396 21.8772 16 21.88Z" fill="white"/>
<path d="M18.9317 13.5976C18.9401 13.8104 18.8505 13.9476 18.7273 14.0708C18.1281 14.6672 17.5345 15.2692 16.9297 15.86C16.8233 15.9636 16.8037 16.0168 16.9241 16.1344C17.5289 16.7252 18.1225 17.3272 18.7217 17.9236C18.8309 18.0328 18.9233 18.1532 18.9317 18.3184C18.9485 18.5704 18.8393 18.772 18.6265 18.8784C18.4165 18.9848 18.1645 18.9484 17.9825 18.7804C17.8285 18.6348 17.6829 18.4836 17.5317 18.3324C17.0501 17.8508 16.5657 17.3692 16.0869 16.8848C16.0169 16.8148 15.9833 16.8092 15.9077 16.882C15.2861 17.5092 14.6645 18.1336 14.0373 18.7552C13.7125 19.08 13.2001 18.954 13.0797 18.5256C13.0153 18.296 13.0965 18.1056 13.2617 17.9404C13.8693 17.3384 14.4713 16.728 15.0817 16.1288C15.1881 16.0252 15.1769 15.9748 15.0761 15.8768C14.4629 15.272 13.8525 14.6644 13.2477 14.0512C12.9089 13.7096 13.0433 13.1944 13.4913 13.0796C13.7181 13.0236 13.9029 13.1104 14.0625 13.27C14.6673 13.8776 15.2749 14.4796 15.8769 15.09C15.9721 15.1852 16.0169 15.1964 16.1177 15.0928C16.7253 14.474 17.3385 13.8636 17.9545 13.2532C18.2765 12.934 18.7581 13.0348 18.9065 13.4436C18.9261 13.5024 18.9261 13.564 18.9317 13.5976Z" fill="white"/>
</g>
<defs>
<clipPath id="clip0_805_97">
<rect width="14" height="14" fill="white" transform="translate(9 9)"/>
</clipPath>
</defs>
</svg>
