<svg width="14" height="18" viewBox="0 0 14 18" fill="none" xmlns="http://www.w3.org/2000/svg">
<g clip-path="url(#clip0_1616_409)">
<path d="M3.66761 17.9993C3.36056 17.86 3.25472 17.6228 3.26998 17.2955C3.28905 16.8804 3.28094 16.4636 3.27093 16.0481C3.26759 15.9154 3.30383 15.8868 3.43637 15.8868C5.6877 15.8915 7.93903 15.891 10.1904 15.8896C10.9799 15.8891 11.6078 15.4225 11.8014 14.7004C11.8471 14.5292 11.8538 14.3543 11.8538 14.178C11.8529 10.5813 11.8538 6.98408 11.85 3.38736C11.85 3.24293 11.87 3.18853 12.0369 3.19369C12.4889 3.20823 12.9423 3.19791 13.3948 3.19885C13.779 3.19979 13.9974 3.40893 13.9974 3.78127C13.9979 8.3271 13.9969 12.8729 13.9998 17.4188C13.9998 17.7095 13.8467 17.8788 13.6045 17.9993H3.66761Z" fill="white"/>
<path d="M10.8386 3.11606C10.8386 2.28417 10.8405 1.45229 10.8377 0.620399C10.8363 0.2551 10.7256 0.107855 10.3881 0H0.450678C0.118366 0.106448 0.00775448 0.254631 0.000602863 0.603048C-0.000350685 0.643845 0.000126089 0.685111 0.000126089 0.725909C0.000126089 5.18968 0.000126089 9.65346 0.000126089 14.1172C0.000126089 14.1759 -0.000827459 14.2345 0.00250996 14.2931C0.0215809 14.641 0.25234 14.8699 0.604199 14.8905C0.675715 14.8947 0.747231 14.8928 0.818748 14.8928C3.88631 14.8928 6.9534 14.8868 10.0205 14.8985C10.5874 14.9004 10.8463 14.6598 10.8444 14.0825C10.8334 10.4272 10.8386 6.77186 10.8386 3.11606ZM2.26528 2.67245C3.29464 2.67151 4.32447 2.67151 5.35382 2.67245C5.71379 2.67245 5.95694 2.88863 5.95456 3.20281C5.95218 3.51606 5.70997 3.72614 5.34715 3.72661C4.83557 3.72755 4.32351 3.72661 3.81194 3.72661C3.29416 3.72661 2.77638 3.72755 2.25861 3.72661C1.91199 3.72567 1.67027 3.5109 1.66693 3.20469C1.66359 2.89191 1.90818 2.67245 2.26576 2.67245H2.26528ZM5.40818 10.0553C4.34831 10.0553 3.28844 10.0563 2.22905 10.0544C1.9549 10.0544 1.75704 9.90574 1.68552 9.65955C1.62497 9.44947 1.71318 9.21829 1.90484 9.09214C2.00115 9.02884 2.10747 8.99977 2.22428 8.99977C4.35594 9.0007 6.48712 8.99977 8.61877 9.00117C8.93631 9.00117 9.17088 9.23001 9.17231 9.52497C9.17374 9.82649 8.93535 10.0535 8.6059 10.0539C7.54031 10.0558 6.47424 10.0549 5.40865 10.0549L5.40818 10.0553ZM8.59017 12.1641C7.906 12.1655 7.22183 12.1655 6.53765 12.1641C6.19533 12.1632 5.95361 11.9404 5.95599 11.6328C5.95837 11.3271 6.20057 11.1114 6.54624 11.11C6.88522 11.1086 7.22469 11.11 7.56367 11.11C7.90266 11.11 8.24212 11.109 8.58111 11.11C8.92915 11.1114 9.16945 11.3247 9.17183 11.6324C9.17469 11.9404 8.93344 12.1632 8.59064 12.1641H8.59017ZM8.61305 7.94467C7.54746 7.94701 6.4814 7.9456 5.4158 7.9456C4.35021 7.9456 3.28415 7.94701 2.21856 7.94467C1.95395 7.9442 1.76085 7.79789 1.68791 7.55733C1.62259 7.34162 1.71365 7.10152 1.91199 6.97679C2.00925 6.91583 2.11653 6.89003 2.23334 6.89003C4.3588 6.89097 6.48426 6.89004 8.60972 6.89191C8.93774 6.89191 9.17565 7.12356 9.17136 7.42556C9.16706 7.72005 8.93201 7.9442 8.61305 7.94467ZM9.12606 5.517C9.02213 5.74256 8.83094 5.83775 8.58016 5.83728C7.52029 5.83494 6.46042 5.83634 5.40102 5.83634C4.34735 5.83634 3.29321 5.83775 2.23953 5.8354C1.81473 5.83447 1.54392 5.45088 1.71556 5.09261C1.8195 4.87503 2.00448 4.7803 2.24859 4.78077C3.42766 4.78265 4.60624 4.78171 5.7853 4.78171C6.72598 4.78171 7.66666 4.77984 8.60733 4.78265C9.02022 4.78406 9.28912 5.16389 9.12654 5.517H9.12606Z" fill="white"/>
</g>
<defs>
<clipPath id="clip0_1616_409">
<rect width="14" height="18" fill="white"/>
</clipPath>
</defs>
</svg>
