<svg width="36" height="36" viewBox="0 0 36 36" fill="none" xmlns="http://www.w3.org/2000/svg">
<g clip-path="url(#clip0_1690_416)">
<path d="M23.7064 34.3262C32.8929 31.0007 37.6442 20.8577 34.3187 11.6711C30.9933 2.48461 20.8503 -2.26672 11.6637 1.05876C2.47719 4.38424 -2.27414 14.5272 1.05134 23.7138C4.37682 32.9003 14.5198 37.6516 23.7064 34.3262Z" fill="#F48462"/>
<path fill-rule="evenodd" clip-rule="evenodd" d="M24.9778 24.6409C25.2018 24.8659 25.4259 25.0909 25.65 25.3159C26.0345 25.7026 26.1058 26.1565 25.8468 26.5598C25.6943 26.7974 25.4568 26.9156 25.1947 27.0005H24.8305C24.5131 26.9055 24.2892 26.6899 24.0665 26.4647C23.4187 25.8116 22.7697 25.1599 22.1206 24.5081C21.4031 23.7876 20.6857 23.0671 19.9699 22.3448C19.8733 22.2473 19.8155 22.2307 19.6918 22.3103C18.0665 23.3528 16.2787 23.7222 14.3562 23.4431C12.9074 23.2328 11.634 22.6346 10.5408 21.6919C9.20457 20.5396 8.3802 19.1057 8.09783 17.3991C7.86221 15.9783 8.05169 14.6014 8.67181 13.2868C9.25132 12.0602 10.1138 11.0587 11.2605 10.2925C12.2516 9.63076 13.3454 9.21437 14.5457 9.06468C15.8542 8.90133 17.124 9.04389 18.3408 9.53216C20.1058 10.239 21.4248 11.4193 22.2799 13.0742C23.0169 14.5004 23.2175 16.0038 22.9314 17.5642C22.7136 18.7528 22.211 19.8274 21.4217 20.7683C21.3042 20.9091 21.3221 20.9791 21.4451 21.1015C22.6259 22.2785 23.8019 23.4597 24.9778 24.6409Z" fill="white"/>
</g>
<defs>
<clipPath id="clip0_1690_416">
<rect width="35.38" height="35.38" fill="white"/>
</clipPath>
</defs>
</svg>
