<svg width="50" height="50" viewBox="0 0 50 50" fill="none" xmlns="http://www.w3.org/2000/svg">
<g clip-path="url(#clip0_1187_952)">
<path d="M33.5023 48.5108C46.4849 43.8111 53.1996 29.4768 48.5 16.4941C43.8003 3.51142 29.4659 -3.20329 16.4833 1.49637C3.50061 6.19603 -3.2141 20.5304 1.48556 33.5131C6.18522 46.4957 20.5196 53.2104 33.5023 48.5108Z" fill="#F48462"/>
<g clip-path="url(#clip1_1187_952)">
<path d="M28.9865 34.3303C29.4304 33.8794 29.6802 33.289 29.6874 32.6742C29.6946 32.0594 29.4585 31.4641 29.0253 31.0041C28.7391 30.6975 28.415 30.4221 28.1154 30.1259C28.0292 30.0403 27.9684 30.0403 27.8727 30.1102C27.4909 30.3886 27.1067 30.664 26.7162 30.9289C26.574 31.0264 26.6135 31.0867 26.7162 31.1798C27.0203 31.4581 27.3199 31.7412 27.615 32.029C28.0103 32.4138 28.0103 32.8804 27.615 33.2667C27.2727 33.6009 26.9099 33.9172 26.574 34.2574C26.4372 34.3965 26.3676 34.3534 26.2514 34.2455C25.7771 33.7989 25.2839 33.3694 24.8112 32.9206C24.6665 32.7829 24.5906 32.7547 24.427 32.9132C23.7203 33.6002 22.9994 34.2752 22.2721 34.9451C22.1267 35.079 22.1203 35.1438 22.2721 35.2808C23.4062 36.3019 24.5342 37.3293 25.6562 38.3628C26.0641 38.735 26.4585 39.1242 27.0269 39.2827H27.6791C27.6917 39.2701 27.702 39.2478 27.717 39.2455C28.434 39.1116 28.8988 38.7037 29.094 38.0547C29.2893 37.4057 29.0845 36.8288 28.5668 36.357C28.3296 36.1337 28.0925 35.9104 27.8419 35.699C27.7107 35.5896 27.7241 35.5271 27.8419 35.4184C28.2292 35.0627 28.6205 34.7069 28.9865 34.3303Z" fill="white"/>
<path d="M30.3981 13.1578C30.4021 13.6788 30.7578 14.0509 31.2677 14.0614C31.7775 14.0718 32.172 13.6892 32.1775 13.1682C32.1831 12.7328 32.1562 12.2952 32.1846 11.8613C32.2194 11.3403 32.0511 10.9451 31.5317 10.7158H31.0574C30.5586 10.9257 30.3602 11.2845 30.395 11.798C30.4219 12.2483 30.3958 12.7038 30.3981 13.1578Z" fill="white"/>
<path d="M23.1264 15.5726C22.509 18.5892 21.1043 21.2522 19.0324 23.6108C18.8799 23.785 18.9328 23.8564 19.0696 23.983C21.0553 25.8457 23.0384 27.7113 25.0188 29.58C25.3176 29.8613 25.316 29.8583 25.6512 29.6038C27.6978 28.0326 29.9617 26.8499 32.5071 26.157C33.0715 26.0037 33.647 25.8935 34.2059 25.7752L23.1786 15.3984C23.1627 15.4476 23.1398 15.5093 23.1264 15.5726Z" fill="white"/>
<path d="M26.6472 11.5025C26.5919 11.4496 26.5358 11.3968 26.4757 11.3484C26.2843 11.1939 26.0603 11.0794 25.8184 11.0125C25.5765 10.9455 25.3223 10.9276 25.0726 10.96C24.8229 10.9924 24.5832 11.0742 24.3696 11.2002C24.1559 11.3262 23.9731 11.4934 23.8331 11.6908C23.3406 12.3897 23.4623 13.2396 24.1493 13.8901C28.0227 17.5386 31.8961 21.1856 35.7695 24.831C35.8577 24.9185 35.9525 24.9998 36.0532 25.0744C36.6358 25.4815 37.2698 25.5545 37.9188 25.2583C38.5678 24.962 38.8864 24.4395 38.9267 23.7935C38.9237 23.5513 38.869 23.3121 38.7659 23.0902C38.6629 22.8682 38.5135 22.668 38.3267 22.5014C34.4349 18.8381 30.5417 15.1718 26.6472 11.5025Z" fill="white"/>
<path d="M34.4834 15.6621C34.6448 15.7358 34.8271 15.7589 35.0035 15.728C35.18 15.697 35.3412 15.6137 35.4636 15.4901C36.0628 14.9394 36.6572 14.3834 37.2398 13.817C37.3254 13.7394 37.3933 13.6462 37.4394 13.5431C37.4855 13.44 37.5087 13.3291 37.5078 13.2173C37.5068 13.1054 37.4817 12.9949 37.4338 12.8925C37.386 12.7901 37.3165 12.6979 37.2296 12.6217C37.1463 12.5453 37.0478 12.4852 36.9397 12.4449C36.8316 12.4046 36.7161 12.3849 36.5999 12.3869C36.4837 12.3889 36.369 12.4126 36.2626 12.4566C36.1561 12.5006 36.06 12.564 35.9798 12.6433C35.3877 13.1873 34.8067 13.7426 34.2225 14.2948C34.1315 14.3802 34.0606 14.4826 34.0143 14.5954C33.968 14.7083 33.9474 14.829 33.9538 14.9498C33.9579 15.1044 34.0104 15.2544 34.1046 15.3811C34.1988 15.5078 34.3305 15.6055 34.4834 15.6621Z" fill="white"/>
<path d="M38.4001 17.4128C38.1045 17.4046 37.8081 17.4128 37.5124 17.4128C37.2168 17.4128 36.9014 17.4054 36.5954 17.4128C36.3668 17.4171 36.1489 17.5049 35.9878 17.6576C35.8267 17.8104 35.7351 18.0162 35.7322 18.2315C35.7292 18.3412 35.7494 18.4503 35.7916 18.5525C35.8339 18.6547 35.8973 18.7479 35.9783 18.8268C36.0592 18.9056 36.1561 18.9685 36.2631 19.0117C36.3702 19.055 36.4853 19.0777 36.6018 19.0785C37.2025 19.0904 37.8041 19.0889 38.4057 19.0785C38.6399 19.0764 38.8638 18.9876 39.0292 18.8314C39.1945 18.6752 39.288 18.464 39.2894 18.2434C39.2857 18.0231 39.1906 17.8128 39.0244 17.6576C38.8583 17.5024 38.6342 17.4145 38.4001 17.4128Z" fill="white"/>
<path d="M23.8515 30.8471C21.8373 28.9576 19.8271 27.0649 17.8208 25.169C17.7244 25.0782 17.6714 25.0722 17.5703 25.169C16.13 26.534 14.6707 27.8804 13.2463 29.2625C12.7699 29.719 12.5023 30.333 12.501 30.973C12.4997 31.613 12.7646 32.228 13.2392 32.6862C14.0984 33.5325 14.9869 34.3527 15.8762 35.1714C16.3774 35.6328 16.9972 35.8472 17.7031 35.8502C18.0438 35.855 18.382 35.7954 18.6978 35.6749C19.0136 35.5545 19.3006 35.3757 19.5417 35.149C20.9781 33.8093 22.4049 32.4562 23.8388 31.1121C23.9424 31.0131 23.9701 30.9587 23.8515 30.8471ZM19.5686 30.3886C19.1576 30.79 18.7394 31.1838 18.3141 31.5698C18.1907 31.6923 18.0288 31.7744 17.8523 31.8039C17.6757 31.8333 17.4937 31.8087 17.3331 31.7335C16.9979 31.5921 16.8264 31.3346 16.8177 31.0927C16.809 30.7414 16.9047 30.536 17.0881 30.3633C17.4928 29.983 17.8928 29.5989 18.3015 29.2231C18.6785 28.877 19.22 28.8681 19.5734 29.1933C19.9267 29.5186 19.9346 30.0314 19.5686 30.3886Z" fill="white"/>
</g>
</g>
<defs>
<clipPath id="clip0_1187_952">
<rect width="50" height="50" fill="white"/>
</clipPath>
<clipPath id="clip1_1187_952">
<rect width="26.7857" height="28.5714" fill="white" transform="translate(12.5 10.7139)"/>
</clipPath>
</defs>
</svg>
