<svg width="44" height="50" viewBox="0 0 44 50" fill="none" xmlns="http://www.w3.org/2000/svg">
<path d="M16.9915 19.4155V17.4944C16.3247 17.3888 15.6511 17.331 14.976 17.3213C8.44001 17.3074 2.65354 21.5429 0.690782 27.7772C-1.27198 34.0114 1.04483 40.7981 6.40967 44.5307C4.44238 42.4253 3.12651 39.7953 2.62093 36.9586C2.11535 34.1217 2.44165 31.1992 3.56045 28.5437C4.67925 25.8882 6.54274 23.6134 8.92595 21.9936C11.3092 20.3739 14.1102 19.4786 16.9911 19.4158L16.9915 19.4155Z" fill="#25F4EE"/>
<path d="M17.3539 41.1763C21.0082 41.1715 24.0119 38.2926 24.172 34.6418V2.06283H30.1237C30.0022 1.38206 29.9443 0.691487 29.9506 0H21.8098V32.5474C21.6744 36.2166 18.6635 39.1232 14.9917 39.1294C13.8944 39.1198 12.8151 38.85 11.8425 38.3419C12.4729 39.2153 13.3007 39.9274 14.2584 40.4197C15.2162 40.9123 16.2769 41.1715 17.3539 41.1763ZM41.2406 13.1165V11.3057C39.0503 11.3065 36.9082 10.6602 35.0838 9.44776C36.6832 11.307 38.8442 12.5948 41.2406 13.1165Z" fill="#25F4EE"/>
<path d="M35.0838 9.44772C33.2867 7.40128 32.296 4.77048 32.2969 2.04688H30.1237C30.4044 3.55274 30.989 4.98558 31.8418 6.25803C32.6946 7.53045 33.7978 8.61577 35.0838 9.44772ZM14.976 25.4616C13.4519 25.4693 11.9741 25.9863 10.7776 26.9305C9.5811 27.8746 8.73457 29.1916 8.37256 30.6721C8.01056 32.1527 8.15387 33.7117 8.77972 35.1016C9.40557 36.4912 10.4781 37.6319 11.8266 38.3419C11.0893 37.3237 10.6478 36.1218 10.5508 34.8684C10.4538 33.6153 10.7052 32.3596 11.2771 31.2402C11.849 30.1209 12.7193 29.1814 13.7917 28.5256C14.8641 27.8698 16.0969 27.5232 17.3539 27.5242C18.0373 27.5331 18.7159 27.6395 19.3692 27.8401V19.5567C18.702 19.4567 18.0285 19.4041 17.3539 19.3993H16.9916V25.6977C16.3348 25.5215 15.6558 25.442 14.976 25.4616Z" fill="#FE2C55"/>
<path d="M41.2406 13.1162V19.4148C37.1855 19.4069 33.2356 18.1233 29.9506 15.7458V32.2951C29.9332 40.5529 23.2339 47.2384 14.976 47.2384C11.9091 47.2439 8.91602 46.2976 6.40967 44.53C8.45344 46.7283 11.1118 48.2599 14.0386 48.9258C16.9653 49.5917 20.0248 49.3609 22.8184 48.263C25.612 47.1655 28.0104 45.252 29.701 42.7717C31.3916 40.2917 32.2962 37.3598 32.2969 34.3584V17.856C35.5929 20.2178 39.5477 21.4846 43.6025 21.4776V13.3676C42.8086 13.3652 42.0171 13.281 41.2406 13.1162Z" fill="#FE2C55"/>
<path d="M29.9506 32.2954V15.7461C33.2457 18.11 37.2009 19.3771 41.2564 19.3677V13.0693C38.8607 12.5634 36.6943 11.2923 35.0838 9.44772C33.7978 8.61577 32.6946 7.53045 31.8418 6.25803C30.989 4.98558 30.4044 3.55274 30.1238 2.04688H24.172V34.6421C24.1141 36.0608 23.6156 37.4265 22.7459 38.5487C21.8761 39.6713 20.6783 40.4949 19.3189 40.9054C17.9595 41.3156 16.506 41.2926 15.1605 40.8387C13.8149 40.3851 12.6441 39.5234 11.8107 38.3737C10.4619 37.6637 9.38923 36.523 8.76321 35.1334C8.13719 33.7435 7.99381 32.1843 8.35581 30.7036C8.71785 29.2229 9.56452 27.9058 10.7612 26.9616C11.9579 26.0175 13.4359 25.5005 14.9601 25.493C15.6437 25.4991 16.3228 25.6052 16.9757 25.808V19.5094C14.0793 19.5585 11.2598 20.4493 8.86102 22.0731C6.46216 23.6969 4.58759 25.9836 3.46587 28.6544C2.34417 31.3251 2.02376 34.2645 2.54373 37.1142C3.0637 39.964 4.40159 42.6007 6.39424 44.7031C8.92521 46.4125 11.9225 47.2981 14.9761 47.2386C23.2339 47.2386 29.9332 40.5531 29.9506 32.2954Z" fill="black"/>
</svg>
