<svg width="53" height="44" viewBox="0 0 53 44" fill="none" xmlns="http://www.w3.org/2000/svg">
<path d="M46.8996 10.8922C46.9311 11.353 46.9311 11.8138 46.9311 12.2789C46.9311 26.4496 36.2785 42.7925 16.7999 42.7925V42.7841C11.0458 42.7925 5.41133 41.1234 0.567383 37.9763C1.40406 38.0783 2.24494 38.1292 3.08792 38.1313C7.85638 38.1355 12.4885 36.5152 16.24 33.5317C11.7085 33.4445 7.73476 30.4526 6.34656 26.0843C7.93397 26.3943 9.5696 26.3306 11.1276 25.8995C6.18721 24.8887 2.63288 20.4929 2.63288 15.3878C2.63288 15.3411 2.63288 15.2965 2.63288 15.2519C4.10495 16.0822 5.75314 16.543 7.43909 16.594C2.78596 13.4447 1.35164 7.17596 4.16157 2.27473C9.53814 8.97463 17.4709 13.0476 25.9866 13.4787C25.1331 9.75398 26.2991 5.85085 29.0502 3.23246C33.3156 -0.827813 40.0237 -0.619704 44.0329 3.69753C46.4047 3.22397 48.6778 2.34269 50.7579 1.09402C49.9674 3.5765 48.3128 5.68521 46.1026 7.02518C48.2016 6.77458 50.2526 6.20548 52.1838 5.33693C50.7621 7.49449 48.9714 9.37384 46.8996 10.8922Z" fill="#1D9BF0"/>
</svg>
