<?xml version="1.0" encoding="UTF-8"?><svg id="Layer_1" xmlns="http://www.w3.org/2000/svg" viewBox="0 0 52 52"><defs><style>.cls-1{fill:#2a4b6e;}</style></defs><path class="cls-1" d="M45.77,4.23c0,.67-.21,1.45,.12,1.84,.38,.45,1.3,.11,1.99,.15,.47,.02,.94,0,1.41,0,1.28,.03,2.22,.91,2.24,2.1,.02,1.22-.92,2.16-2.23,2.2-.92,.03-1.84,.04-2.76,0-.58-.03-.83,.1-.79,.75,.06,.91,.03,1.84,.01,2.76-.02,1.3-.9,2.21-2.11,2.22-1.23,.01-2.16-.91-2.19-2.22-.02-.99-.03-1.97,0-2.96,.02-.45-.14-.56-.56-.55-1.01,.03-2.02,.03-3.03,0-1.11-.04-1.98-.81-2.12-1.8-.15-1.09,.42-2.04,1.42-2.39,.3-.11,.62-.11,.93-.11,.94,0,1.88-.02,2.83,0,.4,.01,.55-.1,.54-.52-.03-1.03-.04-2.06,0-3.09,.05-1.27,1-2.17,2.2-2.15,1.19,.02,2.07,.96,2.1,2.24,0,.47,0,.94,0,1.41,.02,0-.02,.11,0,.11Z"/><path class="cls-1" d="M13.53,9.9c-2.93-.03-5.28,2.27-5.29,5.2-.02,2.92,2.31,5.28,5.22,5.3,2.87,.02,5.28-2.39,5.28-5.27,0-2.87-2.32-5.2-5.2-5.23Zm-.06,7.24c-1.1,0-1.98-.9-1.98-2.01,0-1.11,.89-1.98,2.01-1.97,1.09,.01,1.97,.89,1.97,1.98,0,1.09-.91,2-2,2Z"/><path class="cls-1" d="M50.72,21.51c0-.24,0-.49-.06-.72-.24-.95-1.15-1.59-2.08-1.46-1.03,.14-1.72,.91-1.72,1.99,0,3.56,.02,2.55,.01,6.12,0,.19,0,2.14,0,2.46,0,.19,0,.29,0,.29-1.49-1.92-3-3.46-5.09-6.34-2.1-3.34-4.77-3.44-6.99-1.04-.94,1.02-5.26,7.17-6.16,8.23-.31,.37-2.41,3.95-2.75,3.65-3.34-3.06-5.08-5.46-8.43-8.5-2.92-2.65-6.46-2.82-9.61-.46-1.14,.85-2.28,1.71-3.5,2.62,0-4.11,0-11.35,0-15.35,0-.4,.08-.8,.17-1.19,.88-3.97,4.21-6.64,8.29-6.65,5.9,0,11.8,0,17.69,0,.5,0,.96-.07,1.37-.37,.68-.49,.97-1.34,.73-2.14-.25-.82-.99-1.36-1.93-1.36-6.1,0-12.2,0-18.3,0-.54,0-1.09,.05-1.62,.15C4.68,2.49,.48,7.5,.47,13.68c0,8.48,0,16.95,0,25.43,0,.73,.04,1.45,.16,2.16,1.09,6.08,6.08,10.25,12.26,10.26,8.48,0,16.95,0,25.43,0,.71,0,1.41-.04,2.1-.16,6.04-1.04,10.28-6.05,10.29-12.17,.01-5.9,0-11.8,0-17.7Zm-3.86,16.36c.04,1.74-.02,3.46-.84,5.06-1.55,2.99-4.01,4.67-7.37,4.71-6.24,.08-12.24,.09-18.48,.09-.07,0-.9,0-1.09,0,0,0,0,0,0,0-1.3,.04-4.63-.06-4.84-.05-2.25,.1-4.42-.14-6.32-1.51-2.3-1.66-3.51-3.92-3.59-6.76-.04-1.45,0-2.9,0-4.35,0-.48,0-.64,0-.69,0-.06,0-.23-.01-.67,0-.39,.12-.61,.43-.84,1.86-1.37,3.7-2.77,5.55-4.16,1.44-1.08,3.01-1.04,4.34,.16,3.46,3.13,4.97,5.32,8.44,8.44,.13,.11,.88,.73,1.73,1.46h0s0,0,0,0c0,0,0,0,.01,0,.11,.1,1.03,.81,1.88,0,3.01-4.29,6.04-8.63,8.55-11.47,.66-.93,1.97-2.79,2.66-2.79,.86,0,1.57,1.33,2.12,2.06,1.46,1.78,5.68,7.64,6.82,9.31,0,0-.01,1.74,0,2Z"/></svg>