<svg width="546" height="576" viewBox="0 0 546 576" fill="none" xmlns="http://www.w3.org/2000/svg">
<g clip-path="url(#clip0_1592_182)">
<path d="M358.486 167.514C333.846 167.514 313.684 187.675 313.684 212.316C313.684 236.956 333.845 257.119 358.486 257.119C383.128 257.119 403.289 236.958 403.289 212.316C403.284 187.676 383.128 167.514 358.486 167.514ZM358.486 244.42C340.565 244.42 326.382 230.232 326.382 212.316C326.382 194.395 340.57 180.212 358.486 180.212C376.408 180.212 390.59 194.4 390.59 212.316C390.59 230.232 375.658 244.42 358.486 244.42Z" fill="#2E4C6D"/>
<path d="M490.645 361.647V130.181C490.645 105.541 470.484 85.3781 446.593 85.3781H383.874L373.421 34.6074C368.942 11.4621 345.796 -4.22057 322.651 1.00876L35.184 58.4981C23.9861 60.7377 14.2773 67.4565 7.55866 77.1648C0.839859 86.873 -1.39975 98.0714 0.839847 110.019L67.2932 438.553C71.7724 459.459 89.6945 473.646 109.856 473.646C113.59 493.058 131.507 508.739 153.163 508.739H329.376C347.297 547.567 386.871 575.193 432.417 575.193C495.136 575.193 545.912 524.422 545.912 461.698C546.646 417.651 524.251 381.062 490.647 361.651L490.645 361.647ZM92.6717 432.579L26.2184 104.046C25.4736 99.5669 26.2184 94.3378 29.2028 90.6088C32.1872 86.8744 35.9216 83.89 40.4007 83.14L327.867 25.6453C337.576 23.4057 346.534 30.1245 348.774 39.8333L357.732 85.38H334.587L331.603 71.192C330.108 65.218 327.123 59.9941 321.894 56.26C316.665 52.5258 310.697 51.7808 304.722 52.5256L71.7624 100.312C59.0697 102.552 50.8557 115.244 53.8411 127.938L100.882 360.898C101.627 366.127 105.362 371.351 109.096 374.335V447.507C100.882 446.767 94.164 440.793 92.6747 432.58L92.6717 432.579ZM109.093 130.179V337.006L66.5304 125.699C65.0356 120.47 68.77 114.502 74.744 113.752L118.051 104.793C112.082 111.512 109.092 120.471 109.092 130.179H109.093ZM321.893 85.3768H210.638L306.956 65.9648C309.94 65.22 312.185 65.9648 314.425 67.4596C316.664 68.9544 318.159 71.194 318.904 74.1784L321.893 85.3768ZM153.146 481.857C142.693 481.857 134.48 474.388 134.48 464.685V130.178C134.48 120.47 143.438 110.766 153.146 110.766H446.586C456.295 110.766 465.253 119.725 465.253 130.178V350.445C457.784 348.205 450.321 346.71 442.108 345.966V157.806C442.108 144.368 431.655 133.91 418.962 133.91L181.522 133.915C168.83 133.915 158.377 145.113 158.377 157.811V395.251C158.377 407.943 168.83 417.652 181.522 417.652H327.122C321.893 430.345 318.909 444.532 318.909 459.464C318.909 466.933 319.654 474.396 321.148 481.865L153.146 481.857ZM333.093 404.945H181.52C175.546 404.945 171.067 400.466 171.067 395.237V348.195C171.811 348.195 172.561 347.45 173.306 346.7L241.254 278.752C243.494 276.513 247.228 276.513 249.468 278.752L313.681 342.966L277.843 378.804C275.603 381.044 275.603 385.523 277.843 387.763C279.337 389.258 280.827 390.002 282.322 390.002C283.817 390.002 285.306 389.258 286.801 387.763L354.749 319.815C356.989 317.575 360.723 317.575 362.963 319.815L395.067 351.919C368.187 361.643 346.536 381.055 333.093 404.945ZM409.254 348.199L371.921 310.866C368.187 307.132 363.708 305.637 358.484 305.637C353.255 305.637 348.775 307.877 345.046 310.866L321.901 334.011L257.688 269.798C250.219 262.329 239.021 262.329 231.552 269.798L170.322 331.027V157.801C170.322 151.827 175.552 146.603 180.775 146.603H418.216C423.445 146.603 428.669 151.832 428.669 157.801V345.961C421.95 345.961 415.231 346.706 409.257 348.2L409.254 348.199ZM433.15 548.306C384.62 548.306 345.046 508.733 345.046 460.202C345.046 411.671 384.62 372.098 433.15 372.098C481.681 372.098 521.254 411.671 521.254 460.202C521.254 508.733 481.681 548.306 433.15 548.306Z" fill="#2E4C6D"/>
<path d="M478.699 441.541H451.819V414.661C451.819 410.927 448.835 407.942 445.1 407.942H421.204C417.47 407.942 414.486 410.927 414.486 414.661V441.541H387.606C383.871 441.541 380.887 444.526 380.887 448.26V472.156C380.887 475.89 383.871 478.875 387.606 478.875H414.486V505.011C414.486 508.745 417.47 511.73 421.204 511.73H445.1C448.835 511.73 451.819 508.745 451.819 505.011V478.875H478.699C482.434 478.875 485.418 475.89 485.418 472.156V448.26C484.673 444.531 481.684 441.541 478.699 441.541ZM471.975 465.437H445.095C441.361 465.437 438.376 468.422 438.376 472.156V498.292H427.178V472.156C427.178 468.422 424.194 465.437 420.46 465.437H393.58V454.239H420.46C424.194 454.239 427.178 451.255 427.178 447.521V421.381H438.376V448.261C438.376 451.995 441.361 454.979 445.095 454.979H471.975V465.437Z" fill="#2E4C6D"/>
</g>
<defs>
<clipPath id="clip0_1592_182">
<rect width="546" height="576" fill="white"/>
</clipPath>
</defs>
</svg>
