<svg width="25" height="23" viewBox="0 0 25 23" fill="none" xmlns="http://www.w3.org/2000/svg">
<g clip-path="url(#clip0_1043_806)">
<path d="M24.9176 5.95437C24.7204 4.905 24.3418 3.93611 23.7721 3.04389C23.0504 1.91404 22.0912 1.07758 20.8945 0.547825C19.8425 0.0827051 18.741 -0.0738135 17.5998 0.0681305C16.0105 0.265838 14.7375 1.05794 13.6769 2.26763C13.2641 2.73845 12.9173 3.2568 12.6084 3.8043C12.529 3.94498 12.4686 3.94751 12.3935 3.8043C12.2768 3.58125 12.1382 3.37276 12.0015 3.16302C11.3011 2.08703 10.4243 1.19228 9.28807 0.642877C7.39895 -0.270254 5.50372 -0.200549 3.6488 0.784187C2.02772 1.64409 1.00806 3.03945 0.387715 4.78207C0.163634 5.41068 0.0543412 6.0621 0 6.72683V8.29391C0 8.37185 0.00671633 8.44916 0.0207596 8.52584C0.0573941 8.72798 0.119673 8.99793 0.167908 9.21972C0.486018 10.686 1.15399 11.975 2.01612 13.1644C2.89962 14.3836 3.93088 15.4621 5.01099 16.4905C7.28233 18.6539 9.66296 20.6887 11.9905 22.7855C12.3281 23.0897 12.7 23.0656 13.0657 22.7367C15.1746 20.8414 17.319 18.9891 19.3943 17.0539C20.8902 15.6585 22.3397 14.215 23.4589 12.4604C24.1971 11.3033 24.5842 10.0308 24.9157 8.67032C24.9341 8.59554 24.9469 8.53471 24.9603 8.46817C24.9817 8.36235 24.9884 8.3351 24.9884 8.29645L24.9988 8.14563V6.77752C24.9884 6.48159 24.9683 6.22749 24.917 5.95437H24.9176ZM22.5339 11.1252C21.6479 12.684 20.4476 13.9679 19.1837 15.1909C17.0644 17.2415 14.8205 19.1438 12.634 21.1151C12.54 21.2 12.4844 21.2248 12.3764 21.1265C10.1661 19.1324 7.89779 17.2079 5.75467 15.1338C4.70631 14.1193 3.71291 13.049 2.89168 11.8216C1.95506 10.4218 1.37685 8.89908 1.47881 7.1628C1.57162 5.57543 2.09305 4.16803 3.20369 3.03945C4.90964 1.30571 7.79216 1.00281 9.76005 2.88293C10.6729 3.75551 11.2682 4.83403 11.7151 6.01584C11.7652 6.14891 11.8073 6.28705 11.8726 6.41189C12.01 6.67043 12.2329 6.79463 12.515 6.78829C12.7873 6.78259 13.0095 6.66029 13.1268 6.40302C13.2721 6.08428 13.3795 5.74652 13.5218 5.42588C14.031 4.27639 14.6904 3.24603 15.7016 2.49892C16.8568 1.64472 18.1371 1.38998 19.4999 1.74611C21.6882 2.31769 22.8685 3.89555 23.3808 6.09378C23.4882 6.55383 23.5279 7.02592 23.531 7.49928C23.5352 8.80783 23.1677 10.0067 22.5327 11.1239L22.5339 11.1252Z" fill="black"/>
</g>
<defs>
<clipPath id="clip0_1043_806">
<rect width="25" height="23" fill="white"/>
</clipPath>
</defs>
</svg>
