<svg width="103" height="93" viewBox="0 0 103 93" fill="none" xmlns="http://www.w3.org/2000/svg">
<path fill-rule="evenodd" clip-rule="evenodd" d="M97.1018 12.3095C99.4053 15.9172 100.936 19.835 101.733 24.0781H101.731C101.938 25.1825 102.02 26.21 102.062 27.4065L102.154 31.6889L102.02 33.5483C102.02 33.6845 101.999 33.7855 101.937 34.0916L101.906 34.2428C101.852 34.5118 101.8 34.7578 101.726 35.0601C100.385 40.5613 98.8202 45.7065 95.8353 50.3852C91.3099 57.4802 85.4487 63.3171 79.4 68.9593C73.8671 74.1187 68.213 79.1321 62.5585 84.1459C59.6369 86.7365 56.7152 89.3271 53.8101 91.9379C52.3312 93.2678 50.8277 93.3651 49.4624 92.1353C46.3921 89.3692 43.299 86.6299 40.2057 83.8906C33.8173 78.233 27.4287 72.5753 21.2407 66.6814C16.8732 62.5228 12.7033 58.1618 9.13086 53.2319C5.64484 48.4225 2.94385 43.2108 1.65759 37.2816C1.46252 36.3848 1.21069 35.2933 1.06256 34.476C1.0058 34.1659 0.978638 33.8533 0.978638 33.5381V27.2015C1.19836 24.5137 1.64032 21.8796 2.54639 19.3379C5.05475 12.2916 9.1778 6.64942 15.7326 3.17237C23.2331 -0.80944 30.8965 -1.0913 38.5352 2.60096C43.1298 4.82252 46.675 8.44044 49.5068 12.7913L49.6349 12.9876C50.1459 13.7698 50.6567 14.5519 51.0919 15.3843C51.3955 15.9634 51.64 15.9531 51.9609 15.3843C53.2101 13.1704 54.6125 11.0745 56.2814 9.17066C60.5699 4.2793 65.7175 1.07642 72.144 0.276986C76.7583 -0.296989 81.2122 0.335945 85.466 2.21668C90.305 4.35865 94.1836 7.74097 97.1018 12.3095Z" fill="#DB0C0C"/>
</svg>
