<svg width="25" height="23" viewBox="0 0 25 23" fill="none" xmlns="http://www.w3.org/2000/svg">
<g clip-path="url(#clip0_1047_843)">
<path d="M24.9176 5.95437C24.7204 4.905 24.3418 3.93611 23.7721 3.04389C23.0504 1.91404 22.0912 1.07758 20.8945 0.547825C19.8425 0.0827051 18.741 -0.0738135 17.5998 0.0681305C16.0105 0.265838 14.7375 1.05794 13.6769 2.26763C13.2641 2.73845 12.9173 3.2568 12.6084 3.8043C12.529 3.94498 12.4686 3.94751 12.3935 3.8043C12.2768 3.58125 12.1382 3.37276 12.0015 3.16302C11.3011 2.08703 10.4243 1.19228 9.28807 0.642877C7.39895 -0.270254 5.50372 -0.200549 3.6488 0.784187C2.02772 1.64409 1.00806 3.03945 0.387715 4.78207C0.163634 5.41068 0.0543412 6.0621 0 6.72683V8.29391C0 8.37185 0.00671633 8.44916 0.0207596 8.52584C0.0573941 8.72798 0.119673 8.99793 0.167908 9.21972C0.486018 10.686 1.15399 11.975 2.01612 13.1644C2.89962 14.3836 3.93088 15.4621 5.01099 16.4905C7.28233 18.6539 9.66296 20.6887 11.9905 22.7855C12.3281 23.0897 12.7 23.0656 13.0657 22.7367C15.1746 20.8414 17.319 18.9891 19.3943 17.0539C20.8902 15.6585 22.3397 14.215 23.4589 12.4604C24.1971 11.3033 24.5842 10.0308 24.9157 8.67032C24.9341 8.59554 24.9469 8.53471 24.9603 8.46817C24.9817 8.36235 24.9884 8.3351 24.9884 8.29645L24.9988 8.14563V6.77752C24.9884 6.48159 24.9683 6.22749 24.917 5.95437H24.9176ZM22.5339 11.1252C21.6479 12.684 20.4476 13.9679 19.1837 15.1909C17.0644 17.2415 14.8205 19.1438 12.634 21.1151C12.54 21.2 12.4844 21.2248 12.3764 21.1265C10.1661 19.1324 7.89779 17.2079 5.75467 15.1338C4.70631 14.1193 3.71291 13.049 2.89168 11.8216C1.95506 10.4218 1.37685 8.89908 1.47881 7.1628C1.57162 5.57543 2.09305 4.16803 3.20369 3.03945C4.90964 1.30571 7.79216 1.00281 9.76005 2.88293C10.6729 3.75551 11.2682 4.83403 11.7151 6.01584C11.7652 6.14891 11.8073 6.28705 11.8726 6.41189C12.01 6.67043 12.2329 6.79463 12.515 6.78829C12.7873 6.78259 13.0095 6.66029 13.1268 6.40302C13.2721 6.08428 13.3795 5.74652 13.5218 5.42588C14.031 4.27639 14.6904 3.24603 15.7016 2.49892C16.8568 1.64472 18.1371 1.38998 19.4999 1.74611C21.6882 2.31769 22.8685 3.89555 23.3808 6.09378C23.4882 6.55383 23.5279 7.02592 23.531 7.49928C23.5352 8.80783 23.1677 10.0067 22.5327 11.1239L22.5339 11.1252Z" fill="#DB0C0C"/>
<g clip-path="url(#clip1_1047_843)">
<path d="M24.9176 5.95456C24.7204 4.90518 24.3418 3.93629 23.7721 3.04407C23.0504 1.91422 22.0912 1.07776 20.8945 0.548008C19.8425 0.0828882 18.741 -0.0736304 17.5998 0.0683136C16.0105 0.266021 14.7375 1.05812 13.6769 2.26781C13.2641 2.73864 12.9173 3.25698 12.6084 3.80448C12.529 3.94516 12.4686 3.94769 12.3935 3.80448C12.2768 3.58143 12.1382 3.37295 12.0015 3.1632C11.3011 2.08721 10.4243 1.19246 9.28807 0.64306C7.39895 -0.270071 5.50372 -0.200366 3.6488 0.78437C2.02772 1.64427 1.00806 3.03963 0.387715 4.78225C0.163634 5.41086 0.0543412 6.06228 0 6.72701V8.2941C0 8.37204 0.00671633 8.44935 0.0207596 8.52602C0.0573941 8.72817 0.119673 8.99811 0.167908 9.2199C0.486018 10.6862 1.15399 11.9751 2.01612 13.1645C2.89962 14.3837 3.93088 15.4623 5.01099 16.4907C7.28233 18.6541 9.66296 20.6889 11.9905 22.7857C12.3281 23.0899 12.7 23.0658 13.0657 22.7369C15.1746 20.8416 17.319 18.9893 19.3943 17.0541C20.8902 15.6587 22.3397 14.2152 23.4589 12.4605C24.1971 11.3034 24.5842 10.031 24.9157 8.6705C24.9341 8.59573 24.9469 8.53489 24.9603 8.46836C24.9817 8.36253 24.9884 8.33528 24.9884 8.29663L24.9988 8.14581V6.7777C24.9884 6.48178 24.9683 6.22767 24.917 5.95456H24.9176Z" fill="#DB0C0C"/>
<path d="M22.5345 11.1255C21.6485 12.6843 20.4481 13.9682 19.1842 15.1911C17.0649 17.2417 14.8211 19.144 12.6346 21.1154C12.5406 21.2003 12.485 21.225 12.3769 21.1268C10.1666 19.1326 7.89835 17.2081 5.75524 15.1341C4.70688 14.1196 3.71347 13.0493 2.89225 11.8219C1.95563 10.4221 1.37741 8.89935 1.47938 7.16308C1.57218 5.57571 2.09362 4.16831 3.20425 3.03973C4.9102 1.30598 7.79272 1.00309 9.76061 2.88321C10.6734 3.75579 11.2687 4.83431 11.7157 6.01612C11.7657 6.14919 11.8079 6.28733 11.8732 6.41217C12.0106 6.67071 12.2334 6.79491 12.5155 6.78857C12.7878 6.78287 13.0101 6.66057 13.1273 6.4033C13.2726 6.08455 13.3801 5.7468 13.5224 5.42616C14.0316 4.27667 14.691 3.24631 15.7021 2.4992C16.8573 1.645 18.1377 1.39026 19.5005 1.74639C21.6888 2.31797 22.869 3.89583 23.3813 6.09406C23.4888 6.55411 23.5285 7.0262 23.5315 7.49956C23.5358 8.8081 23.1682 10.007 22.5332 11.1242L22.5345 11.1255Z" fill="#DB0C0C"/>
</g>
</g>
<defs>
<clipPath id="clip0_1047_843">
<rect width="25" height="23" fill="white"/>
</clipPath>
<clipPath id="clip1_1047_843">
<rect width="25" height="23" fill="white"/>
</clipPath>
</defs>
</svg>
