<svg width="36" height="36" viewBox="0 0 36 36" fill="none" xmlns="http://www.w3.org/2000/svg">
<g clip-path="url(#clip0_70_2)">
<path d="M23.7064 34.3261C32.8929 31.0006 37.6442 20.8576 34.3187 11.6711C30.9933 2.48452 20.8503 -2.26681 11.6637 1.05867C2.47719 4.38415 -2.27414 14.5271 1.05134 23.7137C4.37682 32.9002 14.5198 37.6515 23.7064 34.3261Z" fill="#2E4C6D"/>
<path d="M21.6341 12.3985C21.6341 14.5746 19.865 16.3436 17.6889 16.3436C15.5128 16.3436 13.7438 14.5746 13.7438 12.3985C13.7438 10.2224 15.5128 8.45334 17.6889 8.45334C19.865 8.45334 21.6341 10.2224 21.6341 12.3985Z" fill="white"/>
<path d="M17.6889 17.69C13.6499 17.69 10.3701 20.9698 10.3701 25.0089C10.3701 26.0656 11.2311 26.9267 12.2878 26.9267H23.0822C24.139 26.9267 25 26.0656 25 25.0089C25 20.9698 21.7202 17.69 17.6811 17.69H17.6889Z" fill="white"/>
</g>
<defs>
<clipPath id="clip0_70_2">
<rect width="35.38" height="35.38" fill="white"/>
</clipPath>
</defs>
</svg>
