<svg width="21" height="21" viewBox="0 0 21 21" fill="none" xmlns="http://www.w3.org/2000/svg">
<rect x="4" y="6" width="12" height="8" fill="white"/>
<path d="M20.0017 10.0008C20.0017 8.5875 19.285 7.34167 18.195 6.60667C18.4458 5.31667 18.0717 3.92917 17.0725 2.92917C16.0733 1.93 14.6858 1.55583 13.395 1.80667C12.66 0.716667 11.4142 0 10.0008 0C8.5875 0 7.34167 0.716667 6.60667 1.80667C5.31667 1.55583 3.92833 1.93 2.92917 2.92917C1.93 3.92833 1.55583 5.31583 1.80667 6.60667C0.716667 7.34167 0 8.5875 0 10.0008C0 11.4142 0.716667 12.66 1.80667 13.395C1.55583 14.685 1.93 16.0733 2.92917 17.0725C3.92833 18.0717 5.31583 18.4458 6.60667 18.195C7.34167 19.285 8.5875 20.0017 10.0008 20.0017C11.4142 20.0017 12.66 19.285 13.395 18.195C14.685 18.4458 16.0733 18.0717 17.0725 17.0725C18.0717 16.0733 18.4458 14.6858 18.195 13.395C19.285 12.66 20.0017 11.4142 20.0017 10.0008ZM9.92583 12.85C9.60333 13.1725 9.17917 13.3333 8.75333 13.3333C8.3275 13.3333 7.89917 13.1708 7.57333 12.8458L5.255 10.5992L6.41583 9.40167L8.74333 11.6575L13.5842 6.90667L14.7542 8.09417L9.92583 12.85Z" fill="#2F99FB"/>
</svg>
