<svg width="26" height="20" viewBox="0 0 26 20" fill="none" xmlns="http://www.w3.org/2000/svg">
<path d="M0.194057 9.11275C1.14522 7.03275 4.87514 0.25 13.0001 0.25C21.1251 0.25 24.8551 7.03275 25.8062 9.11275C25.9339 9.39149 26 9.69449 26 10.0011C26 10.3077 25.9339 10.6107 25.8062 10.8894C24.8551 12.9673 21.1251 19.75 13.0001 19.75C4.87514 19.75 1.14522 12.9673 0.194057 10.8873C0.0666275 10.6088 0.000665665 10.3062 0.000665665 10C0.000665665 9.69379 0.0666275 9.39118 0.194057 9.11275ZM13.0001 17.5833C19.8327 17.5833 23.021 11.7702 23.8335 10.0119C23.021 8.22983 19.8327 2.41667 13.0001 2.41667C6.18381 2.41667 2.99447 8.20492 2.16681 10C2.99447 11.7951 6.18381 17.5833 13.0001 17.5833Z" fill="black"/>
<path d="M13.0003 4.58331C14.0716 4.58331 15.1189 4.90099 16.0097 5.49619C16.9004 6.09138 17.5947 6.93735 18.0047 7.92711C18.4146 8.91688 18.5219 10.006 18.3129 11.0567C18.1039 12.1075 17.588 13.0726 16.8305 13.8301C16.073 14.5877 15.1078 15.1036 14.0571 15.3126C13.0063 15.5216 11.9172 15.4143 10.9275 15.0043C9.93769 14.5944 9.09172 13.9001 8.49653 13.0093C7.90134 12.1186 7.58366 11.0713 7.58366 9.99998C7.58538 8.56392 8.15661 7.18717 9.17206 6.17172C10.1875 5.15627 11.5643 4.58503 13.0003 4.58331ZM13.0003 13.25C13.6431 13.25 14.2715 13.0594 14.8059 12.7023C15.3404 12.3451 15.7569 11.8376 16.0029 11.2437C16.2489 10.6498 16.3133 9.99638 16.1879 9.36594C16.0625 8.7355 15.7529 8.1564 15.2984 7.70188C14.8439 7.24736 14.2648 6.93783 13.6344 6.81243C13.0039 6.68703 12.3505 6.75139 11.7566 6.99737C11.1627 7.24336 10.6552 7.65992 10.298 8.19438C9.94093 8.72884 9.75032 9.35719 9.75032 9.99998C9.75032 10.8619 10.0927 11.6886 10.7022 12.2981C11.3117 12.9076 12.1384 13.25 13.0003 13.25Z" fill="black"/>
</svg>
